<?xml version="1.0" encoding="utf-8"?>
<!-- Generator: Adobe Illustrator 24.3.0, SVG Export Plug-In . SVG Version: 6.00 Build 0)  -->
<svg version="1.1" id="Layer_1" xmlns="http://www.w3.org/2000/svg" xmlns:xlink="http://www.w3.org/1999/xlink" x="0px" y="0px"
	 viewBox="0 0 512 512" style="enable-background:new 0 0 512 512;" xml:space="preserve">
<style type="text/css">
	.st0{fill-rule:evenodd;clip-rule:evenodd;}
</style>
<path class="st0" d="M418.55,101.776h17.071c11.042,0,20.077,9.035,20.077,20.077v56.336c0,11.042-9.035,20.077-20.077,20.077
	H418.55c-11.042,0-20.077-9.035-20.077-20.077v-56.336C398.473,110.811,407.508,101.776,418.55,101.776L418.55,101.776z
	 M409.056,66.582v20.464c3.027-0.828,6.21-1.27,9.494-1.27h17.071c3.284,0,6.467,0.442,9.494,1.27V66.582h36.912
	c7.685,0,13.973-6.288,13.973-13.973c0-7.686-6.287-13.974-13.973-13.974H372.144c-7.685,0-13.973,6.288-13.973,13.972
	c0,7.686,6.287,13.974,13.973,13.974H409.056L409.056,66.582z M66.885,66.582v20.464c3.027-0.828,6.21-1.27,9.494-1.27h17.071
	c3.284,0,6.467,0.442,9.494,1.27V66.582h36.912c7.686,0,13.973-6.288,13.973-13.974c0-7.685-6.288-13.972-13.973-13.972H29.973
	C22.288,38.636,16,44.924,16,52.608c0,7.686,6.287,13.974,13.973,13.974H66.885L66.885,66.582z M102.785,22.636
	c-1.18-8.795-8.765-15.635-17.87-15.635c-9.105,0-16.689,6.841-17.87,15.635H102.785L102.785,22.636z M409.215,22.636h35.74
	c-1.18-8.795-8.765-15.635-17.87-15.635C417.981,7.001,410.396,13.842,409.215,22.636L409.215,22.636z M76.38,101.776h17.071
	c11.042,0,20.077,9.035,20.077,20.077v56.336c0,11.042-9.035,20.077-20.077,20.077H76.38c-11.042,0-20.077-9.035-20.077-20.077
	v-56.336C56.303,110.811,65.337,101.776,76.38,101.776L76.38,101.776z M256,91.939c-32.08,0-58.083,26.003-58.083,58.083
	c0,16.04,6.501,30.561,17.011,41.071c10.51,10.51,25.032,17.012,41.072,17.012c32.079,0,58.083-26.003,58.083-58.083
	C314.083,117.942,288.08,91.939,256,91.939z M256,122.444c-15.231,0-27.577,12.345-27.577,27.577c0,4.418-3.582,8-8,8
	c-4.418,0-8-3.582-8-8c0-24.065,19.512-43.577,43.577-43.577c4.418,0,8,3.582,8,8C264,118.862,260.418,122.444,256,122.444z
	 M382.473,121.853c0-3.284,0.445-6.467,1.273-9.494h-41.869C327.373,79.334,294.383,56.265,256,56.265s-71.372,23.068-85.877,56.093
	h-41.869c0.829,3.027,1.273,6.21,1.273,9.494v56.336c0,3.284-0.445,6.467-1.273,9.494h41.869
	c14.505,33.026,47.494,56.094,85.877,56.094s71.372-23.068,85.877-56.094h41.869c-0.829-3.027-1.273-6.21-1.273-9.494V121.853z
	 M256,224.105c-40.913,0-74.083-33.169-74.083-74.083c0-40.913,33.17-74.083,74.083-74.083c40.913,0,74.083,33.17,74.083,74.083
	C330.083,190.936,296.914,224.105,256,224.105z M455.384,384.879c-0.621,0-1.234,0.031-1.839,0.088L350.317,206.172
	c-3.021,5.075-6.424,9.859-10.162,14.322l95.655,165.68l-160.576-74.806l0.002-0.138c0-7.769-4.606-14.461-11.235-17.497v-34.248
	c-2.648,0.193-5.316,0.294-8,0.294s-5.352-0.101-8-0.294v34.248c-6.63,3.036-11.236,9.729-11.236,17.497l0.002,0.138L76.19,386.175
	l95.656-165.68c-3.739-4.462-7.14-9.248-10.162-14.322L58.455,384.968c-0.606-0.057-1.219-0.088-1.839-0.088
	c-10.624,0-19.236,8.612-19.236,19.235c0,10.624,8.612,19.236,19.236,19.236c4.763,0,9.121-1.732,12.48-4.599l183.529,85.499
	c2.065,0.96,4.523,1.036,6.75,0l183.528-85.5c3.36,2.868,7.718,4.599,12.481,4.599c10.623,0,19.235-8.612,19.235-19.236
	C474.619,393.491,466.008,384.879,455.384,384.879z M386.601,380.894l-30.909,14.399l-30.908-14.399l30.909-14.4L386.601,380.894z
	 M237.063,404.115l-30.909,14.399l-30.909-14.399l30.909-14.399L237.063,404.115z M225.091,380.893L256,366.494l30.909,14.4
	L256,395.293L225.091,380.893z M256,412.937l30.909,14.399L256,441.735l-30.909-14.399L256,412.937z M274.938,404.115l30.909-14.399
	l30.908,14.399l-30.908,14.399L274.938,404.115z M336.755,357.672l-30.909,14.399l-30.909-14.399l30.909-14.399L336.755,357.672z
	 M243.52,325.866c3.359,2.868,7.717,4.599,12.48,4.599c4.763,0,9.121-1.732,12.48-4.599l18.428,8.585L256,348.85l-30.908-14.399
	L243.52,325.866z M206.154,343.273l30.908,14.399l-30.908,14.399l-30.908-14.399L206.154,343.273z M156.308,366.494l30.908,14.399
	l-30.909,14.399l-30.908-14.399L156.308,366.494z M75.85,404.253l0.002-0.138l-0.002-0.138l30.613-14.261l30.908,14.399
	l-30.909,14.399L75.85,404.253z M125.399,427.336l30.909-14.399l30.91,14.399l-30.909,14.399L125.399,427.336z M175.245,450.558
	l30.909-14.399l30.908,14.399l-30.909,14.399L175.245,450.558z M256,488.178l-30.909-14.399L256,459.38l30.909,14.399L256,488.178z
	 M305.846,464.957l-30.909-14.399l30.909-14.399l30.909,14.399L305.846,464.957z M355.692,441.736l-30.909-14.399l30.908-14.399
	l30.909,14.399L355.692,441.736z M436.15,404.253l-30.612,14.261l-30.909-14.399l30.909-14.399l30.612,14.261l-0.002,0.138
	L436.15,404.253z"/>
</svg>
