<?xml version="1.0" encoding="UTF-8"?><svg id="Layer_2" xmlns="http://www.w3.org/2000/svg" xmlns:xlink="http://www.w3.org/1999/xlink" viewBox="0 0 511.57 193.9"><defs><style>.cls-1,.cls-2,.cls-3,.cls-4,.cls-5,.cls-6,.cls-7{fill:none;}.cls-1,.cls-8{stroke-width:0px;}.cls-9{fill:#689b2f;stroke:#7fbd5e;}.cls-9,.cls-2,.cls-3,.cls-4,.cls-5,.cls-6,.cls-7{stroke-miterlimit:10;}.cls-9,.cls-2,.cls-5,.cls-6,.cls-7{stroke-width:8px;}.cls-2{stroke:url(#USGS_20_Scrub);}.cls-3{stroke-width:2px;}.cls-3,.cls-4,.cls-7{stroke:#1d1d1b;}.cls-4{stroke-width:4px;}.cls-5{stroke:url(#USGS_20_Scrub-2);}.cls-6{stroke:#e30613;}.cls-8{fill:#1d1d1b;}</style><pattern id="USGS_20_Scrub" x="0" y="0" width="72" height="72" patternTransform="translate(1707.35 1526.93) scale(1.22)" patternUnits="userSpaceOnUse" viewBox="0 0 72 72"><rect class="cls-1" x="0" width="72" height="72"/><path class="cls-8" d="m17,74.55c-.34,0-.68-.14-.92-.38-.24-.24-.38-.58-.38-.92s.14-.68.38-.92c.48-.48,1.36-.48,1.84,0,.24.24.38.58.38.92s-.14.68-.38.92c-.24.24-.57.38-.92.38Z"/><path class="cls-8" d="m27.75,74.55c-.34,0-.67-.14-.92-.38-.24-.25-.38-.58-.38-.92s.14-.67.38-.92c.49-.48,1.35-.48,1.84,0,.24.24.38.58.38.92s-.14.68-.38.92c-.24.24-.58.38-.92.38Z"/><path class="cls-8" d="m23.25,7.05c-.34,0-.67-.14-.92-.38-.24-.24-.38-.58-.38-.92s.14-.68.38-.92c.49-.48,1.36-.48,1.84,0,.24.24.38.58.38.92s-.14.67-.38.92c-.24.24-.58.38-.92.38Z"/><path class="cls-8" d="m14.5,9.05c-.34,0-.68-.14-.92-.38-.24-.24-.38-.58-.38-.92s.14-.68.38-.92c.49-.48,1.36-.48,1.84,0,.24.25.38.58.38.92s-.14.68-.38.92c-.24.24-.57.38-.92.38Z"/><path class="cls-8" d="m14.75,4.8c-.34,0-.67-.14-.92-.38-.24-.24-.38-.58-.38-.92s.14-.68.38-.92c.49-.49,1.36-.48,1.84,0,.24.25.38.58.38.92s-.14.68-.38.92c-.24.24-.58.38-.92.38Z"/><path class="cls-8" d="m17.75,8.8c-.34,0-.68-.14-.92-.38-.24-.24-.38-.58-.38-.92s.14-.68.38-.92c.49-.48,1.36-.48,1.84,0,.24.24.38.58.38.92s-.14.68-.38.92c-.24.24-.58.38-.92.38Z"/><path class="cls-8" d="m20,5.3c-.34,0-.67-.14-.92-.38-.24-.24-.38-.58-.38-.92s.14-.68.38-.92c.49-.48,1.36-.48,1.84,0,.24.24.38.58.38.92s-.14.68-.38.92c-.24.24-.58.38-.92.38Z"/><path class="cls-8" d="m29,6.3c-.34,0-.67-.14-.92-.38-.24-.24-.38-.58-.38-.92s.14-.68.38-.92c.49-.48,1.36-.48,1.84,0,.24.24.38.58.38.92s-.14.68-.38.92c-.24.24-.58.38-.92.38Z"/><path class="cls-8" d="m25,4.55c-.34,0-.67-.14-.92-.38-.24-.24-.38-.58-.38-.92s.14-.68.38-.92c.48-.48,1.36-.49,1.84,0,.24.24.38.58.38.92s-.14.68-.38.92c-.24.24-.58.38-.92.38Z"/><path class="cls-8" d="m17,2.55c-.34,0-.68-.14-.92-.38-.24-.24-.38-.58-.38-.92s.14-.68.38-.92c.48-.48,1.36-.48,1.84,0,.24.24.38.58.38.92s-.14.68-.38.92c-.24.24-.57.38-.92.38Z"/><path class="cls-8" d="m27.75,2.55c-.34,0-.67-.14-.92-.38-.24-.25-.38-.58-.38-.92s.14-.67.38-.92c.49-.48,1.35-.48,1.84,0,.24.24.38.58.38.92s-.14.68-.38.92c-.24.24-.58.38-.92.38Z"/><path class="cls-8" d="m31.75,3.55c-.34,0-.67-.14-.92-.38-.24-.24-.38-.58-.38-.92s.14-.68.38-.92c.49-.48,1.36-.48,1.84,0,.24.24.38.58.38.92s-.14.68-.38.92c-.24.24-.58.38-.92.38Z"/><path class="cls-8" d="m29,6.3c-.34,0-.67-.14-.92-.38-.24-.24-.38-.58-.38-.92s.14-.68.38-.92c.49-.48,1.36-.48,1.84,0,.24.24.38.58.38.92s-.14.68-.38.92c-.24.24-.58.38-.92.38Z"/><path class="cls-8" d="m28.25,9.05c-.34,0-.68-.14-.92-.38-.24-.24-.38-.58-.38-.92s.14-.68.38-.92c.49-.48,1.35-.49,1.84,0,.24.24.38.58.38.92s-.14.68-.38.92c-.24.24-.58.38-.92.38Z"/><path class="cls-8" d="m26.25,12.05c-.34,0-.67-.14-.92-.38-.24-.25-.38-.58-.38-.92s.14-.67.38-.92c.49-.48,1.36-.48,1.84,0,.24.25.38.58.38.92s-.14.67-.38.92c-.24.24-.58.38-.92.38Z"/><path class="cls-8" d="m22.25,10.3c-.34,0-.67-.14-.92-.38-.24-.24-.38-.58-.38-.92s.14-.68.38-.92c.49-.48,1.36-.48,1.84,0,.24.24.38.58.38.92s-.14.68-.38.92c-.24.24-.58.38-.92.38Z"/><path class="cls-8" d="m22,13.8c-.34,0-.67-.14-.92-.38-.24-.24-.38-.58-.38-.92s.14-.68.38-.92c.49-.48,1.36-.48,1.84,0,.24.24.38.58.38.92s-.14.68-.38.92c-.24.24-.58.38-.92.38Z"/><path class="cls-8" d="m17,12.8c-.34,0-.67-.14-.92-.38-.24-.24-.38-.58-.38-.92s.14-.68.38-.92c.48-.48,1.36-.48,1.84,0,.24.24.38.58.38.92s-.14.68-.38.92c-.24.24-.58.38-.92.38Z"/><path class="cls-8" d="m20.25,16.05c-.34,0-.67-.14-.92-.38-.24-.24-.38-.58-.38-.92s.14-.68.38-.92c.48-.48,1.36-.48,1.84,0,.24.24.38.58.38.92s-.14.68-.38.92c-.24.24-.58.38-.92.38Z"/><path class="cls-8" d="m22.75,19.8c-.34,0-.67-.14-.92-.38-.24-.24-.38-.58-.38-.92s.14-.68.38-.92c.48-.48,1.35-.48,1.84,0,.24.24.38.58.38.92s-.14.68-.38.92c-.24.24-.58.38-.92.38Z"/><path class="cls-8" d="m25.5,20.55c-.34,0-.68-.14-.92-.38-.24-.24-.38-.58-.38-.92s.14-.67.38-.92c.49-.48,1.36-.48,1.84,0,.24.25.38.58.38.92s-.14.68-.38.92c-.24.24-.58.38-.92.38Z"/><path class="cls-8" d="m28.5,18.8c-.34,0-.68-.14-.92-.38-.24-.24-.38-.58-.38-.92s.14-.68.38-.92c.48-.48,1.36-.48,1.84,0,.24.24.38.58.38.92s-.14.68-.38.92c-.24.24-.57.38-.92.38Z"/><path class="cls-8" d="m28,15.55c-.34,0-.68-.14-.92-.38-.24-.24-.38-.58-.38-.92s.14-.68.38-.92c.49-.48,1.36-.48,1.84,0,.24.24.38.58.38.92s-.14.68-.38.92c-.24.24-.58.38-.92.38Z"/><path class="cls-8" d="m30,13.3c-.34,0-.68-.14-.92-.38-.24-.24-.38-.58-.38-.92s.14-.68.38-.92c.49-.48,1.36-.48,1.84,0,.24.25.38.58.38.92s-.14.67-.38.92c-.24.24-.57.38-.92.38Z"/><path class="cls-8" d="m34.25,13.3c-.34,0-.68-.14-.92-.38-.24-.24-.38-.58-.38-.92s.14-.68.38-.92c.49-.48,1.36-.48,1.84,0,.24.24.38.58.38.92s-.14.68-.38.92c-.24.24-.58.38-.92.38Z"/><path class="cls-8" d="m32.5,18.05c-.34,0-.67-.14-.92-.38-.24-.24-.38-.58-.38-.92s.14-.68.38-.92c.5-.49,1.36-.48,1.84,0,.24.24.38.58.38.92s-.14.68-.38.92c-.24.24-.58.38-.92.38Z"/><path class="cls-8" d="m34.75,21.55c-.34,0-.68-.14-.92-.38-.24-.24-.38-.58-.38-.92s.14-.68.38-.92c.49-.48,1.36-.48,1.84,0,.24.25.38.58.38.92s-.14.68-.38.92c-.24.24-.58.38-.92.38Z"/><path class="cls-8" d="m31.25,21.8c-.34,0-.68-.14-.92-.38-.24-.24-.38-.58-.38-.92s.14-.68.38-.92c.49-.48,1.36-.48,1.84,0,.24.24.38.58.38.92s-.14.68-.38.92c-.24.24-.57.38-.92.38Z"/><path class="cls-8" d="m27.75,22.55c-.34,0-.67-.14-.92-.38-.24-.24-.38-.58-.38-.92s.14-.67.38-.92c.49-.48,1.36-.48,1.84,0,.24.24.38.58.38.92s-.14.68-.38.92c-.24.24-.58.38-.92.38Z"/><path class="cls-8" d="m37.25,17.05c-.34,0-.68-.14-.92-.38-.24-.24-.38-.58-.38-.92s.14-.68.38-.92c.49-.48,1.36-.48,1.84,0,.25.25.38.58.38.92s-.13.67-.38.92c-.24.24-.58.38-.92.38Z"/><path class="cls-8" d="m32,9.8c-.34,0-.68-.14-.92-.38-.24-.24-.38-.58-.38-.92s.14-.68.38-.92c.49-.48,1.36-.48,1.84,0,.24.24.38.58.38.92s-.14.68-.38.92c-.24.24-.57.38-.92.38Z"/><path class="cls-8" d="m34,6.8c-.34,0-.68-.14-.92-.38-.24-.24-.38-.58-.38-.92s.14-.68.38-.92c.48-.48,1.36-.48,1.84,0,.24.24.38.58.38.92s-.14.68-.38.92c-.24.24-.57.38-.92.38Z"/><path class="cls-8" d="m36.75,3.3c-.34,0-.68-.14-.92-.38-.24-.24-.38-.58-.38-.92s.14-.68.38-.92c.49-.48,1.36-.48,1.84,0,.25.25.38.58.38.92s-.13.67-.38.92c-.24.24-.58.38-.92.38Z"/><path class="cls-8" d="m37.5,6.55c-.34,0-.68-.14-.92-.38-.24-.24-.38-.58-.38-.92s.14-.68.38-.92c.49-.49,1.36-.48,1.84,0,.25.25.38.58.38.92s-.13.67-.38.92c-.24.24-.58.38-.92.38Z"/><path class="cls-8" d="m37.25,9.55c-.34,0-.67-.14-.92-.38-.24-.24-.38-.58-.38-.92s.14-.68.38-.92c.49-.48,1.36-.48,1.84,0,.25.25.38.58.38.92s-.13.67-.38.92c-.24.24-.58.38-.92.38Z"/><path class="cls-8" d="m37.5,13.3c-.34,0-.68-.14-.92-.38-.24-.24-.38-.58-.38-.92s.14-.68.38-.92c.49-.48,1.36-.48,1.84,0,.25.25.38.58.38.92s-.13.67-.38.92c-.24.24-.58.38-.92.38Z"/><path class="cls-8" d="m41,5.05c-.34,0-.67-.14-.92-.38-.24-.24-.38-.58-.38-.92s.14-.68.38-.92c.48-.48,1.36-.48,1.84,0,.24.24.38.58.38.92s-.14.68-.38.92c-.24.24-.58.38-.92.38Z"/><path class="cls-8" d="m41.75,8.8c-.34,0-.67-.14-.92-.38-.24-.24-.38-.58-.38-.92s.14-.68.38-.92c.49-.48,1.36-.48,1.84,0,.24.24.38.58.38.92s-.14.68-.38.92c-.24.24-.58.38-.92.38Z"/><path class="cls-8" d="m41.25,12.8c-.34,0-.67-.14-.92-.38-.24-.24-.38-.58-.38-.92s.14-.68.38-.92c.48-.48,1.36-.49,1.84,0,.24.24.38.58.38.92s-.14.67-.38.92c-.24.24-.58.38-.92.38Z"/><path class="cls-8" d="m41.5,17.3c-.34,0-.67-.14-.92-.38-.24-.24-.38-.58-.38-.92s.14-.68.38-.92c.48-.48,1.36-.48,1.84,0,.24.24.38.58.38.92s-.14.68-.38.92c-.24.24-.58.38-.92.38Z"/><path class="cls-8" d="m43,20.8c-.34,0-.67-.14-.92-.38-.24-.24-.38-.58-.38-.92s.14-.68.38-.92c.48-.48,1.36-.49,1.84,0,.24.24.38.58.38.92s-.14.68-.38.92c-.24.24-.58.38-.92.38Z"/><path class="cls-8" d="m38.25,20.55c-.34,0-.67-.14-.92-.38-.24-.24-.38-.58-.38-.92s.14-.68.38-.92c.48-.48,1.36-.48,1.84,0,.24.24.38.58.38.92s-.14.68-.38.92c-.24.24-.58.38-.92.38Z"/><path class="cls-8" d="m39.5,25.05c-.34,0-.67-.14-.92-.38-.24-.24-.38-.58-.38-.92s.14-.68.38-.92c.49-.48,1.36-.48,1.84,0,.24.24.38.58.38.92s-.14.68-.38.92c-.24.24-.58.38-.92.38Z"/><path class="cls-8" d="m35.25,24.8c-.34,0-.67-.14-.92-.38-.24-.24-.38-.58-.38-.92s.14-.68.38-.92c.49-.48,1.36-.48,1.84,0,.24.24.38.58.38.92s-.14.68-.38.92c-.24.24-.58.38-.92.38Z"/><path class="cls-8" d="m47,22.3c-.34,0-.68-.14-.92-.38-.24-.24-.38-.58-.38-.92s.14-.68.38-.92c.49-.48,1.36-.48,1.84,0,.24.24.38.58.38.92s-.14.68-.38.92c-.24.24-.57.38-.92.38Z"/><path class="cls-8" d="m46,18.8c-.34,0-.67-.14-.92-.38-.24-.24-.38-.58-.38-.92s.14-.68.38-.92c.49-.48,1.36-.48,1.84,0,.24.24.38.58.38.92s-.14.68-.38.92c-.24.24-.58.38-.92.38Z"/><path class="cls-8" d="m45,15.3c-.34,0-.68-.14-.92-.38-.24-.24-.38-.58-.38-.92s.14-.68.38-.92c.49-.48,1.36-.48,1.84,0,.24.24.38.58.38.92s-.14.68-.38.92c-.24.24-.57.38-.92.38Z"/><path class="cls-8" d="m45.25,11.3c-.34,0-.68-.14-.92-.38-.24-.24-.38-.58-.38-.92s.14-.68.38-.92c.49-.48,1.36-.48,1.84,0,.24.24.38.58.38.92s-.14.68-.38.92c-.24.24-.58.38-.92.38Z"/><path class="cls-8" d="m45,7.05c-.34,0-.67-.14-.92-.38-.24-.24-.38-.58-.38-.92s.14-.68.38-.92c.49-.48,1.35-.48,1.84,0,.24.24.38.58.38.92s-.14.68-.38.92c-.24.24-.58.38-.92.38Z"/><path class="cls-8" d="m44.75,3.8c-.34,0-.68-.14-.92-.38-.24-.24-.38-.58-.38-.92s.14-.68.38-.92c.49-.48,1.36-.48,1.84,0,.24.24.38.58.38.92s-.14.68-.38.92c-.24.24-.57.38-.92.38Z"/><path class="cls-8" d="m49.75,2.8c-.34,0-.67-.14-.92-.38-.24-.24-.38-.58-.38-.92s.14-.68.38-.92c.49-.48,1.36-.48,1.84,0,.24.24.38.58.38.92s-.14.68-.38.92c-.24.24-.58.38-.92.38Z"/><path class="cls-8" d="m49,7.05c-.34,0-.68-.14-.92-.38-.24-.24-.38-.58-.38-.92s.14-.68.38-.92c.49-.48,1.36-.48,1.84,0,.24.24.38.58.38.92s-.14.68-.38.92c-.24.24-.58.38-.92.38Z"/><path class="cls-8" d="m52.5,7.05c-.34,0-.67-.14-.92-.38-.24-.24-.38-.58-.38-.92s.14-.67.38-.92c.48-.48,1.35-.48,1.84,0,.24.24.38.58.38.92s-.14.68-.38.92c-.24.24-.58.38-.92.38Z"/><path class="cls-8" d="m52.25,10.55c-.34,0-.67-.14-.92-.38-.24-.24-.38-.58-.38-.92s.14-.67.38-.92c.49-.48,1.36-.48,1.84,0,.25.24.38.58.38.92s-.13.68-.38.92c-.24.24-.58.38-.92.38Z"/><path class="cls-8" d="m48.5,10.3c-.34,0-.67-.14-.92-.38-.24-.24-.38-.58-.38-.92s.14-.68.38-.92c.48-.48,1.36-.48,1.84,0,.24.24.38.58.38.92s-.14.68-.38.92c-.24.24-.58.38-.92.38Z"/><path class="cls-8" d="m48.75,14.8c-.34,0-.67-.14-.92-.38-.24-.24-.38-.58-.38-.92s.14-.68.38-.92c.49-.48,1.35-.48,1.84,0,.24.24.38.58.38.92s-.14.68-.38.92c-.24.24-.58.38-.92.38Z"/><path class="cls-8" d="m52.25,14.8c-.34,0-.67-.14-.92-.38-.24-.24-.38-.58-.38-.92s.14-.68.38-.92c.49-.48,1.36-.48,1.84,0,.25.24.38.58.38.92s-.14.68-.38.92c-.24.24-.58.38-.92.38Z"/><path class="cls-8" d="m49.5,18.3c-.34,0-.67-.14-.92-.38-.24-.24-.38-.58-.38-.92s.14-.68.38-.92c.49-.48,1.35-.48,1.84,0,.24.24.38.58.38.92s-.14.68-.38.92c-.24.24-.58.38-.92.38Z"/><path class="cls-8" d="m51,22.55c-.34,0-.67-.14-.92-.38-.24-.24-.38-.58-.38-.92s.14-.67.38-.92c.49-.48,1.35-.48,1.84,0,.24.24.38.58.38.92s-.14.68-.38.92c-.24.24-.58.38-.92.38Z"/><path class="cls-8" d="m52.75,25.8c-.34,0-.67-.14-.92-.38-.24-.24-.38-.58-.38-.92s.14-.68.38-.92c.49-.48,1.35-.48,1.84,0,.24.24.38.58.38.92s-.14.68-.38.92c-.24.24-.58.38-.92.38Z"/><path class="cls-8" d="m55.25,23.05c-.34,0-.68-.14-.92-.38-.24-.24-.38-.58-.38-.92s.14-.68.38-.92c.49-.48,1.36-.48,1.84,0,.24.24.38.58.38.92s-.14.68-.38.92c-.24.24-.57.38-.92.38Z"/><path class="cls-8" d="m53.75,19.55c-.34,0-.67-.14-.92-.38-.24-.24-.38-.58-.38-.92s.14-.68.38-.92c.48-.48,1.36-.48,1.84,0,.24.24.38.58.38.92s-.14.68-.38.92c-.24.24-.58.38-.92.38Z"/><path class="cls-8" d="m56,16.55c-.34,0-.67-.14-.92-.38-.24-.24-.38-.58-.38-.92s.14-.68.38-.92c.48-.48,1.35-.48,1.84,0,.24.24.38.58.38.92s-.14.68-.38.92c-.24.24-.58.38-.92.38Z"/><path class="cls-8" d="m56.25,12.3c-.34,0-.68-.14-.92-.38-.24-.24-.38-.58-.38-.92s.14-.68.38-.92c.49-.48,1.35-.48,1.84,0,.24.24.38.58.38.92s-.14.68-.38.92c-.24.24-.58.38-.92.38Z"/><path class="cls-8" d="m56.5,7.3c-.34,0-.68-.14-.92-.38-.24-.24-.38-.58-.38-.92s.14-.68.38-.92c.49-.48,1.35-.48,1.84,0,.24.24.38.58.38.92s-.14.68-.38.92c-.24.24-.58.38-.92.38Z"/><path class="cls-8" d="m59.75,8.3c-.34,0-.67-.14-.92-.38-.24-.25-.38-.58-.38-.92s.14-.67.38-.92c.49-.48,1.35-.48,1.84,0,.24.24.38.58.38.92s-.14.68-.38.92c-.24.24-.58.38-.92.38Z"/><path class="cls-8" d="m58,3.8c-.34,0-.68-.14-.92-.38-.24-.24-.38-.58-.38-.92s.14-.68.38-.92c.49-.48,1.36-.48,1.84,0,.24.24.38.58.38.92s-.14.68-.38.92c-.24.24-.57.38-.92.38Z"/><path class="cls-8" d="m61.75,4.8c-.34,0-.67-.14-.92-.38-.24-.24-.38-.58-.38-.92s.14-.68.38-.92c.49-.48,1.36-.48,1.84,0,.24.24.38.58.38.92s-.14.68-.38.92c-.24.24-.58.38-.92.38Z"/><path class="cls-8" d="m65,3.05c-.34,0-.67-.14-.92-.38-.24-.24-.38-.58-.38-.92s.14-.68.38-.92c.48-.48,1.36-.48,1.84,0,.24.24.38.58.38.92s-.14.68-.38.92c-.24.24-.58.38-.92.38Z"/><path class="cls-8" d="m67,5.05c-.34,0-.68-.14-.92-.38-.24-.24-.38-.58-.38-.92s.14-.68.38-.92c.49-.49,1.37-.48,1.84,0,.24.24.38.58.38.92s-.14.68-.38.92c-.24.24-.58.38-.92.38Z"/><path class="cls-8" d="m63.5,8.05c-.34,0-.67-.14-.92-.38-.24-.24-.38-.58-.38-.92s.14-.68.38-.92c.48-.48,1.37-.48,1.84,0,.24.24.38.58.38.92s-.14.68-.38.92c-.24.24-.58.38-.92.38Z"/><path class="cls-8" d="m62.75,11.8c-.34,0-.67-.14-.92-.38-.24-.24-.38-.58-.38-.92s.14-.67.38-.92c.49-.48,1.35-.48,1.84,0,.24.24.38.58.38.92s-.14.68-.38.92c-.24.24-.58.38-.92.38Z"/><path class="cls-8" d="m60,14.05c-.34,0-.67-.14-.92-.38-.24-.24-.38-.58-.38-.92s.14-.68.38-.92c.49-.48,1.36-.48,1.84,0,.24.24.38.58.38.92s-.14.68-.38.92c-.24.24-.58.38-.92.38Z"/><path class="cls-8" d="m62.5,16.8c-.34,0-.67-.14-.92-.38-.24-.24-.38-.58-.38-.92s.14-.68.38-.92c.48-.48,1.36-.48,1.84,0,.24.24.38.58.38.92s-.14.68-.38.92c-.24.24-.58.38-.92.38Z"/><path class="cls-8" d="m66.25,17.8c-.34,0-.67-.14-.92-.38-.24-.24-.38-.58-.38-.92s.14-.68.38-.92c.49-.48,1.36-.48,1.84,0,.24.24.38.58.38.92s-.14.68-.38.92c-.24.24-.58.38-.92.38Z"/><path class="cls-8" d="m64.25,20.05c-.34,0-.67-.14-.92-.38-.24-.24-.38-.58-.38-.92s.14-.68.38-.92c.48-.48,1.35-.48,1.84,0,.24.24.38.58.38.92s-.14.68-.38.92c-.24.24-.58.38-.92.38Z"/><path class="cls-8" d="m60.75,20.55c-.34,0-.67-.14-.92-.38-.24-.24-.38-.58-.38-.92s.14-.68.38-.92c.49-.48,1.36-.48,1.84,0,.24.24.38.58.38.92s-.14.68-.38.92c-.24.24-.58.38-.92.38Z"/><path class="cls-8" d="m58,20.05c-.34,0-.67-.14-.92-.38-.24-.24-.38-.58-.38-.92s.14-.68.38-.92c.49-.48,1.36-.48,1.84,0,.24.24.38.58.38.92s-.14.68-.38.92c-.24.24-.58.38-.92.38Z"/><path class="cls-8" d="m59.75,24.3c-.34,0-.68-.14-.92-.38-.24-.25-.38-.58-.38-.92s.14-.67.38-.92c.49-.48,1.35-.48,1.84,0,.24.24.38.58.38.92s-.14.68-.38.92c-.24.24-.57.38-.92.38Z"/><path class="cls-8" d="m64.25,23.05c-.34,0-.67-.14-.92-.38-.24-.24-.38-.58-.38-.92s.14-.68.38-.92c.48-.48,1.35-.48,1.84,0,.24.24.38.58.38.92s-.14.68-.38.92c-.24.24-.58.38-.92.38Z"/><path class="cls-8" d="m68.5,24.05c-.34,0-.68-.14-.92-.38-.24-.25-.38-.58-.38-.92s.14-.67.38-.92c.49-.49,1.37-.48,1.84,0,.24.24.38.58.38.92s-.14.68-.38.92c-.24.24-.58.38-.92.38Z"/><path class="cls-8" d="m68.5,20.55c-.34,0-.68-.14-.92-.38-.24-.24-.38-.58-.38-.92s.14-.68.38-.92c.5-.49,1.36-.48,1.84,0,.24.24.38.58.38.92s-.14.68-.38.92c-.24.24-.58.38-.92.38Z"/><path class="cls-8" d="m65.5,13.8c-.34,0-.67-.14-.92-.38-.24-.24-.38-.58-.38-.92s.14-.68.38-.92c.49-.48,1.36-.48,1.84,0,.24.24.38.58.38.92s-.14.68-.38.92c-.24.24-.58.38-.92.38Z"/><path class="cls-8" d="m66.25,10.05c-.34,0-.67-.14-.92-.38-.24-.24-.38-.58-.38-.92s.14-.68.38-.92c.49-.49,1.36-.48,1.84,0,.24.24.38.58.38.92s-.14.68-.38.92c-.24.24-.58.38-.92.38Z"/><path class="cls-8" d="m69.75,8.05c-.34,0-.67-.14-.92-.38-.24-.24-.38-.58-.38-.92s.14-.67.38-.92c.48-.49,1.36-.49,1.84,0,.24.24.38.58.38.92s-.14.68-.38.92c-.24.24-.58.38-.92.38Z"/><path class="cls-8" d="m70.75,3.3c-.34,0-.67-.14-.92-.38-.24-.25-.38-.58-.38-.92s.14-.68.38-.92c.49-.48,1.36-.48,1.84,0,.24.24.38.58.38.92s-.14.68-.38.92c-.24.24-.58.38-.92.38Z"/><path class="cls-8" d="m69.75,14.55c-.34,0-.68-.14-.92-.38-.24-.24-.38-.58-.38-.92s.14-.68.38-.92c.49-.48,1.36-.48,1.84,0,.24.24.38.58.38.92s-.14.68-.38.92c-.24.24-.58.38-.92.38Z"/><path class="cls-8" d="m71.5,18.05c-.34,0-.67-.14-.92-.38-.24-.24-.38-.58-.38-.92s.14-.68.38-.92c.48-.48,1.36-.48,1.84,0,.24.24.38.58.38.92s-.14.68-.38.92c-.24.24-.58.38-.92.38Z"/><path class="cls-8" d="m56.5,7.3c-.34,0-.68-.14-.92-.38-.24-.24-.38-.58-.38-.92s.14-.68.38-.92c.49-.48,1.35-.48,1.84,0,.24.24.38.58.38.92s-.14.68-.38.92c-.24.24-.58.38-.92.38Z"/><path class="cls-8" d="m58,3.8c-.34,0-.68-.14-.92-.38-.24-.24-.38-.58-.38-.92s.14-.68.38-.92c.49-.48,1.36-.48,1.84,0,.24.24.38.58.38.92s-.14.68-.38.92c-.24.24-.57.38-.92.38Z"/><path class="cls-8" d="m54,4.55c-.34,0-.68-.14-.92-.38-.24-.24-.38-.58-.38-.92s.14-.68.38-.92c.49-.48,1.36-.48,1.84,0,.24.24.38.58.38.92s-.14.68-.38.92c-.24.24-.58.38-.92.38Z"/><path class="cls-8" d="m24,24.05c-.34,0-.67-.14-.92-.38-.24-.24-.38-.58-.38-.92s.14-.68.38-.92c.49-.48,1.36-.48,1.84,0,.24.24.38.58.38.92s-.14.68-.38.92c-.24.24-.58.38-.92.38Z"/><path class="cls-8" d="m20,21.3c-.34,0-.67-.14-.92-.38-.24-.24-.38-.58-.38-.92s.14-.67.38-.92c.49-.48,1.36-.48,1.84,0,.24.25.38.58.38.92s-.14.68-.38.92c-.24.24-.57.38-.92.38Z"/><path class="cls-8" d="m16,22.3c-.34,0-.68-.14-.92-.38-.24-.24-.38-.58-.38-.92s.14-.67.38-.92c.49-.48,1.36-.48,1.84,0,.24.25.38.58.38.92s-.14.68-.38.92c-.24.24-.58.38-.92.38Z"/><path class="cls-8" d="m17,18.3c-.34,0-.67-.14-.92-.38-.24-.24-.38-.58-.38-.92s.14-.68.38-.92c.49-.48,1.35-.48,1.84,0,.24.24.38.58.38.92s-.14.68-.38.92c-.24.24-.58.38-.92.38Z"/><path class="cls-8" d="m14.75,15.3c-.34,0-.67-.14-.92-.38-.24-.24-.38-.58-.38-.92s.14-.67.38-.92c.49-.49,1.36-.48,1.84,0,.24.25.38.58.38.92s-.14.67-.38.92c-.24.24-.58.38-.92.38Z"/><path class="cls-8" d="m12.5,12.55c-.34,0-.67-.14-.92-.38-.24-.24-.38-.58-.38-.92s.14-.67.38-.92c.49-.48,1.36-.48,1.84,0,.24.24.38.58.38.92s-.14.68-.38.92c-.24.24-.58.38-.92.38Z"/><path class="cls-8" d="m12.5,18.8c-.34,0-.68-.14-.92-.38-.24-.24-.38-.58-.38-.92s.14-.68.38-.92c.49-.48,1.36-.48,1.84,0,.24.24.38.58.38.92s-.14.68-.38.92c-.24.24-.57.38-.92.38Z"/><path class="cls-8" d="m16,22.3c-.34,0-.68-.14-.92-.38-.24-.24-.38-.58-.38-.92s.14-.67.38-.92c.49-.48,1.36-.48,1.84,0,.24.25.38.58.38.92s-.14.68-.38.92c-.24.24-.58.38-.92.38Z"/><path class="cls-8" d="m18.5,24.55c-.34,0-.67-.14-.92-.38-.24-.24-.38-.58-.38-.92s.14-.68.38-.92c.48-.48,1.36-.49,1.84,0,.24.24.38.58.38.92s-.14.67-.38.92c-.24.24-.58.38-.92.38Z"/><path class="cls-8" d="m14,26.05c-.34,0-.68-.14-.92-.38-.24-.24-.38-.58-.38-.92s.14-.68.38-.92c.49-.49,1.36-.48,1.84,0,.24.24.38.58.38.92s-.14.68-.38.92c-.24.24-.58.38-.92.38Z"/><path class="cls-8" d="m11.5,23.05c-.34,0-.67-.14-.92-.38-.24-.24-.38-.58-.38-.92s.14-.67.38-.92c.48-.48,1.36-.48,1.84,0,.24.25.38.58.38.92s-.14.68-.38.92c-.24.24-.58.38-.92.38Z"/><path class="cls-8" d="m24,16.55c-.34,0-.68-.14-.92-.38-.24-.24-.38-.58-.38-.92s.14-.68.38-.92c.49-.48,1.36-.48,1.84,0,.24.24.38.58.38.92s-.14.68-.38.92c-.24.24-.57.38-.92.38Z"/><path class="cls-8" d="m2,7.05c-.34,0-.68-.14-.92-.38-.24-.24-.38-.58-.38-.92s.14-.67.38-.92c.5-.49,1.36-.48,1.84,0,.24.25.38.58.38.92s-.14.68-.38.92c-.24.24-.58.38-.92.38Z"/><path class="cls-8" d="m3.25,16.55c-.34,0-.68-.14-.92-.38-.24-.24-.38-.58-.38-.92s.14-.68.38-.92c.49-.48,1.36-.49,1.84,0,.24.24.38.58.38.92s-.14.68-.38.92c-.24.24-.58.38-.92.38Z"/><path class="cls-8" d="m5.25,19.8c-.34,0-.68-.14-.92-.38-.24-.24-.38-.58-.38-.92s.14-.68.38-.92c.49-.49,1.36-.48,1.84,0,.25.25.38.58.38.92s-.13.68-.38.92c-.24.24-.58.38-.92.38Z"/><path class="cls-8" d="m3.75,13.05c-.34,0-.67-.14-.92-.38-.24-.24-.38-.58-.38-.92s.14-.68.38-.92c.49-.48,1.35-.48,1.84,0,.24.24.38.58.38.92s-.14.68-.38.92c-.24.24-.58.38-.92.38Z"/><path class="cls-8" d="m9,5.8c-.34,0-.67-.14-.92-.38-.24-.24-.38-.58-.38-.92s.14-.68.38-.92c.48-.48,1.36-.48,1.84,0,.24.24.38.58.38.92s-.14.68-.38.92c-.24.24-.58.38-.92.38Z"/><path class="cls-8" d="m5.75,6.3c-.34,0-.67-.14-.92-.38-.24-.24-.38-.58-.38-.92s.14-.68.38-.92c.48-.48,1.36-.48,1.84,0,.24.24.38.58.38.92s-.14.67-.38.92c-.24.24-.58.38-.92.38Z"/><path class="cls-8" d="m6,9.55c-.34,0-.67-.14-.92-.38-.24-.24-.38-.58-.38-.92s.14-.68.38-.92c.49-.48,1.36-.49,1.84,0,.24.25.38.58.38.92s-.14.68-.38.92c-.24.24-.58.38-.92.38Z"/><path class="cls-8" d="m10.75,8.8c-.34,0-.67-.14-.92-.38-.24-.24-.38-.58-.38-.92s.14-.67.38-.92c.49-.48,1.36-.48,1.84,0,.24.25.38.58.38.92s-.14.68-.38.92c-.24.24-.58.38-.92.38Z"/><path class="cls-8" d="m3.75,3.55c-.34,0-.68-.14-.92-.38-.24-.24-.38-.58-.38-.92s.14-.68.38-.92c.49-.48,1.36-.48,1.84,0,.24.24.38.58.38.92s-.14.68-.38.92c-.24.24-.58.38-.92.38Z"/><path class="cls-8" d="m7,14.3c-.34,0-.67-.14-.92-.38-.24-.24-.38-.58-.38-.92s.14-.68.38-.92c.48-.48,1.36-.48,1.84,0,.24.25.38.58.38.92s-.14.67-.38.92c-.24.24-.58.38-.92.38Z"/><path class="cls-8" d="m9.75,12.05c-.34,0-.67-.14-.92-.38-.24-.25-.38-.58-.38-.92s.14-.68.38-.92c.49-.48,1.36-.48,1.84,0,.24.24.38.58.38.92s-.14.68-.38.92c-.24.24-.58.38-.92.38Z"/><path class="cls-8" d="m9.75,16.05c-.34,0-.67-.14-.92-.38-.24-.25-.38-.58-.38-.92s.14-.68.38-.92c.49-.48,1.36-.48,1.84,0,.24.24.38.58.38.92s-.14.67-.38.92c-.24.24-.58.38-.92.38Z"/><path class="cls-8" d="m12.5,18.8c-.34,0-.68-.14-.92-.38-.24-.24-.38-.58-.38-.92s.14-.68.38-.92c.49-.48,1.36-.48,1.84,0,.24.24.38.58.38.92s-.14.68-.38.92c-.24.24-.57.38-.92.38Z"/><path class="cls-8" d="m8.25,20.55c-.34,0-.67-.14-.92-.38-.24-.24-.38-.58-.38-.92s.14-.67.38-.92c.48-.48,1.36-.48,1.84,0,.24.25.38.58.38.92s-.14.68-.38.92c-.24.24-.58.38-.92.38Z"/><path class="cls-8" d="m5.75,26.05c-.34,0-.67-.14-.92-.38-.24-.24-.38-.58-.38-.92s.14-.68.38-.92c.48-.48,1.36-.48,1.84,0,.24.24.38.58.38.92s-.14.67-.38.92c-.24.24-.58.38-.92.38Z"/><path class="cls-8" d="m5,23.05c-.34,0-.68-.14-.92-.38-.24-.24-.38-.58-.38-.92s.14-.68.38-.92c.48-.48,1.36-.48,1.84,0,.24.25.38.58.38.92s-.14.67-.38.92c-.24.24-.58.38-.92.38Z"/><path class="cls-8" d="m15,71.8c-.34,0-.67-.14-.92-.38-.24-.24-.38-.58-.38-.92s.14-.68.38-.92c.49-.48,1.36-.48,1.84,0,.24.25.38.58.38.92s-.14.68-.38.92c-.24.24-.58.38-.92.38Z"/><path class="cls-8" d="m15,71.8c-.34,0-.67-.14-.92-.38-.24-.24-.38-.58-.38-.92s.14-.68.38-.92c.49-.48,1.36-.48,1.84,0,.24.25.38.58.38.92s-.14.68-.38.92c-.24.24-.58.38-.92.38Z"/><path class="cls-8" d="m18.5,70.8c-.34,0-.67-.14-.92-.38-.24-.24-.38-.58-.38-.92s.14-.68.38-.92c.49-.48,1.36-.48,1.84,0,.24.24.38.58.38.92s-.14.68-.38.92c-.24.24-.58.38-.92.38Z"/><path class="cls-8" d="m24,71.8c-.34,0-.67-.14-.92-.38-.24-.24-.38-.58-.38-.92s.14-.68.38-.92c.49-.48,1.36-.48,1.84,0,.24.24.38.58.38.92s-.14.68-.38.92c-.24.24-.57.38-.92.38Z"/><path class="cls-8" d="m29.25,71.3c-.34,0-.68-.14-.92-.38-.24-.24-.38-.58-.38-.92s.14-.68.38-.92c.49-.48,1.36-.48,1.84,0,.24.24.38.58.38.92s-.14.68-.38.92c-.24.24-.57.38-.92.38Z"/><path class="cls-8" d="m32.75,71.8c-.34,0-.67-.14-.92-.38-.24-.24-.38-.58-.38-.92s.14-.68.38-.92c.49-.48,1.36-.48,1.84,0,.24.24.38.58.38.92s-.14.67-.38.92c-.24.24-.58.38-.92.38Z"/><path class="cls-8" d="m37.75,71.3c-.34,0-.67-.14-.92-.38-.24-.24-.38-.58-.38-.92s.14-.68.38-.92c.49-.48,1.36-.48,1.84,0,.24.24.38.58.38.92s-.14.68-.38.92c-.24.24-.58.38-.92.38Z"/><path class="cls-8" d="m45,68.55c-.34,0-.68-.14-.92-.38-.24-.24-.38-.58-.38-.92s.14-.68.38-.92c.49-.48,1.36-.48,1.84,0,.24.24.38.58.38.92s-.14.68-.38.92c-.24.24-.58.38-.92.38Z"/><path class="cls-8" d="m49.75,70.3c-.34,0-.67-.14-.92-.38-.24-.24-.38-.58-.38-.92s.14-.68.38-.92c.49-.48,1.36-.48,1.84,0,.24.24.38.58.38.92s-.14.68-.38.92c-.24.24-.58.38-.92.38Z"/><path class="cls-8" d="m59.75,71.8c-.34,0-.67-.14-.92-.38-.24-.25-.38-.58-.38-.92s.14-.67.38-.92c.49-.48,1.35-.49,1.84,0,.24.24.38.58.38.92s-.14.68-.38.92c-.24.24-.58.38-.92.38Z"/><path class="cls-8" d="m67.75,72.55c-.34,0-.68-.14-.92-.38-.24-.24-.38-.58-.38-.92s.14-.68.38-.92c.48-.48,1.36-.48,1.84,0,.24.24.38.58.38.92s-.14.68-.38.92c-.24.24-.57.38-.92.38Z"/><path class="cls-8" d="m55,73.55c-.34,0-.68-.14-.92-.38-.24-.24-.38-.58-.38-.92s.14-.68.38-.92c.49-.48,1.36-.48,1.84,0,.24.24.38.58.38.92s-.14.68-.38.92c-.24.24-.58.38-.92.38Z"/><path class="cls-8" d="m53.75,69.8c-.34,0-.68-.14-.92-.38-.24-.24-.38-.58-.38-.92s.14-.68.38-.92c.49-.48,1.36-.48,1.84,0,.24.24.38.58.38.92s-.14.68-.38.92c-.24.24-.58.38-.92.38Z"/><path class="cls-8" d="m10.25,70.8c-.34,0-.67-.14-.92-.38-.24-.24-.38-.58-.38-.92s.14-.68.38-.92c.49-.48,1.36-.48,1.84,0,.24.24.38.58.38.92s-.14.68-.38.92c-.24.24-.58.38-.92.38Z"/><path class="cls-8" d="m5.75,71.05c-.34,0-.68-.14-.92-.38-.24-.24-.38-.58-.38-.92s.14-.68.38-.92c.49-.48,1.35-.49,1.84,0,.24.25.38.58.38.92s-.14.68-.38.92c-.24.24-.58.38-.92.38Z"/><path class="cls-8" d="m22,26.8c-.34,0-.67-.14-.92-.38-.24-.24-.38-.58-.38-.92s.14-.68.38-.92c.48-.48,1.36-.48,1.84,0,.24.24.38.58.38.92s-.14.68-.38.92c-.24.24-.57.38-.92.38Z"/><path class="cls-8" d="m26.5,27.8c-.34,0-.67-.14-.92-.38-.24-.24-.38-.58-.38-.92s.14-.68.38-.92c.49-.48,1.36-.48,1.84,0,.24.25.38.58.38.92s-.14.68-.38.92c-.24.24-.58.38-.92.38Z"/><path class="cls-8" d="m30.25,25.8c-.34,0-.67-.14-.92-.38-.24-.24-.38-.58-.38-.92s.14-.68.38-.92c.49-.48,1.36-.48,1.84,0,.24.24.38.58.38.92s-.14.68-.38.92c-.24.24-.58.38-.92.38Z"/><path class="cls-8" d="m29,29.8c-.34,0-.68-.14-.92-.38-.24-.24-.38-.58-.38-.92s.14-.68.38-.92c.49-.48,1.36-.48,1.84,0,.24.24.38.58.38.92s-.14.68-.38.92c-.24.24-.57.38-.92.38Z"/><path class="cls-8" d="m26.25,31.8c-.34,0-.67-.14-.92-.38-.24-.24-.38-.58-.38-.92s.14-.68.38-.92c.48-.48,1.36-.49,1.84,0,.24.24.38.58.38.92s-.14.68-.38.92c-.24.24-.58.38-.92.38Z"/><path class="cls-8" d="m22.75,31.05c-.34,0-.68-.14-.92-.38-.24-.24-.38-.58-.38-.92s.14-.68.38-.92c.48-.48,1.36-.49,1.84,0,.24.24.38.58.38.92s-.14.68-.38.92c-.24.24-.57.38-.92.38Z"/><path class="cls-8" d="m19.5,31.8c-.34,0-.67-.14-.92-.38-.24-.24-.38-.58-.38-.92s.14-.68.38-.92c.48-.48,1.36-.49,1.84,0,.24.24.38.58.38.92s-.14.68-.38.92c-.24.24-.58.38-.92.38Z"/><path class="cls-8" d="m18,28.05c-.34,0-.68-.14-.92-.38-.24-.24-.38-.58-.38-.92s.14-.68.38-.92c.49-.48,1.36-.48,1.84,0,.24.24.38.58.38.92s-.14.68-.38.92c-.24.24-.58.38-.92.38Z"/><path class="cls-8" d="m16,30.55c-.34,0-.68-.14-.92-.38-.24-.24-.38-.58-.38-.92s.14-.68.38-.92c.49-.48,1.35-.48,1.84,0,.24.24.38.58.38.92s-.14.68-.38.92c-.24.24-.57.38-.92.38Z"/><path class="cls-8" d="m12.75,29.3c-.34,0-.67-.14-.92-.38-.24-.24-.38-.58-.38-.92s.14-.68.38-.92c.49-.49,1.36-.48,1.84,0,.24.25.38.58.38.92s-.14.68-.38.92c-.24.24-.58.38-.92.38Z"/><path class="cls-8" d="m9.5,30.8c-.34,0-.67-.14-.92-.38-.24-.24-.38-.58-.38-.92s.14-.67.38-.92c.48-.48,1.36-.48,1.84,0,.25.25.38.58.38.92s-.13.68-.38.92c-.24.24-.58.38-.92.38Z"/><path class="cls-8" d="m8.5,34.05c-.34,0-.67-.14-.92-.38-.24-.24-.38-.58-.38-.92s.14-.68.38-.92c.48-.48,1.36-.48,1.84,0,.24.24.38.58.38.92s-.14.68-.38.92c-.24.24-.58.38-.92.38Z"/><path class="cls-8" d="m10,38.3c-.34,0-.67-.14-.92-.38-.24-.24-.38-.58-.38-.92s.14-.68.38-.92c.48-.48,1.36-.48,1.84,0,.24.24.38.58.38.92s-.14.68-.38.92c-.24.24-.58.38-.92.38Z"/><path class="cls-8" d="m12.5,35.8c-.34,0-.67-.14-.92-.38-.24-.24-.38-.58-.38-.92s.14-.68.38-.92c.48-.48,1.36-.48,1.84,0,.24.24.38.58.38.92s-.14.68-.38.92c-.24.24-.58.38-.92.38Z"/><path class="cls-8" d="m15.25,33.3c-.34,0-.68-.14-.92-.38-.24-.24-.38-.58-.38-.92s.14-.68.38-.92c.49-.48,1.35-.48,1.84,0,.24.24.38.58.38.92s-.14.68-.38.92c-.24.24-.58.38-.92.38Z"/><path class="cls-8" d="m19,35.55c-.34,0-.67-.14-.92-.38-.24-.24-.38-.58-.38-.92s.14-.68.38-.92c.48-.48,1.36-.48,1.84,0,.24.24.38.58.38.92s-.14.68-.38.92c-.24.24-.58.38-.92.38Z"/><path class="cls-8" d="m16,38.05c-.34,0-.67-.14-.92-.38-.24-.24-.38-.58-.38-.92s.14-.68.38-.92c.48-.48,1.36-.48,1.84,0,.24.24.38.58.38.92s-.14.68-.38.92c-.24.24-.58.38-.92.38Z"/><path class="cls-8" d="m13,40.8c-.34,0-.67-.14-.92-.38-.24-.24-.38-.58-.38-.92s.14-.68.38-.92c.49-.48,1.36-.48,1.84,0,.24.24.38.58.38.92s-.14.68-.38.92c-.24.24-.58.38-.92.38Z"/><path class="cls-8" d="m9.75,42.55c-.34,0-.67-.14-.92-.38-.24-.25-.38-.58-.38-.92s.14-.68.38-.92c.49-.48,1.36-.48,1.84,0,.24.24.38.58.38.92s-.14.67-.38.92c-.24.24-.58.38-.92.38Z"/><path class="cls-8" d="m10,38.3c-.34,0-.67-.14-.92-.38-.24-.24-.38-.58-.38-.92s.14-.68.38-.92c.48-.48,1.36-.48,1.84,0,.24.24.38.58.38.92s-.14.68-.38.92c-.24.24-.58.38-.92.38Z"/><path class="cls-8" d="m6.75,39.8c-.34,0-.67-.14-.92-.38-.24-.24-.38-.58-.38-.92s.14-.68.38-.92c.48-.48,1.36-.48,1.84,0,.24.24.38.58.38.92s-.14.68-.38.92c-.24.24-.58.38-.92.38Z"/><path class="cls-8" d="m5.75,35.3c-.34,0-.68-.14-.92-.38-.24-.24-.38-.58-.38-.92s.14-.68.38-.92c.49-.48,1.36-.48,1.84,0,.24.25.38.58.38.92s-.14.68-.38.92c-.24.24-.58.38-.92.38Z"/><path class="cls-8" d="m5.5,30.05c-.34,0-.67-.14-.92-.38-.24-.24-.38-.58-.38-.92s.14-.68.38-.92c.49-.48,1.36-.48,1.84,0,.24.24.38.58.38.92s-.14.68-.38.92c-.24.24-.58.38-.92.38Z"/><path class="cls-8" d="m2.5,32.05c-.34,0-.67-.14-.92-.38-.24-.24-.38-.58-.38-.92s.14-.68.38-.92c.49-.48,1.35-.48,1.84,0,.25.25.38.58.38.92s-.13.67-.38.92c-.24.24-.58.38-.92.38Z"/><path class="cls-8" d="m1.75,36.05c-.34,0-.67-.14-.92-.38-.24-.24-.38-.58-.38-.92s.14-.68.38-.92c.48-.48,1.36-.48,1.84,0,.24.24.38.58.38.92s-.14.68-.38.92c-.24.24-.58.38-.92.38Z"/><path class="cls-8" d="m1.75,27.55c-.34,0-.67-.14-.92-.38-.24-.25-.38-.58-.38-.92s.14-.67.38-.92c.49-.48,1.35-.48,1.84,0,.24.24.38.58.38.92s-.14.68-.38.92c-.24.24-.58.38-.92.38Z"/><path class="cls-8" d="m3,39.55c-.34,0-.68-.14-.92-.38-.24-.24-.38-.58-.38-.92s.14-.68.38-.92c.49-.48,1.36-.49,1.84,0,.24.24.38.58.38.92s-.14.68-.38.92c-.24.24-.58.38-.92.38Z"/><path class="cls-8" d="m3.5,43.3c-.34,0-.67-.14-.92-.38-.24-.24-.38-.58-.38-.92s.14-.68.38-.92c.49-.48,1.36-.48,1.84,0,.24.24.38.58.38.92s-.14.68-.38.92c-.24.24-.58.38-.92.38Z"/><path class="cls-8" d="m2.75,49.3c-.34,0-.67-.14-.92-.38-.24-.24-.38-.58-.38-.92s.14-.67.38-.92c.49-.48,1.35-.48,1.84,0,.24.24.38.58.38.92s-.14.68-.38.92c-.24.24-.58.38-.92.38Z"/><path class="cls-8" d="m3.75,52.3c-.34,0-.67-.14-.92-.38-.24-.24-.38-.58-.38-.92s.14-.67.38-.92c.49-.48,1.36-.48,1.84,0,.24.25.38.58.38.92s-.14.68-.38.92c-.24.24-.58.38-.92.38Z"/><path class="cls-8" d="m7.25,50.3c-.34,0-.67-.14-.92-.38-.24-.24-.38-.58-.38-.92s.14-.68.38-.92c.48-.48,1.36-.48,1.84,0,.24.24.38.58.38.92s-.14.68-.38.92c-.24.24-.58.38-.92.38Z"/><path class="cls-8" d="m5.5,46.3c-.34,0-.68-.14-.92-.38-.24-.24-.38-.58-.38-.92s.14-.68.38-.92c.49-.48,1.36-.48,1.84,0,.24.25.38.58.38.92s-.14.68-.38.92c-.24.24-.58.38-.92.38Z"/><path class="cls-8" d="m9.5,46.8c-.34,0-.67-.14-.92-.38-.24-.24-.38-.58-.38-.92s.14-.68.38-.92c.48-.48,1.36-.48,1.84,0,.25.25.38.58.38.92s-.14.68-.38.92c-.24.24-.58.38-.92.38Z"/><path class="cls-8" d="m12,49.8c-.34,0-.67-.14-.92-.38-.24-.24-.38-.58-.38-.92s.14-.67.38-.92c.48-.48,1.36-.48,1.84,0,.24.25.38.58.38.92s-.14.68-.38.92c-.24.24-.58.38-.92.38Z"/><path class="cls-8" d="m15,50.8c-.34,0-.68-.14-.92-.38-.24-.24-.38-.58-.38-.92s.14-.68.38-.92c.49-.48,1.36-.48,1.84,0,.24.24.38.58.38.92s-.14.68-.38.92c-.24.24-.58.38-.92.38Z"/><path class="cls-8" d="m17.75,52.3c-.34,0-.67-.14-.92-.38-.24-.24-.38-.58-.38-.92s.14-.68.38-.92c.49-.48,1.36-.48,1.84,0,.24.24.38.58.38.92s-.14.68-.38.92c-.24.24-.58.38-.92.38Z"/><path class="cls-8" d="m12.5,45.55c-.34,0-.67-.14-.92-.38-.24-.24-.38-.58-.38-.92s.14-.68.38-.92c.49-.48,1.36-.48,1.84,0,.24.24.38.58.38.92s-.14.68-.38.92c-.24.24-.58.38-.92.38Z"/><path class="cls-8" d="m16,46.8c-.34,0-.67-.14-.92-.38-.24-.24-.38-.58-.38-.92s.14-.68.38-.92c.48-.48,1.36-.48,1.84,0,.24.24.38.58.38.92s-.14.68-.38.92c-.24.24-.58.38-.92.38Z"/><path class="cls-8" d="m19.25,47.8c-.34,0-.68-.14-.92-.38-.24-.24-.38-.58-.38-.92s.14-.67.38-.92c.49-.48,1.36-.48,1.84,0,.24.25.38.58.38.92s-.14.68-.38.92c-.24.24-.57.38-.92.38Z"/><path class="cls-8" d="m16.25,42.3c-.34,0-.68-.14-.92-.38-.24-.24-.38-.58-.38-.92s.14-.68.38-.92c.49-.48,1.36-.48,1.84,0,.24.24.38.58.38.92s-.14.68-.38.92c-.24.24-.58.38-.92.38Z"/><path class="cls-8" d="m20.25,43.3c-.34,0-.67-.14-.92-.38-.24-.24-.38-.58-.38-.92s.14-.67.38-.92c.49-.48,1.36-.48,1.84,0,.24.25.38.58.38.92s-.14.68-.38.92c-.24.24-.58.38-.92.38Z"/><path class="cls-8" d="m21,39.05c-.34,0-.67-.14-.92-.38-.24-.24-.38-.58-.38-.92s.14-.68.38-.92c.49-.48,1.36-.48,1.84,0,.24.24.38.58.38.92s-.14.68-.38.92c-.24.24-.58.38-.92.38Z"/><path class="cls-8" d="m23.5,42.05c-.34,0-.68-.14-.92-.38-.24-.24-.38-.58-.38-.92s.14-.68.38-.92c.48-.48,1.36-.49,1.84,0,.24.24.38.58.38.92s-.14.68-.38.92c-.24.24-.57.38-.92.38Z"/><path class="cls-8" d="m26.25,39.55c-.34,0-.68-.14-.92-.38-.24-.24-.38-.58-.38-.92s.14-.67.38-.92c.49-.48,1.36-.48,1.84,0,.24.25.38.58.38.92s-.14.68-.38.92c-.24.24-.58.38-.92.38Z"/><path class="cls-8" d="m22.5,46.05c-.34,0-.67-.14-.92-.38-.24-.24-.38-.58-.38-.92s.14-.68.38-.92c.49-.48,1.36-.48,1.84,0,.24.24.38.58.38.92s-.14.68-.38.92c-.24.24-.58.38-.92.38Z"/><path class="cls-8" d="m26,48.05c-.34,0-.67-.14-.92-.38-.24-.24-.38-.58-.38-.92s.14-.68.38-.92c.49-.48,1.36-.48,1.84,0,.24.24.38.58.38.92s-.14.68-.38.92c-.24.24-.58.38-.92.38Z"/><path class="cls-8" d="m26,52.05c-.34,0-.68-.14-.92-.38-.24-.24-.38-.58-.38-.92s.14-.68.38-.92c.49-.48,1.36-.48,1.84,0,.24.24.38.58.38.92s-.14.68-.38.92c-.24.24-.58.38-.92.38Z"/><path class="cls-8" d="m22,50.3c-.34,0-.68-.14-.92-.38-.24-.24-.38-.58-.38-.92s.14-.68.38-.92c.49-.48,1.36-.48,1.84,0,.24.25.38.58.38.92s-.14.68-.38.92c-.24.24-.57.38-.92.38Z"/><path class="cls-8" d="m29.5,49.05c-.34,0-.67-.14-.92-.38-.24-.24-.38-.58-.38-.92s.14-.68.38-.92c.49-.48,1.36-.48,1.84,0,.24.24.38.58.38.92s-.14.68-.38.92c-.24.24-.57.38-.92.38Z"/><path class="cls-8" d="m31.5,45.8c-.34,0-.68-.14-.92-.38-.24-.24-.38-.58-.38-.92s.14-.68.38-.92c.49-.48,1.35-.48,1.84,0,.25.25.38.58.38.92s-.14.68-.38.92c-.24.24-.58.38-.92.38Z"/><path class="cls-8" d="m30.25,41.8c-.34,0-.68-.14-.92-.38-.24-.24-.38-.58-.38-.92s.14-.68.38-.92c.49-.48,1.36-.48,1.84,0,.24.24.38.58.38.92s-.14.68-.38.92c-.24.24-.58.38-.92.38Z"/><path class="cls-8" d="m30.25,37.8c-.34,0-.67-.14-.92-.38-.24-.24-.38-.58-.38-.92s.14-.68.38-.92c.49-.48,1.36-.48,1.84,0,.24.24.38.58.38.92s-.14.68-.38.92c-.24.24-.58.38-.92.38Z"/><path class="cls-8" d="m27,36.05c-.34,0-.67-.14-.92-.38-.24-.24-.38-.58-.38-.92s.14-.68.38-.92c.49-.48,1.36-.48,1.84,0,.24.24.38.58.38.92s-.14.68-.38.92c-.24.24-.58.38-.92.38Z"/><path class="cls-8" d="m23.5,36.05c-.34,0-.68-.14-.92-.38-.24-.24-.38-.58-.38-.92s.14-.68.38-.92c.49-.48,1.36-.48,1.84,0,.24.24.38.58.38.92s-.14.68-.38.92c-.24.24-.57.38-.92.38Z"/><path class="cls-8" d="m30,32.55c-.34,0-.67-.14-.92-.38-.24-.24-.38-.58-.38-.92s.14-.68.38-.92c.49-.48,1.36-.48,1.84,0,.24.25.38.58.38.92s-.14.68-.38.92c-.24.24-.58.38-.92.38Z"/><path class="cls-8" d="m33,35.3c-.34,0-.67-.14-.92-.38-.24-.24-.38-.58-.38-.92s.14-.67.38-.92c.49-.48,1.36-.48,1.84,0,.24.24.38.58.38.92s-.14.68-.38.92c-.24.24-.58.38-.92.38Z"/><path class="cls-8" d="m36,35.8c-.34,0-.67-.14-.92-.38-.24-.24-.38-.58-.38-.92s.14-.68.38-.92c.49-.48,1.36-.48,1.84,0,.24.24.38.58.38.92s-.14.68-.38.92c-.24.24-.58.38-.92.38Z"/><path class="cls-8" d="m33.5,39.8c-.34,0-.67-.14-.92-.38-.24-.24-.38-.58-.38-.92s.14-.67.38-.92c.49-.48,1.36-.48,1.84,0,.24.24.38.58.38.92s-.14.68-.38.92c-.24.24-.58.38-.92.38Z"/><path class="cls-8" d="m34.5,43.55c-.34,0-.68-.14-.92-.38-.24-.24-.38-.58-.38-.92s.14-.68.38-.92c.49-.48,1.36-.48,1.84,0,.24.24.38.58.38.92s-.14.68-.38.92c-.24.24-.57.38-.92.38Z"/><path class="cls-8" d="m31.5,45.8c-.34,0-.68-.14-.92-.38-.24-.24-.38-.58-.38-.92s.14-.68.38-.92c.49-.48,1.35-.48,1.84,0,.25.25.38.58.38.92s-.14.68-.38.92c-.24.24-.58.38-.92.38Z"/><path class="cls-8" d="m34.75,47.3c-.34,0-.67-.14-.92-.38-.24-.24-.38-.58-.38-.92s.14-.68.38-.92c.49-.49,1.36-.48,1.84,0,.25.25.38.58.38.92s-.14.67-.38.92c-.24.24-.58.38-.92.38Z"/><path class="cls-8" d="m37.75,51.55c-.34,0-.68-.14-.92-.38-.24-.24-.38-.58-.38-.92s.14-.68.38-.92c.49-.49,1.36-.48,1.84,0,.24.24.38.58.38.92s-.14.68-.38.92c-.24.24-.58.38-.92.38Z"/><path class="cls-8" d="m32.75,50.55c-.34,0-.67-.14-.92-.38-.24-.24-.38-.58-.38-.92s.14-.68.38-.92c.49-.48,1.36-.48,1.84,0,.24.24.38.58.38.92s-.14.67-.38.92c-.24.24-.58.38-.92.38Z"/><path class="cls-8" d="m38.5,47.55c-.34,0-.67-.14-.92-.38-.24-.24-.38-.58-.38-.92s.14-.68.38-.92c.48-.48,1.36-.48,1.84,0,.24.24.38.58.38.92s-.14.68-.38.92c-.24.24-.57.38-.92.38Z"/><path class="cls-8" d="m38.25,43.05c-.34,0-.68-.14-.92-.38-.24-.24-.38-.58-.38-.92s.14-.68.38-.92c.49-.48,1.36-.48,1.84,0,.24.24.38.58.38.92s-.14.68-.38.92c-.24.24-.57.38-.92.38Z"/><path class="cls-8" d="m37.5,39.55c-.34,0-.67-.14-.92-.38-.24-.24-.38-.58-.38-.92s.14-.68.38-.92c.49-.48,1.36-.48,1.84,0,.25.25.38.58.38.92s-.13.67-.38.92c-.24.24-.58.38-.92.38Z"/><path class="cls-8" d="m33,35.3c-.34,0-.67-.14-.92-.38-.24-.24-.38-.58-.38-.92s.14-.67.38-.92c.49-.48,1.36-.48,1.84,0,.24.24.38.58.38.92s-.14.68-.38.92c-.24.24-.58.38-.92.38Z"/><path class="cls-8" d="m36,35.8c-.34,0-.67-.14-.92-.38-.24-.24-.38-.58-.38-.92s.14-.68.38-.92c.49-.48,1.36-.48,1.84,0,.24.24.38.58.38.92s-.14.68-.38.92c-.24.24-.58.38-.92.38Z"/><path class="cls-8" d="m33.75,32.05c-.34,0-.67-.14-.92-.38-.24-.24-.38-.58-.38-.92s.14-.68.38-.92c.48-.48,1.36-.48,1.84,0,.24.24.38.58.38.92s-.14.68-.38.92c-.24.24-.58.38-.92.38Z"/><path class="cls-8" d="m33.25,28.05c-.34,0-.68-.14-.92-.38-.24-.24-.38-.58-.38-.92s.14-.68.38-.92c.49-.48,1.36-.48,1.84,0,.24.24.38.58.38.92s-.14.68-.38.92c-.24.24-.57.38-.92.38Z"/><path class="cls-8" d="m37,28.3c-.34,0-.67-.14-.92-.38-.24-.24-.38-.58-.38-.92s.14-.68.38-.92c.49-.48,1.36-.48,1.84,0,.24.24.38.58.38.92s-.14.68-.38.92c-.24.24-.58.38-.92.38Z"/><path class="cls-8" d="m37.75,32.8c-.34,0-.67-.14-.92-.38-.24-.24-.38-.58-.38-.92s.14-.68.38-.92c.49-.49,1.36-.48,1.84,0,.24.24.38.58.38.92s-.14.68-.38.92c-.24.24-.58.38-.92.38Z"/><path class="cls-8" d="m40,36.05c-.34,0-.68-.14-.92-.38-.24-.24-.38-.58-.38-.92s.14-.68.38-.92c.48-.48,1.36-.48,1.84,0,.24.24.38.58.38.92s-.14.68-.38.92c-.24.24-.58.38-.92.38Z"/><path class="cls-8" d="m43,38.55c-.34,0-.68-.14-.92-.38-.24-.24-.38-.58-.38-.92s.14-.68.38-.92c.48-.48,1.36-.48,1.84,0,.24.24.38.58.38.92s-.14.68-.38.92c-.24.24-.58.38-.92.38Z"/><path class="cls-8" d="m42.5,42.3c-.34,0-.68-.14-.92-.38-.24-.24-.38-.58-.38-.92s.14-.68.38-.92c.49-.49,1.36-.48,1.84,0,.24.24.38.58.38.92s-.14.68-.38.92c-.24.24-.58.38-.92.38Z"/><path class="cls-8" d="m41.75,46.05c-.34,0-.67-.14-.92-.38-.24-.24-.38-.58-.38-.92s.14-.68.38-.92c.48-.48,1.36-.49,1.84,0,.24.24.38.58.38.92s-.14.68-.38.92c-.24.24-.58.38-.92.38Z"/><path class="cls-8" d="m43.75,49.55c-.34,0-.67-.14-.92-.38-.24-.24-.38-.58-.38-.92s.14-.68.38-.92c.48-.48,1.36-.49,1.84,0,.24.24.38.58.38.92s-.14.68-.38.92c-.24.24-.58.38-.92.38Z"/><path class="cls-8" d="m46.75,46.55c-.34,0-.68-.14-.92-.38-.24-.24-.38-.58-.38-.92s.14-.68.38-.92c.49-.48,1.36-.48,1.84,0,.24.24.38.58.38.92s-.14.68-.38.92c-.24.24-.58.38-.92.38Z"/><path class="cls-8" d="m46.75,51.05c-.34,0-.67-.14-.92-.38-.24-.24-.38-.58-.38-.92s.14-.68.38-.92c.49-.48,1.36-.48,1.84,0,.24.24.38.58.38.92s-.14.68-.38.92c-.24.24-.58.38-.92.38Z"/><path class="cls-8" d="m46.5,41.8c-.34,0-.68-.14-.92-.38-.24-.24-.38-.58-.38-.92s.14-.68.38-.92c.49-.48,1.36-.48,1.84,0,.24.24.38.58.38.92s-.14.68-.38.92c-.24.24-.58.38-.92.38Z"/><path class="cls-8" d="m47.75,38.8c-.34,0-.67-.14-.92-.38-.24-.24-.38-.58-.38-.92s.14-.68.38-.92c.48-.48,1.35-.48,1.84,0,.24.24.38.58.38.92s-.14.68-.38.92c-.24.24-.57.38-.92.38Z"/><path class="cls-8" d="m44.5,34.8c-.34,0-.68-.14-.92-.38-.24-.24-.38-.58-.38-.92s.14-.68.38-.92c.49-.48,1.36-.48,1.84,0,.24.24.38.58.38.92s-.14.68-.38.92c-.25.24-.57.38-.92.38Z"/><path class="cls-8" d="m42.75,32.3c-.34,0-.67-.14-.92-.38-.24-.24-.38-.58-.38-.92s.14-.67.38-.92c.49-.49,1.36-.48,1.84,0,.24.25.38.58.38.92s-.14.68-.38.92c-.24.24-.58.38-.92.38Z"/><path class="cls-8" d="m40.75,30.05c-.34,0-.67-.14-.92-.38-.24-.24-.38-.58-.38-.92s.14-.68.38-.92c.49-.49,1.36-.48,1.84,0,.24.24.38.58.38.92s-.14.68-.38.92c-.24.24-.57.38-.92.38Z"/><path class="cls-8" d="m44,28.05c-.34,0-.68-.14-.92-.38-.24-.24-.38-.58-.38-.92s.14-.68.38-.92c.49-.48,1.36-.48,1.84,0,.24.24.38.58.38.92s-.14.68-.38.92c-.24.24-.58.38-.92.38Z"/><path class="cls-8" d="m43,24.05c-.34,0-.67-.14-.92-.38-.24-.24-.38-.58-.38-.92s.14-.68.38-.92c.48-.48,1.36-.48,1.84,0,.24.24.38.58.38.92s-.14.68-.38.92c-.24.24-.58.38-.92.38Z"/><path class="cls-8" d="m47.75,26.8c-.34,0-.67-.14-.92-.38-.24-.24-.38-.58-.38-.92s.14-.68.38-.92c.49-.48,1.35-.48,1.84,0,.24.24.38.58.38.92s-.14.68-.38.92c-.24.24-.58.38-.92.38Z"/><path class="cls-8" d="m46.5,31.05c-.34,0-.67-.14-.92-.38-.24-.24-.38-.58-.38-.92s.14-.68.38-.92c.49-.48,1.36-.48,1.84,0,.24.24.38.58.38.92s-.14.68-.38.92c-.24.24-.58.38-.92.38Z"/><path class="cls-8" d="m48.5,34.3c-.34,0-.67-.14-.92-.38-.24-.24-.38-.58-.38-.92s.14-.68.38-.92c.48-.48,1.36-.48,1.84,0,.24.24.38.58.38.92s-.14.68-.38.92c-.24.24-.58.38-.92.38Z"/><path class="cls-8" d="m51.75,36.8c-.34,0-.67-.14-.92-.38-.24-.25-.38-.58-.38-.92s.14-.68.38-.92c.48-.48,1.35-.48,1.84,0,.24.24.38.58.38.92s-.14.68-.38.92c-.24.24-.58.38-.92.38Z"/><path class="cls-8" d="m51.5,40.8c-.34,0-.67-.14-.92-.38-.24-.25-.38-.58-.38-.92s.14-.67.38-.92c.49-.48,1.36-.48,1.84,0,.24.24.38.58.38.92s-.14.68-.38.92c-.24.24-.58.38-.92.38Z"/><path class="cls-8" d="m50.5,44.8c-.34,0-.67-.14-.92-.38-.24-.24-.38-.58-.38-.92s.14-.67.38-.92c.49-.49,1.36-.48,1.84,0,.24.25.38.58.38.92s-.14.68-.38.92c-.24.24-.58.38-.92.38Z"/><path class="cls-8" d="m54.25,44.05c-.34,0-.68-.14-.92-.38-.24-.24-.38-.58-.38-.92s.14-.68.38-.92c.49-.48,1.36-.48,1.84,0,.24.24.38.58.38.92s-.14.68-.38.92c-.24.24-.58.38-.92.38Z"/><path class="cls-8" d="m54,48.55c-.34,0-.68-.14-.92-.38-.24-.24-.38-.58-.38-.92s.14-.68.38-.92c.49-.48,1.36-.48,1.84,0,.24.24.38.58.38.92s-.14.68-.38.92c-.24.24-.58.38-.92.38Z"/><path class="cls-8" d="m56.75,51.55c-.34,0-.67-.14-.92-.38-.24-.24-.38-.58-.38-.92s.14-.68.38-.92c.49-.48,1.35-.49,1.84,0,.24.24.38.58.38.92s-.14.68-.38.92c-.24.24-.57.38-.92.38Z"/><path class="cls-8" d="m57.5,46.8c-.34,0-.67-.14-.92-.38-.24-.24-.38-.58-.38-.92s.14-.68.38-.92c.49-.48,1.36-.48,1.84,0,.24.24.38.58.38.92s-.14.68-.38.92c-.24.24-.58.38-.92.38Z"/><path class="cls-8" d="m57.5,43.05c-.34,0-.68-.14-.92-.38-.24-.24-.38-.58-.38-.92s.14-.68.38-.92c.49-.48,1.36-.48,1.84,0,.24.24.38.58.38.92s-.14.68-.38.92c-.24.24-.57.38-.92.38Z"/><path class="cls-8" d="m56.5,39.05c-.34,0-.67-.14-.92-.38-.24-.24-.38-.58-.38-.92s.14-.68.38-.92c.48-.48,1.36-.48,1.84,0,.24.24.38.58.38.92s-.14.68-.38.92c-.24.24-.58.38-.92.38Z"/><path class="cls-8" d="m27.25,44.05c-.34,0-.67-.14-.92-.38-.24-.24-.38-.58-.38-.92s.14-.68.38-.92c.49-.48,1.36-.49,1.84,0,.24.24.38.58.38.92s-.14.68-.38.92c-.24.24-.58.38-.92.38Z"/><path class="cls-8" d="m70.25,33.3c-.34,0-.68-.14-.92-.38-.24-.24-.38-.58-.38-.92s.14-.68.38-.92c.49-.49,1.36-.48,1.84,0,.24.24.38.58.38.92s-.14.68-.38.92c-.24.24-.58.38-.92.38Z"/><path class="cls-8" d="m71.25,29.05c-.34,0-.67-.14-.92-.38-.24-.24-.38-.58-.38-.92s.14-.68.38-.92c.49-.48,1.36-.48,1.84,0,.24.24.38.58.38.92s-.14.68-.38.92c-.24.24-.58.38-.92.38Z"/><path class="cls-8" d="m68,27.3c-.34,0-.67-.14-.92-.38-.24-.24-.38-.58-.38-.92s.14-.67.38-.92c.49-.49,1.36-.48,1.84,0,.24.24.38.58.38.92s-.14.68-.38.92c-.24.24-.58.38-.92.38Z"/><path class="cls-8" d="m68.25,36.55c-.34,0-.68-.14-.92-.38-.24-.24-.38-.58-.38-.92s.14-.68.38-.92c.49-.48,1.36-.48,1.84,0,.24.24.38.58.38.92s-.14.68-.38.92c-.24.24-.57.38-.92.38Z"/><path class="cls-8" d="m68,40.3c-.34,0-.67-.14-.92-.38-.24-.24-.38-.58-.38-.92s.14-.68.38-.92c.49-.49,1.36-.48,1.84,0,.24.24.38.58.38.92s-.14.68-.38.92c-.24.24-.58.38-.92.38Z"/><path class="cls-8" d="m71.5,39.05c-.34,0-.68-.14-.92-.38-.24-.24-.38-.58-.38-.92s.14-.68.38-.92c.49-.48,1.36-.48,1.84,0,.24.24.38.58.38.92s-.14.68-.38.92c-.24.24-.58.38-.92.38Z"/><path class="cls-8" d="m70.75,43.05c-.34,0-.67-.14-.92-.38-.24-.24-.38-.58-.38-.92s.14-.67.38-.92c.48-.48,1.36-.48,1.84,0,.24.24.38.58.38.92s-.14.68-.38.92c-.24.24-.58.38-.92.38Z"/><path class="cls-8" d="m70,50.55c-.34,0-.67-.14-.92-.38-.24-.24-.38-.58-.38-.92s.14-.68.38-.92c.48-.48,1.36-.49,1.84,0,.24.24.38.58.38.92s-.14.68-.38.92c-.24.24-.58.38-.92.38Z"/><path class="cls-8" d="m69,47.05c-.34,0-.67-.14-.92-.38-.24-.24-.38-.58-.38-.92s.14-.68.38-.92c.49-.48,1.36-.48,1.84,0,.24.24.38.58.38.92s-.14.68-.38.92c-.24.24-.58.38-.92.38Z"/><path class="cls-8" d="m66.5,31.05c-.34,0-.68-.14-.92-.38-.24-.24-.38-.58-.38-.92s.14-.68.38-.92c.48-.48,1.36-.48,1.84,0,.24.24.38.58.38.92s-.14.68-.38.92c-.24.24-.58.38-.92.38Z"/><path class="cls-8" d="m63,31.3c-.34,0-.67-.14-.92-.38-.24-.24-.38-.58-.38-.92s.14-.68.38-.92c.49-.48,1.35-.48,1.84,0,.24.24.38.58.38.92s-.14.68-.38.92c-.24.24-.57.38-.92.38Z"/><path class="cls-8" d="m64,26.55c-.34,0-.67-.14-.92-.38-.24-.24-.38-.58-.38-.92s.14-.68.38-.92c.49-.48,1.35-.48,1.84,0,.24.24.38.58.38.92s-.14.68-.38.92c-.24.24-.58.38-.92.38Z"/><path class="cls-8" d="m60.5,28.05c-.34,0-.67-.14-.92-.38-.24-.24-.38-.58-.38-.92s.14-.68.38-.92c.49-.48,1.35-.48,1.84,0,.24.24.38.58.38.92s-.14.68-.38.92c-.24.24-.57.38-.92.38Z"/><path class="cls-8" d="m56.75,27.05c-.34,0-.67-.14-.92-.38-.24-.24-.38-.58-.38-.92s.14-.68.38-.92c.49-.48,1.35-.48,1.84,0,.24.24.38.58.38.92s-.14.68-.38.92c-.24.24-.58.38-.92.38Z"/><path class="cls-8" d="m53.25,28.8c-.34,0-.67-.14-.92-.38-.24-.24-.38-.58-.38-.92s.14-.68.38-.92c.48-.48,1.35-.49,1.84,0,.24.24.38.58.38.92s-.14.68-.38.92c-.24.24-.57.38-.92.38Z"/><path class="cls-8" d="m50.25,29.8c-.34,0-.67-.14-.92-.38-.24-.24-.38-.58-.38-.92s.14-.68.38-.92c.49-.48,1.36-.48,1.84,0,.24.24.38.58.38.92s-.14.68-.38.92c-.24.24-.58.38-.92.38Z"/><path class="cls-8" d="m52.5,33.55c-.34,0-.67-.14-.92-.38-.24-.24-.38-.58-.38-.92s.14-.68.38-.92c.49-.48,1.35-.48,1.84,0,.24.24.38.58.38.92s-.14.68-.38.92c-.24.24-.58.38-.92.38Z"/><path class="cls-8" d="m56.75,31.05c-.34,0-.67-.14-.92-.38-.24-.24-.38-.58-.38-.92s.14-.68.38-.92c.49-.48,1.35-.48,1.84,0,.24.24.38.58.38.92s-.14.68-.38.92c-.24.24-.58.38-.92.38Z"/><path class="cls-8" d="m59.75,34.05c-.34,0-.68-.14-.92-.38-.24-.24-.38-.58-.38-.92s.14-.67.38-.92c.49-.48,1.36-.48,1.84,0,.24.24.38.58.38.92s-.14.68-.38.92c-.24.24-.58.38-.92.38Z"/><path class="cls-8" d="m56,35.55c-.34,0-.68-.14-.92-.38-.24-.24-.38-.58-.38-.92s.14-.68.38-.92c.48-.48,1.35-.49,1.84,0,.24.24.38.58.38.92s-.14.68-.38.92c-.24.24-.57.38-.92.38Z"/><path class="cls-8" d="m60,38.3c-.34,0-.67-.14-.92-.38-.24-.24-.38-.58-.38-.92s.14-.68.38-.92c.49-.48,1.35-.48,1.84,0,.24.24.38.58.38.92s-.14.68-.38.92c-.24.24-.58.38-.92.38Z"/><path class="cls-8" d="m64.5,34.8c-.34,0-.67-.14-.91-.38-.25-.24-.39-.58-.39-.92s.14-.68.38-.92c.48-.48,1.35-.49,1.84,0,.24.24.38.58.38.92s-.14.68-.38.92c-.24.24-.58.38-.92.38Z"/><path class="cls-8" d="m64.25,38.05c-.34,0-.67-.14-.92-.38-.24-.24-.38-.58-.38-.92s.14-.68.38-.92c.48-.48,1.35-.48,1.84,0,.24.24.38.58.38.92s-.14.68-.38.92c-.24.24-.58.38-.92.38Z"/><path class="cls-8" d="m61.5,42.3c-.34,0-.67-.14-.92-.38-.24-.24-.38-.58-.38-.92s.14-.68.38-.92c.49-.48,1.35-.48,1.84,0,.24.24.38.58.38.92s-.14.68-.38.92c-.24.24-.57.38-.92.38Z"/><path class="cls-8" d="m62.75,46.3c-.34,0-.67-.14-.92-.38-.24-.24-.38-.58-.38-.92s.14-.68.38-.92c.49-.48,1.35-.48,1.84,0,.24.24.38.58.38.92s-.14.68-.38.92c-.24.24-.57.38-.92.38Z"/><path class="cls-8" d="m57.5,46.8c-.34,0-.67-.14-.92-.38-.24-.24-.38-.58-.38-.92s.14-.68.38-.92c.49-.48,1.36-.48,1.84,0,.24.24.38.58.38.92s-.14.68-.38.92c-.24.24-.58.38-.92.38Z"/><path class="cls-8" d="m60.25,49.05c-.34,0-.68-.14-.92-.38-.24-.25-.38-.58-.38-.92s.14-.68.38-.92c.49-.48,1.35-.48,1.84,0,.24.24.38.58.38.92s-.13.68-.38.92c-.24.24-.58.38-.92.38Z"/><path class="cls-8" d="m65.75,49.3c-.34,0-.67-.14-.92-.38-.24-.24-.38-.58-.38-.92s.14-.68.38-.92c.49-.49,1.36-.48,1.84,0,.24.24.38.58.38.92s-.14.68-.38.92c-.24.24-.57.38-.92.38Z"/><path class="cls-8" d="m65.5,43.55c-.34,0-.67-.14-.92-.38-.24-.24-.38-.58-.38-.92s.14-.68.38-.92c.49-.48,1.37-.48,1.84,0,.24.24.38.58.38.92s-.14.68-.38.92c-.24.24-.58.38-.92.38Z"/><path class="cls-8" d="m50,49.05c-.34,0-.67-.14-.92-.38-.24-.24-.38-.58-.38-.92s.14-.67.38-.92c.49-.48,1.36-.48,1.84,0,.24.25.38.58.38.92s-.14.67-.38.92c-.24.24-.58.38-.92.38Z"/><path class="cls-8" d="m61.75,52.8c-.34,0-.67-.14-.92-.38-.24-.24-.38-.58-.38-.92s.14-.67.38-.92c.49-.48,1.36-.48,1.84,0,.24.24.38.58.38.92s-.14.68-.38.92c-.24.24-.58.38-.92.38Z"/><path class="cls-8" d="m6.75,58.8c-.34,0-.67-.14-.92-.38-.24-.24-.38-.58-.38-.92s.14-.68.38-.92c.48-.48,1.36-.48,1.84,0,.24.25.38.58.38.92s-.14.68-.38.92c-.24.24-.58.38-.92.38Z"/><path class="cls-8" d="m7.75,54.3c-.34,0-.67-.14-.92-.38-.24-.24-.38-.58-.38-.92s.14-.68.38-.92c.49-.48,1.35-.48,1.84,0,.24.24.38.58.38.92s-.14.68-.38.92c-.24.24-.58.38-.92.38Z"/><path class="cls-8" d="m11,53.05c-.34,0-.67-.14-.92-.38-.24-.24-.38-.58-.38-.92s.14-.68.38-.92c.49-.48,1.36-.48,1.84,0,.24.24.38.58.38.92s-.14.68-.38.92c-.24.24-.58.38-.92.38Z"/><path class="cls-8" d="m10,57.05c-.34,0-.67-.14-.92-.38-.24-.24-.38-.58-.38-.92s.14-.68.38-.92c.49-.48,1.36-.48,1.84,0,.24.24.38.58.38.92s-.14.68-.38.92c-.24.24-.58.38-.92.38Z"/><path class="cls-8" d="m13.5,59.05c-.34,0-.67-.14-.92-.38-.24-.24-.38-.58-.38-.92s.14-.68.38-.92c.49-.48,1.36-.48,1.84,0,.24.24.38.58.38.92s-.14.68-.38.92c-.24.24-.58.38-.92.38Z"/><path class="cls-8" d="m13.5,63.05c-.34,0-.67-.14-.92-.38-.24-.24-.38-.58-.38-.92s.14-.68.38-.92c.49-.48,1.36-.48,1.84,0,.24.24.38.58.38.92s-.14.68-.38.92c-.24.24-.58.38-.92.38Z"/><path class="cls-8" d="m9.5,61.3c-.34,0-.67-.14-.92-.38-.24-.24-.38-.58-.38-.92s.14-.68.38-.92c.48-.48,1.36-.48,1.84,0,.25.24.38.58.38.92s-.13.68-.38.92c-.24.24-.58.38-.92.38Z"/><path class="cls-8" d="m17,60.05c-.34,0-.68-.14-.92-.38-.24-.24-.38-.58-.38-.92s.14-.68.38-.92c.48-.48,1.36-.48,1.84,0,.24.24.38.58.38.92s-.14.68-.38.92c-.24.24-.57.38-.92.38Z"/><path class="cls-8" d="m17.25,63.05c-.34,0-.68-.14-.92-.38-.24-.24-.38-.58-.38-.92s.14-.67.38-.92c.49-.48,1.36-.48,1.84,0,.24.25.38.58.38.92s-.14.68-.38.92c-.24.24-.57.38-.92.38Z"/><path class="cls-8" d="m19,56.8c-.34,0-.67-.14-.92-.38-.24-.24-.38-.58-.38-.92s.14-.68.38-.92c.48-.48,1.36-.49,1.84,0,.24.24.38.58.38.92s-.14.68-.38.92c-.24.24-.58.38-.92.38Z"/><path class="cls-8" d="m22,54.55c-.34,0-.67-.14-.92-.38-.24-.24-.38-.58-.38-.92s.14-.68.38-.92c.49-.48,1.36-.48,1.84,0,.24.24.38.58.38.92s-.14.68-.38.92c-.24.24-.58.38-.92.38Z"/><path class="cls-8" d="m19,56.8c-.34,0-.67-.14-.92-.38-.24-.24-.38-.58-.38-.92s.14-.68.38-.92c.48-.48,1.36-.49,1.84,0,.24.24.38.58.38.92s-.14.68-.38.92c-.24.24-.58.38-.92.38Z"/><path class="cls-8" d="m22.25,58.3c-.34,0-.67-.14-.92-.38-.24-.24-.38-.58-.38-.92s.14-.68.38-.92c.49-.48,1.36-.48,1.84,0,.24.24.38.58.38.92s-.14.68-.38.92c-.24.24-.58.38-.92.38Z"/><path class="cls-8" d="m25.25,62.55c-.34,0-.67-.14-.92-.38-.24-.24-.38-.58-.38-.92s.14-.68.38-.92c.49-.48,1.35-.48,1.84,0,.25.25.38.58.38.92s-.14.68-.38.92c-.24.24-.58.38-.92.38Z"/><path class="cls-8" d="m20.25,61.55c-.34,0-.67-.14-.92-.38-.24-.24-.38-.58-.38-.92s.14-.68.38-.92c.49-.48,1.36-.48,1.84,0,.24.24.38.58.38.92s-.14.68-.38.92c-.24.24-.57.38-.92.38Z"/><path class="cls-8" d="m26,59.55c-.34,0-.68-.14-.92-.38-.24-.24-.38-.58-.38-.92s.14-.68.38-.92c.49-.48,1.36-.48,1.84,0,.24.24.38.58.38.92s-.14.68-.38.92c-.24.24-.57.38-.92.38Z"/><path class="cls-8" d="m25.75,55.05c-.34,0-.67-.14-.92-.38-.24-.24-.38-.58-.38-.92s.14-.68.38-.92c.49-.48,1.36-.48,1.84,0,.24.24.38.58.38.92s-.14.68-.38.92c-.24.24-.58.38-.92.38Z"/><path class="cls-8" d="m30,53.3c-.34,0-.67-.14-.92-.38-.24-.24-.38-.58-.38-.92s.14-.68.38-.92c.48-.48,1.36-.48,1.84,0,.24.25.38.58.38.92s-.14.67-.38.92c-.24.24-.57.38-.92.38Z"/><path class="cls-8" d="m29.25,56.3c-.34,0-.68-.14-.92-.38-.24-.24-.38-.58-.38-.92s.14-.68.38-.92c.49-.48,1.36-.48,1.84,0,.24.24.38.58.38.92s-.14.68-.38.92c-.24.24-.57.38-.92.38Z"/><path class="cls-8" d="m30.5,60.05c-.34,0-.68-.14-.92-.38-.24-.24-.38-.58-.38-.92s.14-.67.38-.92c.49-.49,1.36-.48,1.84,0,.24.25.38.58.38.92s-.14.68-.38.92c-.24.24-.58.38-.92.38Z"/><path class="cls-8" d="m34.25,57.55c-.34,0-.67-.14-.92-.38-.24-.24-.38-.58-.38-.92s.14-.68.38-.92c.49-.49,1.36-.48,1.84,0,.24.24.38.58.38.92s-.14.68-.38.92c-.24.24-.58.38-.92.38Z"/><path class="cls-8" d="m34,63.05c-.34,0-.68-.14-.92-.38-.24-.24-.38-.58-.38-.92s.14-.68.38-.92c.48-.48,1.35-.48,1.84,0,.24.24.38.58.38.92s-.14.68-.38.92c-.24.24-.58.38-.92.38Z"/><path class="cls-8" d="m34.5,54.05c-.34,0-.67-.14-.92-.38-.24-.24-.38-.58-.38-.92s.14-.68.38-.92c.49-.48,1.36-.48,1.84,0,.24.24.38.58.38.92s-.14.68-.38.92c-.24.24-.58.38-.92.38Z"/><path class="cls-8" d="m38,55.8c-.34,0-.67-.14-.92-.38-.24-.24-.38-.58-.38-.92s.14-.68.38-.92c.48-.48,1.36-.49,1.84,0,.24.24.38.58.38.92s-.14.68-.38.92c-.24.24-.58.38-.92.38Z"/><path class="cls-8" d="m14.75,55.05c-.34,0-.68-.14-.92-.38-.24-.24-.38-.58-.38-.92s.14-.67.38-.92c.49-.48,1.36-.48,1.84,0,.24.25.38.58.38.92s-.14.68-.38.92c-.24.24-.58.38-.92.38Z"/><path class="cls-8" d="m37,59.8c-.34,0-.67-.14-.92-.38-.24-.24-.38-.58-.38-.92s.14-.68.38-.92c.49-.49,1.36-.48,1.84,0,.25.24.38.58.38.92s-.14.68-.38.92c-.24.24-.58.38-.92.38Z"/><path class="cls-8" d="m3.5,65.3c-.34,0-.68-.14-.92-.38-.24-.24-.38-.58-.38-.92s.14-.68.38-.92c.49-.48,1.36-.48,1.84,0,.24.24.38.58.38.92s-.14.68-.38.92c-.24.24-.58.38-.92.38Z"/><path class="cls-8" d="m2.5,69.3c-.34,0-.68-.14-.92-.38-.24-.24-.38-.58-.38-.92s.14-.68.38-.92c.49-.48,1.35-.48,1.84,0,.24.24.38.58.38.92s-.13.68-.38.92c-.24.24-.58.38-.92.38Z"/><path class="cls-8" d="m11.5,69.05c-.34,0-.67-.14-.92-.38-.24-.24-.38-.58-.38-.92s.14-.67.38-.92c.48-.48,1.36-.48,1.84,0,.24.25.38.58.38.92s-.14.68-.38.92c-.24.24-.58.38-.92.38Z"/><path class="cls-8" d="m10.25,65.05c-.34,0-.67-.14-.92-.38-.24-.24-.38-.58-.38-.92s.14-.68.38-.92c.49-.48,1.36-.48,1.84,0,.24.24.38.58.38.92s-.14.68-.38.92c-.24.24-.58.38-.92.38Z"/><path class="cls-8" d="m14.5,66.8c-.34,0-.68-.14-.92-.38-.24-.24-.38-.58-.38-.92s.14-.68.38-.92c.49-.48,1.36-.48,1.84,0,.24.25.38.58.38.92s-.14.68-.38.92c-.24.24-.57.38-.92.38Z"/><path class="cls-8" d="m11.5,69.05c-.34,0-.67-.14-.92-.38-.24-.24-.38-.58-.38-.92s.14-.67.38-.92c.48-.48,1.36-.48,1.84,0,.24.25.38.58.38.92s-.14.68-.38.92c-.24.24-.58.38-.92.38Z"/><path class="cls-8" d="m18.25,66.3c-.34,0-.67-.14-.92-.38-.24-.24-.38-.58-.38-.92s.14-.67.38-.92c.49-.49,1.36-.48,1.84,0,.24.24.38.58.38.92s-.14.68-.38.92c-.24.24-.58.38-.92.38Z"/><path class="cls-8" d="m22.5,65.55c-.34,0-.67-.14-.92-.38-.24-.24-.38-.58-.38-.92s.14-.67.38-.92c.49-.49,1.36-.48,1.84,0,.24.25.38.58.38.92s-.14.68-.38.92c-.24.24-.58.38-.92.38Z"/><path class="cls-8" d="m21.75,68.55c-.34,0-.67-.14-.92-.38-.24-.24-.38-.58-.38-.92s.14-.68.38-.92c.49-.48,1.35-.49,1.84,0,.24.25.38.58.38.92s-.14.68-.38.92c-.24.24-.57.38-.92.38Z"/><path class="cls-8" d="m26.75,69.8c-.34,0-.67-.14-.92-.38-.24-.24-.38-.58-.38-.92s.14-.68.38-.92c.49-.48,1.36-.48,1.84,0,.24.24.38.58.38.92s-.14.68-.38.92c-.24.24-.58.38-.92.38Z"/><path class="cls-8" d="m27,66.3c-.34,0-.67-.14-.92-.38-.24-.24-.38-.58-.38-.92s.14-.68.38-.92c.49-.48,1.35-.49,1.84,0,.24.24.38.58.38.92s-.14.68-.38.92c-.24.24-.58.38-.92.38Z"/><path class="cls-8" d="m31,68.8c-.34,0-.67-.14-.92-.38-.24-.24-.38-.58-.38-.92s.14-.68.38-.92c.48-.48,1.36-.49,1.84,0,.24.24.38.58.38.92s-.14.68-.38.92c-.24.24-.58.38-.92.38Z"/><path class="cls-8" d="m34.25,67.3c-.34,0-.67-.14-.92-.38-.24-.24-.38-.58-.38-.92s.14-.68.38-.92c.49-.49,1.36-.48,1.84,0,.24.24.38.58.38.92s-.14.68-.38.92c-.24.24-.58.38-.92.38Z"/><path class="cls-8" d="m7.25,67.3c-.34,0-.67-.14-.92-.38-.24-.24-.38-.58-.38-.92s.14-.68.38-.92c.48-.48,1.36-.49,1.84,0,.24.24.38.58.38.92s-.14.68-.38.92c-.24.24-.58.38-.92.38Z"/><path class="cls-8" d="m41.5,52.3c-.34,0-.67-.14-.92-.38-.24-.24-.38-.58-.38-.92s.14-.68.38-.92c.49-.48,1.36-.48,1.84,0,.24.24.38.58.38.92s-.14.68-.38.92c-.24.24-.58.38-.92.38Z"/><path class="cls-8" d="m44,58.55c-.34,0-.67-.14-.92-.38-.24-.24-.38-.58-.38-.92s.14-.68.38-.92c.49-.48,1.36-.48,1.84,0,.24.24.38.58.38.92s-.14.68-.38.92c-.24.24-.58.38-.92.38Z"/><path class="cls-8" d="m44.5,54.55c-.34,0-.68-.14-.92-.38-.24-.24-.38-.58-.38-.92s.14-.68.38-.92c.49-.48,1.36-.48,1.84,0,.24.24.38.58.38.92s-.14.68-.38.92c-.24.24-.58.38-.92.38Z"/><path class="cls-8" d="m49.25,53.55c-.34,0-.68-.14-.92-.38-.24-.24-.38-.58-.38-.92s.14-.67.38-.92c.49-.48,1.36-.48,1.84,0,.24.24.38.58.38.92s-.14.68-.38.92c-.24.24-.57.38-.92.38Z"/><path class="cls-8" d="m50,58.3c-.34,0-.68-.14-.92-.38-.24-.24-.38-.58-.38-.92s.14-.68.38-.92c.49-.48,1.36-.48,1.84,0,.24.24.38.58.38.92s-.14.68-.38.92c-.24.24-.58.38-.92.38Z"/><path class="cls-8" d="m47,61.05c-.34,0-.67-.14-.92-.38-.24-.24-.38-.58-.38-.92s.14-.68.38-.92c.49-.48,1.36-.48,1.84,0,.24.24.38.58.38.92s-.14.68-.38.92c-.24.24-.58.38-.92.38Z"/><path class="cls-8" d="m43.75,62.8c-.34,0-.67-.14-.92-.38-.24-.24-.38-.58-.38-.92s.14-.68.38-.92c.48-.48,1.36-.49,1.84,0,.24.24.38.58.38.92s-.14.68-.38.92c-.24.24-.58.38-.92.38Z"/><path class="cls-8" d="m44,58.55c-.34,0-.67-.14-.92-.38-.24-.24-.38-.58-.38-.92s.14-.68.38-.92c.49-.48,1.36-.48,1.84,0,.24.24.38.58.38.92s-.14.68-.38.92c-.24.24-.58.38-.92.38Z"/><path class="cls-8" d="m41.75,66.05c-.34,0-.67-.14-.92-.38-.24-.24-.38-.58-.38-.92s.14-.68.38-.92c.48-.48,1.36-.48,1.84,0,.24.24.38.58.38.92s-.14.68-.38.92c-.24.24-.58.38-.92.38Z"/><path class="cls-8" d="m46.5,65.8c-.34,0-.67-.14-.92-.38-.24-.24-.38-.58-.38-.92s.14-.68.38-.92c.49-.48,1.36-.48,1.84,0,.24.24.38.58.38.92s-.14.68-.38.92c-.24.24-.58.38-.92.38Z"/><path class="cls-8" d="m50,67.05c-.34,0-.67-.14-.92-.38-.24-.24-.38-.58-.38-.92s.14-.68.38-.92c.49-.49,1.36-.48,1.84,0,.24.25.38.58.38.92s-.14.67-.38.92c-.24.24-.58.38-.92.38Z"/><path class="cls-8" d="m50.25,62.55c-.34,0-.67-.14-.92-.38-.24-.24-.38-.58-.38-.92s.14-.68.38-.92c.49-.48,1.36-.48,1.84,0,.24.24.38.58.38.92s-.14.68-.38.92c-.24.24-.58.38-.92.38Z"/><path class="cls-8" d="m3.25,61.05c-.34,0-.68-.14-.92-.38-.24-.24-.38-.58-.38-.92s.14-.68.38-.92c.49-.49,1.36-.48,1.84,0,.24.25.38.58.38.92s-.14.68-.38.92c-.24.24-.58.38-.92.38Z"/><path class="cls-8" d="m3.75,56.3c-.34,0-.68-.14-.92-.38-.24-.24-.38-.58-.38-.92s.14-.68.38-.92c.49-.48,1.36-.48,1.84,0,.24.24.38.58.38.92s-.14.68-.38.92c-.24.24-.58.38-.92.38Z"/><path class="cls-8" d="m70,69.05c-.34,0-.67-.14-.92-.38-.24-.24-.38-.58-.38-.92s.14-.68.38-.92c.48-.48,1.36-.48,1.84,0,.24.24.38.58.38.92s-.14.68-.38.92c-.24.24-.58.38-.92.38Z"/><path class="cls-8" d="m66.75,67.55c-.34,0-.68-.14-.92-.38-.24-.24-.38-.58-.38-.92s.14-.68.38-.92c.49-.49,1.36-.48,1.84,0,.24.24.38.58.38.92s-.14.68-.38.92c-.24.24-.57.38-.92.38Z"/><path class="cls-8" d="m72.75,66.55c-.34,0-.67-.14-.92-.38-.24-.24-.38-.58-.38-.92s.14-.68.38-.92c.48-.48,1.36-.48,1.84,0,.24.24.38.58.38.92s-.14.68-.38.92c-.24.24-.58.38-.92.38Z"/><path class="cls-8" d="m69.5,53.8c-.34,0-.67-.14-.92-.38-.24-.24-.38-.58-.38-.92s.14-.68.38-.92c.49-.48,1.36-.48,1.84,0,.24.24.38.58.38.92s-.14.68-.38.92c-.24.24-.58.38-.92.38Z"/><path class="cls-8" d="m69.25,59.05c-.34,0-.68-.14-.92-.38-.24-.24-.38-.58-.38-.92s.14-.68.38-.92c.49-.48,1.37-.48,1.84,0,.24.24.38.58.38.92s-.14.68-.38.92c-.24.24-.58.38-.92.38Z"/><path class="cls-8" d="m69.5,53.8c-.34,0-.67-.14-.92-.38-.24-.24-.38-.58-.38-.92s.14-.68.38-.92c.49-.48,1.36-.48,1.84,0,.24.24.38.58.38.92s-.14.68-.38.92c-.24.24-.58.38-.92.38Z"/><path class="cls-8" d="m71,62.8c-.34,0-.68-.14-.92-.38-.24-.24-.38-.58-.38-.92s.14-.68.38-.92c.48-.48,1.35-.48,1.84,0,.24.24.38.58.38.92s-.14.68-.38.92c-.24.24-.58.38-.92.38Z"/><path class="cls-8" d="m39.25,63.3c-.34,0-.68-.14-.92-.38-.24-.24-.38-.58-.38-.92s.14-.68.38-.92c.49-.49,1.36-.48,1.84,0,.24.24.38.58.38.92s-.14.68-.38.92c-.24.24-.57.38-.92.38Z"/><path class="cls-8" d="m37.75,66.3c-.34,0-.68-.14-.92-.38-.24-.24-.38-.58-.38-.92s.14-.68.38-.92c.49-.49,1.36-.48,1.84,0,.24.24.38.58.38.92s-.14.68-.38.92c-.24.24-.57.38-.92.38Z"/><path class="cls-8" d="m53,60.55c-.34,0-.67-.14-.92-.38-.24-.24-.38-.58-.38-.92s.14-.67.38-.92c.49-.48,1.35-.48,1.84,0,.24.25.38.58.38.92s-.14.68-.38.92c-.24.24-.57.38-.92.38Z"/><path class="cls-8" d="m56,61.05c-.34,0-.68-.14-.92-.38-.24-.24-.38-.58-.38-.92s.14-.68.38-.92c.49-.48,1.35-.48,1.84,0,.24.24.38.58.38.92s-.14.68-.38.92c-.24.24-.58.38-.92.38Z"/><path class="cls-8" d="m53.5,65.05c-.34,0-.67-.14-.92-.38-.24-.24-.38-.58-.38-.92s.14-.68.38-.92c.49-.48,1.36-.48,1.84,0,.24.24.38.58.38.92s-.14.68-.38.92c-.24.24-.58.38-.92.38Z"/><path class="cls-8" d="m57.5,64.8c-.34,0-.67-.14-.92-.38-.24-.24-.38-.58-.38-.92s.14-.68.38-.92c.49-.48,1.36-.48,1.84,0,.24.24.38.58.38.92s-.14.68-.38.92c-.24.24-.58.38-.92.38Z"/><path class="cls-8" d="m53,60.55c-.34,0-.67-.14-.92-.38-.24-.24-.38-.58-.38-.92s.14-.67.38-.92c.49-.48,1.35-.48,1.84,0,.24.25.38.58.38.92s-.14.68-.38.92c-.24.24-.57.38-.92.38Z"/><path class="cls-8" d="m56,61.05c-.34,0-.68-.14-.92-.38-.24-.24-.38-.58-.38-.92s.14-.68.38-.92c.49-.48,1.35-.48,1.84,0,.24.24.38.58.38.92s-.14.68-.38.92c-.24.24-.58.38-.92.38Z"/><path class="cls-8" d="m53.75,56.55c-.34,0-.68-.14-.92-.38-.24-.24-.38-.58-.38-.92s.14-.68.38-.92c.49-.48,1.35-.48,1.84,0,.24.24.38.58.38.92s-.14.68-.38.92c-.24.24-.57.38-.92.38Z"/><path class="cls-8" d="m57.75,58.05c-.34,0-.67-.14-.92-.38-.24-.24-.38-.58-.38-.92s.14-.68.38-.92c.49-.48,1.35-.48,1.84,0,.24.24.38.58.38.92s-.14.68-.38.92c-.24.24-.58.38-.92.38Z"/><path class="cls-8" d="m60,61.3c-.34,0-.67-.14-.92-.38-.24-.24-.38-.58-.38-.92s.14-.68.38-.92c.49-.48,1.35-.48,1.84,0,.24.24.38.58.38.92s-.14.68-.38.92c-.24.24-.58.38-.92.38Z"/><path class="cls-8" d="m62,63.55c-.34,0-.68-.14-.92-.38-.24-.24-.38-.58-.38-.92s.14-.67.38-.92c.49-.48,1.35-.48,1.84,0,.24.24.38.58.38.92s-.14.68-.38.92c-.24.24-.57.38-.92.38Z"/><path class="cls-8" d="m62.5,67.55c-.34,0-.67-.14-.92-.38-.24-.24-.38-.58-.38-.92s.14-.68.38-.92c.49-.48,1.35-.48,1.84,0,.24.24.38.58.38.92s-.14.68-.38.92c-.24.24-.58.38-.92.38Z"/><path class="cls-8" d="m64.5,60.05c-.34,0-.68-.14-.92-.38-.24-.24-.38-.58-.38-.92s.14-.68.38-.92c.48-.48,1.35-.49,1.84,0,.24.24.38.58.38.92s-.14.68-.38.92c-.24.24-.57.38-.92.38Z"/><path class="cls-8" d="m62.75,57.55c-.34,0-.67-.14-.92-.38-.24-.25-.38-.58-.38-.92s.14-.68.38-.92c.49-.48,1.35-.48,1.84,0,.24.24.38.58.38.92s-.14.68-.38.92c-.24.24-.58.38-.92.38Z"/><path class="cls-8" d="m58.5,54.55c-.34,0-.67-.14-.92-.38-.24-.24-.38-.58-.38-.92s.14-.68.38-.92c.49-.48,1.35-.48,1.84,0,.24.24.38.58.38.92s-.14.68-.38.92c-.24.24-.58.38-.92.38Z"/><path class="cls-8" d="m66.5,56.3c-.34,0-.67-.14-.92-.38-.24-.24-.38-.58-.38-.92s.14-.68.38-.92c.49-.48,1.35-.48,1.84,0,.24.24.38.58.38.92s-.14.68-.38.92c-.24.24-.58.38-.92.38Z"/><path class="cls-8" d="m66.75,63.55c-.34,0-.68-.14-.92-.38-.24-.24-.38-.58-.38-.92s.14-.68.38-.92c.49-.49,1.36-.48,1.84,0,.24.24.38.58.38.92s-.14.68-.38.92c-.24.24-.57.38-.92.38Z"/><path class="cls-8" d="m53.5,53.05c-.34,0-.67-.14-.92-.38-.24-.24-.38-.58-.38-.92s.14-.68.38-.92c.49-.48,1.36-.48,1.84,0,.24.24.38.58.38.92s-.14.68-.38.92c-.24.24-.58.38-.92.38Z"/><path class="cls-8" d="m58.25,68.3c-.34,0-.68-.14-.92-.38-.24-.24-.38-.58-.38-.92s.14-.68.38-.92c.49-.48,1.36-.48,1.84,0,.24.24.38.58.38.92s-.14.68-.38.92c-.24.24-.57.38-.92.38Z"/><path class="cls-8" d="m64.25,70.3c-.34,0-.67-.14-.92-.38-.24-.24-.38-.58-.38-.92s.14-.68.38-.92c.48-.48,1.36-.48,1.84,0,.24.24.38.58.38.92s-.14.68-.38.92c-.24.24-.58.38-.92.38Z"/><path class="cls-8" d="m65.25,52.8c-.34,0-.68-.14-.92-.38-.24-.24-.38-.58-.38-.92s.14-.68.38-.92c.48-.48,1.36-.48,1.84,0,.24.24.38.58.38.92s-.14.68-.38.92c-.24.24-.58.38-.92.38Z"/><path class="cls-8" d="m9.5,26.3c-.34,0-.67-.14-.92-.38-.24-.24-.38-.58-.38-.92s.14-.68.38-.92c.48-.48,1.36-.48,1.84,0,.25.24.38.58.38.92s-.13.67-.38.92c-.24.24-.58.38-.92.38Z"/><path class="cls-8" d="m5.75,62.8c-.34,0-.67-.14-.92-.38-.24-.24-.38-.58-.38-.92s.14-.68.38-.92c.49-.48,1.36-.48,1.84,0,.24.25.38.58.38.92s-.14.67-.38.92c-.24.24-.58.38-.92.38Z"/><path class="cls-8" d="m30.25,63.8c-.34,0-.67-.14-.92-.38-.24-.24-.38-.58-.38-.92s.14-.68.38-.92c.48-.48,1.36-.48,1.84,0,.24.24.38.58.38.92s-.14.68-.38.92c-.24.24-.58.38-.92.38Z"/><path class="cls-8" d="m40.5,58.3c-.34,0-.67-.14-.92-.38-.24-.24-.38-.58-.38-.92s.14-.68.38-.92c.49-.48,1.36-.48,1.84,0,.24.24.38.58.38.92s-.14.68-.38.92c-.24.24-.58.38-.92.38Z"/><path class="cls-8" d="m47.25,56.8c-.34,0-.68-.14-.92-.38-.24-.24-.38-.58-.38-.92s.14-.68.38-.92c.49-.49,1.36-.48,1.84,0,.24.24.38.58.38.92s-.14.68-.38.92c-.24.24-.58.38-.92.38Z"/><path class="cls-8" d="m41,72.8c-.34,0-.67-.14-.92-.38-.24-.24-.38-.58-.38-.92s.14-.68.38-.92c.48-.48,1.36-.48,1.84,0,.24.24.38.58.38.92s-.14.68-.38.92c-.24.24-.58.38-.92.38Z"/><path class="cls-8" d="m11.5,74.05c-.34,0-.67-.14-.92-.38-.24-.24-.38-.58-.38-.92s.14-.68.38-.92c.48-.48,1.36-.48,1.84,0,.24.24.38.58.38.92s-.14.68-.38.92c-.24.24-.58.38-.92.38Z"/><path class="cls-8" d="m21.25,73.8c-.34,0-.67-.14-.92-.38-.24-.24-.38-.58-.38-.92s.14-.67.38-.92c.48-.48,1.35-.48,1.84,0,.24.24.38.58.38.92s-.14.68-.38.92c-.24.24-.58.38-.92.38Z"/><path class="cls-8" d="m17,74.55c-.34,0-.68-.14-.92-.38-.24-.24-.38-.58-.38-.92s.14-.68.38-.92c.49-.48,1.36-.48,1.84,0,.24.24.38.58.38.92s-.14.68-.38.92c-.24.24-.57.38-.92.38Z"/><path class="cls-8" d="m27.75,74.55c-.34,0-.68-.14-.92-.38-.24-.24-.38-.58-.38-.92s.14-.68.38-.92c.49-.48,1.36-.48,1.84,0,.24.24.38.58.38.92s-.14.68-.38.92c-.24.24-.57.38-.92.38Z"/><path class="cls-8" d="m55,73.55c-.34,0-.68-.14-.92-.38-.24-.24-.38-.58-.38-.92s.14-.68.38-.92c.49-.48,1.36-.48,1.84,0,.24.24.38.58.38.92s-.14.68-.38.92c-.24.24-.58.38-.92.38Z"/><path class="cls-8" d="m7.75,74.05c-.34,0-.67-.14-.92-.38-.24-.24-.38-.58-.38-.92s.14-.68.38-.92c.48-.48,1.36-.48,1.84,0,.24.24.38.58.38.92s-.14.67-.38.92c-.24.24-.58.38-.92.38Z"/><path class="cls-8" d="m55,73.55c-.34,0-.68-.14-.92-.38-.24-.24-.38-.58-.38-.92s.14-.68.38-.92c.49-.48,1.36-.48,1.84,0,.24.24.38.58.38.92s-.14.68-.38.92c-.24.24-.58.38-.92.38Z"/><path class="cls-8" d="m72.5,10.3c-.34,0-.68-.14-.92-.38-.24-.24-.38-.58-.38-.92s.14-.67.38-.92c.49-.49,1.36-.49,1.84,0,.24.24.38.58.38.92s-.14.68-.38.92c-.24.24-.58.38-.92.38Z"/><path class="cls-8" d="m72.75,13.55c-.34,0-.67-.14-.92-.38-.24-.24-.38-.58-.38-.92s.14-.68.38-.92c.48-.48,1.36-.49,1.84,0,.24.24.38.58.38.92s-.14.68-.38.92c-.24.24-.58.38-.92.38Z"/><path class="cls-8" d="m73,20.8c-.34,0-.68-.14-.92-.38-.24-.24-.38-.58-.38-.92s.14-.68.38-.92c.49-.48,1.36-.48,1.84,0,.24.24.38.58.38.92s-.14.68-.38.92c-.24.24-.58.38-.92.38Z"/><path class="cls-8" d="m72.25,24.05c-.34,0-.68-.14-.92-.38-.24-.24-.38-.58-.38-.92s.14-.68.38-.92c.49-.48,1.36-.48,1.84,0,.24.24.38.58.38.92s-.14.68-.38.92c-.24.24-.58.38-.92.38Z"/><path class="cls-8" d="m72.75,72.05c-.34,0-.67-.14-.92-.38-.24-.24-.38-.58-.38-.92s.14-.68.38-.92c.48-.48,1.36-.49,1.84,0,.24.24.38.58.38.92s-.14.68-.38.92c-.24.24-.58.38-.92.38Z"/><path class="cls-8" d="m73.25,46.55c-.34,0-.67-.14-.92-.38-.24-.24-.38-.58-.38-.92s.14-.68.38-.92c.48-.48,1.36-.49,1.84,0,.24.24.38.58.38.92s-.14.68-.38.92c-.24.24-.58.38-.92.38Z"/><path class="cls-8" d="m72.25,57.3c-.34,0-.68-.14-.92-.38-.24-.24-.38-.58-.38-.92s.14-.68.38-.92c.49-.48,1.36-.48,1.84,0,.24.24.38.58.38.92s-.14.68-.38.92c-.24.24-.58.38-.92.38Z"/><path class="cls-8" d="m73.25,53.3c-.34,0-.68-.14-.92-.38-.24-.24-.38-.58-.38-.92s.14-.68.38-.92c.49-.48,1.36-.48,1.84,0,.24.24.38.58.38.92s-.14.68-.38.92c-.24.24-.58.38-.92.38Z"/><path class="cls-8" d="m46.25,71.8c-.34,0-.67-.14-.92-.38-.24-.24-.38-.58-.38-.92s.14-.67.38-.92c.49-.48,1.35-.48,1.84,0,.24.25.38.58.38.92s-.14.68-.38.92c-.24.24-.58.38-.92.38Z"/><path class="cls-8" d="m40.5,69.3c-.34,0-.67-.14-.92-.38-.24-.24-.38-.58-.38-.92s.14-.68.38-.92c.48-.48,1.36-.48,1.84,0,.24.24.38.58.38.92s-.14.68-.38.92c-.24.24-.58.38-.92.38Z"/><path class="cls-8" d="m-1.25,3.3c-.34,0-.67-.14-.92-.38-.24-.25-.38-.58-.38-.92s.14-.68.38-.92c.49-.48,1.36-.48,1.84,0C-.09,1.32.05,1.66.05,2s-.14.68-.38.92c-.24.24-.58.38-.92.38Z"/><path class="cls-8" d="m-.5,18.05c-.34,0-.67-.14-.92-.38-.24-.24-.38-.58-.38-.92s.14-.68.38-.92c.48-.48,1.36-.48,1.84,0,.24.24.38.58.38.92s-.14.68-.38.92c-.24.24-.58.38-.92.38Z"/><path class="cls-8" d="m-.75,29.05c-.34,0-.67-.14-.92-.38-.24-.24-.38-.58-.38-.92s.14-.68.38-.92c.49-.48,1.36-.48,1.84,0,.24.24.38.58.38.92s-.14.68-.38.92c-.24.24-.58.38-.92.38Z"/><path class="cls-8" d="m-.5,39.05c-.34,0-.68-.14-.92-.38-.24-.24-.38-.58-.38-.92s.14-.68.38-.92c.49-.48,1.36-.48,1.84,0,.24.24.38.58.38.92s-.14.68-.38.92c-.24.24-.58.38-.92.38Z"/><path class="cls-8" d="m-1.25,43.05c-.34,0-.67-.14-.92-.38-.24-.24-.38-.58-.38-.92s.14-.67.38-.92c.48-.48,1.36-.48,1.84,0,.24.24.38.58.38.92s-.14.68-.38.92c-.24.24-.58.38-.92.38Z"/><path class="cls-8" d="m.75,66.55c-.34,0-.67-.14-.92-.38-.24-.24-.38-.58-.38-.92s.14-.68.38-.92c.48-.48,1.36-.48,1.84,0,.24.24.38.58.38.92s-.14.68-.38.92c-.24.24-.58.38-.92.38Z"/><path class="cls-8" d="m-1,62.8c-.34,0-.68-.14-.92-.38-.24-.24-.38-.58-.38-.92s.14-.68.38-.92c.48-.48,1.35-.48,1.84,0,.24.24.38.58.38.92s-.14.68-.38.92c-.24.24-.58.38-.92.38Z"/><path class="cls-8" d="m.5,10.3c-.34,0-.68-.14-.92-.38-.24-.24-.38-.58-.38-.92s.14-.67.38-.92c.49-.49,1.36-.49,1.84,0,.24.24.38.58.38.92s-.14.68-.38.92c-.24.24-.58.38-.92.38Z"/><path class="cls-8" d="m.75,13.55c-.34,0-.67-.14-.92-.38-.24-.24-.38-.58-.38-.92s.14-.68.38-.92c.48-.48,1.36-.49,1.84,0,.24.24.38.58.38.92s-.14.68-.38.92c-.24.24-.58.38-.92.38Z"/><path class="cls-8" d="m1,20.8c-.34,0-.68-.14-.92-.38-.24-.24-.38-.58-.38-.92s.14-.68.38-.92c.49-.48,1.36-.48,1.84,0,.24.24.38.58.38.92s-.14.68-.38.92c-.24.24-.58.38-.92.38Z"/><path class="cls-8" d="m.25,24.05c-.34,0-.68-.14-.92-.38-.24-.24-.38-.58-.38-.92s.14-.68.38-.92c.49-.48,1.36-.48,1.84,0,.24.24.38.58.38.92s-.14.68-.38.92c-.24.24-.58.38-.92.38Z"/><path class="cls-8" d="m.75,72.05c-.34,0-.67-.14-.92-.38-.24-.24-.38-.58-.38-.92s.14-.68.38-.92c.48-.48,1.36-.49,1.84,0,.24.24.38.58.38.92s-.14.68-.38.92c-.24.24-.58.38-.92.38Z"/><path class="cls-8" d="m1.25,46.55c-.34,0-.67-.14-.92-.38-.24-.24-.38-.58-.38-.92s.14-.68.38-.92c.48-.48,1.36-.49,1.84,0,.24.24.38.58.38.92s-.14.68-.38.92c-.24.24-.58.38-.92.38Z"/><path class="cls-8" d="m.25,57.3c-.34,0-.68-.14-.92-.38-.24-.24-.38-.58-.38-.92s.14-.68.38-.92c.49-.48,1.36-.48,1.84,0,.24.24.38.58.38.92s-.14.68-.38.92c-.24.24-.58.38-.92.38Z"/><path class="cls-8" d="m1.25,53.3c-.34,0-.68-.14-.92-.38-.24-.24-.38-.58-.38-.92s.14-.68.38-.92c.49-.48,1.36-.48,1.84,0,.24.24.38.58.38.92s-.14.68-.38.92c-.24.24-.58.38-.92.38Z"/><path class="cls-8" d="m67.75.55c-.34,0-.68-.14-.92-.38-.24-.24-.38-.58-.38-.92s.14-.68.38-.92c.48-.48,1.36-.48,1.84,0,.24.24.38.58.38.92s-.14.68-.38.92c-.24.24-.57.38-.92.38Z"/><path class="cls-8" d="m55,1.55c-.34,0-.68-.14-.92-.38-.24-.24-.38-.58-.38-.92s.14-.68.38-.92c.49-.48,1.36-.48,1.84,0,.24.24.38.58.38.92s-.14.68-.38.92c-.24.24-.58.38-.92.38Z"/><path class="cls-8" d="m41,.8c-.34,0-.67-.14-.92-.38-.24-.24-.38-.58-.38-.92s.14-.68.38-.92c.48-.48,1.36-.48,1.84,0,.24.24.38.58.38.92s-.14.68-.38.92c-.24.24-.58.38-.92.38Z"/><path class="cls-8" d="m11.5,2.05c-.34,0-.67-.14-.92-.38-.24-.24-.38-.58-.38-.92s.14-.68.38-.92c.48-.48,1.36-.48,1.84,0,.24.24.38.58.38.92s-.14.68-.38.92c-.24.24-.58.38-.92.38Z"/><path class="cls-8" d="m21.25,1.8c-.34,0-.67-.14-.92-.38-.24-.24-.38-.58-.38-.92s.14-.67.38-.92c.48-.48,1.35-.48,1.84,0,.24.24.38.58.38.92s-.14.68-.38.92c-.24.24-.58.38-.92.38Z"/><path class="cls-8" d="m17,2.55c-.34,0-.68-.14-.92-.38-.24-.24-.38-.58-.38-.92s.14-.68.38-.92c.49-.48,1.36-.48,1.84,0,.24.24.38.58.38.92s-.14.68-.38.92c-.24.24-.57.38-.92.38Z"/><path class="cls-8" d="m27.75,2.55c-.34,0-.68-.14-.92-.38-.24-.24-.38-.58-.38-.92s.14-.68.38-.92c.49-.48,1.36-.48,1.84,0,.24.24.38.58.38.92s-.14.68-.38.92c-.24.24-.57.38-.92.38Z"/><path class="cls-8" d="m55,1.55c-.34,0-.68-.14-.92-.38-.24-.24-.38-.58-.38-.92s.14-.68.38-.92c.49-.48,1.36-.48,1.84,0,.24.24.38.58.38.92s-.14.68-.38.92c-.24.24-.58.38-.92.38Z"/><path class="cls-8" d="m7.75,2.05c-.34,0-.67-.14-.92-.38-.24-.24-.38-.58-.38-.92s.14-.68.38-.92c.48-.48,1.36-.48,1.84,0,.24.24.38.58.38.92s-.14.67-.38.92c-.24.24-.58.38-.92.38Z"/><path class="cls-8" d="m55,1.55c-.34,0-.68-.14-.92-.38-.24-.24-.38-.58-.38-.92s.14-.68.38-.92c.49-.48,1.36-.48,1.84,0,.24.24.38.58.38.92s-.14.68-.38.92c-.24.24-.58.38-.92.38Z"/><path class="cls-8" d="m72.75.05c-.34,0-.67-.14-.92-.38-.24-.24-.38-.58-.38-.92s.14-.68.38-.92c.48-.48,1.36-.49,1.84,0,.24.24.38.58.38.92s-.14.68-.38.92c-.24.24-.58.38-.92.38Z"/><path class="cls-8" d="m.75.05C.41.05.08-.09-.17-.33c-.24-.24-.38-.58-.38-.92s.14-.68.38-.92c.48-.48,1.36-.49,1.84,0,.24.24.38.58.38.92s-.14.68-.38.92C1.43-.09,1.09.05.75.05Z"/></pattern><pattern id="USGS_20_Scrub-2" patternTransform="translate(1713.58 1524.38) scale(1.22)" xlink:href="#USGS_20_Scrub"/></defs><g id="Layer_3"><rect class="cls-7" x="12.95" y="52.72" width="214.94" height="127.4"/><rect class="cls-2" x="4" y="44.48" width="233.22" height="145.43"/><rect class="cls-7" x="283.31" y="50.17" width="214.94" height="127.4"/><rect class="cls-5" x="274.36" y="41.93" width="233.22" height="145.43"/><circle class="cls-4" cx="71.33" cy="100.01" r="13.88"/><line class="cls-3" x1="59.38" y1="92.96" x2="44.93" y2="84.98"/><polygon class="cls-8" points="50.05 83.94 45.44 85.27 46.77 89.88 44.25 88.49 42.92 83.88 47.53 82.55 50.05 83.94"/><line class="cls-3" x1="83.97" y1="92.96" x2="98.42" y2="84.98"/><polygon class="cls-8" points="96.57 89.88 97.9 85.27 93.29 83.94 95.81 82.55 100.42 83.88 99.09 88.49 96.57 89.88"/><line class="cls-3" x1="83.63" y1="109.35" x2="98.08" y2="117.32"/><polygon class="cls-8" points="92.95 118.37 97.56 117.04 96.23 112.43 98.75 113.82 100.08 118.43 95.47 119.76 92.95 118.37"/><line class="cls-3" x1="58.48" y1="107.63" x2="45.01" y2="117.16"/><polygon class="cls-8" points="46.3 112.09 45.49 116.82 50.22 117.63 47.87 119.29 43.14 118.48 43.95 113.76 46.3 112.09"/><line class="cls-3" x1="78.61" y1="87.3" x2="88.4" y2="74.01"/><polygon class="cls-8" points="88.77 79.22 88.05 74.48 83.3 75.21 85.01 72.89 89.75 72.17 90.47 76.91 88.77 79.22"/><line class="cls-3" x1="64.83" y1="89.11" x2="56.96" y2="74.6"/><polygon class="cls-8" points="61.84 76.49 57.24 75.12 55.88 79.72 54.51 77.18 55.87 72.59 60.47 73.95 61.84 76.49"/><line class="cls-3" x1="65.92" y1="112.51" x2="56.14" y2="125.8"/><polygon class="cls-8" points="55.77 120.58 56.49 125.33 61.23 124.6 59.52 126.92 54.78 127.64 54.06 122.9 55.77 120.58"/><line class="cls-3" x1="75.6" y1="112.71" x2="85.86" y2="125.64"/><polygon class="cls-8" points="80.73 124.63 85.5 125.18 86.04 120.42 87.83 122.67 87.28 127.43 82.52 126.89 80.73 124.63"/><line class="cls-3" x1="84.53" y1="100.01" x2="101.04" y2="100.01"/><polygon class="cls-8" points="97.05 103.4 100.45 100.01 97.05 96.62 99.93 96.62 103.32 100.01 99.93 103.4 97.05 103.4"/><line class="cls-3" x1="57.45" y1="100.01" x2="40.95" y2="100.01"/><polygon class="cls-8" points="44.93 96.62 41.54 100.01 44.93 103.4 42.05 103.4 38.66 100.01 42.05 96.62 44.93 96.62"/><line class="cls-3" x1="71.33" y1="86.13" x2="71.33" y2="69.62"/><polygon class="cls-8" points="74.72 73.61 71.33 70.21 67.94 73.61 67.94 70.73 71.33 67.34 74.72 70.73 74.72 73.61"/><line class="cls-3" x1="71.33" y1="113.87" x2="71.33" y2="130.38"/><polygon class="cls-8" points="67.94 126.4 71.33 129.79 74.72 126.4 74.72 129.28 71.33 132.67 67.94 129.28 67.94 126.4"/><line class="cls-3" x1="317.5" y1="148.75" x2="328.25" y2="134.15"/><path class="cls-8" d="m320.64,150.83c-1.23,1.67-3.58,2.03-5.26.8-1.67-1.23-2.03-3.58-.8-5.26,1.23-1.67,3.58-2.03,5.26-.8s2.03,3.58.8,5.26Z"/><polygon class="cls-8" points="328.62 139.37 327.9 134.63 323.15 135.35 324.86 133.03 329.6 132.31 330.32 137.05 328.62 139.37"/><circle class="cls-4" cx="162.22" cy="136.92" r="13.88"/><line class="cls-3" x1="150.27" y1="129.88" x2="135.82" y2="121.9"/><polygon class="cls-8" points="140.94 120.86 136.33 122.18 137.67 126.79 135.15 125.4 133.82 120.79 138.42 119.46 140.94 120.86"/><line class="cls-3" x1="174.86" y1="129.88" x2="189.31" y2="121.9"/><polygon class="cls-8" points="187.46 126.79 188.79 122.18 184.18 120.86 186.7 119.46 191.31 120.79 189.98 125.4 187.46 126.79"/><line class="cls-3" x1="174.52" y1="146.26" x2="188.97" y2="154.24"/><polygon class="cls-8" points="183.84 155.28 188.45 153.95 187.12 149.34 189.64 150.74 190.97 155.34 186.36 156.67 183.84 155.28"/><line class="cls-3" x1="149.37" y1="144.54" x2="135.9" y2="154.08"/><polygon class="cls-8" points="137.19 149.01 136.38 153.74 141.11 154.54 138.76 156.21 134.03 155.4 134.84 150.67 137.19 149.01"/><line class="cls-3" x1="169.5" y1="124.22" x2="179.29" y2="110.92"/><polygon class="cls-8" points="179.66 116.14 178.94 111.4 174.2 112.12 175.9 109.8 180.64 109.08 181.36 113.82 179.66 116.14"/><line class="cls-3" x1="155.72" y1="126.03" x2="147.85" y2="111.51"/><polygon class="cls-8" points="152.73 113.4 148.14 112.03 146.77 116.63 145.4 114.1 146.77 109.5 151.36 110.87 152.73 113.4"/><line class="cls-3" x1="156.81" y1="149.42" x2="147.03" y2="162.72"/><polygon class="cls-8" points="146.66 157.5 147.38 162.24 152.12 161.52 150.41 163.84 145.67 164.56 144.95 159.82 146.66 157.5"/><line class="cls-3" x1="166.49" y1="149.63" x2="176.75" y2="162.56"/><polygon class="cls-8" points="171.62 161.55 176.39 162.1 176.93 157.33 178.72 159.59 178.18 164.35 173.41 163.8 171.62 161.55"/><line class="cls-3" x1="175.42" y1="136.92" x2="191.93" y2="136.92"/><polygon class="cls-8" points="187.95 140.31 191.34 136.92 187.95 133.53 190.82 133.53 194.21 136.92 190.82 140.31 187.95 140.31"/><line class="cls-3" x1="148.35" y1="136.92" x2="131.84" y2="136.92"/><polygon class="cls-8" points="135.82 133.53 132.43 136.92 135.82 140.31 132.94 140.31 129.55 136.92 132.94 133.53 135.82 133.53"/><line class="cls-3" x1="162.22" y1="123.05" x2="162.22" y2="106.54"/><polygon class="cls-8" points="165.61 110.52 162.22 107.13 158.83 110.52 158.83 107.64 162.22 104.25 165.61 107.64 165.61 110.52"/><line class="cls-3" x1="162.22" y1="150.79" x2="162.22" y2="167.3"/><polygon class="cls-8" points="158.83 163.31 162.22 166.71 165.61 163.31 165.61 166.19 162.22 169.58 158.83 166.19 158.83 163.31"/><line class="cls-3" x1="308.9" y1="128.93" x2="325.85" y2="122.51"/><path class="cls-8" d="m310.41,132.38c-1.94.73-4.11-.24-4.85-2.19-.73-1.94.24-4.11,2.19-4.85,1.94-.73,4.11.24,4.85,2.19s-.24,4.11-2.19,4.85Z"/><polygon class="cls-8" points="323.33 127.09 325.3 122.72 320.93 120.75 323.62 119.73 327.99 121.7 326.02 126.07 323.33 127.09"/><line class="cls-3" x1="308.43" y1="107.62" x2="326.4" y2="109.97"/><path class="cls-8" d="m308.12,111.37c-2.06-.27-3.51-2.16-3.24-4.22.27-2.06,2.16-3.51,4.22-3.24,2.06.27,3.51,2.16,3.24,4.22-.27,2.06-2.16,3.51-4.22,3.24Z"/><polygon class="cls-8" points="322.01 112.81 325.81 109.89 322.89 106.09 325.74 106.47 328.66 110.27 324.86 113.19 322.01 112.81"/><line class="cls-3" x1="315.2" y1="85.51" x2="330.9" y2="94.57"/><path class="cls-8" d="m313.49,88.86c-1.8-1.04-2.41-3.34-1.38-5.14s3.34-2.41,5.14-1.38c1.8,1.04,2.41,3.34,1.38,5.14s-3.34,2.41-5.14,1.38Z"/><polygon class="cls-8" points="325.75 95.52 330.39 94.28 329.14 89.65 331.64 91.09 332.88 95.72 328.25 96.96 325.75 95.52"/><line class="cls-3" x1="454.67" y1="80.96" x2="443.93" y2="95.56"/><path class="cls-8" d="m451.53,78.88c1.23-1.67,3.58-2.03,5.26-.8,1.67,1.23,2.03,3.58.8,5.26-1.23,1.67-3.58,2.03-5.26.8-1.67-1.23-2.03-3.58-.8-5.26Z"/><polygon class="cls-8" points="443.56 90.34 444.28 95.08 449.02 94.36 447.31 96.68 442.57 97.4 441.85 92.66 443.56 90.34"/><line class="cls-3" x1="463.28" y1="100.78" x2="446.32" y2="107.2"/><path class="cls-8" d="m461.77,97.33c1.94-.73,4.11.24,4.85,2.19s-.24,4.11-2.19,4.85c-1.94.73-4.11-.24-4.85-2.19-.73-1.94.24-4.11,2.19-4.85Z"/><polygon class="cls-8" points="448.85 102.62 446.88 106.99 451.25 108.96 448.56 109.98 444.19 108.01 446.16 103.64 448.85 102.62"/><line class="cls-3" x1="463.75" y1="122.1" x2="445.78" y2="119.74"/><path class="cls-8" d="m464.05,118.34c2.06.27,3.51,2.16,3.24,4.22-.27,2.06-2.16,3.51-4.22,3.24-2.06-.27-3.51-2.16-3.24-4.22.27-2.06,2.16-3.51,4.22-3.24Z"/><polygon class="cls-8" points="450.17 116.9 446.36 119.82 449.29 123.62 446.43 123.24 443.51 119.44 447.31 116.52 450.17 116.9"/><line class="cls-3" x1="456.97" y1="144.2" x2="441.28" y2="135.14"/><path class="cls-8" d="m458.69,140.85c1.8,1.04,2.41,3.34,1.38,5.14-1.04,1.8-3.34,2.41-5.14,1.38-1.8-1.04-2.41-3.34-1.38-5.14,1.04-1.8,3.34-2.41,5.14-1.38Z"/><polygon class="cls-8" points="446.42 134.19 441.79 135.43 443.03 140.06 440.54 138.62 439.3 133.99 443.93 132.75 446.42 134.19"/><line class="cls-3" x1="333.61" y1="158.7" x2="341.55" y2="142.41"/><path class="cls-8" d="m337.07,160.18c-.91,1.87-3.16,2.64-5.03,1.73-1.87-.91-2.64-3.16-1.73-5.03.91-1.87,3.16-2.64,5.03-1.73s2.64,3.16,1.73,5.03Z"/><polygon class="cls-8" points="342.85 147.47 341.29 142.94 336.76 144.5 338.02 141.91 342.56 140.35 344.12 144.89 342.85 147.47"/><line class="cls-3" x1="354.26" y1="164.89" x2="355.54" y2="146.82"/><path class="cls-8" d="m358.02,164.97c-.15,2.07-1.95,3.63-4.02,3.48s-3.63-1.95-3.48-4.02c.15-2.07,1.94-3.63,4.02-3.48,2.07.15,3.63,1.95,3.48,4.02Z"/><polygon class="cls-8" points="358.64 151.03 355.49 147.4 351.87 150.55 352.08 147.68 355.7 144.54 358.84 148.16 358.64 151.03"/><line class="cls-3" x1="373.25" y1="164.92" x2="373.25" y2="146.79"/><path class="cls-8" d="m377.01,164.73c0,2.08-1.68,3.76-3.76,3.76s-3.76-1.68-3.76-3.76,1.68-3.76,3.76-3.76,3.76,1.68,3.76,3.76Z"/><polygon class="cls-8" points="376.64 150.77 373.25 147.38 369.86 150.77 369.86 147.9 373.25 144.51 376.64 147.9 376.64 150.77"/><line class="cls-3" x1="389.05" y1="164.92" x2="389.05" y2="146.79"/><path class="cls-8" d="m392.81,164.73c0,2.08-1.68,3.76-3.76,3.76s-3.76-1.68-3.76-3.76,1.68-3.76,3.76-3.76,3.76,1.68,3.76,3.76Z"/><polygon class="cls-8" points="392.44 150.77 389.05 147.38 385.66 150.77 385.66 147.9 389.05 144.51 392.44 147.9 392.44 150.77"/><line class="cls-3" x1="403.84" y1="164.92" x2="403.84" y2="146.79"/><path class="cls-8" d="m407.6,164.73c0,2.08-1.68,3.76-3.76,3.76s-3.76-1.68-3.76-3.76,1.68-3.76,3.76-3.76,3.76,1.68,3.76,3.76Z"/><polygon class="cls-8" points="407.23 150.77 403.84 147.38 400.45 150.77 400.45 147.9 403.84 144.51 407.23 147.9 407.23 150.77"/><line class="cls-3" x1="420.94" y1="164.88" x2="419.23" y2="146.83"/><path class="cls-8" d="m424.67,164.33c.2,2.07-1.32,3.9-3.39,4.1-2.07.2-3.9-1.32-4.1-3.39-.2-2.07,1.32-3.9,3.39-4.1,2.07-.2,3.9,1.32,4.1,3.39Z"/><polygon class="cls-8" points="422.98 150.48 419.28 147.42 416.23 151.12 415.96 148.26 419.01 144.56 422.71 147.61 422.98 150.48"/><line class="cls-3" x1="442.67" y1="158.04" x2="432.3" y2="143.17"/><path class="cls-8" d="m445.64,155.73c1.19,1.7.77,4.05-.93,5.23-1.7,1.19-4.05.77-5.23-.93-1.19-1.7-.77-4.05.93-5.23,1.7-1.19,4.05-.77,5.23.93Z"/><polygon class="cls-8" points="437.36 144.5 432.64 143.65 431.8 148.38 430.15 146.01 430.99 141.29 435.71 142.14 437.36 144.5"/><line class="cls-3" x1="439.46" y1="70.59" x2="431.51" y2="86.88"/><path class="cls-8" d="m435.99,69.11c.91-1.87,3.16-2.64,5.03-1.73,1.87.91,2.64,3.16,1.73,5.03-.91,1.87-3.16,2.64-5.03,1.73-1.87-.91-2.64-3.16-1.73-5.03Z"/><polygon class="cls-8" points="430.21 81.81 431.77 86.35 436.31 84.79 435.04 87.37 430.51 88.94 428.95 84.4 430.21 81.81"/><line class="cls-3" x1="418.81" y1="64.39" x2="417.53" y2="82.47"/><path class="cls-8" d="m415.05,64.32c.15-2.07,1.95-3.63,4.02-3.48s3.63,1.94,3.48,4.02c-.15,2.07-1.95,3.63-4.02,3.48s-3.63-1.94-3.48-4.02Z"/><polygon class="cls-8" points="414.43 78.26 417.57 81.88 421.19 78.74 420.99 81.61 417.37 84.75 414.23 81.13 414.43 78.26"/><line class="cls-3" x1="399.81" y1="64.37" x2="399.81" y2="82.5"/><path class="cls-8" d="m396.05,64.56c0-2.08,1.68-3.76,3.76-3.76s3.76,1.68,3.76,3.76-1.68,3.76-3.76,3.76-3.76-1.68-3.76-3.76Z"/><polygon class="cls-8" points="396.42 78.51 399.81 81.91 403.2 78.51 403.2 81.39 399.81 84.78 396.42 81.39 396.42 78.51"/><line class="cls-3" x1="384.02" y1="64.37" x2="384.02" y2="82.5"/><path class="cls-8" d="m380.26,64.56c0-2.08,1.68-3.76,3.76-3.76s3.76,1.68,3.76,3.76-1.68,3.76-3.76,3.76-3.76-1.68-3.76-3.76Z"/><polygon class="cls-8" points="380.63 78.51 384.02 81.91 387.41 78.51 387.41 81.39 384.02 84.78 380.63 81.39 380.63 78.51"/><line class="cls-3" x1="369.22" y1="64.37" x2="369.22" y2="82.5"/><path class="cls-8" d="m365.46,64.56c0-2.08,1.68-3.76,3.76-3.76s3.76,1.68,3.76,3.76-1.68,3.76-3.76,3.76-3.76-1.68-3.76-3.76Z"/><polygon class="cls-8" points="365.83 78.51 369.22 81.91 372.61 78.51 372.61 81.39 369.22 84.78 365.83 81.39 365.83 78.51"/><line class="cls-3" x1="352.12" y1="64.41" x2="353.84" y2="82.45"/><path class="cls-8" d="m348.4,64.95c-.2-2.07,1.32-3.9,3.39-4.1,2.07-.2,3.9,1.32,4.1,3.39.2,2.07-1.32,3.9-3.39,4.1-2.07.2-3.9-1.32-4.1-3.39Z"/><polygon class="cls-8" points="350.09 78.81 353.78 81.87 356.84 78.17 357.11 81.03 354.06 84.73 350.36 81.68 350.09 78.81"/><line class="cls-3" x1="330.4" y1="71.25" x2="340.76" y2="86.12"/><path class="cls-8" d="m327.42,73.56c-1.19-1.7-.77-4.05.93-5.23,1.7-1.19,4.05-.77,5.23.93,1.19,1.7.77,4.05-.93,5.23-1.7,1.19-4.05.77-5.23-.93Z"/><polygon class="cls-8" points="335.7 84.79 340.43 85.63 341.27 80.91 342.91 83.27 342.07 87.99 337.35 87.15 335.7 84.79"/></g><g id="Layer_4"><line class="cls-6" x1="191.67" y1="4.85" x2="225.91" y2="42.24"/><line class="cls-6" x1="225.91" y1="5.91" x2="191.67" y2="43.3"/><line class="cls-9" x1="452.69" y1="27.11" x2="469.58" y2="44"/><line class="cls-9" x1="499.96" y1="2.37" x2="468.8" y2="44.71"/></g></svg>