<?xml version="1.0" encoding="UTF-8"?><svg id="Layer_2" xmlns="http://www.w3.org/2000/svg" xmlns:xlink="http://www.w3.org/1999/xlink" viewBox="0 0 305 239.7"><defs><style>.cls-1,.cls-2,.cls-3,.cls-4,.cls-5{stroke-width:0px;}.cls-1,.cls-6,.cls-7,.cls-8,.cls-9,.cls-10{fill:none;}.cls-2{fill:url(#USGS_20_Scrub);}.cls-6{stroke-dasharray:0 0 3.03 3.03;}.cls-6,.cls-11,.cls-7,.cls-8,.cls-9,.cls-10{stroke-miterlimit:10;}.cls-6,.cls-11,.cls-9,.cls-10{stroke:#1d1d1b;}.cls-11,.cls-4{fill:#1d1d1b;}.cls-7{stroke:#e30613;}.cls-7,.cls-8{stroke-width:2px;}.cls-8{stroke:#ffde00;}.cls-10{stroke-width:8px;}.cls-3{fill:#79b939;}.cls-5{fill:#e30613;}</style><pattern id="USGS_20_Scrub" x="0" y="0" width="72" height="72" patternTransform="translate(-3725.76 -3589.2) scale(.54)" patternUnits="userSpaceOnUse" viewBox="0 0 72 72"><rect class="cls-1" x="0" width="72" height="72"/><path class="cls-4" d="m17,74.55c-.34,0-.68-.14-.92-.38-.24-.24-.38-.58-.38-.92s.14-.68.38-.92c.48-.48,1.36-.48,1.84,0,.24.24.38.58.38.92s-.14.68-.38.92c-.24.24-.57.38-.92.38Z"/><path class="cls-4" d="m27.75,74.55c-.34,0-.67-.14-.92-.38-.24-.25-.38-.58-.38-.92s.14-.67.38-.92c.49-.48,1.35-.48,1.84,0,.24.24.38.58.38.92s-.14.68-.38.92c-.24.24-.58.38-.92.38Z"/><path class="cls-4" d="m23.25,7.05c-.34,0-.67-.14-.92-.38-.24-.24-.38-.58-.38-.92s.14-.68.38-.92c.49-.48,1.36-.48,1.84,0,.24.24.38.58.38.92s-.14.67-.38.92c-.24.24-.58.38-.92.38Z"/><path class="cls-4" d="m14.5,9.05c-.34,0-.68-.14-.92-.38-.24-.24-.38-.58-.38-.92s.14-.68.38-.92c.49-.48,1.36-.48,1.84,0,.24.25.38.58.38.92s-.14.68-.38.92c-.24.24-.57.38-.92.38Z"/><path class="cls-4" d="m14.75,4.8c-.34,0-.67-.14-.92-.38-.24-.24-.38-.58-.38-.92s.14-.68.38-.92c.49-.49,1.36-.48,1.84,0,.24.25.38.58.38.92s-.14.68-.38.92c-.24.24-.58.38-.92.38Z"/><path class="cls-4" d="m17.75,8.8c-.34,0-.68-.14-.92-.38-.24-.24-.38-.58-.38-.92s.14-.68.38-.92c.49-.48,1.36-.48,1.84,0,.24.24.38.58.38.92s-.14.68-.38.92c-.24.24-.58.38-.92.38Z"/><path class="cls-4" d="m20,5.3c-.34,0-.67-.14-.92-.38-.24-.24-.38-.58-.38-.92s.14-.68.38-.92c.49-.48,1.36-.48,1.84,0,.24.24.38.58.38.92s-.14.68-.38.92c-.24.24-.58.38-.92.38Z"/><path class="cls-4" d="m29,6.3c-.34,0-.67-.14-.92-.38-.24-.24-.38-.58-.38-.92s.14-.68.38-.92c.49-.48,1.36-.48,1.84,0,.24.24.38.58.38.92s-.14.68-.38.92c-.24.24-.58.38-.92.38Z"/><path class="cls-4" d="m25,4.55c-.34,0-.67-.14-.92-.38-.24-.24-.38-.58-.38-.92s.14-.68.38-.92c.48-.48,1.36-.49,1.84,0,.24.24.38.58.38.92s-.14.68-.38.92c-.24.24-.58.38-.92.38Z"/><path class="cls-4" d="m17,2.55c-.34,0-.68-.14-.92-.38-.24-.24-.38-.58-.38-.92s.14-.68.38-.92c.48-.48,1.36-.48,1.84,0,.24.24.38.58.38.92s-.14.68-.38.92c-.24.24-.57.38-.92.38Z"/><path class="cls-4" d="m27.75,2.55c-.34,0-.67-.14-.92-.38-.24-.25-.38-.58-.38-.92s.14-.67.38-.92c.49-.48,1.35-.48,1.84,0,.24.24.38.58.38.92s-.14.68-.38.92c-.24.24-.58.38-.92.38Z"/><path class="cls-4" d="m31.75,3.55c-.34,0-.67-.14-.92-.38-.24-.24-.38-.58-.38-.92s.14-.68.38-.92c.49-.48,1.36-.48,1.84,0,.24.24.38.58.38.92s-.14.68-.38.92c-.24.24-.58.38-.92.38Z"/><path class="cls-4" d="m29,6.3c-.34,0-.67-.14-.92-.38-.24-.24-.38-.58-.38-.92s.14-.68.38-.92c.49-.48,1.36-.48,1.84,0,.24.24.38.58.38.92s-.14.68-.38.92c-.24.24-.58.38-.92.38Z"/><path class="cls-4" d="m28.25,9.05c-.34,0-.68-.14-.92-.38-.24-.24-.38-.58-.38-.92s.14-.68.38-.92c.49-.48,1.35-.49,1.84,0,.24.24.38.58.38.92s-.14.68-.38.92c-.24.24-.58.38-.92.38Z"/><path class="cls-4" d="m26.25,12.05c-.34,0-.67-.14-.92-.38-.24-.25-.38-.58-.38-.92s.14-.67.38-.92c.49-.48,1.36-.48,1.84,0,.24.25.38.58.38.92s-.14.67-.38.92c-.24.24-.58.38-.92.38Z"/><path class="cls-4" d="m22.25,10.3c-.34,0-.67-.14-.92-.38-.24-.24-.38-.58-.38-.92s.14-.68.38-.92c.49-.48,1.36-.48,1.84,0,.24.24.38.58.38.92s-.14.68-.38.92c-.24.24-.58.38-.92.38Z"/><path class="cls-4" d="m22,13.8c-.34,0-.67-.14-.92-.38-.24-.24-.38-.58-.38-.92s.14-.68.38-.92c.49-.48,1.36-.48,1.84,0,.24.24.38.58.38.92s-.14.68-.38.92c-.24.24-.58.38-.92.38Z"/><path class="cls-4" d="m17,12.8c-.34,0-.67-.14-.92-.38-.24-.24-.38-.58-.38-.92s.14-.68.38-.92c.48-.48,1.36-.48,1.84,0,.24.24.38.58.38.92s-.14.68-.38.92c-.24.24-.58.38-.92.38Z"/><path class="cls-4" d="m20.25,16.05c-.34,0-.67-.14-.92-.38-.24-.24-.38-.58-.38-.92s.14-.68.38-.92c.48-.48,1.36-.48,1.84,0,.24.24.38.58.38.92s-.14.68-.38.92c-.24.24-.58.38-.92.38Z"/><path class="cls-4" d="m22.75,19.8c-.34,0-.67-.14-.92-.38-.24-.24-.38-.58-.38-.92s.14-.68.38-.92c.48-.48,1.35-.48,1.84,0,.24.24.38.58.38.92s-.14.68-.38.92c-.24.24-.58.38-.92.38Z"/><path class="cls-4" d="m25.5,20.55c-.34,0-.68-.14-.92-.38-.24-.24-.38-.58-.38-.92s.14-.67.38-.92c.49-.48,1.36-.48,1.84,0,.24.25.38.58.38.92s-.14.68-.38.92c-.24.24-.58.38-.92.38Z"/><path class="cls-4" d="m28.5,18.8c-.34,0-.68-.14-.92-.38-.24-.24-.38-.58-.38-.92s.14-.68.38-.92c.48-.48,1.36-.48,1.84,0,.24.24.38.58.38.92s-.14.68-.38.92c-.24.24-.57.38-.92.38Z"/><path class="cls-4" d="m28,15.55c-.34,0-.68-.14-.92-.38-.24-.24-.38-.58-.38-.92s.14-.68.38-.92c.49-.48,1.36-.48,1.84,0,.24.24.38.58.38.92s-.14.68-.38.92c-.24.24-.58.38-.92.38Z"/><path class="cls-4" d="m30,13.3c-.34,0-.68-.14-.92-.38-.24-.24-.38-.58-.38-.92s.14-.68.38-.92c.49-.48,1.36-.48,1.84,0,.24.25.38.58.38.92s-.14.67-.38.92c-.24.24-.57.38-.92.38Z"/><path class="cls-4" d="m34.25,13.3c-.34,0-.68-.14-.92-.38-.24-.24-.38-.58-.38-.92s.14-.68.38-.92c.49-.48,1.36-.48,1.84,0,.24.24.38.58.38.92s-.14.68-.38.92c-.24.24-.58.38-.92.38Z"/><path class="cls-4" d="m32.5,18.05c-.34,0-.67-.14-.92-.38-.24-.24-.38-.58-.38-.92s.14-.68.38-.92c.5-.49,1.36-.48,1.84,0,.24.24.38.58.38.92s-.14.68-.38.92c-.24.24-.58.38-.92.38Z"/><path class="cls-4" d="m34.75,21.55c-.34,0-.68-.14-.92-.38-.24-.24-.38-.58-.38-.92s.14-.68.38-.92c.49-.48,1.36-.48,1.84,0,.24.25.38.58.38.92s-.14.68-.38.92c-.24.24-.58.38-.92.38Z"/><path class="cls-4" d="m31.25,21.8c-.34,0-.68-.14-.92-.38-.24-.24-.38-.58-.38-.92s.14-.68.38-.92c.49-.48,1.36-.48,1.84,0,.24.24.38.58.38.92s-.14.68-.38.92c-.24.24-.57.38-.92.38Z"/><path class="cls-4" d="m27.75,22.55c-.34,0-.67-.14-.92-.38-.24-.24-.38-.58-.38-.92s.14-.67.38-.92c.49-.48,1.36-.48,1.84,0,.24.24.38.58.38.92s-.14.68-.38.92c-.24.24-.58.38-.92.38Z"/><path class="cls-4" d="m37.25,17.05c-.34,0-.68-.14-.92-.38-.24-.24-.38-.58-.38-.92s.14-.68.38-.92c.49-.48,1.36-.48,1.84,0,.25.25.38.58.38.92s-.13.67-.38.92c-.24.24-.58.38-.92.38Z"/><path class="cls-4" d="m32,9.8c-.34,0-.68-.14-.92-.38-.24-.24-.38-.58-.38-.92s.14-.68.38-.92c.49-.48,1.36-.48,1.84,0,.24.24.38.58.38.92s-.14.68-.38.92c-.24.24-.57.38-.92.38Z"/><path class="cls-4" d="m34,6.8c-.34,0-.68-.14-.92-.38-.24-.24-.38-.58-.38-.92s.14-.68.38-.92c.48-.48,1.36-.48,1.84,0,.24.24.38.58.38.92s-.14.68-.38.92c-.24.24-.57.38-.92.38Z"/><path class="cls-4" d="m36.75,3.3c-.34,0-.68-.14-.92-.38-.24-.24-.38-.58-.38-.92s.14-.68.38-.92c.49-.48,1.36-.48,1.84,0,.25.25.38.58.38.92s-.13.67-.38.92c-.24.24-.58.38-.92.38Z"/><path class="cls-4" d="m37.5,6.55c-.34,0-.68-.14-.92-.38-.24-.24-.38-.58-.38-.92s.14-.68.38-.92c.49-.49,1.36-.48,1.84,0,.25.25.38.58.38.92s-.13.67-.38.92c-.24.24-.58.38-.92.38Z"/><path class="cls-4" d="m37.25,9.55c-.34,0-.67-.14-.92-.38-.24-.24-.38-.58-.38-.92s.14-.68.38-.92c.49-.48,1.36-.48,1.84,0,.25.25.38.58.38.92s-.13.67-.38.92c-.24.24-.58.38-.92.38Z"/><path class="cls-4" d="m37.5,13.3c-.34,0-.68-.14-.92-.38-.24-.24-.38-.58-.38-.92s.14-.68.38-.92c.49-.48,1.36-.48,1.84,0,.25.25.38.58.38.92s-.13.67-.38.92c-.24.24-.58.38-.92.38Z"/><path class="cls-4" d="m41,5.05c-.34,0-.67-.14-.92-.38-.24-.24-.38-.58-.38-.92s.14-.68.38-.92c.48-.48,1.36-.48,1.84,0,.24.24.38.58.38.92s-.14.68-.38.92c-.24.24-.58.38-.92.38Z"/><path class="cls-4" d="m41.75,8.8c-.34,0-.67-.14-.92-.38-.24-.24-.38-.58-.38-.92s.14-.68.38-.92c.49-.48,1.36-.48,1.84,0,.24.24.38.58.38.92s-.14.68-.38.92c-.24.24-.58.38-.92.38Z"/><path class="cls-4" d="m41.25,12.8c-.34,0-.67-.14-.92-.38-.24-.24-.38-.58-.38-.92s.14-.68.38-.92c.48-.48,1.36-.49,1.84,0,.24.24.38.58.38.92s-.14.67-.38.92c-.24.24-.58.38-.92.38Z"/><path class="cls-4" d="m41.5,17.3c-.34,0-.67-.14-.92-.38-.24-.24-.38-.58-.38-.92s.14-.68.38-.92c.48-.48,1.36-.48,1.84,0,.24.24.38.58.38.92s-.14.68-.38.92c-.24.24-.58.38-.92.38Z"/><path class="cls-4" d="m43,20.8c-.34,0-.67-.14-.92-.38-.24-.24-.38-.58-.38-.92s.14-.68.38-.92c.48-.48,1.36-.49,1.84,0,.24.24.38.58.38.92s-.14.68-.38.92c-.24.24-.58.38-.92.38Z"/><path class="cls-4" d="m38.25,20.55c-.34,0-.67-.14-.92-.38-.24-.24-.38-.58-.38-.92s.14-.68.38-.92c.48-.48,1.36-.48,1.84,0,.24.24.38.58.38.92s-.14.68-.38.92c-.24.24-.58.38-.92.38Z"/><path class="cls-4" d="m39.5,25.05c-.34,0-.67-.14-.92-.38-.24-.24-.38-.58-.38-.92s.14-.68.38-.92c.49-.48,1.36-.48,1.84,0,.24.24.38.58.38.92s-.14.68-.38.92c-.24.24-.58.38-.92.38Z"/><path class="cls-4" d="m35.25,24.8c-.34,0-.67-.14-.92-.38-.24-.24-.38-.58-.38-.92s.14-.68.38-.92c.49-.48,1.36-.48,1.84,0,.24.24.38.58.38.92s-.14.68-.38.92c-.24.24-.58.38-.92.38Z"/><path class="cls-4" d="m47,22.3c-.34,0-.68-.14-.92-.38-.24-.24-.38-.58-.38-.92s.14-.68.38-.92c.49-.48,1.36-.48,1.84,0,.24.24.38.58.38.92s-.14.68-.38.92c-.24.24-.57.38-.92.38Z"/><path class="cls-4" d="m46,18.8c-.34,0-.67-.14-.92-.38-.24-.24-.38-.58-.38-.92s.14-.68.38-.92c.49-.48,1.36-.48,1.84,0,.24.24.38.58.38.92s-.14.68-.38.92c-.24.24-.58.38-.92.38Z"/><path class="cls-4" d="m45,15.3c-.34,0-.68-.14-.92-.38-.24-.24-.38-.58-.38-.92s.14-.68.38-.92c.49-.48,1.36-.48,1.84,0,.24.24.38.58.38.92s-.14.68-.38.92c-.24.24-.57.38-.92.38Z"/><path class="cls-4" d="m45.25,11.3c-.34,0-.68-.14-.92-.38-.24-.24-.38-.58-.38-.92s.14-.68.38-.92c.49-.48,1.36-.48,1.84,0,.24.24.38.58.38.92s-.14.68-.38.92c-.24.24-.58.38-.92.38Z"/><path class="cls-4" d="m45,7.05c-.34,0-.67-.14-.92-.38-.24-.24-.38-.58-.38-.92s.14-.68.38-.92c.49-.48,1.35-.48,1.84,0,.24.24.38.58.38.92s-.14.68-.38.92c-.24.24-.58.38-.92.38Z"/><path class="cls-4" d="m44.75,3.8c-.34,0-.68-.14-.92-.38-.24-.24-.38-.58-.38-.92s.14-.68.38-.92c.49-.48,1.36-.48,1.84,0,.24.24.38.58.38.92s-.14.68-.38.92c-.24.24-.57.38-.92.38Z"/><path class="cls-4" d="m49.75,2.8c-.34,0-.67-.14-.92-.38-.24-.24-.38-.58-.38-.92s.14-.68.38-.92c.49-.48,1.36-.48,1.84,0,.24.24.38.58.38.92s-.14.68-.38.92c-.24.24-.58.38-.92.38Z"/><path class="cls-4" d="m49,7.05c-.34,0-.68-.14-.92-.38-.24-.24-.38-.58-.38-.92s.14-.68.38-.92c.49-.48,1.36-.48,1.84,0,.24.24.38.58.38.92s-.14.68-.38.92c-.24.24-.58.38-.92.38Z"/><path class="cls-4" d="m52.5,7.05c-.34,0-.67-.14-.92-.38-.24-.24-.38-.58-.38-.92s.14-.67.38-.92c.48-.48,1.35-.48,1.84,0,.24.24.38.58.38.92s-.14.68-.38.92c-.24.24-.58.38-.92.38Z"/><path class="cls-4" d="m52.25,10.55c-.34,0-.67-.14-.92-.38-.24-.24-.38-.58-.38-.92s.14-.67.38-.92c.49-.48,1.36-.48,1.84,0,.25.24.38.58.38.92s-.13.68-.38.92c-.24.24-.58.38-.92.38Z"/><path class="cls-4" d="m48.5,10.3c-.34,0-.67-.14-.92-.38-.24-.24-.38-.58-.38-.92s.14-.68.38-.92c.48-.48,1.36-.48,1.84,0,.24.24.38.58.38.92s-.14.68-.38.92c-.24.24-.58.38-.92.38Z"/><path class="cls-4" d="m48.75,14.8c-.34,0-.67-.14-.92-.38-.24-.24-.38-.58-.38-.92s.14-.68.38-.92c.49-.48,1.35-.48,1.84,0,.24.24.38.58.38.92s-.14.68-.38.92c-.24.24-.58.38-.92.38Z"/><path class="cls-4" d="m52.25,14.8c-.34,0-.67-.14-.92-.38-.24-.24-.38-.58-.38-.92s.14-.68.38-.92c.49-.48,1.36-.48,1.84,0,.25.24.38.58.38.92s-.14.68-.38.92c-.24.24-.58.38-.92.38Z"/><path class="cls-4" d="m49.5,18.3c-.34,0-.67-.14-.92-.38-.24-.24-.38-.58-.38-.92s.14-.68.38-.92c.49-.48,1.35-.48,1.84,0,.24.24.38.58.38.92s-.14.68-.38.92c-.24.24-.58.38-.92.38Z"/><path class="cls-4" d="m51,22.55c-.34,0-.67-.14-.92-.38-.24-.24-.38-.58-.38-.92s.14-.67.38-.92c.49-.48,1.35-.48,1.84,0,.24.24.38.58.38.92s-.14.68-.38.92c-.24.24-.58.38-.92.38Z"/><path class="cls-4" d="m52.75,25.8c-.34,0-.67-.14-.92-.38-.24-.24-.38-.58-.38-.92s.14-.68.38-.92c.49-.48,1.35-.48,1.84,0,.24.24.38.58.38.92s-.14.68-.38.92c-.24.24-.58.38-.92.38Z"/><path class="cls-4" d="m55.25,23.05c-.34,0-.68-.14-.92-.38-.24-.24-.38-.58-.38-.92s.14-.68.38-.92c.49-.48,1.36-.48,1.84,0,.24.24.38.58.38.92s-.14.68-.38.92c-.24.24-.57.38-.92.38Z"/><path class="cls-4" d="m53.75,19.55c-.34,0-.67-.14-.92-.38-.24-.24-.38-.58-.38-.92s.14-.68.38-.92c.48-.48,1.36-.48,1.84,0,.24.24.38.58.38.92s-.14.68-.38.92c-.24.24-.58.38-.92.38Z"/><path class="cls-4" d="m56,16.55c-.34,0-.67-.14-.92-.38-.24-.24-.38-.58-.38-.92s.14-.68.38-.92c.48-.48,1.35-.48,1.84,0,.24.24.38.58.38.92s-.14.68-.38.92c-.24.24-.58.38-.92.38Z"/><path class="cls-4" d="m56.25,12.3c-.34,0-.68-.14-.92-.38-.24-.24-.38-.58-.38-.92s.14-.68.38-.92c.49-.48,1.35-.48,1.84,0,.24.24.38.58.38.92s-.14.68-.38.92c-.24.24-.58.38-.92.38Z"/><path class="cls-4" d="m56.5,7.3c-.34,0-.68-.14-.92-.38-.24-.24-.38-.58-.38-.92s.14-.68.38-.92c.49-.48,1.35-.48,1.84,0,.24.24.38.58.38.92s-.14.68-.38.92c-.24.24-.58.38-.92.38Z"/><path class="cls-4" d="m59.75,8.3c-.34,0-.67-.14-.92-.38-.24-.25-.38-.58-.38-.92s.14-.67.38-.92c.49-.48,1.35-.48,1.84,0,.24.24.38.58.38.92s-.14.68-.38.92c-.24.24-.58.38-.92.38Z"/><path class="cls-4" d="m58,3.8c-.34,0-.68-.14-.92-.38-.24-.24-.38-.58-.38-.92s.14-.68.38-.92c.49-.48,1.36-.48,1.84,0,.24.24.38.58.38.92s-.14.68-.38.92c-.24.24-.57.38-.92.38Z"/><path class="cls-4" d="m61.75,4.8c-.34,0-.67-.14-.92-.38-.24-.24-.38-.58-.38-.92s.14-.68.38-.92c.49-.48,1.36-.48,1.84,0,.24.24.38.58.38.92s-.14.68-.38.92c-.24.24-.58.38-.92.38Z"/><path class="cls-4" d="m65,3.05c-.34,0-.67-.14-.92-.38-.24-.24-.38-.58-.38-.92s.14-.68.38-.92c.48-.48,1.36-.48,1.84,0,.24.24.38.58.38.92s-.14.68-.38.92c-.24.24-.58.38-.92.38Z"/><path class="cls-4" d="m67,5.05c-.34,0-.68-.14-.92-.38-.24-.24-.38-.58-.38-.92s.14-.68.38-.92c.49-.49,1.37-.48,1.84,0,.24.24.38.58.38.92s-.14.68-.38.92c-.24.24-.58.38-.92.38Z"/><path class="cls-4" d="m63.5,8.05c-.34,0-.67-.14-.92-.38-.24-.24-.38-.58-.38-.92s.14-.68.38-.92c.48-.48,1.37-.48,1.84,0,.24.24.38.58.38.92s-.14.68-.38.92c-.24.24-.58.38-.92.38Z"/><path class="cls-4" d="m62.75,11.8c-.34,0-.67-.14-.92-.38-.24-.24-.38-.58-.38-.92s.14-.67.38-.92c.49-.48,1.35-.48,1.84,0,.24.24.38.58.38.92s-.14.68-.38.92c-.24.24-.58.38-.92.38Z"/><path class="cls-4" d="m60,14.05c-.34,0-.67-.14-.92-.38-.24-.24-.38-.58-.38-.92s.14-.68.38-.92c.49-.48,1.36-.48,1.84,0,.24.24.38.58.38.92s-.14.68-.38.92c-.24.24-.58.38-.92.38Z"/><path class="cls-4" d="m62.5,16.8c-.34,0-.67-.14-.92-.38-.24-.24-.38-.58-.38-.92s.14-.68.38-.92c.48-.48,1.36-.48,1.84,0,.24.24.38.58.38.92s-.14.68-.38.92c-.24.24-.58.38-.92.38Z"/><path class="cls-4" d="m66.25,17.8c-.34,0-.67-.14-.92-.38-.24-.24-.38-.58-.38-.92s.14-.68.38-.92c.49-.48,1.36-.48,1.84,0,.24.24.38.58.38.92s-.14.68-.38.92c-.24.24-.58.38-.92.38Z"/><path class="cls-4" d="m64.25,20.05c-.34,0-.67-.14-.92-.38-.24-.24-.38-.58-.38-.92s.14-.68.38-.92c.48-.48,1.35-.48,1.84,0,.24.24.38.58.38.92s-.14.68-.38.92c-.24.24-.58.38-.92.38Z"/><path class="cls-4" d="m60.75,20.55c-.34,0-.67-.14-.92-.38-.24-.24-.38-.58-.38-.92s.14-.68.38-.92c.49-.48,1.36-.48,1.84,0,.24.24.38.58.38.92s-.14.68-.38.92c-.24.24-.58.38-.92.38Z"/><path class="cls-4" d="m58,20.05c-.34,0-.67-.14-.92-.38-.24-.24-.38-.58-.38-.92s.14-.68.38-.92c.49-.48,1.36-.48,1.84,0,.24.24.38.58.38.92s-.14.68-.38.92c-.24.24-.58.38-.92.38Z"/><path class="cls-4" d="m59.75,24.3c-.34,0-.68-.14-.92-.38-.24-.25-.38-.58-.38-.92s.14-.67.38-.92c.49-.48,1.35-.48,1.84,0,.24.24.38.58.38.92s-.14.68-.38.92c-.24.24-.57.38-.92.38Z"/><path class="cls-4" d="m64.25,23.05c-.34,0-.67-.14-.92-.38-.24-.24-.38-.58-.38-.92s.14-.68.38-.92c.48-.48,1.35-.48,1.84,0,.24.24.38.58.38.92s-.14.68-.38.92c-.24.24-.58.38-.92.38Z"/><path class="cls-4" d="m68.5,24.05c-.34,0-.68-.14-.92-.38-.24-.25-.38-.58-.38-.92s.14-.67.38-.92c.49-.49,1.37-.48,1.84,0,.24.24.38.58.38.92s-.14.68-.38.92c-.24.24-.58.38-.92.38Z"/><path class="cls-4" d="m68.5,20.55c-.34,0-.68-.14-.92-.38-.24-.24-.38-.58-.38-.92s.14-.68.38-.92c.5-.49,1.36-.48,1.84,0,.24.24.38.58.38.92s-.14.68-.38.92c-.24.24-.58.38-.92.38Z"/><path class="cls-4" d="m65.5,13.8c-.34,0-.67-.14-.92-.38-.24-.24-.38-.58-.38-.92s.14-.68.38-.92c.49-.48,1.36-.48,1.84,0,.24.24.38.58.38.92s-.14.68-.38.92c-.24.24-.58.38-.92.38Z"/><path class="cls-4" d="m66.25,10.05c-.34,0-.67-.14-.92-.38-.24-.24-.38-.58-.38-.92s.14-.68.38-.92c.49-.49,1.36-.48,1.84,0,.24.24.38.58.38.92s-.14.68-.38.92c-.24.24-.58.38-.92.38Z"/><path class="cls-4" d="m69.75,8.05c-.34,0-.67-.14-.92-.38-.24-.24-.38-.58-.38-.92s.14-.67.38-.92c.48-.49,1.36-.49,1.84,0,.24.24.38.58.38.92s-.14.68-.38.92c-.24.24-.58.38-.92.38Z"/><path class="cls-4" d="m70.75,3.3c-.34,0-.67-.14-.92-.38-.24-.25-.38-.58-.38-.92s.14-.68.38-.92c.49-.48,1.36-.48,1.84,0,.24.24.38.58.38.92s-.14.68-.38.92c-.24.24-.58.38-.92.38Z"/><path class="cls-4" d="m69.75,14.55c-.34,0-.68-.14-.92-.38-.24-.24-.38-.58-.38-.92s.14-.68.38-.92c.49-.48,1.36-.48,1.84,0,.24.24.38.58.38.92s-.14.68-.38.92c-.24.24-.58.38-.92.38Z"/><path class="cls-4" d="m71.5,18.05c-.34,0-.67-.14-.92-.38-.24-.24-.38-.58-.38-.92s.14-.68.38-.92c.48-.48,1.36-.48,1.84,0,.24.24.38.58.38.92s-.14.68-.38.92c-.24.24-.58.38-.92.38Z"/><path class="cls-4" d="m56.5,7.3c-.34,0-.68-.14-.92-.38-.24-.24-.38-.58-.38-.92s.14-.68.38-.92c.49-.48,1.35-.48,1.84,0,.24.24.38.58.38.92s-.14.68-.38.92c-.24.24-.58.38-.92.38Z"/><path class="cls-4" d="m58,3.8c-.34,0-.68-.14-.92-.38-.24-.24-.38-.58-.38-.92s.14-.68.38-.92c.49-.48,1.36-.48,1.84,0,.24.24.38.58.38.92s-.14.68-.38.92c-.24.24-.57.38-.92.38Z"/><path class="cls-4" d="m54,4.55c-.34,0-.68-.14-.92-.38-.24-.24-.38-.58-.38-.92s.14-.68.38-.92c.49-.48,1.36-.48,1.84,0,.24.24.38.58.38.92s-.14.68-.38.92c-.24.24-.58.38-.92.38Z"/><path class="cls-4" d="m24,24.05c-.34,0-.67-.14-.92-.38-.24-.24-.38-.58-.38-.92s.14-.68.38-.92c.49-.48,1.36-.48,1.84,0,.24.24.38.58.38.92s-.14.68-.38.92c-.24.24-.58.38-.92.38Z"/><path class="cls-4" d="m20,21.3c-.34,0-.67-.14-.92-.38-.24-.24-.38-.58-.38-.92s.14-.67.38-.92c.49-.48,1.36-.48,1.84,0,.24.25.38.58.38.92s-.14.68-.38.92c-.24.24-.57.38-.92.38Z"/><path class="cls-4" d="m16,22.3c-.34,0-.68-.14-.92-.38-.24-.24-.38-.58-.38-.92s.14-.67.38-.92c.49-.48,1.36-.48,1.84,0,.24.25.38.58.38.92s-.14.68-.38.92c-.24.24-.58.38-.92.38Z"/><path class="cls-4" d="m17,18.3c-.34,0-.67-.14-.92-.38-.24-.24-.38-.58-.38-.92s.14-.68.38-.92c.49-.48,1.35-.48,1.84,0,.24.24.38.58.38.92s-.14.68-.38.92c-.24.24-.58.38-.92.38Z"/><path class="cls-4" d="m14.75,15.3c-.34,0-.67-.14-.92-.38-.24-.24-.38-.58-.38-.92s.14-.67.38-.92c.49-.49,1.36-.48,1.84,0,.24.25.38.58.38.92s-.14.67-.38.92c-.24.24-.58.38-.92.38Z"/><path class="cls-4" d="m12.5,12.55c-.34,0-.67-.14-.92-.38-.24-.24-.38-.58-.38-.92s.14-.67.38-.92c.49-.48,1.36-.48,1.84,0,.24.24.38.58.38.92s-.14.68-.38.92c-.24.24-.58.38-.92.38Z"/><path class="cls-4" d="m12.5,18.8c-.34,0-.68-.14-.92-.38-.24-.24-.38-.58-.38-.92s.14-.68.38-.92c.49-.48,1.36-.48,1.84,0,.24.24.38.58.38.92s-.14.68-.38.92c-.24.24-.57.38-.92.38Z"/><path class="cls-4" d="m16,22.3c-.34,0-.68-.14-.92-.38-.24-.24-.38-.58-.38-.92s.14-.67.38-.92c.49-.48,1.36-.48,1.84,0,.24.25.38.58.38.92s-.14.68-.38.92c-.24.24-.58.38-.92.38Z"/><path class="cls-4" d="m18.5,24.55c-.34,0-.67-.14-.92-.38-.24-.24-.38-.58-.38-.92s.14-.68.38-.92c.48-.48,1.36-.49,1.84,0,.24.24.38.58.38.92s-.14.67-.38.92c-.24.24-.58.38-.92.38Z"/><path class="cls-4" d="m14,26.05c-.34,0-.68-.14-.92-.38-.24-.24-.38-.58-.38-.92s.14-.68.38-.92c.49-.49,1.36-.48,1.84,0,.24.24.38.58.38.92s-.14.68-.38.92c-.24.24-.58.38-.92.38Z"/><path class="cls-4" d="m11.5,23.05c-.34,0-.67-.14-.92-.38-.24-.24-.38-.58-.38-.92s.14-.67.38-.92c.48-.48,1.36-.48,1.84,0,.24.25.38.58.38.92s-.14.68-.38.92c-.24.24-.58.38-.92.38Z"/><path class="cls-4" d="m24,16.55c-.34,0-.68-.14-.92-.38-.24-.24-.38-.58-.38-.92s.14-.68.38-.92c.49-.48,1.36-.48,1.84,0,.24.24.38.58.38.92s-.14.68-.38.92c-.24.24-.57.38-.92.38Z"/><path class="cls-4" d="m2,7.05c-.34,0-.68-.14-.92-.38-.24-.24-.38-.58-.38-.92s.14-.67.38-.92c.5-.49,1.36-.48,1.84,0,.24.25.38.58.38.92s-.14.68-.38.92c-.24.24-.58.38-.92.38Z"/><path class="cls-4" d="m3.25,16.55c-.34,0-.68-.14-.92-.38-.24-.24-.38-.58-.38-.92s.14-.68.38-.92c.49-.48,1.36-.49,1.84,0,.24.24.38.58.38.92s-.14.68-.38.92c-.24.24-.58.38-.92.38Z"/><path class="cls-4" d="m5.25,19.8c-.34,0-.68-.14-.92-.38-.24-.24-.38-.58-.38-.92s.14-.68.38-.92c.49-.49,1.36-.48,1.84,0,.25.25.38.58.38.92s-.13.68-.38.92c-.24.24-.58.38-.92.38Z"/><path class="cls-4" d="m3.75,13.05c-.34,0-.67-.14-.92-.38-.24-.24-.38-.58-.38-.92s.14-.68.38-.92c.49-.48,1.35-.48,1.84,0,.24.24.38.58.38.92s-.14.68-.38.92c-.24.24-.58.38-.92.38Z"/><path class="cls-4" d="m9,5.8c-.34,0-.67-.14-.92-.38-.24-.24-.38-.58-.38-.92s.14-.68.38-.92c.48-.48,1.36-.48,1.84,0,.24.24.38.58.38.92s-.14.68-.38.92c-.24.24-.58.38-.92.38Z"/><path class="cls-4" d="m5.75,6.3c-.34,0-.67-.14-.92-.38-.24-.24-.38-.58-.38-.92s.14-.68.38-.92c.48-.48,1.36-.48,1.84,0,.24.24.38.58.38.92s-.14.67-.38.92c-.24.24-.58.38-.92.38Z"/><path class="cls-4" d="m6,9.55c-.34,0-.67-.14-.92-.38-.24-.24-.38-.58-.38-.92s.14-.68.38-.92c.49-.48,1.36-.49,1.84,0,.24.25.38.58.38.92s-.14.68-.38.92c-.24.24-.58.38-.92.38Z"/><path class="cls-4" d="m10.75,8.8c-.34,0-.67-.14-.92-.38-.24-.24-.38-.58-.38-.92s.14-.67.38-.92c.49-.48,1.36-.48,1.84,0,.24.25.38.58.38.92s-.14.68-.38.92c-.24.24-.58.38-.92.38Z"/><path class="cls-4" d="m3.75,3.55c-.34,0-.68-.14-.92-.38-.24-.24-.38-.58-.38-.92s.14-.68.38-.92c.49-.48,1.36-.48,1.84,0,.24.24.38.58.38.92s-.14.68-.38.92c-.24.24-.58.38-.92.38Z"/><path class="cls-4" d="m7,14.3c-.34,0-.67-.14-.92-.38-.24-.24-.38-.58-.38-.92s.14-.68.38-.92c.48-.48,1.36-.48,1.84,0,.24.25.38.58.38.92s-.14.67-.38.92c-.24.24-.58.38-.92.38Z"/><path class="cls-4" d="m9.75,12.05c-.34,0-.67-.14-.92-.38-.24-.25-.38-.58-.38-.92s.14-.68.38-.92c.49-.48,1.36-.48,1.84,0,.24.24.38.58.38.92s-.14.68-.38.92c-.24.24-.58.38-.92.38Z"/><path class="cls-4" d="m9.75,16.05c-.34,0-.67-.14-.92-.38-.24-.25-.38-.58-.38-.92s.14-.68.38-.92c.49-.48,1.36-.48,1.84,0,.24.24.38.58.38.92s-.14.67-.38.92c-.24.24-.58.38-.92.38Z"/><path class="cls-4" d="m12.5,18.8c-.34,0-.68-.14-.92-.38-.24-.24-.38-.58-.38-.92s.14-.68.38-.92c.49-.48,1.36-.48,1.84,0,.24.24.38.58.38.92s-.14.68-.38.92c-.24.24-.57.38-.92.38Z"/><path class="cls-4" d="m8.25,20.55c-.34,0-.67-.14-.92-.38-.24-.24-.38-.58-.38-.92s.14-.67.38-.92c.48-.48,1.36-.48,1.84,0,.24.25.38.58.38.92s-.14.68-.38.92c-.24.24-.58.38-.92.38Z"/><path class="cls-4" d="m5.75,26.05c-.34,0-.67-.14-.92-.38-.24-.24-.38-.58-.38-.92s.14-.68.38-.92c.48-.48,1.36-.48,1.84,0,.24.24.38.58.38.92s-.14.67-.38.92c-.24.24-.58.38-.92.38Z"/><path class="cls-4" d="m5,23.05c-.34,0-.68-.14-.92-.38-.24-.24-.38-.58-.38-.92s.14-.68.38-.92c.48-.48,1.36-.48,1.84,0,.24.25.38.58.38.92s-.14.67-.38.92c-.24.24-.58.38-.92.38Z"/><path class="cls-4" d="m15,71.8c-.34,0-.67-.14-.92-.38-.24-.24-.38-.58-.38-.92s.14-.68.38-.92c.49-.48,1.36-.48,1.84,0,.24.25.38.58.38.92s-.14.68-.38.92c-.24.24-.58.38-.92.38Z"/><path class="cls-4" d="m15,71.8c-.34,0-.67-.14-.92-.38-.24-.24-.38-.58-.38-.92s.14-.68.38-.92c.49-.48,1.36-.48,1.84,0,.24.25.38.58.38.92s-.14.68-.38.92c-.24.24-.58.38-.92.38Z"/><path class="cls-4" d="m18.5,70.8c-.34,0-.67-.14-.92-.38-.24-.24-.38-.58-.38-.92s.14-.68.38-.92c.49-.48,1.36-.48,1.84,0,.24.24.38.58.38.92s-.14.68-.38.92c-.24.24-.58.38-.92.38Z"/><path class="cls-4" d="m24,71.8c-.34,0-.67-.14-.92-.38-.24-.24-.38-.58-.38-.92s.14-.68.38-.92c.49-.48,1.36-.48,1.84,0,.24.24.38.58.38.92s-.14.68-.38.92c-.24.24-.57.38-.92.38Z"/><path class="cls-4" d="m29.25,71.3c-.34,0-.68-.14-.92-.38-.24-.24-.38-.58-.38-.92s.14-.68.38-.92c.49-.48,1.36-.48,1.84,0,.24.24.38.58.38.92s-.14.68-.38.92c-.24.24-.57.38-.92.38Z"/><path class="cls-4" d="m32.75,71.8c-.34,0-.67-.14-.92-.38-.24-.24-.38-.58-.38-.92s.14-.68.38-.92c.49-.48,1.36-.48,1.84,0,.24.24.38.58.38.92s-.14.67-.38.92c-.24.24-.58.38-.92.38Z"/><path class="cls-4" d="m37.75,71.3c-.34,0-.67-.14-.92-.38-.24-.24-.38-.58-.38-.92s.14-.68.38-.92c.49-.48,1.36-.48,1.84,0,.24.24.38.58.38.92s-.14.68-.38.92c-.24.24-.58.38-.92.38Z"/><path class="cls-4" d="m45,68.55c-.34,0-.68-.14-.92-.38-.24-.24-.38-.58-.38-.92s.14-.68.38-.92c.49-.48,1.36-.48,1.84,0,.24.24.38.58.38.92s-.14.68-.38.92c-.24.24-.58.38-.92.38Z"/><path class="cls-4" d="m49.75,70.3c-.34,0-.67-.14-.92-.38-.24-.24-.38-.58-.38-.92s.14-.68.38-.92c.49-.48,1.36-.48,1.84,0,.24.24.38.58.38.92s-.14.68-.38.92c-.24.24-.58.38-.92.38Z"/><path class="cls-4" d="m59.75,71.8c-.34,0-.67-.14-.92-.38-.24-.25-.38-.58-.38-.92s.14-.67.38-.92c.49-.48,1.35-.49,1.84,0,.24.24.38.58.38.92s-.14.68-.38.92c-.24.24-.58.38-.92.38Z"/><path class="cls-4" d="m67.75,72.55c-.34,0-.68-.14-.92-.38-.24-.24-.38-.58-.38-.92s.14-.68.38-.92c.48-.48,1.36-.48,1.84,0,.24.24.38.58.38.92s-.14.68-.38.92c-.24.24-.57.38-.92.38Z"/><path class="cls-4" d="m55,73.55c-.34,0-.68-.14-.92-.38-.24-.24-.38-.58-.38-.92s.14-.68.38-.92c.49-.48,1.36-.48,1.84,0,.24.24.38.58.38.92s-.14.68-.38.92c-.24.24-.58.38-.92.38Z"/><path class="cls-4" d="m53.75,69.8c-.34,0-.68-.14-.92-.38-.24-.24-.38-.58-.38-.92s.14-.68.38-.92c.49-.48,1.36-.48,1.84,0,.24.24.38.58.38.92s-.14.68-.38.92c-.24.24-.58.38-.92.38Z"/><path class="cls-4" d="m10.25,70.8c-.34,0-.67-.14-.92-.38-.24-.24-.38-.58-.38-.92s.14-.68.38-.92c.49-.48,1.36-.48,1.84,0,.24.24.38.58.38.92s-.14.68-.38.92c-.24.24-.58.38-.92.38Z"/><path class="cls-4" d="m5.75,71.05c-.34,0-.68-.14-.92-.38-.24-.24-.38-.58-.38-.92s.14-.68.38-.92c.49-.48,1.35-.49,1.84,0,.24.25.38.58.38.92s-.14.68-.38.92c-.24.24-.58.38-.92.38Z"/><path class="cls-4" d="m22,26.8c-.34,0-.67-.14-.92-.38-.24-.24-.38-.58-.38-.92s.14-.68.38-.92c.48-.48,1.36-.48,1.84,0,.24.24.38.58.38.92s-.14.68-.38.92c-.24.24-.57.38-.92.38Z"/><path class="cls-4" d="m26.5,27.8c-.34,0-.67-.14-.92-.38-.24-.24-.38-.58-.38-.92s.14-.68.38-.92c.49-.48,1.36-.48,1.84,0,.24.25.38.58.38.92s-.14.68-.38.92c-.24.24-.58.38-.92.38Z"/><path class="cls-4" d="m30.25,25.8c-.34,0-.67-.14-.92-.38-.24-.24-.38-.58-.38-.92s.14-.68.38-.92c.49-.48,1.36-.48,1.84,0,.24.24.38.58.38.92s-.14.68-.38.92c-.24.24-.58.38-.92.38Z"/><path class="cls-4" d="m29,29.8c-.34,0-.68-.14-.92-.38-.24-.24-.38-.58-.38-.92s.14-.68.38-.92c.49-.48,1.36-.48,1.84,0,.24.24.38.58.38.92s-.14.68-.38.92c-.24.24-.57.38-.92.38Z"/><path class="cls-4" d="m26.25,31.8c-.34,0-.67-.14-.92-.38-.24-.24-.38-.58-.38-.92s.14-.68.38-.92c.48-.48,1.36-.49,1.84,0,.24.24.38.58.38.92s-.14.68-.38.92c-.24.24-.58.38-.92.38Z"/><path class="cls-4" d="m22.75,31.05c-.34,0-.68-.14-.92-.38-.24-.24-.38-.58-.38-.92s.14-.68.38-.92c.48-.48,1.36-.49,1.84,0,.24.24.38.58.38.92s-.14.68-.38.92c-.24.24-.57.38-.92.38Z"/><path class="cls-4" d="m19.5,31.8c-.34,0-.67-.14-.92-.38-.24-.24-.38-.58-.38-.92s.14-.68.38-.92c.48-.48,1.36-.49,1.84,0,.24.24.38.58.38.92s-.14.68-.38.92c-.24.24-.58.38-.92.38Z"/><path class="cls-4" d="m18,28.05c-.34,0-.68-.14-.92-.38-.24-.24-.38-.58-.38-.92s.14-.68.38-.92c.49-.48,1.36-.48,1.84,0,.24.24.38.58.38.92s-.14.68-.38.92c-.24.24-.58.38-.92.38Z"/><path class="cls-4" d="m16,30.55c-.34,0-.68-.14-.92-.38-.24-.24-.38-.58-.38-.92s.14-.68.38-.92c.49-.48,1.35-.48,1.84,0,.24.24.38.58.38.92s-.14.68-.38.92c-.24.24-.57.38-.92.38Z"/><path class="cls-4" d="m12.75,29.3c-.34,0-.67-.14-.92-.38-.24-.24-.38-.58-.38-.92s.14-.68.38-.92c.49-.49,1.36-.48,1.84,0,.24.25.38.58.38.92s-.14.68-.38.92c-.24.24-.58.38-.92.38Z"/><path class="cls-4" d="m9.5,30.8c-.34,0-.67-.14-.92-.38-.24-.24-.38-.58-.38-.92s.14-.67.38-.92c.48-.48,1.36-.48,1.84,0,.25.25.38.58.38.92s-.13.68-.38.92c-.24.24-.58.38-.92.38Z"/><path class="cls-4" d="m8.5,34.05c-.34,0-.67-.14-.92-.38-.24-.24-.38-.58-.38-.92s.14-.68.38-.92c.48-.48,1.36-.48,1.84,0,.24.24.38.58.38.92s-.14.68-.38.92c-.24.24-.58.38-.92.38Z"/><path class="cls-4" d="m10,38.3c-.34,0-.67-.14-.92-.38-.24-.24-.38-.58-.38-.92s.14-.68.38-.92c.48-.48,1.36-.48,1.84,0,.24.24.38.58.38.92s-.14.68-.38.92c-.24.24-.58.38-.92.38Z"/><path class="cls-4" d="m12.5,35.8c-.34,0-.67-.14-.92-.38-.24-.24-.38-.58-.38-.92s.14-.68.38-.92c.48-.48,1.36-.48,1.84,0,.24.24.38.58.38.92s-.14.68-.38.92c-.24.24-.58.38-.92.38Z"/><path class="cls-4" d="m15.25,33.3c-.34,0-.68-.14-.92-.38-.24-.24-.38-.58-.38-.92s.14-.68.38-.92c.49-.48,1.35-.48,1.84,0,.24.24.38.58.38.92s-.14.68-.38.92c-.24.24-.58.38-.92.38Z"/><path class="cls-4" d="m19,35.55c-.34,0-.67-.14-.92-.38-.24-.24-.38-.58-.38-.92s.14-.68.38-.92c.48-.48,1.36-.48,1.84,0,.24.24.38.58.38.92s-.14.68-.38.92c-.24.24-.58.38-.92.38Z"/><path class="cls-4" d="m16,38.05c-.34,0-.67-.14-.92-.38-.24-.24-.38-.58-.38-.92s.14-.68.38-.92c.48-.48,1.36-.48,1.84,0,.24.24.38.58.38.92s-.14.68-.38.92c-.24.24-.58.38-.92.38Z"/><path class="cls-4" d="m13,40.8c-.34,0-.67-.14-.92-.38-.24-.24-.38-.58-.38-.92s.14-.68.38-.92c.49-.48,1.36-.48,1.84,0,.24.24.38.58.38.92s-.14.68-.38.92c-.24.24-.58.38-.92.38Z"/><path class="cls-4" d="m9.75,42.55c-.34,0-.67-.14-.92-.38-.24-.25-.38-.58-.38-.92s.14-.68.38-.92c.49-.48,1.36-.48,1.84,0,.24.24.38.58.38.92s-.14.67-.38.92c-.24.24-.58.38-.92.38Z"/><path class="cls-4" d="m10,38.3c-.34,0-.67-.14-.92-.38-.24-.24-.38-.58-.38-.92s.14-.68.38-.92c.48-.48,1.36-.48,1.84,0,.24.24.38.58.38.92s-.14.68-.38.92c-.24.24-.58.38-.92.38Z"/><path class="cls-4" d="m6.75,39.8c-.34,0-.67-.14-.92-.38-.24-.24-.38-.58-.38-.92s.14-.68.38-.92c.48-.48,1.36-.48,1.84,0,.24.24.38.58.38.92s-.14.68-.38.92c-.24.24-.58.38-.92.38Z"/><path class="cls-4" d="m5.75,35.3c-.34,0-.68-.14-.92-.38-.24-.24-.38-.58-.38-.92s.14-.68.38-.92c.49-.48,1.36-.48,1.84,0,.24.25.38.58.38.92s-.14.68-.38.92c-.24.24-.58.38-.92.38Z"/><path class="cls-4" d="m5.5,30.05c-.34,0-.67-.14-.92-.38-.24-.24-.38-.58-.38-.92s.14-.68.38-.92c.49-.48,1.36-.48,1.84,0,.24.24.38.58.38.92s-.14.68-.38.92c-.24.24-.58.38-.92.38Z"/><path class="cls-4" d="m2.5,32.05c-.34,0-.67-.14-.92-.38-.24-.24-.38-.58-.38-.92s.14-.68.38-.92c.49-.48,1.35-.48,1.84,0,.25.25.38.58.38.92s-.13.67-.38.92c-.24.24-.58.38-.92.38Z"/><path class="cls-4" d="m1.75,36.05c-.34,0-.67-.14-.92-.38-.24-.24-.38-.58-.38-.92s.14-.68.38-.92c.48-.48,1.36-.48,1.84,0,.24.24.38.58.38.92s-.14.68-.38.92c-.24.24-.58.38-.92.38Z"/><path class="cls-4" d="m1.75,27.55c-.34,0-.67-.14-.92-.38-.24-.25-.38-.58-.38-.92s.14-.67.38-.92c.49-.48,1.35-.48,1.84,0,.24.24.38.58.38.92s-.14.68-.38.92c-.24.24-.58.38-.92.38Z"/><path class="cls-4" d="m3,39.55c-.34,0-.68-.14-.92-.38-.24-.24-.38-.58-.38-.92s.14-.68.38-.92c.49-.48,1.36-.49,1.84,0,.24.24.38.58.38.92s-.14.68-.38.92c-.24.24-.58.38-.92.38Z"/><path class="cls-4" d="m3.5,43.3c-.34,0-.67-.14-.92-.38-.24-.24-.38-.58-.38-.92s.14-.68.38-.92c.49-.48,1.36-.48,1.84,0,.24.24.38.58.38.92s-.14.68-.38.92c-.24.24-.58.38-.92.38Z"/><path class="cls-4" d="m2.75,49.3c-.34,0-.67-.14-.92-.38-.24-.24-.38-.58-.38-.92s.14-.67.38-.92c.49-.48,1.35-.48,1.84,0,.24.24.38.58.38.92s-.14.68-.38.92c-.24.24-.58.38-.92.38Z"/><path class="cls-4" d="m3.75,52.3c-.34,0-.67-.14-.92-.38-.24-.24-.38-.58-.38-.92s.14-.67.38-.92c.49-.48,1.36-.48,1.84,0,.24.25.38.58.38.92s-.14.68-.38.92c-.24.24-.58.38-.92.38Z"/><path class="cls-4" d="m7.25,50.3c-.34,0-.67-.14-.92-.38-.24-.24-.38-.58-.38-.92s.14-.68.38-.92c.48-.48,1.36-.48,1.84,0,.24.24.38.58.38.92s-.14.68-.38.92c-.24.24-.58.38-.92.38Z"/><path class="cls-4" d="m5.5,46.3c-.34,0-.68-.14-.92-.38-.24-.24-.38-.58-.38-.92s.14-.68.38-.92c.49-.48,1.36-.48,1.84,0,.24.25.38.58.38.92s-.14.68-.38.92c-.24.24-.58.38-.92.38Z"/><path class="cls-4" d="m9.5,46.8c-.34,0-.67-.14-.92-.38-.24-.24-.38-.58-.38-.92s.14-.68.38-.92c.48-.48,1.36-.48,1.84,0,.25.25.38.58.38.92s-.14.68-.38.92c-.24.24-.58.38-.92.38Z"/><path class="cls-4" d="m12,49.8c-.34,0-.67-.14-.92-.38-.24-.24-.38-.58-.38-.92s.14-.67.38-.92c.48-.48,1.36-.48,1.84,0,.24.25.38.58.38.92s-.14.68-.38.92c-.24.24-.58.38-.92.38Z"/><path class="cls-4" d="m15,50.8c-.34,0-.68-.14-.92-.38-.24-.24-.38-.58-.38-.92s.14-.68.38-.92c.49-.48,1.36-.48,1.84,0,.24.24.38.58.38.92s-.14.68-.38.92c-.24.24-.58.38-.92.38Z"/><path class="cls-4" d="m17.75,52.3c-.34,0-.67-.14-.92-.38-.24-.24-.38-.58-.38-.92s.14-.68.38-.92c.49-.48,1.36-.48,1.84,0,.24.24.38.58.38.92s-.14.68-.38.92c-.24.24-.58.38-.92.38Z"/><path class="cls-4" d="m12.5,45.55c-.34,0-.67-.14-.92-.38-.24-.24-.38-.58-.38-.92s.14-.68.38-.92c.49-.48,1.36-.48,1.84,0,.24.24.38.58.38.92s-.14.68-.38.92c-.24.24-.58.38-.92.38Z"/><path class="cls-4" d="m16,46.8c-.34,0-.67-.14-.92-.38-.24-.24-.38-.58-.38-.92s.14-.68.38-.92c.48-.48,1.36-.48,1.84,0,.24.24.38.58.38.92s-.14.68-.38.92c-.24.24-.58.38-.92.38Z"/><path class="cls-4" d="m19.25,47.8c-.34,0-.68-.14-.92-.38-.24-.24-.38-.58-.38-.92s.14-.67.38-.92c.49-.48,1.36-.48,1.84,0,.24.25.38.58.38.92s-.14.68-.38.92c-.24.24-.57.38-.92.38Z"/><path class="cls-4" d="m16.25,42.3c-.34,0-.68-.14-.92-.38-.24-.24-.38-.58-.38-.92s.14-.68.38-.92c.49-.48,1.36-.48,1.84,0,.24.24.38.58.38.92s-.14.68-.38.92c-.24.24-.58.38-.92.38Z"/><path class="cls-4" d="m20.25,43.3c-.34,0-.67-.14-.92-.38-.24-.24-.38-.58-.38-.92s.14-.67.38-.92c.49-.48,1.36-.48,1.84,0,.24.25.38.58.38.92s-.14.68-.38.92c-.24.24-.58.38-.92.38Z"/><path class="cls-4" d="m21,39.05c-.34,0-.67-.14-.92-.38-.24-.24-.38-.58-.38-.92s.14-.68.38-.92c.49-.48,1.36-.48,1.84,0,.24.24.38.58.38.92s-.14.68-.38.92c-.24.24-.58.38-.92.38Z"/><path class="cls-4" d="m23.5,42.05c-.34,0-.68-.14-.92-.38-.24-.24-.38-.58-.38-.92s.14-.68.38-.92c.48-.48,1.36-.49,1.84,0,.24.24.38.58.38.92s-.14.68-.38.92c-.24.24-.57.38-.92.38Z"/><path class="cls-4" d="m26.25,39.55c-.34,0-.68-.14-.92-.38-.24-.24-.38-.58-.38-.92s.14-.67.38-.92c.49-.48,1.36-.48,1.84,0,.24.25.38.58.38.92s-.14.68-.38.92c-.24.24-.58.38-.92.38Z"/><path class="cls-4" d="m22.5,46.05c-.34,0-.67-.14-.92-.38-.24-.24-.38-.58-.38-.92s.14-.68.38-.92c.49-.48,1.36-.48,1.84,0,.24.24.38.58.38.92s-.14.68-.38.92c-.24.24-.58.38-.92.38Z"/><path class="cls-4" d="m26,48.05c-.34,0-.67-.14-.92-.38-.24-.24-.38-.58-.38-.92s.14-.68.38-.92c.49-.48,1.36-.48,1.84,0,.24.24.38.58.38.92s-.14.68-.38.92c-.24.24-.58.38-.92.38Z"/><path class="cls-4" d="m26,52.05c-.34,0-.68-.14-.92-.38-.24-.24-.38-.58-.38-.92s.14-.68.38-.92c.49-.48,1.36-.48,1.84,0,.24.24.38.58.38.92s-.14.68-.38.92c-.24.24-.58.38-.92.38Z"/><path class="cls-4" d="m22,50.3c-.34,0-.68-.14-.92-.38-.24-.24-.38-.58-.38-.92s.14-.68.38-.92c.49-.48,1.36-.48,1.84,0,.24.25.38.58.38.92s-.14.68-.38.92c-.24.24-.57.38-.92.38Z"/><path class="cls-4" d="m29.5,49.05c-.34,0-.67-.14-.92-.38-.24-.24-.38-.58-.38-.92s.14-.68.38-.92c.49-.48,1.36-.48,1.84,0,.24.24.38.58.38.92s-.14.68-.38.92c-.24.24-.57.38-.92.38Z"/><path class="cls-4" d="m31.5,45.8c-.34,0-.68-.14-.92-.38-.24-.24-.38-.58-.38-.92s.14-.68.38-.92c.49-.48,1.35-.48,1.84,0,.25.25.38.58.38.92s-.14.68-.38.92c-.24.24-.58.38-.92.38Z"/><path class="cls-4" d="m30.25,41.8c-.34,0-.68-.14-.92-.38-.24-.24-.38-.58-.38-.92s.14-.68.38-.92c.49-.48,1.36-.48,1.84,0,.24.24.38.58.38.92s-.14.68-.38.92c-.24.24-.58.38-.92.38Z"/><path class="cls-4" d="m30.25,37.8c-.34,0-.67-.14-.92-.38-.24-.24-.38-.58-.38-.92s.14-.68.38-.92c.49-.48,1.36-.48,1.84,0,.24.24.38.58.38.92s-.14.68-.38.92c-.24.24-.58.38-.92.38Z"/><path class="cls-4" d="m27,36.05c-.34,0-.67-.14-.92-.38-.24-.24-.38-.58-.38-.92s.14-.68.38-.92c.49-.48,1.36-.48,1.84,0,.24.24.38.58.38.92s-.14.68-.38.92c-.24.24-.58.38-.92.38Z"/><path class="cls-4" d="m23.5,36.05c-.34,0-.68-.14-.92-.38-.24-.24-.38-.58-.38-.92s.14-.68.38-.92c.49-.48,1.36-.48,1.84,0,.24.24.38.58.38.92s-.14.68-.38.92c-.24.24-.57.38-.92.38Z"/><path class="cls-4" d="m30,32.55c-.34,0-.67-.14-.92-.38-.24-.24-.38-.58-.38-.92s.14-.68.38-.92c.49-.48,1.36-.48,1.84,0,.24.25.38.58.38.92s-.14.68-.38.92c-.24.24-.58.38-.92.38Z"/><path class="cls-4" d="m33,35.3c-.34,0-.67-.14-.92-.38-.24-.24-.38-.58-.38-.92s.14-.67.38-.92c.49-.48,1.36-.48,1.84,0,.24.24.38.58.38.92s-.14.68-.38.92c-.24.24-.58.38-.92.38Z"/><path class="cls-4" d="m36,35.8c-.34,0-.67-.14-.92-.38-.24-.24-.38-.58-.38-.92s.14-.68.38-.92c.49-.48,1.36-.48,1.84,0,.24.24.38.58.38.92s-.14.68-.38.92c-.24.24-.58.38-.92.38Z"/><path class="cls-4" d="m33.5,39.8c-.34,0-.67-.14-.92-.38-.24-.24-.38-.58-.38-.92s.14-.67.38-.92c.49-.48,1.36-.48,1.84,0,.24.24.38.58.38.92s-.14.68-.38.92c-.24.24-.58.38-.92.38Z"/><path class="cls-4" d="m34.5,43.55c-.34,0-.68-.14-.92-.38-.24-.24-.38-.58-.38-.92s.14-.68.38-.92c.49-.48,1.36-.48,1.84,0,.24.24.38.58.38.92s-.14.68-.38.92c-.24.24-.57.38-.92.38Z"/><path class="cls-4" d="m31.5,45.8c-.34,0-.68-.14-.92-.38-.24-.24-.38-.58-.38-.92s.14-.68.38-.92c.49-.48,1.35-.48,1.84,0,.25.25.38.58.38.92s-.14.68-.38.92c-.24.24-.58.38-.92.38Z"/><path class="cls-4" d="m34.75,47.3c-.34,0-.67-.14-.92-.38-.24-.24-.38-.58-.38-.92s.14-.68.38-.92c.49-.49,1.36-.48,1.84,0,.25.25.38.58.38.92s-.14.67-.38.92c-.24.24-.58.38-.92.38Z"/><path class="cls-4" d="m37.75,51.55c-.34,0-.68-.14-.92-.38-.24-.24-.38-.58-.38-.92s.14-.68.38-.92c.49-.49,1.36-.48,1.84,0,.24.24.38.58.38.92s-.14.68-.38.92c-.24.24-.58.38-.92.38Z"/><path class="cls-4" d="m32.75,50.55c-.34,0-.67-.14-.92-.38-.24-.24-.38-.58-.38-.92s.14-.68.38-.92c.49-.48,1.36-.48,1.84,0,.24.24.38.58.38.92s-.14.67-.38.92c-.24.24-.58.38-.92.38Z"/><path class="cls-4" d="m38.5,47.55c-.34,0-.67-.14-.92-.38-.24-.24-.38-.58-.38-.92s.14-.68.38-.92c.48-.48,1.36-.48,1.84,0,.24.24.38.58.38.92s-.14.68-.38.92c-.24.24-.57.38-.92.38Z"/><path class="cls-4" d="m38.25,43.05c-.34,0-.68-.14-.92-.38-.24-.24-.38-.58-.38-.92s.14-.68.38-.92c.49-.48,1.36-.48,1.84,0,.24.24.38.58.38.92s-.14.68-.38.92c-.24.24-.57.38-.92.38Z"/><path class="cls-4" d="m37.5,39.55c-.34,0-.67-.14-.92-.38-.24-.24-.38-.58-.38-.92s.14-.68.38-.92c.49-.48,1.36-.48,1.84,0,.25.25.38.58.38.92s-.13.67-.38.92c-.24.24-.58.38-.92.38Z"/><path class="cls-4" d="m33,35.3c-.34,0-.67-.14-.92-.38-.24-.24-.38-.58-.38-.92s.14-.67.38-.92c.49-.48,1.36-.48,1.84,0,.24.24.38.58.38.92s-.14.68-.38.92c-.24.24-.58.38-.92.38Z"/><path class="cls-4" d="m36,35.8c-.34,0-.67-.14-.92-.38-.24-.24-.38-.58-.38-.92s.14-.68.38-.92c.49-.48,1.36-.48,1.84,0,.24.24.38.58.38.92s-.14.68-.38.92c-.24.24-.58.38-.92.38Z"/><path class="cls-4" d="m33.75,32.05c-.34,0-.67-.14-.92-.38-.24-.24-.38-.58-.38-.92s.14-.68.38-.92c.48-.48,1.36-.48,1.84,0,.24.24.38.58.38.92s-.14.68-.38.92c-.24.24-.58.38-.92.38Z"/><path class="cls-4" d="m33.25,28.05c-.34,0-.68-.14-.92-.38-.24-.24-.38-.58-.38-.92s.14-.68.38-.92c.49-.48,1.36-.48,1.84,0,.24.24.38.58.38.92s-.14.68-.38.92c-.24.24-.57.38-.92.38Z"/><path class="cls-4" d="m37,28.3c-.34,0-.67-.14-.92-.38-.24-.24-.38-.58-.38-.92s.14-.68.38-.92c.49-.48,1.36-.48,1.84,0,.24.24.38.58.38.92s-.14.68-.38.92c-.24.24-.58.38-.92.38Z"/><path class="cls-4" d="m37.75,32.8c-.34,0-.67-.14-.92-.38-.24-.24-.38-.58-.38-.92s.14-.68.38-.92c.49-.49,1.36-.48,1.84,0,.24.24.38.58.38.92s-.14.68-.38.92c-.24.24-.58.38-.92.38Z"/><path class="cls-4" d="m40,36.05c-.34,0-.68-.14-.92-.38-.24-.24-.38-.58-.38-.92s.14-.68.38-.92c.48-.48,1.36-.48,1.84,0,.24.24.38.58.38.92s-.14.68-.38.92c-.24.24-.58.38-.92.38Z"/><path class="cls-4" d="m43,38.55c-.34,0-.68-.14-.92-.38-.24-.24-.38-.58-.38-.92s.14-.68.38-.92c.48-.48,1.36-.48,1.84,0,.24.24.38.58.38.92s-.14.68-.38.92c-.24.24-.58.38-.92.38Z"/><path class="cls-4" d="m42.5,42.3c-.34,0-.68-.14-.92-.38-.24-.24-.38-.58-.38-.92s.14-.68.38-.92c.49-.49,1.36-.48,1.84,0,.24.24.38.58.38.92s-.14.68-.38.92c-.24.24-.58.38-.92.38Z"/><path class="cls-4" d="m41.75,46.05c-.34,0-.67-.14-.92-.38-.24-.24-.38-.58-.38-.92s.14-.68.38-.92c.48-.48,1.36-.49,1.84,0,.24.24.38.58.38.92s-.14.68-.38.92c-.24.24-.58.38-.92.38Z"/><path class="cls-4" d="m43.75,49.55c-.34,0-.67-.14-.92-.38-.24-.24-.38-.58-.38-.92s.14-.68.38-.92c.48-.48,1.36-.49,1.84,0,.24.24.38.58.38.92s-.14.68-.38.92c-.24.24-.58.38-.92.38Z"/><path class="cls-4" d="m46.75,46.55c-.34,0-.68-.14-.92-.38-.24-.24-.38-.58-.38-.92s.14-.68.38-.92c.49-.48,1.36-.48,1.84,0,.24.24.38.58.38.92s-.14.68-.38.92c-.24.24-.58.38-.92.38Z"/><path class="cls-4" d="m46.75,51.05c-.34,0-.67-.14-.92-.38-.24-.24-.38-.58-.38-.92s.14-.68.38-.92c.49-.48,1.36-.48,1.84,0,.24.24.38.58.38.92s-.14.68-.38.92c-.24.24-.58.38-.92.38Z"/><path class="cls-4" d="m46.5,41.8c-.34,0-.68-.14-.92-.38-.24-.24-.38-.58-.38-.92s.14-.68.38-.92c.49-.48,1.36-.48,1.84,0,.24.24.38.58.38.92s-.14.68-.38.92c-.24.24-.58.38-.92.38Z"/><path class="cls-4" d="m47.75,38.8c-.34,0-.67-.14-.92-.38-.24-.24-.38-.58-.38-.92s.14-.68.38-.92c.48-.48,1.35-.48,1.84,0,.24.24.38.58.38.92s-.14.68-.38.92c-.24.24-.57.38-.92.38Z"/><path class="cls-4" d="m44.5,34.8c-.34,0-.68-.14-.92-.38-.24-.24-.38-.58-.38-.92s.14-.68.38-.92c.49-.48,1.36-.48,1.84,0,.24.24.38.58.38.92s-.14.68-.38.92c-.25.24-.57.38-.92.38Z"/><path class="cls-4" d="m42.75,32.3c-.34,0-.67-.14-.92-.38-.24-.24-.38-.58-.38-.92s.14-.67.38-.92c.49-.49,1.36-.48,1.84,0,.24.25.38.58.38.92s-.14.68-.38.92c-.24.24-.58.38-.92.38Z"/><path class="cls-4" d="m40.75,30.05c-.34,0-.67-.14-.92-.38-.24-.24-.38-.58-.38-.92s.14-.68.38-.92c.49-.49,1.36-.48,1.84,0,.24.24.38.58.38.92s-.14.68-.38.92c-.24.24-.57.38-.92.38Z"/><path class="cls-4" d="m44,28.05c-.34,0-.68-.14-.92-.38-.24-.24-.38-.58-.38-.92s.14-.68.38-.92c.49-.48,1.36-.48,1.84,0,.24.24.38.58.38.92s-.14.68-.38.92c-.24.24-.58.38-.92.38Z"/><path class="cls-4" d="m43,24.05c-.34,0-.67-.14-.92-.38-.24-.24-.38-.58-.38-.92s.14-.68.38-.92c.48-.48,1.36-.48,1.84,0,.24.24.38.58.38.92s-.14.68-.38.92c-.24.24-.58.38-.92.38Z"/><path class="cls-4" d="m47.75,26.8c-.34,0-.67-.14-.92-.38-.24-.24-.38-.58-.38-.92s.14-.68.38-.92c.49-.48,1.35-.48,1.84,0,.24.24.38.58.38.92s-.14.68-.38.92c-.24.24-.58.38-.92.38Z"/><path class="cls-4" d="m46.5,31.05c-.34,0-.67-.14-.92-.38-.24-.24-.38-.58-.38-.92s.14-.68.38-.92c.49-.48,1.36-.48,1.84,0,.24.24.38.58.38.92s-.14.68-.38.92c-.24.24-.58.38-.92.38Z"/><path class="cls-4" d="m48.5,34.3c-.34,0-.67-.14-.92-.38-.24-.24-.38-.58-.38-.92s.14-.68.38-.92c.48-.48,1.36-.48,1.84,0,.24.24.38.58.38.92s-.14.68-.38.92c-.24.24-.58.38-.92.38Z"/><path class="cls-4" d="m51.75,36.8c-.34,0-.67-.14-.92-.38-.24-.25-.38-.58-.38-.92s.14-.68.38-.92c.48-.48,1.35-.48,1.84,0,.24.24.38.58.38.92s-.14.68-.38.92c-.24.24-.58.38-.92.38Z"/><path class="cls-4" d="m51.5,40.8c-.34,0-.67-.14-.92-.38-.24-.25-.38-.58-.38-.92s.14-.67.38-.92c.49-.48,1.36-.48,1.84,0,.24.24.38.58.38.92s-.14.68-.38.92c-.24.24-.58.38-.92.38Z"/><path class="cls-4" d="m50.5,44.8c-.34,0-.67-.14-.92-.38-.24-.24-.38-.58-.38-.92s.14-.67.38-.92c.49-.49,1.36-.48,1.84,0,.24.25.38.58.38.92s-.14.68-.38.92c-.24.24-.58.38-.92.38Z"/><path class="cls-4" d="m54.25,44.05c-.34,0-.68-.14-.92-.38-.24-.24-.38-.58-.38-.92s.14-.68.38-.92c.49-.48,1.36-.48,1.84,0,.24.24.38.58.38.92s-.14.68-.38.92c-.24.24-.58.38-.92.38Z"/><path class="cls-4" d="m54,48.55c-.34,0-.68-.14-.92-.38-.24-.24-.38-.58-.38-.92s.14-.68.38-.92c.49-.48,1.36-.48,1.84,0,.24.24.38.58.38.92s-.14.68-.38.92c-.24.24-.58.38-.92.38Z"/><path class="cls-4" d="m56.75,51.55c-.34,0-.67-.14-.92-.38-.24-.24-.38-.58-.38-.92s.14-.68.38-.92c.49-.48,1.35-.49,1.84,0,.24.24.38.58.38.92s-.14.68-.38.92c-.24.24-.57.38-.92.38Z"/><path class="cls-4" d="m57.5,46.8c-.34,0-.67-.14-.92-.38-.24-.24-.38-.58-.38-.92s.14-.68.38-.92c.49-.48,1.36-.48,1.84,0,.24.24.38.58.38.92s-.14.68-.38.92c-.24.24-.58.38-.92.38Z"/><path class="cls-4" d="m57.5,43.05c-.34,0-.68-.14-.92-.38-.24-.24-.38-.58-.38-.92s.14-.68.38-.92c.49-.48,1.36-.48,1.84,0,.24.24.38.58.38.92s-.14.68-.38.92c-.24.24-.57.38-.92.38Z"/><path class="cls-4" d="m56.5,39.05c-.34,0-.67-.14-.92-.38-.24-.24-.38-.58-.38-.92s.14-.68.38-.92c.48-.48,1.36-.48,1.84,0,.24.24.38.58.38.92s-.14.68-.38.92c-.24.24-.58.38-.92.38Z"/><path class="cls-4" d="m27.25,44.05c-.34,0-.67-.14-.92-.38-.24-.24-.38-.58-.38-.92s.14-.68.38-.92c.49-.48,1.36-.49,1.84,0,.24.24.38.58.38.92s-.14.68-.38.92c-.24.24-.58.38-.92.38Z"/><path class="cls-4" d="m70.25,33.3c-.34,0-.68-.14-.92-.38-.24-.24-.38-.58-.38-.92s.14-.68.38-.92c.49-.49,1.36-.48,1.84,0,.24.24.38.58.38.92s-.14.68-.38.92c-.24.24-.58.38-.92.38Z"/><path class="cls-4" d="m71.25,29.05c-.34,0-.67-.14-.92-.38-.24-.24-.38-.58-.38-.92s.14-.68.38-.92c.49-.48,1.36-.48,1.84,0,.24.24.38.58.38.92s-.14.68-.38.92c-.24.24-.58.38-.92.38Z"/><path class="cls-4" d="m68,27.3c-.34,0-.67-.14-.92-.38-.24-.24-.38-.58-.38-.92s.14-.67.38-.92c.49-.49,1.36-.48,1.84,0,.24.24.38.58.38.92s-.14.68-.38.92c-.24.24-.58.38-.92.38Z"/><path class="cls-4" d="m68.25,36.55c-.34,0-.68-.14-.92-.38-.24-.24-.38-.58-.38-.92s.14-.68.38-.92c.49-.48,1.36-.48,1.84,0,.24.24.38.58.38.92s-.14.68-.38.92c-.24.24-.57.38-.92.38Z"/><path class="cls-4" d="m68,40.3c-.34,0-.67-.14-.92-.38-.24-.24-.38-.58-.38-.92s.14-.68.38-.92c.49-.49,1.36-.48,1.84,0,.24.24.38.58.38.92s-.14.68-.38.92c-.24.24-.58.38-.92.38Z"/><path class="cls-4" d="m71.5,39.05c-.34,0-.68-.14-.92-.38-.24-.24-.38-.58-.38-.92s.14-.68.38-.92c.49-.48,1.36-.48,1.84,0,.24.24.38.58.38.92s-.14.68-.38.92c-.24.24-.58.38-.92.38Z"/><path class="cls-4" d="m70.75,43.05c-.34,0-.67-.14-.92-.38-.24-.24-.38-.58-.38-.92s.14-.67.38-.92c.48-.48,1.36-.48,1.84,0,.24.24.38.58.38.92s-.14.68-.38.92c-.24.24-.58.38-.92.38Z"/><path class="cls-4" d="m70,50.55c-.34,0-.67-.14-.92-.38-.24-.24-.38-.58-.38-.92s.14-.68.38-.92c.48-.48,1.36-.49,1.84,0,.24.24.38.58.38.92s-.14.68-.38.92c-.24.24-.58.38-.92.38Z"/><path class="cls-4" d="m69,47.05c-.34,0-.67-.14-.92-.38-.24-.24-.38-.58-.38-.92s.14-.68.38-.92c.49-.48,1.36-.48,1.84,0,.24.24.38.58.38.92s-.14.68-.38.92c-.24.24-.58.38-.92.38Z"/><path class="cls-4" d="m66.5,31.05c-.34,0-.68-.14-.92-.38-.24-.24-.38-.58-.38-.92s.14-.68.38-.92c.48-.48,1.36-.48,1.84,0,.24.24.38.58.38.92s-.14.68-.38.92c-.24.24-.58.38-.92.38Z"/><path class="cls-4" d="m63,31.3c-.34,0-.67-.14-.92-.38-.24-.24-.38-.58-.38-.92s.14-.68.38-.92c.49-.48,1.35-.48,1.84,0,.24.24.38.58.38.92s-.14.68-.38.92c-.24.24-.57.38-.92.38Z"/><path class="cls-4" d="m64,26.55c-.34,0-.67-.14-.92-.38-.24-.24-.38-.58-.38-.92s.14-.68.38-.92c.49-.48,1.35-.48,1.84,0,.24.24.38.58.38.92s-.14.68-.38.92c-.24.24-.58.38-.92.38Z"/><path class="cls-4" d="m60.5,28.05c-.34,0-.67-.14-.92-.38-.24-.24-.38-.58-.38-.92s.14-.68.38-.92c.49-.48,1.35-.48,1.84,0,.24.24.38.58.38.92s-.14.68-.38.92c-.24.24-.57.38-.92.38Z"/><path class="cls-4" d="m56.75,27.05c-.34,0-.67-.14-.92-.38-.24-.24-.38-.58-.38-.92s.14-.68.38-.92c.49-.48,1.35-.48,1.84,0,.24.24.38.58.38.92s-.14.68-.38.92c-.24.24-.58.38-.92.38Z"/><path class="cls-4" d="m53.25,28.8c-.34,0-.67-.14-.92-.38-.24-.24-.38-.58-.38-.92s.14-.68.38-.92c.48-.48,1.35-.49,1.84,0,.24.24.38.58.38.92s-.14.68-.38.92c-.24.24-.57.38-.92.38Z"/><path class="cls-4" d="m50.25,29.8c-.34,0-.67-.14-.92-.38-.24-.24-.38-.58-.38-.92s.14-.68.38-.92c.49-.48,1.36-.48,1.84,0,.24.24.38.58.38.92s-.14.68-.38.92c-.24.24-.58.38-.92.38Z"/><path class="cls-4" d="m52.5,33.55c-.34,0-.67-.14-.92-.38-.24-.24-.38-.58-.38-.92s.14-.68.38-.92c.49-.48,1.35-.48,1.84,0,.24.24.38.58.38.92s-.14.68-.38.92c-.24.24-.58.38-.92.38Z"/><path class="cls-4" d="m56.75,31.05c-.34,0-.67-.14-.92-.38-.24-.24-.38-.58-.38-.92s.14-.68.38-.92c.49-.48,1.35-.48,1.84,0,.24.24.38.58.38.92s-.14.68-.38.92c-.24.24-.58.38-.92.38Z"/><path class="cls-4" d="m59.75,34.05c-.34,0-.68-.14-.92-.38-.24-.24-.38-.58-.38-.92s.14-.67.38-.92c.49-.48,1.36-.48,1.84,0,.24.24.38.58.38.92s-.14.68-.38.92c-.24.24-.58.38-.92.38Z"/><path class="cls-4" d="m56,35.55c-.34,0-.68-.14-.92-.38-.24-.24-.38-.58-.38-.92s.14-.68.38-.92c.48-.48,1.35-.49,1.84,0,.24.24.38.58.38.92s-.14.68-.38.92c-.24.24-.57.38-.92.38Z"/><path class="cls-4" d="m60,38.3c-.34,0-.67-.14-.92-.38-.24-.24-.38-.58-.38-.92s.14-.68.38-.92c.49-.48,1.35-.48,1.84,0,.24.24.38.58.38.92s-.14.68-.38.92c-.24.24-.58.38-.92.38Z"/><path class="cls-4" d="m64.5,34.8c-.34,0-.67-.14-.91-.38-.25-.24-.39-.58-.39-.92s.14-.68.38-.92c.48-.48,1.35-.49,1.84,0,.24.24.38.58.38.92s-.14.68-.38.92c-.24.24-.58.38-.92.38Z"/><path class="cls-4" d="m64.25,38.05c-.34,0-.67-.14-.92-.38-.24-.24-.38-.58-.38-.92s.14-.68.38-.92c.48-.48,1.35-.48,1.84,0,.24.24.38.58.38.92s-.14.68-.38.92c-.24.24-.58.38-.92.38Z"/><path class="cls-4" d="m61.5,42.3c-.34,0-.67-.14-.92-.38-.24-.24-.38-.58-.38-.92s.14-.68.38-.92c.49-.48,1.35-.48,1.84,0,.24.24.38.58.38.92s-.14.68-.38.92c-.24.24-.57.38-.92.38Z"/><path class="cls-4" d="m62.75,46.3c-.34,0-.67-.14-.92-.38-.24-.24-.38-.58-.38-.92s.14-.68.38-.92c.49-.48,1.35-.48,1.84,0,.24.24.38.58.38.92s-.14.68-.38.92c-.24.24-.57.38-.92.38Z"/><path class="cls-4" d="m57.5,46.8c-.34,0-.67-.14-.92-.38-.24-.24-.38-.58-.38-.92s.14-.68.38-.92c.49-.48,1.36-.48,1.84,0,.24.24.38.58.38.92s-.14.68-.38.92c-.24.24-.58.38-.92.38Z"/><path class="cls-4" d="m60.25,49.05c-.34,0-.68-.14-.92-.38-.24-.25-.38-.58-.38-.92s.14-.68.38-.92c.49-.48,1.35-.48,1.84,0,.24.24.38.58.38.92s-.13.68-.38.92c-.24.24-.58.38-.92.38Z"/><path class="cls-4" d="m65.75,49.3c-.34,0-.67-.14-.92-.38-.24-.24-.38-.58-.38-.92s.14-.68.38-.92c.49-.49,1.36-.48,1.84,0,.24.24.38.58.38.92s-.14.68-.38.92c-.24.24-.57.38-.92.38Z"/><path class="cls-4" d="m65.5,43.55c-.34,0-.67-.14-.92-.38-.24-.24-.38-.58-.38-.92s.14-.68.38-.92c.49-.48,1.37-.48,1.84,0,.24.24.38.58.38.92s-.14.68-.38.92c-.24.24-.58.38-.92.38Z"/><path class="cls-4" d="m50,49.05c-.34,0-.67-.14-.92-.38-.24-.24-.38-.58-.38-.92s.14-.67.38-.92c.49-.48,1.36-.48,1.84,0,.24.25.38.58.38.92s-.14.67-.38.92c-.24.24-.58.38-.92.38Z"/><path class="cls-4" d="m61.75,52.8c-.34,0-.67-.14-.92-.38-.24-.24-.38-.58-.38-.92s.14-.67.38-.92c.49-.48,1.36-.48,1.84,0,.24.24.38.58.38.92s-.14.68-.38.92c-.24.24-.58.38-.92.38Z"/><path class="cls-4" d="m6.75,58.8c-.34,0-.67-.14-.92-.38-.24-.24-.38-.58-.38-.92s.14-.68.38-.92c.48-.48,1.36-.48,1.84,0,.24.25.38.58.38.92s-.14.68-.38.92c-.24.24-.58.38-.92.38Z"/><path class="cls-4" d="m7.75,54.3c-.34,0-.67-.14-.92-.38-.24-.24-.38-.58-.38-.92s.14-.68.38-.92c.49-.48,1.35-.48,1.84,0,.24.24.38.58.38.92s-.14.68-.38.92c-.24.24-.58.38-.92.38Z"/><path class="cls-4" d="m11,53.05c-.34,0-.67-.14-.92-.38-.24-.24-.38-.58-.38-.92s.14-.68.38-.92c.49-.48,1.36-.48,1.84,0,.24.24.38.58.38.92s-.14.68-.38.92c-.24.24-.58.38-.92.38Z"/><path class="cls-4" d="m10,57.05c-.34,0-.67-.14-.92-.38-.24-.24-.38-.58-.38-.92s.14-.68.38-.92c.49-.48,1.36-.48,1.84,0,.24.24.38.58.38.92s-.14.68-.38.92c-.24.24-.58.38-.92.38Z"/><path class="cls-4" d="m13.5,59.05c-.34,0-.67-.14-.92-.38-.24-.24-.38-.58-.38-.92s.14-.68.38-.92c.49-.48,1.36-.48,1.84,0,.24.24.38.58.38.92s-.14.68-.38.92c-.24.24-.58.38-.92.38Z"/><path class="cls-4" d="m13.5,63.05c-.34,0-.67-.14-.92-.38-.24-.24-.38-.58-.38-.92s.14-.68.38-.92c.49-.48,1.36-.48,1.84,0,.24.24.38.58.38.92s-.14.68-.38.92c-.24.24-.58.38-.92.38Z"/><path class="cls-4" d="m9.5,61.3c-.34,0-.67-.14-.92-.38-.24-.24-.38-.58-.38-.92s.14-.68.38-.92c.48-.48,1.36-.48,1.84,0,.25.24.38.58.38.92s-.13.68-.38.92c-.24.24-.58.38-.92.38Z"/><path class="cls-4" d="m17,60.05c-.34,0-.68-.14-.92-.38-.24-.24-.38-.58-.38-.92s.14-.68.38-.92c.48-.48,1.36-.48,1.84,0,.24.24.38.58.38.92s-.14.68-.38.92c-.24.24-.57.38-.92.38Z"/><path class="cls-4" d="m17.25,63.05c-.34,0-.68-.14-.92-.38-.24-.24-.38-.58-.38-.92s.14-.67.38-.92c.49-.48,1.36-.48,1.84,0,.24.25.38.58.38.92s-.14.68-.38.92c-.24.24-.57.38-.92.38Z"/><path class="cls-4" d="m19,56.8c-.34,0-.67-.14-.92-.38-.24-.24-.38-.58-.38-.92s.14-.68.38-.92c.48-.48,1.36-.49,1.84,0,.24.24.38.58.38.92s-.14.68-.38.92c-.24.24-.58.38-.92.38Z"/><path class="cls-4" d="m22,54.55c-.34,0-.67-.14-.92-.38-.24-.24-.38-.58-.38-.92s.14-.68.38-.92c.49-.48,1.36-.48,1.84,0,.24.24.38.58.38.92s-.14.68-.38.92c-.24.24-.58.38-.92.38Z"/><path class="cls-4" d="m19,56.8c-.34,0-.67-.14-.92-.38-.24-.24-.38-.58-.38-.92s.14-.68.38-.92c.48-.48,1.36-.49,1.84,0,.24.24.38.58.38.92s-.14.68-.38.92c-.24.24-.58.38-.92.38Z"/><path class="cls-4" d="m22.25,58.3c-.34,0-.67-.14-.92-.38-.24-.24-.38-.58-.38-.92s.14-.68.38-.92c.49-.48,1.36-.48,1.84,0,.24.24.38.58.38.92s-.14.68-.38.92c-.24.24-.58.38-.92.38Z"/><path class="cls-4" d="m25.25,62.55c-.34,0-.67-.14-.92-.38-.24-.24-.38-.58-.38-.92s.14-.68.38-.92c.49-.48,1.35-.48,1.84,0,.25.25.38.58.38.92s-.14.68-.38.92c-.24.24-.58.38-.92.38Z"/><path class="cls-4" d="m20.25,61.55c-.34,0-.67-.14-.92-.38-.24-.24-.38-.58-.38-.92s.14-.68.38-.92c.49-.48,1.36-.48,1.84,0,.24.24.38.58.38.92s-.14.68-.38.92c-.24.24-.57.38-.92.38Z"/><path class="cls-4" d="m26,59.55c-.34,0-.68-.14-.92-.38-.24-.24-.38-.58-.38-.92s.14-.68.38-.92c.49-.48,1.36-.48,1.84,0,.24.24.38.58.38.92s-.14.68-.38.92c-.24.24-.57.38-.92.38Z"/><path class="cls-4" d="m25.75,55.05c-.34,0-.67-.14-.92-.38-.24-.24-.38-.58-.38-.92s.14-.68.38-.92c.49-.48,1.36-.48,1.84,0,.24.24.38.58.38.92s-.14.68-.38.92c-.24.24-.58.38-.92.38Z"/><path class="cls-4" d="m30,53.3c-.34,0-.67-.14-.92-.38-.24-.24-.38-.58-.38-.92s.14-.68.38-.92c.48-.48,1.36-.48,1.84,0,.24.25.38.58.38.92s-.14.67-.38.92c-.24.24-.57.38-.92.38Z"/><path class="cls-4" d="m29.25,56.3c-.34,0-.68-.14-.92-.38-.24-.24-.38-.58-.38-.92s.14-.68.38-.92c.49-.48,1.36-.48,1.84,0,.24.24.38.58.38.92s-.14.68-.38.92c-.24.24-.57.38-.92.38Z"/><path class="cls-4" d="m30.5,60.05c-.34,0-.68-.14-.92-.38-.24-.24-.38-.58-.38-.92s.14-.67.38-.92c.49-.49,1.36-.48,1.84,0,.24.25.38.58.38.92s-.14.68-.38.92c-.24.24-.58.38-.92.38Z"/><path class="cls-4" d="m34.25,57.55c-.34,0-.67-.14-.92-.38-.24-.24-.38-.58-.38-.92s.14-.68.38-.92c.49-.49,1.36-.48,1.84,0,.24.24.38.58.38.92s-.14.68-.38.92c-.24.24-.58.38-.92.38Z"/><path class="cls-4" d="m34,63.05c-.34,0-.68-.14-.92-.38-.24-.24-.38-.58-.38-.92s.14-.68.38-.92c.48-.48,1.35-.48,1.84,0,.24.24.38.58.38.92s-.14.68-.38.92c-.24.24-.58.38-.92.38Z"/><path class="cls-4" d="m34.5,54.05c-.34,0-.67-.14-.92-.38-.24-.24-.38-.58-.38-.92s.14-.68.38-.92c.49-.48,1.36-.48,1.84,0,.24.24.38.58.38.92s-.14.68-.38.92c-.24.24-.58.38-.92.38Z"/><path class="cls-4" d="m38,55.8c-.34,0-.67-.14-.92-.38-.24-.24-.38-.58-.38-.92s.14-.68.38-.92c.48-.48,1.36-.49,1.84,0,.24.24.38.58.38.92s-.14.68-.38.92c-.24.24-.58.38-.92.38Z"/><path class="cls-4" d="m14.75,55.05c-.34,0-.68-.14-.92-.38-.24-.24-.38-.58-.38-.92s.14-.67.38-.92c.49-.48,1.36-.48,1.84,0,.24.25.38.58.38.92s-.14.68-.38.92c-.24.24-.58.38-.92.38Z"/><path class="cls-4" d="m37,59.8c-.34,0-.67-.14-.92-.38-.24-.24-.38-.58-.38-.92s.14-.68.38-.92c.49-.49,1.36-.48,1.84,0,.25.24.38.58.38.92s-.14.68-.38.92c-.24.24-.58.38-.92.38Z"/><path class="cls-4" d="m3.5,65.3c-.34,0-.68-.14-.92-.38-.24-.24-.38-.58-.38-.92s.14-.68.38-.92c.49-.48,1.36-.48,1.84,0,.24.24.38.58.38.92s-.14.68-.38.92c-.24.24-.58.38-.92.38Z"/><path class="cls-4" d="m2.5,69.3c-.34,0-.68-.14-.92-.38-.24-.24-.38-.58-.38-.92s.14-.68.38-.92c.49-.48,1.35-.48,1.84,0,.24.24.38.58.38.92s-.13.68-.38.92c-.24.24-.58.38-.92.38Z"/><path class="cls-4" d="m11.5,69.05c-.34,0-.67-.14-.92-.38-.24-.24-.38-.58-.38-.92s.14-.67.38-.92c.48-.48,1.36-.48,1.84,0,.24.25.38.58.38.92s-.14.68-.38.92c-.24.24-.58.38-.92.38Z"/><path class="cls-4" d="m10.25,65.05c-.34,0-.67-.14-.92-.38-.24-.24-.38-.58-.38-.92s.14-.68.38-.92c.49-.48,1.36-.48,1.84,0,.24.24.38.58.38.92s-.14.68-.38.92c-.24.24-.58.38-.92.38Z"/><path class="cls-4" d="m14.5,66.8c-.34,0-.68-.14-.92-.38-.24-.24-.38-.58-.38-.92s.14-.68.38-.92c.49-.48,1.36-.48,1.84,0,.24.25.38.58.38.92s-.14.68-.38.92c-.24.24-.57.38-.92.38Z"/><path class="cls-4" d="m11.5,69.05c-.34,0-.67-.14-.92-.38-.24-.24-.38-.58-.38-.92s.14-.67.38-.92c.48-.48,1.36-.48,1.84,0,.24.25.38.58.38.92s-.14.68-.38.92c-.24.24-.58.38-.92.38Z"/><path class="cls-4" d="m18.25,66.3c-.34,0-.67-.14-.92-.38-.24-.24-.38-.58-.38-.92s.14-.67.38-.92c.49-.49,1.36-.48,1.84,0,.24.24.38.58.38.92s-.14.68-.38.92c-.24.24-.58.38-.92.38Z"/><path class="cls-4" d="m22.5,65.55c-.34,0-.67-.14-.92-.38-.24-.24-.38-.58-.38-.92s.14-.67.38-.92c.49-.49,1.36-.48,1.84,0,.24.25.38.58.38.92s-.14.68-.38.92c-.24.24-.58.38-.92.38Z"/><path class="cls-4" d="m21.75,68.55c-.34,0-.67-.14-.92-.38-.24-.24-.38-.58-.38-.92s.14-.68.38-.92c.49-.48,1.35-.49,1.84,0,.24.25.38.58.38.92s-.14.68-.38.92c-.24.24-.57.38-.92.38Z"/><path class="cls-4" d="m26.75,69.8c-.34,0-.67-.14-.92-.38-.24-.24-.38-.58-.38-.92s.14-.68.38-.92c.49-.48,1.36-.48,1.84,0,.24.24.38.58.38.92s-.14.68-.38.92c-.24.24-.58.38-.92.38Z"/><path class="cls-4" d="m27,66.3c-.34,0-.67-.14-.92-.38-.24-.24-.38-.58-.38-.92s.14-.68.38-.92c.49-.48,1.35-.49,1.84,0,.24.24.38.58.38.92s-.14.68-.38.92c-.24.24-.58.38-.92.38Z"/><path class="cls-4" d="m31,68.8c-.34,0-.67-.14-.92-.38-.24-.24-.38-.58-.38-.92s.14-.68.38-.92c.48-.48,1.36-.49,1.84,0,.24.24.38.58.38.92s-.14.68-.38.92c-.24.24-.58.38-.92.38Z"/><path class="cls-4" d="m34.25,67.3c-.34,0-.67-.14-.92-.38-.24-.24-.38-.58-.38-.92s.14-.68.38-.92c.49-.49,1.36-.48,1.84,0,.24.24.38.58.38.92s-.14.68-.38.92c-.24.24-.58.38-.92.38Z"/><path class="cls-4" d="m7.25,67.3c-.34,0-.67-.14-.92-.38-.24-.24-.38-.58-.38-.92s.14-.68.38-.92c.48-.48,1.36-.49,1.84,0,.24.24.38.58.38.92s-.14.68-.38.92c-.24.24-.58.38-.92.38Z"/><path class="cls-4" d="m41.5,52.3c-.34,0-.67-.14-.92-.38-.24-.24-.38-.58-.38-.92s.14-.68.38-.92c.49-.48,1.36-.48,1.84,0,.24.24.38.58.38.92s-.14.68-.38.92c-.24.24-.58.38-.92.38Z"/><path class="cls-4" d="m44,58.55c-.34,0-.67-.14-.92-.38-.24-.24-.38-.58-.38-.92s.14-.68.38-.92c.49-.48,1.36-.48,1.84,0,.24.24.38.58.38.92s-.14.68-.38.92c-.24.24-.58.38-.92.38Z"/><path class="cls-4" d="m44.5,54.55c-.34,0-.68-.14-.92-.38-.24-.24-.38-.58-.38-.92s.14-.68.38-.92c.49-.48,1.36-.48,1.84,0,.24.24.38.58.38.92s-.14.68-.38.92c-.24.24-.58.38-.92.38Z"/><path class="cls-4" d="m49.25,53.55c-.34,0-.68-.14-.92-.38-.24-.24-.38-.58-.38-.92s.14-.67.38-.92c.49-.48,1.36-.48,1.84,0,.24.24.38.58.38.92s-.14.68-.38.92c-.24.24-.57.38-.92.38Z"/><path class="cls-4" d="m50,58.3c-.34,0-.68-.14-.92-.38-.24-.24-.38-.58-.38-.92s.14-.68.38-.92c.49-.48,1.36-.48,1.84,0,.24.24.38.58.38.92s-.14.68-.38.92c-.24.24-.58.38-.92.38Z"/><path class="cls-4" d="m47,61.05c-.34,0-.67-.14-.92-.38-.24-.24-.38-.58-.38-.92s.14-.68.38-.92c.49-.48,1.36-.48,1.84,0,.24.24.38.58.38.92s-.14.68-.38.92c-.24.24-.58.38-.92.38Z"/><path class="cls-4" d="m43.75,62.8c-.34,0-.67-.14-.92-.38-.24-.24-.38-.58-.38-.92s.14-.68.38-.92c.48-.48,1.36-.49,1.84,0,.24.24.38.58.38.92s-.14.68-.38.92c-.24.24-.58.38-.92.38Z"/><path class="cls-4" d="m44,58.55c-.34,0-.67-.14-.92-.38-.24-.24-.38-.58-.38-.92s.14-.68.38-.92c.49-.48,1.36-.48,1.84,0,.24.24.38.58.38.92s-.14.68-.38.92c-.24.24-.58.38-.92.38Z"/><path class="cls-4" d="m41.75,66.05c-.34,0-.67-.14-.92-.38-.24-.24-.38-.58-.38-.92s.14-.68.38-.92c.48-.48,1.36-.48,1.84,0,.24.24.38.58.38.92s-.14.68-.38.92c-.24.24-.58.38-.92.38Z"/><path class="cls-4" d="m46.5,65.8c-.34,0-.67-.14-.92-.38-.24-.24-.38-.58-.38-.92s.14-.68.38-.92c.49-.48,1.36-.48,1.84,0,.24.24.38.58.38.92s-.14.68-.38.92c-.24.24-.58.38-.92.38Z"/><path class="cls-4" d="m50,67.05c-.34,0-.67-.14-.92-.38-.24-.24-.38-.58-.38-.92s.14-.68.38-.92c.49-.49,1.36-.48,1.84,0,.24.25.38.58.38.92s-.14.67-.38.92c-.24.24-.58.38-.92.38Z"/><path class="cls-4" d="m50.25,62.55c-.34,0-.67-.14-.92-.38-.24-.24-.38-.58-.38-.92s.14-.68.38-.92c.49-.48,1.36-.48,1.84,0,.24.24.38.58.38.92s-.14.68-.38.92c-.24.24-.58.38-.92.38Z"/><path class="cls-4" d="m3.25,61.05c-.34,0-.68-.14-.92-.38-.24-.24-.38-.58-.38-.92s.14-.68.38-.92c.49-.49,1.36-.48,1.84,0,.24.25.38.58.38.92s-.14.68-.38.92c-.24.24-.58.38-.92.38Z"/><path class="cls-4" d="m3.75,56.3c-.34,0-.68-.14-.92-.38-.24-.24-.38-.58-.38-.92s.14-.68.38-.92c.49-.48,1.36-.48,1.84,0,.24.24.38.58.38.92s-.14.68-.38.92c-.24.24-.58.38-.92.38Z"/><path class="cls-4" d="m70,69.05c-.34,0-.67-.14-.92-.38-.24-.24-.38-.58-.38-.92s.14-.68.38-.92c.48-.48,1.36-.48,1.84,0,.24.24.38.58.38.92s-.14.68-.38.92c-.24.24-.58.38-.92.38Z"/><path class="cls-4" d="m66.75,67.55c-.34,0-.68-.14-.92-.38-.24-.24-.38-.58-.38-.92s.14-.68.38-.92c.49-.49,1.36-.48,1.84,0,.24.24.38.58.38.92s-.14.68-.38.92c-.24.24-.57.38-.92.38Z"/><path class="cls-4" d="m72.75,66.55c-.34,0-.67-.14-.92-.38-.24-.24-.38-.58-.38-.92s.14-.68.38-.92c.48-.48,1.36-.48,1.84,0,.24.24.38.58.38.92s-.14.68-.38.92c-.24.24-.58.38-.92.38Z"/><path class="cls-4" d="m69.5,53.8c-.34,0-.67-.14-.92-.38-.24-.24-.38-.58-.38-.92s.14-.68.38-.92c.49-.48,1.36-.48,1.84,0,.24.24.38.58.38.92s-.14.68-.38.92c-.24.24-.58.38-.92.38Z"/><path class="cls-4" d="m69.25,59.05c-.34,0-.68-.14-.92-.38-.24-.24-.38-.58-.38-.92s.14-.68.38-.92c.49-.48,1.37-.48,1.84,0,.24.24.38.58.38.92s-.14.68-.38.92c-.24.24-.58.38-.92.38Z"/><path class="cls-4" d="m69.5,53.8c-.34,0-.67-.14-.92-.38-.24-.24-.38-.58-.38-.92s.14-.68.38-.92c.49-.48,1.36-.48,1.84,0,.24.24.38.58.38.92s-.14.68-.38.92c-.24.24-.58.38-.92.38Z"/><path class="cls-4" d="m71,62.8c-.34,0-.68-.14-.92-.38-.24-.24-.38-.58-.38-.92s.14-.68.38-.92c.48-.48,1.35-.48,1.84,0,.24.24.38.58.38.92s-.14.68-.38.92c-.24.24-.58.38-.92.38Z"/><path class="cls-4" d="m39.25,63.3c-.34,0-.68-.14-.92-.38-.24-.24-.38-.58-.38-.92s.14-.68.38-.92c.49-.49,1.36-.48,1.84,0,.24.24.38.58.38.92s-.14.68-.38.92c-.24.24-.57.38-.92.38Z"/><path class="cls-4" d="m37.75,66.3c-.34,0-.68-.14-.92-.38-.24-.24-.38-.58-.38-.92s.14-.68.38-.92c.49-.49,1.36-.48,1.84,0,.24.24.38.58.38.92s-.14.68-.38.92c-.24.24-.57.38-.92.38Z"/><path class="cls-4" d="m53,60.55c-.34,0-.67-.14-.92-.38-.24-.24-.38-.58-.38-.92s.14-.67.38-.92c.49-.48,1.35-.48,1.84,0,.24.25.38.58.38.92s-.14.68-.38.92c-.24.24-.57.38-.92.38Z"/><path class="cls-4" d="m56,61.05c-.34,0-.68-.14-.92-.38-.24-.24-.38-.58-.38-.92s.14-.68.38-.92c.49-.48,1.35-.48,1.84,0,.24.24.38.58.38.92s-.14.68-.38.92c-.24.24-.58.38-.92.38Z"/><path class="cls-4" d="m53.5,65.05c-.34,0-.67-.14-.92-.38-.24-.24-.38-.58-.38-.92s.14-.68.38-.92c.49-.48,1.36-.48,1.84,0,.24.24.38.58.38.92s-.14.68-.38.92c-.24.24-.58.38-.92.38Z"/><path class="cls-4" d="m57.5,64.8c-.34,0-.67-.14-.92-.38-.24-.24-.38-.58-.38-.92s.14-.68.38-.92c.49-.48,1.36-.48,1.84,0,.24.24.38.58.38.92s-.14.68-.38.92c-.24.24-.58.38-.92.38Z"/><path class="cls-4" d="m53,60.55c-.34,0-.67-.14-.92-.38-.24-.24-.38-.58-.38-.92s.14-.67.38-.92c.49-.48,1.35-.48,1.84,0,.24.25.38.58.38.92s-.14.68-.38.92c-.24.24-.57.38-.92.38Z"/><path class="cls-4" d="m56,61.05c-.34,0-.68-.14-.92-.38-.24-.24-.38-.58-.38-.92s.14-.68.38-.92c.49-.48,1.35-.48,1.84,0,.24.24.38.58.38.92s-.14.68-.38.92c-.24.24-.58.38-.92.38Z"/><path class="cls-4" d="m53.75,56.55c-.34,0-.68-.14-.92-.38-.24-.24-.38-.58-.38-.92s.14-.68.38-.92c.49-.48,1.35-.48,1.84,0,.24.24.38.58.38.92s-.14.68-.38.92c-.24.24-.57.38-.92.38Z"/><path class="cls-4" d="m57.75,58.05c-.34,0-.67-.14-.92-.38-.24-.24-.38-.58-.38-.92s.14-.68.38-.92c.49-.48,1.35-.48,1.84,0,.24.24.38.58.38.92s-.14.68-.38.92c-.24.24-.58.38-.92.38Z"/><path class="cls-4" d="m60,61.3c-.34,0-.67-.14-.92-.38-.24-.24-.38-.58-.38-.92s.14-.68.38-.92c.49-.48,1.35-.48,1.84,0,.24.24.38.58.38.92s-.14.68-.38.92c-.24.24-.58.38-.92.38Z"/><path class="cls-4" d="m62,63.55c-.34,0-.68-.14-.92-.38-.24-.24-.38-.58-.38-.92s.14-.67.38-.92c.49-.48,1.35-.48,1.84,0,.24.24.38.58.38.92s-.14.68-.38.92c-.24.24-.57.38-.92.38Z"/><path class="cls-4" d="m62.5,67.55c-.34,0-.67-.14-.92-.38-.24-.24-.38-.58-.38-.92s.14-.68.38-.92c.49-.48,1.35-.48,1.84,0,.24.24.38.58.38.92s-.14.68-.38.92c-.24.24-.58.38-.92.38Z"/><path class="cls-4" d="m64.5,60.05c-.34,0-.68-.14-.92-.38-.24-.24-.38-.58-.38-.92s.14-.68.38-.92c.48-.48,1.35-.49,1.84,0,.24.24.38.58.38.92s-.14.68-.38.92c-.24.24-.57.38-.92.38Z"/><path class="cls-4" d="m62.75,57.55c-.34,0-.67-.14-.92-.38-.24-.25-.38-.58-.38-.92s.14-.68.38-.92c.49-.48,1.35-.48,1.84,0,.24.24.38.58.38.92s-.14.68-.38.92c-.24.24-.58.38-.92.38Z"/><path class="cls-4" d="m58.5,54.55c-.34,0-.67-.14-.92-.38-.24-.24-.38-.58-.38-.92s.14-.68.38-.92c.49-.48,1.35-.48,1.84,0,.24.24.38.58.38.92s-.14.68-.38.92c-.24.24-.58.38-.92.38Z"/><path class="cls-4" d="m66.5,56.3c-.34,0-.67-.14-.92-.38-.24-.24-.38-.58-.38-.92s.14-.68.38-.92c.49-.48,1.35-.48,1.84,0,.24.24.38.58.38.92s-.14.68-.38.92c-.24.24-.58.38-.92.38Z"/><path class="cls-4" d="m66.75,63.55c-.34,0-.68-.14-.92-.38-.24-.24-.38-.58-.38-.92s.14-.68.38-.92c.49-.49,1.36-.48,1.84,0,.24.24.38.58.38.92s-.14.68-.38.92c-.24.24-.57.38-.92.38Z"/><path class="cls-4" d="m53.5,53.05c-.34,0-.67-.14-.92-.38-.24-.24-.38-.58-.38-.92s.14-.68.38-.92c.49-.48,1.36-.48,1.84,0,.24.24.38.58.38.92s-.14.68-.38.92c-.24.24-.58.38-.92.38Z"/><path class="cls-4" d="m58.25,68.3c-.34,0-.68-.14-.92-.38-.24-.24-.38-.58-.38-.92s.14-.68.38-.92c.49-.48,1.36-.48,1.84,0,.24.24.38.58.38.92s-.14.68-.38.92c-.24.24-.57.38-.92.38Z"/><path class="cls-4" d="m64.25,70.3c-.34,0-.67-.14-.92-.38-.24-.24-.38-.58-.38-.92s.14-.68.38-.92c.48-.48,1.36-.48,1.84,0,.24.24.38.58.38.92s-.14.68-.38.92c-.24.24-.58.38-.92.38Z"/><path class="cls-4" d="m65.25,52.8c-.34,0-.68-.14-.92-.38-.24-.24-.38-.58-.38-.92s.14-.68.38-.92c.48-.48,1.36-.48,1.84,0,.24.24.38.58.38.92s-.14.68-.38.92c-.24.24-.58.38-.92.38Z"/><path class="cls-4" d="m9.5,26.3c-.34,0-.67-.14-.92-.38-.24-.24-.38-.58-.38-.92s.14-.68.38-.92c.48-.48,1.36-.48,1.84,0,.25.24.38.58.38.92s-.13.67-.38.92c-.24.24-.58.38-.92.38Z"/><path class="cls-4" d="m5.75,62.8c-.34,0-.67-.14-.92-.38-.24-.24-.38-.58-.38-.92s.14-.68.38-.92c.49-.48,1.36-.48,1.84,0,.24.25.38.58.38.92s-.14.67-.38.92c-.24.24-.58.38-.92.38Z"/><path class="cls-4" d="m30.25,63.8c-.34,0-.67-.14-.92-.38-.24-.24-.38-.58-.38-.92s.14-.68.38-.92c.48-.48,1.36-.48,1.84,0,.24.24.38.58.38.92s-.14.68-.38.92c-.24.24-.58.38-.92.38Z"/><path class="cls-4" d="m40.5,58.3c-.34,0-.67-.14-.92-.38-.24-.24-.38-.58-.38-.92s.14-.68.38-.92c.49-.48,1.36-.48,1.84,0,.24.24.38.58.38.92s-.14.68-.38.92c-.24.24-.58.38-.92.38Z"/><path class="cls-4" d="m47.25,56.8c-.34,0-.68-.14-.92-.38-.24-.24-.38-.58-.38-.92s.14-.68.38-.92c.49-.49,1.36-.48,1.84,0,.24.24.38.58.38.92s-.14.68-.38.92c-.24.24-.58.38-.92.38Z"/><path class="cls-4" d="m41,72.8c-.34,0-.67-.14-.92-.38-.24-.24-.38-.58-.38-.92s.14-.68.38-.92c.48-.48,1.36-.48,1.84,0,.24.24.38.58.38.92s-.14.68-.38.92c-.24.24-.58.38-.92.38Z"/><path class="cls-4" d="m11.5,74.05c-.34,0-.67-.14-.92-.38-.24-.24-.38-.58-.38-.92s.14-.68.38-.92c.48-.48,1.36-.48,1.84,0,.24.24.38.58.38.92s-.14.68-.38.92c-.24.24-.58.38-.92.38Z"/><path class="cls-4" d="m21.25,73.8c-.34,0-.67-.14-.92-.38-.24-.24-.38-.58-.38-.92s.14-.67.38-.92c.48-.48,1.35-.48,1.84,0,.24.24.38.58.38.92s-.14.68-.38.92c-.24.24-.58.38-.92.38Z"/><path class="cls-4" d="m17,74.55c-.34,0-.68-.14-.92-.38-.24-.24-.38-.58-.38-.92s.14-.68.38-.92c.49-.48,1.36-.48,1.84,0,.24.24.38.58.38.92s-.14.68-.38.92c-.24.24-.57.38-.92.38Z"/><path class="cls-4" d="m27.75,74.55c-.34,0-.68-.14-.92-.38-.24-.24-.38-.58-.38-.92s.14-.68.38-.92c.49-.48,1.36-.48,1.84,0,.24.24.38.58.38.92s-.14.68-.38.92c-.24.24-.57.38-.92.38Z"/><path class="cls-4" d="m55,73.55c-.34,0-.68-.14-.92-.38-.24-.24-.38-.58-.38-.92s.14-.68.38-.92c.49-.48,1.36-.48,1.84,0,.24.24.38.58.38.92s-.14.68-.38.92c-.24.24-.58.38-.92.38Z"/><path class="cls-4" d="m7.75,74.05c-.34,0-.67-.14-.92-.38-.24-.24-.38-.58-.38-.92s.14-.68.38-.92c.48-.48,1.36-.48,1.84,0,.24.24.38.58.38.92s-.14.67-.38.92c-.24.24-.58.38-.92.38Z"/><path class="cls-4" d="m55,73.55c-.34,0-.68-.14-.92-.38-.24-.24-.38-.58-.38-.92s.14-.68.38-.92c.49-.48,1.36-.48,1.84,0,.24.24.38.58.38.92s-.14.68-.38.92c-.24.24-.58.38-.92.38Z"/><path class="cls-4" d="m72.5,10.3c-.34,0-.68-.14-.92-.38-.24-.24-.38-.58-.38-.92s.14-.67.38-.92c.49-.49,1.36-.49,1.84,0,.24.24.38.58.38.92s-.14.68-.38.92c-.24.24-.58.38-.92.38Z"/><path class="cls-4" d="m72.75,13.55c-.34,0-.67-.14-.92-.38-.24-.24-.38-.58-.38-.92s.14-.68.38-.92c.48-.48,1.36-.49,1.84,0,.24.24.38.58.38.92s-.14.68-.38.92c-.24.24-.58.38-.92.38Z"/><path class="cls-4" d="m73,20.8c-.34,0-.68-.14-.92-.38-.24-.24-.38-.58-.38-.92s.14-.68.38-.92c.49-.48,1.36-.48,1.84,0,.24.24.38.58.38.92s-.14.68-.38.92c-.24.24-.58.38-.92.38Z"/><path class="cls-4" d="m72.25,24.05c-.34,0-.68-.14-.92-.38-.24-.24-.38-.58-.38-.92s.14-.68.38-.92c.49-.48,1.36-.48,1.84,0,.24.24.38.58.38.92s-.14.68-.38.92c-.24.24-.58.38-.92.38Z"/><path class="cls-4" d="m72.75,72.05c-.34,0-.67-.14-.92-.38-.24-.24-.38-.58-.38-.92s.14-.68.38-.92c.48-.48,1.36-.49,1.84,0,.24.24.38.58.38.92s-.14.68-.38.92c-.24.24-.58.38-.92.38Z"/><path class="cls-4" d="m73.25,46.55c-.34,0-.67-.14-.92-.38-.24-.24-.38-.58-.38-.92s.14-.68.38-.92c.48-.48,1.36-.49,1.84,0,.24.24.38.58.38.92s-.14.68-.38.92c-.24.24-.58.38-.92.38Z"/><path class="cls-4" d="m72.25,57.3c-.34,0-.68-.14-.92-.38-.24-.24-.38-.58-.38-.92s.14-.68.38-.92c.49-.48,1.36-.48,1.84,0,.24.24.38.58.38.92s-.14.68-.38.92c-.24.24-.58.38-.92.38Z"/><path class="cls-4" d="m73.25,53.3c-.34,0-.68-.14-.92-.38-.24-.24-.38-.58-.38-.92s.14-.68.38-.92c.49-.48,1.36-.48,1.84,0,.24.24.38.58.38.92s-.14.68-.38.92c-.24.24-.58.38-.92.38Z"/><path class="cls-4" d="m46.25,71.8c-.34,0-.67-.14-.92-.38-.24-.24-.38-.58-.38-.92s.14-.67.38-.92c.49-.48,1.35-.48,1.84,0,.24.25.38.58.38.92s-.14.68-.38.92c-.24.24-.58.38-.92.38Z"/><path class="cls-4" d="m40.5,69.3c-.34,0-.67-.14-.92-.38-.24-.24-.38-.58-.38-.92s.14-.68.38-.92c.48-.48,1.36-.48,1.84,0,.24.24.38.58.38.92s-.14.68-.38.92c-.24.24-.58.38-.92.38Z"/><path class="cls-4" d="m-1.25,3.3c-.34,0-.67-.14-.92-.38-.24-.25-.38-.58-.38-.92s.14-.68.38-.92c.49-.48,1.36-.48,1.84,0C-.09,1.32.05,1.66.05,2s-.14.68-.38.92c-.24.24-.58.38-.92.38Z"/><path class="cls-4" d="m-.5,18.05c-.34,0-.67-.14-.92-.38-.24-.24-.38-.58-.38-.92s.14-.68.38-.92c.48-.48,1.36-.48,1.84,0,.24.24.38.58.38.92s-.14.68-.38.92c-.24.24-.58.38-.92.38Z"/><path class="cls-4" d="m-.75,29.05c-.34,0-.67-.14-.92-.38-.24-.24-.38-.58-.38-.92s.14-.68.38-.92c.49-.48,1.36-.48,1.84,0,.24.24.38.58.38.92s-.14.68-.38.92c-.24.24-.58.38-.92.38Z"/><path class="cls-4" d="m-.5,39.05c-.34,0-.68-.14-.92-.38-.24-.24-.38-.58-.38-.92s.14-.68.38-.92c.49-.48,1.36-.48,1.84,0,.24.24.38.58.38.92s-.14.68-.38.92c-.24.24-.58.38-.92.38Z"/><path class="cls-4" d="m-1.25,43.05c-.34,0-.67-.14-.92-.38-.24-.24-.38-.58-.38-.92s.14-.67.38-.92c.48-.48,1.36-.48,1.84,0,.24.24.38.58.38.92s-.14.68-.38.92c-.24.24-.58.38-.92.38Z"/><path class="cls-4" d="m.75,66.55c-.34,0-.67-.14-.92-.38-.24-.24-.38-.58-.38-.92s.14-.68.38-.92c.48-.48,1.36-.48,1.84,0,.24.24.38.58.38.92s-.14.68-.38.92c-.24.24-.58.38-.92.38Z"/><path class="cls-4" d="m-1,62.8c-.34,0-.68-.14-.92-.38-.24-.24-.38-.58-.38-.92s.14-.68.38-.92c.48-.48,1.35-.48,1.84,0,.24.24.38.58.38.92s-.14.68-.38.92c-.24.24-.58.38-.92.38Z"/><path class="cls-4" d="m.5,10.3c-.34,0-.68-.14-.92-.38-.24-.24-.38-.58-.38-.92s.14-.67.38-.92c.49-.49,1.36-.49,1.84,0,.24.24.38.58.38.92s-.14.68-.38.92c-.24.24-.58.38-.92.38Z"/><path class="cls-4" d="m.75,13.55c-.34,0-.67-.14-.92-.38-.24-.24-.38-.58-.38-.92s.14-.68.38-.92c.48-.48,1.36-.49,1.84,0,.24.24.38.58.38.92s-.14.68-.38.92c-.24.24-.58.38-.92.38Z"/><path class="cls-4" d="m1,20.8c-.34,0-.68-.14-.92-.38-.24-.24-.38-.58-.38-.92s.14-.68.38-.92c.49-.48,1.36-.48,1.84,0,.24.24.38.58.38.92s-.14.68-.38.92c-.24.24-.58.38-.92.38Z"/><path class="cls-4" d="m.25,24.05c-.34,0-.68-.14-.92-.38-.24-.24-.38-.58-.38-.92s.14-.68.38-.92c.49-.48,1.36-.48,1.84,0,.24.24.38.58.38.92s-.14.68-.38.92c-.24.24-.58.38-.92.38Z"/><path class="cls-4" d="m.75,72.05c-.34,0-.67-.14-.92-.38-.24-.24-.38-.58-.38-.92s.14-.68.38-.92c.48-.48,1.36-.49,1.84,0,.24.24.38.58.38.92s-.14.68-.38.92c-.24.24-.58.38-.92.38Z"/><path class="cls-4" d="m1.25,46.55c-.34,0-.67-.14-.92-.38-.24-.24-.38-.58-.38-.92s.14-.68.38-.92c.48-.48,1.36-.49,1.84,0,.24.24.38.58.38.92s-.14.68-.38.92c-.24.24-.58.38-.92.38Z"/><path class="cls-4" d="m.25,57.3c-.34,0-.68-.14-.92-.38-.24-.24-.38-.58-.38-.92s.14-.68.38-.92c.49-.48,1.36-.48,1.84,0,.24.24.38.58.38.92s-.14.68-.38.92c-.24.24-.58.38-.92.38Z"/><path class="cls-4" d="m1.25,53.3c-.34,0-.68-.14-.92-.38-.24-.24-.38-.58-.38-.92s.14-.68.38-.92c.49-.48,1.36-.48,1.84,0,.24.24.38.58.38.92s-.14.68-.38.92c-.24.24-.58.38-.92.38Z"/><path class="cls-4" d="m67.75.55c-.34,0-.68-.14-.92-.38-.24-.24-.38-.58-.38-.92s.14-.68.38-.92c.48-.48,1.36-.48,1.84,0,.24.24.38.58.38.92s-.14.68-.38.92c-.24.24-.57.38-.92.38Z"/><path class="cls-4" d="m55,1.55c-.34,0-.68-.14-.92-.38-.24-.24-.38-.58-.38-.92s.14-.68.38-.92c.49-.48,1.36-.48,1.84,0,.24.24.38.58.38.92s-.14.68-.38.92c-.24.24-.58.38-.92.38Z"/><path class="cls-4" d="m41,.8c-.34,0-.67-.14-.92-.38-.24-.24-.38-.58-.38-.92s.14-.68.38-.92c.48-.48,1.36-.48,1.84,0,.24.24.38.58.38.92s-.14.68-.38.92c-.24.24-.58.38-.92.38Z"/><path class="cls-4" d="m11.5,2.05c-.34,0-.67-.14-.92-.38-.24-.24-.38-.58-.38-.92s.14-.68.38-.92c.48-.48,1.36-.48,1.84,0,.24.24.38.58.38.92s-.14.68-.38.92c-.24.24-.58.38-.92.38Z"/><path class="cls-4" d="m21.25,1.8c-.34,0-.67-.14-.92-.38-.24-.24-.38-.58-.38-.92s.14-.67.38-.92c.48-.48,1.35-.48,1.84,0,.24.24.38.58.38.92s-.14.68-.38.92c-.24.24-.58.38-.92.38Z"/><path class="cls-4" d="m17,2.55c-.34,0-.68-.14-.92-.38-.24-.24-.38-.58-.38-.92s.14-.68.38-.92c.49-.48,1.36-.48,1.84,0,.24.24.38.58.38.92s-.14.68-.38.92c-.24.24-.57.38-.92.38Z"/><path class="cls-4" d="m27.75,2.55c-.34,0-.68-.14-.92-.38-.24-.24-.38-.58-.38-.92s.14-.68.38-.92c.49-.48,1.36-.48,1.84,0,.24.24.38.58.38.92s-.14.68-.38.92c-.24.24-.57.38-.92.38Z"/><path class="cls-4" d="m55,1.55c-.34,0-.68-.14-.92-.38-.24-.24-.38-.58-.38-.92s.14-.68.38-.92c.49-.48,1.36-.48,1.84,0,.24.24.38.58.38.92s-.14.68-.38.92c-.24.24-.58.38-.92.38Z"/><path class="cls-4" d="m7.75,2.05c-.34,0-.67-.14-.92-.38-.24-.24-.38-.58-.38-.92s.14-.68.38-.92c.48-.48,1.36-.48,1.84,0,.24.24.38.58.38.92s-.14.67-.38.92c-.24.24-.58.38-.92.38Z"/><path class="cls-4" d="m55,1.55c-.34,0-.68-.14-.92-.38-.24-.24-.38-.58-.38-.92s.14-.68.38-.92c.49-.48,1.36-.48,1.84,0,.24.24.38.58.38.92s-.14.68-.38.92c-.24.24-.58.38-.92.38Z"/><path class="cls-4" d="m72.75.05c-.34,0-.67-.14-.92-.38-.24-.24-.38-.58-.38-.92s.14-.68.38-.92c.48-.48,1.36-.49,1.84,0,.24.24.38.58.38.92s-.14.68-.38.92c-.24.24-.58.38-.92.38Z"/><path class="cls-4" d="m.75.05C.41.05.08-.09-.17-.33c-.24-.24-.38-.58-.38-.92s.14-.68.38-.92c.48-.48,1.36-.49,1.84,0,.24.24.38.58.38.92s-.14.68-.38.92C1.43-.09,1.09.05.75.05Z"/></pattern></defs><g id="Layer_1-2"><polygon class="cls-3" points="288.45 2.88 26.52 .51 48.97 54.32 271.4 54.32 288.45 2.88"/><polygon class="cls-9" points="288.45 2.88 26.52 .51 48.97 54.32 271.4 54.32 288.45 2.88"/><rect class="cls-11" x="139.19" y="225.31" width="36.59" height="13.88"/><rect class="cls-11" x="150.54" y="213.92" width="13.88" height="13.88"/><line class="cls-9" x1="153.43" y1="215.54" x2="152.75" y2="214.21"/><line class="cls-6" x1="151.36" y1="211.51" x2="74.53" y2="61.73"/><line class="cls-9" x1="73.83" y1="60.39" x2="73.15" y2="59.05"/><line class="cls-9" x1="161.11" y1="216.51" x2="161.79" y2="215.17"/><line class="cls-6" x1="163.17" y1="212.47" x2="240.01" y2="62.7"/><line class="cls-9" x1="240.7" y1="61.35" x2="241.39" y2="60.01"/><circle class="cls-2" cx="153.2" cy="98.07" r="17.88"/><circle class="cls-10" cx="153.43" cy="98.07" r="19.81"/></g><g id="Layer_2-2"><path class="cls-7" d="m186.42,96.94c0,18.35-14.87,33.22-33.22,33.22s-33.22-14.87-33.22-33.22c0-14.16,8.86-26.26,21.35-31.04"/><path class="cls-5" d="m153.2,63.72c-5.15,3.19-11.35,8.1-14.88,12.7l1.49-10-5.25-8.64c5.03,2.87,12.65,5,18.64,5.95Z"/><polygon class="cls-8" points="38.65 139.55 34.65 188.45 77.54 169.47 38.65 139.55"/><line class="cls-8" x1="42.26" y1="142.33" x2="50.28" y2="133.8"/><line class="cls-8" x1="48.14" y1="146.59" x2="56.17" y2="138.06"/><line class="cls-8" x1="53.28" y1="151.85" x2="61.3" y2="143.33"/><line class="cls-8" x1="59.16" y1="156.12" x2="67.19" y2="147.59"/><line class="cls-8" x1="65.88" y1="160.18" x2="73.91" y2="151.66"/><line class="cls-8" x1="71.76" y1="164.45" x2="79.79" y2="155.92"/><polygon class="cls-8" points="218.24 184.6 267.31 184.83 245.07 143.52 218.24 184.6"/><line class="cls-8" x1="220.73" y1="180.79" x2="211.61" y2="173.45"/><line class="cls-8" x1="224.53" y1="174.6" x2="215.41" y2="167.25"/><line class="cls-8" x1="229.38" y1="169.07" x2="220.26" y2="161.73"/><line class="cls-8" x1="233.18" y1="162.88" x2="224.06" y2="155.53"/><line class="cls-8" x1="236.72" y1="155.87" x2="227.6" y2="148.52"/><line class="cls-8" x1="240.51" y1="149.67" x2="231.4" y2="142.33"/><polygon class="cls-8" points="254.26 117.97 303.32 118.19 281.09 76.89 254.26 117.97"/><line class="cls-8" x1="256.75" y1="114.16" x2="247.63" y2="106.81"/><line class="cls-8" x1="260.55" y1="107.96" x2="251.43" y2="100.62"/><line class="cls-8" x1="265.4" y1="102.44" x2="256.28" y2="95.09"/><line class="cls-8" x1="269.2" y1="96.24" x2="260.08" y2="88.9"/><line class="cls-8" x1="272.73" y1="89.23" x2="263.62" y2="81.89"/><line class="cls-8" x1="276.53" y1="83.04" x2="267.41" y2="75.69"/><polygon class="cls-8" points="5.13 67.05 1.13 115.95 44.02 96.96 5.13 67.05"/><line class="cls-8" x1="8.74" y1="69.82" x2="16.76" y2="61.29"/><line class="cls-8" x1="14.62" y1="74.08" x2="22.65" y2="65.56"/><line class="cls-8" x1="19.76" y1="79.35" x2="27.78" y2="70.82"/><line class="cls-8" x1="25.64" y1="83.61" x2="33.67" y2="75.08"/><line class="cls-8" x1="32.36" y1="87.67" x2="40.39" y2="79.15"/><line class="cls-8" x1="38.24" y1="91.94" x2="46.27" y2="83.41"/></g></svg>