<?xml version="1.0" encoding="UTF-8"?><svg id="Layer_2" xmlns="http://www.w3.org/2000/svg" xmlns:xlink="http://www.w3.org/1999/xlink" viewBox="0 0 242.71 250.26"><defs><style>.cls-1,.cls-2,.cls-3,.cls-4{stroke-width:0px;}.cls-1,.cls-5,.cls-6,.cls-7,.cls-8{fill:none;}.cls-2{fill:url(#USGS_20_Scrub);}.cls-9,.cls-5,.cls-6,.cls-7,.cls-8{stroke-miterlimit:10;}.cls-9,.cls-5,.cls-7,.cls-8{stroke:#1d1d1b;}.cls-9,.cls-3{fill:#1d1d1b;}.cls-5{stroke-dasharray:0 0 2.88 2.88;}.cls-6{stroke:#e30613;stroke-width:2px;}.cls-8{stroke-width:8px;}.cls-4{fill:#e30613;}</style><pattern id="USGS_20_Scrub" x="0" y="0" width="72" height="72" patternTransform="translate(-3757.83 -3871.67) scale(.54)" patternUnits="userSpaceOnUse" viewBox="0 0 72 72"><rect class="cls-1" x="0" width="72" height="72"/><path class="cls-3" d="m17,74.55c-.34,0-.68-.14-.92-.38-.24-.24-.38-.58-.38-.92s.14-.68.38-.92c.48-.48,1.36-.48,1.84,0,.24.24.38.58.38.92s-.14.68-.38.92c-.24.24-.57.38-.92.38Z"/><path class="cls-3" d="m27.75,74.55c-.34,0-.67-.14-.92-.38-.24-.25-.38-.58-.38-.92s.14-.67.38-.92c.49-.48,1.35-.48,1.84,0,.24.24.38.58.38.92s-.14.68-.38.92c-.24.24-.58.38-.92.38Z"/><path class="cls-3" d="m23.25,7.05c-.34,0-.67-.14-.92-.38-.24-.24-.38-.58-.38-.92s.14-.68.38-.92c.49-.48,1.36-.48,1.84,0,.24.24.38.58.38.92s-.14.67-.38.92c-.24.24-.58.38-.92.38Z"/><path class="cls-3" d="m14.5,9.05c-.34,0-.68-.14-.92-.38-.24-.24-.38-.58-.38-.92s.14-.68.38-.92c.49-.48,1.36-.48,1.84,0,.24.25.38.58.38.92s-.14.68-.38.92c-.24.24-.57.38-.92.38Z"/><path class="cls-3" d="m14.75,4.8c-.34,0-.67-.14-.92-.38-.24-.24-.38-.58-.38-.92s.14-.68.38-.92c.49-.49,1.36-.48,1.84,0,.24.25.38.58.38.92s-.14.68-.38.92c-.24.24-.58.38-.92.38Z"/><path class="cls-3" d="m17.75,8.8c-.34,0-.68-.14-.92-.38-.24-.24-.38-.58-.38-.92s.14-.68.38-.92c.49-.48,1.36-.48,1.84,0,.24.24.38.58.38.92s-.14.68-.38.92c-.24.24-.58.38-.92.38Z"/><path class="cls-3" d="m20,5.3c-.34,0-.67-.14-.92-.38-.24-.24-.38-.58-.38-.92s.14-.68.38-.92c.49-.48,1.36-.48,1.84,0,.24.24.38.58.38.92s-.14.68-.38.92c-.24.24-.58.38-.92.38Z"/><path class="cls-3" d="m29,6.3c-.34,0-.67-.14-.92-.38-.24-.24-.38-.58-.38-.92s.14-.68.38-.92c.49-.48,1.36-.48,1.84,0,.24.24.38.58.38.92s-.14.68-.38.92c-.24.24-.58.38-.92.38Z"/><path class="cls-3" d="m25,4.55c-.34,0-.67-.14-.92-.38-.24-.24-.38-.58-.38-.92s.14-.68.38-.92c.48-.48,1.36-.49,1.84,0,.24.24.38.58.38.92s-.14.68-.38.92c-.24.24-.58.38-.92.38Z"/><path class="cls-3" d="m17,2.55c-.34,0-.68-.14-.92-.38-.24-.24-.38-.58-.38-.92s.14-.68.38-.92c.48-.48,1.36-.48,1.84,0,.24.24.38.58.38.92s-.14.68-.38.92c-.24.24-.57.38-.92.38Z"/><path class="cls-3" d="m27.75,2.55c-.34,0-.67-.14-.92-.38-.24-.25-.38-.58-.38-.92s.14-.67.38-.92c.49-.48,1.35-.48,1.84,0,.24.24.38.58.38.92s-.14.68-.38.92c-.24.24-.58.38-.92.38Z"/><path class="cls-3" d="m31.75,3.55c-.34,0-.67-.14-.92-.38-.24-.24-.38-.58-.38-.92s.14-.68.38-.92c.49-.48,1.36-.48,1.84,0,.24.24.38.58.38.92s-.14.68-.38.92c-.24.24-.58.38-.92.38Z"/><path class="cls-3" d="m29,6.3c-.34,0-.67-.14-.92-.38-.24-.24-.38-.58-.38-.92s.14-.68.38-.92c.49-.48,1.36-.48,1.84,0,.24.24.38.58.38.92s-.14.68-.38.92c-.24.24-.58.38-.92.38Z"/><path class="cls-3" d="m28.25,9.05c-.34,0-.68-.14-.92-.38-.24-.24-.38-.58-.38-.92s.14-.68.38-.92c.49-.48,1.35-.49,1.84,0,.24.24.38.58.38.92s-.14.68-.38.92c-.24.24-.58.38-.92.38Z"/><path class="cls-3" d="m26.25,12.05c-.34,0-.67-.14-.92-.38-.24-.25-.38-.58-.38-.92s.14-.67.38-.92c.49-.48,1.36-.48,1.84,0,.24.25.38.58.38.92s-.14.67-.38.92c-.24.24-.58.38-.92.38Z"/><path class="cls-3" d="m22.25,10.3c-.34,0-.67-.14-.92-.38-.24-.24-.38-.58-.38-.92s.14-.68.38-.92c.49-.48,1.36-.48,1.84,0,.24.24.38.58.38.92s-.14.68-.38.92c-.24.24-.58.38-.92.38Z"/><path class="cls-3" d="m22,13.8c-.34,0-.67-.14-.92-.38-.24-.24-.38-.58-.38-.92s.14-.68.38-.92c.49-.48,1.36-.48,1.84,0,.24.24.38.58.38.92s-.14.68-.38.92c-.24.24-.58.38-.92.38Z"/><path class="cls-3" d="m17,12.8c-.34,0-.67-.14-.92-.38-.24-.24-.38-.58-.38-.92s.14-.68.38-.92c.48-.48,1.36-.48,1.84,0,.24.24.38.58.38.92s-.14.68-.38.92c-.24.24-.58.38-.92.38Z"/><path class="cls-3" d="m20.25,16.05c-.34,0-.67-.14-.92-.38-.24-.24-.38-.58-.38-.92s.14-.68.38-.92c.48-.48,1.36-.48,1.84,0,.24.24.38.58.38.92s-.14.68-.38.92c-.24.24-.58.38-.92.38Z"/><path class="cls-3" d="m22.75,19.8c-.34,0-.67-.14-.92-.38-.24-.24-.38-.58-.38-.92s.14-.68.38-.92c.48-.48,1.35-.48,1.84,0,.24.24.38.58.38.92s-.14.68-.38.92c-.24.24-.58.38-.92.38Z"/><path class="cls-3" d="m25.5,20.55c-.34,0-.68-.14-.92-.38-.24-.24-.38-.58-.38-.92s.14-.67.38-.92c.49-.48,1.36-.48,1.84,0,.24.25.38.58.38.92s-.14.68-.38.92c-.24.24-.58.38-.92.38Z"/><path class="cls-3" d="m28.5,18.8c-.34,0-.68-.14-.92-.38-.24-.24-.38-.58-.38-.92s.14-.68.38-.92c.48-.48,1.36-.48,1.84,0,.24.24.38.58.38.92s-.14.68-.38.92c-.24.24-.57.38-.92.38Z"/><path class="cls-3" d="m28,15.55c-.34,0-.68-.14-.92-.38-.24-.24-.38-.58-.38-.92s.14-.68.38-.92c.49-.48,1.36-.48,1.84,0,.24.24.38.58.38.92s-.14.68-.38.92c-.24.24-.58.38-.92.38Z"/><path class="cls-3" d="m30,13.3c-.34,0-.68-.14-.92-.38-.24-.24-.38-.58-.38-.92s.14-.68.38-.92c.49-.48,1.36-.48,1.84,0,.24.25.38.58.38.92s-.14.67-.38.92c-.24.24-.57.38-.92.38Z"/><path class="cls-3" d="m34.25,13.3c-.34,0-.68-.14-.92-.38-.24-.24-.38-.58-.38-.92s.14-.68.38-.92c.49-.48,1.36-.48,1.84,0,.24.24.38.58.38.92s-.14.68-.38.92c-.24.24-.58.38-.92.38Z"/><path class="cls-3" d="m32.5,18.05c-.34,0-.67-.14-.92-.38-.24-.24-.38-.58-.38-.92s.14-.68.38-.92c.5-.49,1.36-.48,1.84,0,.24.24.38.58.38.92s-.14.68-.38.92c-.24.24-.58.38-.92.38Z"/><path class="cls-3" d="m34.75,21.55c-.34,0-.68-.14-.92-.38-.24-.24-.38-.58-.38-.92s.14-.68.38-.92c.49-.48,1.36-.48,1.84,0,.24.25.38.58.38.92s-.14.68-.38.92c-.24.24-.58.38-.92.38Z"/><path class="cls-3" d="m31.25,21.8c-.34,0-.68-.14-.92-.38-.24-.24-.38-.58-.38-.92s.14-.68.38-.92c.49-.48,1.36-.48,1.84,0,.24.24.38.58.38.92s-.14.68-.38.92c-.24.24-.57.38-.92.38Z"/><path class="cls-3" d="m27.75,22.55c-.34,0-.67-.14-.92-.38-.24-.24-.38-.58-.38-.92s.14-.67.38-.92c.49-.48,1.36-.48,1.84,0,.24.24.38.58.38.92s-.14.68-.38.92c-.24.24-.58.38-.92.38Z"/><path class="cls-3" d="m37.25,17.05c-.34,0-.68-.14-.92-.38-.24-.24-.38-.58-.38-.92s.14-.68.38-.92c.49-.48,1.36-.48,1.84,0,.25.25.38.58.38.92s-.13.67-.38.92c-.24.24-.58.38-.92.38Z"/><path class="cls-3" d="m32,9.8c-.34,0-.68-.14-.92-.38-.24-.24-.38-.58-.38-.92s.14-.68.38-.92c.49-.48,1.36-.48,1.84,0,.24.24.38.58.38.92s-.14.68-.38.92c-.24.24-.57.38-.92.38Z"/><path class="cls-3" d="m34,6.8c-.34,0-.68-.14-.92-.38-.24-.24-.38-.58-.38-.92s.14-.68.38-.92c.48-.48,1.36-.48,1.84,0,.24.24.38.58.38.92s-.14.68-.38.92c-.24.24-.57.38-.92.38Z"/><path class="cls-3" d="m36.75,3.3c-.34,0-.68-.14-.92-.38-.24-.24-.38-.58-.38-.92s.14-.68.38-.92c.49-.48,1.36-.48,1.84,0,.25.25.38.58.38.92s-.13.67-.38.92c-.24.24-.58.38-.92.38Z"/><path class="cls-3" d="m37.5,6.55c-.34,0-.68-.14-.92-.38-.24-.24-.38-.58-.38-.92s.14-.68.38-.92c.49-.49,1.36-.48,1.84,0,.25.25.38.58.38.92s-.13.67-.38.92c-.24.24-.58.38-.92.38Z"/><path class="cls-3" d="m37.25,9.55c-.34,0-.67-.14-.92-.38-.24-.24-.38-.58-.38-.92s.14-.68.38-.92c.49-.48,1.36-.48,1.84,0,.25.25.38.58.38.92s-.13.67-.38.92c-.24.24-.58.38-.92.38Z"/><path class="cls-3" d="m37.5,13.3c-.34,0-.68-.14-.92-.38-.24-.24-.38-.58-.38-.92s.14-.68.38-.92c.49-.48,1.36-.48,1.84,0,.25.25.38.58.38.92s-.13.67-.38.92c-.24.24-.58.38-.92.38Z"/><path class="cls-3" d="m41,5.05c-.34,0-.67-.14-.92-.38-.24-.24-.38-.58-.38-.92s.14-.68.38-.92c.48-.48,1.36-.48,1.84,0,.24.24.38.58.38.92s-.14.68-.38.92c-.24.24-.58.38-.92.38Z"/><path class="cls-3" d="m41.75,8.8c-.34,0-.67-.14-.92-.38-.24-.24-.38-.58-.38-.92s.14-.68.38-.92c.49-.48,1.36-.48,1.84,0,.24.24.38.58.38.92s-.14.68-.38.92c-.24.24-.58.38-.92.38Z"/><path class="cls-3" d="m41.25,12.8c-.34,0-.67-.14-.92-.38-.24-.24-.38-.58-.38-.92s.14-.68.38-.92c.48-.48,1.36-.49,1.84,0,.24.24.38.58.38.92s-.14.67-.38.92c-.24.24-.58.38-.92.38Z"/><path class="cls-3" d="m41.5,17.3c-.34,0-.67-.14-.92-.38-.24-.24-.38-.58-.38-.92s.14-.68.38-.92c.48-.48,1.36-.48,1.84,0,.24.24.38.58.38.92s-.14.68-.38.92c-.24.24-.58.38-.92.38Z"/><path class="cls-3" d="m43,20.8c-.34,0-.67-.14-.92-.38-.24-.24-.38-.58-.38-.92s.14-.68.38-.92c.48-.48,1.36-.49,1.84,0,.24.24.38.58.38.92s-.14.68-.38.92c-.24.24-.58.38-.92.38Z"/><path class="cls-3" d="m38.25,20.55c-.34,0-.67-.14-.92-.38-.24-.24-.38-.58-.38-.92s.14-.68.38-.92c.48-.48,1.36-.48,1.84,0,.24.24.38.58.38.92s-.14.68-.38.92c-.24.24-.58.38-.92.38Z"/><path class="cls-3" d="m39.5,25.05c-.34,0-.67-.14-.92-.38-.24-.24-.38-.58-.38-.92s.14-.68.38-.92c.49-.48,1.36-.48,1.84,0,.24.24.38.58.38.92s-.14.68-.38.92c-.24.24-.58.38-.92.38Z"/><path class="cls-3" d="m35.25,24.8c-.34,0-.67-.14-.92-.38-.24-.24-.38-.58-.38-.92s.14-.68.38-.92c.49-.48,1.36-.48,1.84,0,.24.24.38.58.38.92s-.14.68-.38.92c-.24.24-.58.38-.92.38Z"/><path class="cls-3" d="m47,22.3c-.34,0-.68-.14-.92-.38-.24-.24-.38-.58-.38-.92s.14-.68.38-.92c.49-.48,1.36-.48,1.84,0,.24.24.38.58.38.92s-.14.68-.38.92c-.24.24-.57.38-.92.38Z"/><path class="cls-3" d="m46,18.8c-.34,0-.67-.14-.92-.38-.24-.24-.38-.58-.38-.92s.14-.68.38-.92c.49-.48,1.36-.48,1.84,0,.24.24.38.58.38.92s-.14.68-.38.92c-.24.24-.58.38-.92.38Z"/><path class="cls-3" d="m45,15.3c-.34,0-.68-.14-.92-.38-.24-.24-.38-.58-.38-.92s.14-.68.38-.92c.49-.48,1.36-.48,1.84,0,.24.24.38.58.38.92s-.14.68-.38.92c-.24.24-.57.38-.92.38Z"/><path class="cls-3" d="m45.25,11.3c-.34,0-.68-.14-.92-.38-.24-.24-.38-.58-.38-.92s.14-.68.38-.92c.49-.48,1.36-.48,1.84,0,.24.24.38.58.38.92s-.14.68-.38.92c-.24.24-.58.38-.92.38Z"/><path class="cls-3" d="m45,7.05c-.34,0-.67-.14-.92-.38-.24-.24-.38-.58-.38-.92s.14-.68.38-.92c.49-.48,1.35-.48,1.84,0,.24.24.38.58.38.92s-.14.68-.38.92c-.24.24-.58.38-.92.38Z"/><path class="cls-3" d="m44.75,3.8c-.34,0-.68-.14-.92-.38-.24-.24-.38-.58-.38-.92s.14-.68.38-.92c.49-.48,1.36-.48,1.84,0,.24.24.38.58.38.92s-.14.68-.38.92c-.24.24-.57.38-.92.38Z"/><path class="cls-3" d="m49.75,2.8c-.34,0-.67-.14-.92-.38-.24-.24-.38-.58-.38-.92s.14-.68.38-.92c.49-.48,1.36-.48,1.84,0,.24.24.38.58.38.92s-.14.68-.38.92c-.24.24-.58.38-.92.38Z"/><path class="cls-3" d="m49,7.05c-.34,0-.68-.14-.92-.38-.24-.24-.38-.58-.38-.92s.14-.68.38-.92c.49-.48,1.36-.48,1.84,0,.24.24.38.58.38.92s-.14.68-.38.92c-.24.24-.58.38-.92.38Z"/><path class="cls-3" d="m52.5,7.05c-.34,0-.67-.14-.92-.38-.24-.24-.38-.58-.38-.92s.14-.67.38-.92c.48-.48,1.35-.48,1.84,0,.24.24.38.58.38.92s-.14.68-.38.92c-.24.24-.58.38-.92.38Z"/><path class="cls-3" d="m52.25,10.55c-.34,0-.67-.14-.92-.38-.24-.24-.38-.58-.38-.92s.14-.67.38-.92c.49-.48,1.36-.48,1.84,0,.25.24.38.58.38.92s-.13.68-.38.92c-.24.24-.58.38-.92.38Z"/><path class="cls-3" d="m48.5,10.3c-.34,0-.67-.14-.92-.38-.24-.24-.38-.58-.38-.92s.14-.68.38-.92c.48-.48,1.36-.48,1.84,0,.24.24.38.58.38.92s-.14.68-.38.92c-.24.24-.58.38-.92.38Z"/><path class="cls-3" d="m48.75,14.8c-.34,0-.67-.14-.92-.38-.24-.24-.38-.58-.38-.92s.14-.68.38-.92c.49-.48,1.35-.48,1.84,0,.24.24.38.58.38.92s-.14.68-.38.92c-.24.24-.58.38-.92.38Z"/><path class="cls-3" d="m52.25,14.8c-.34,0-.67-.14-.92-.38-.24-.24-.38-.58-.38-.92s.14-.68.38-.92c.49-.48,1.36-.48,1.84,0,.25.24.38.58.38.92s-.14.68-.38.92c-.24.24-.58.38-.92.38Z"/><path class="cls-3" d="m49.5,18.3c-.34,0-.67-.14-.92-.38-.24-.24-.38-.58-.38-.92s.14-.68.38-.92c.49-.48,1.35-.48,1.84,0,.24.24.38.58.38.92s-.14.68-.38.92c-.24.24-.58.38-.92.38Z"/><path class="cls-3" d="m51,22.55c-.34,0-.67-.14-.92-.38-.24-.24-.38-.58-.38-.92s.14-.67.38-.92c.49-.48,1.35-.48,1.84,0,.24.24.38.58.38.92s-.14.68-.38.92c-.24.24-.58.38-.92.38Z"/><path class="cls-3" d="m52.75,25.8c-.34,0-.67-.14-.92-.38-.24-.24-.38-.58-.38-.92s.14-.68.38-.92c.49-.48,1.35-.48,1.84,0,.24.24.38.58.38.92s-.14.68-.38.92c-.24.24-.58.38-.92.38Z"/><path class="cls-3" d="m55.25,23.05c-.34,0-.68-.14-.92-.38-.24-.24-.38-.58-.38-.92s.14-.68.38-.92c.49-.48,1.36-.48,1.84,0,.24.24.38.58.38.92s-.14.68-.38.92c-.24.24-.57.38-.92.38Z"/><path class="cls-3" d="m53.75,19.55c-.34,0-.67-.14-.92-.38-.24-.24-.38-.58-.38-.92s.14-.68.38-.92c.48-.48,1.36-.48,1.84,0,.24.24.38.58.38.92s-.14.68-.38.92c-.24.24-.58.38-.92.38Z"/><path class="cls-3" d="m56,16.55c-.34,0-.67-.14-.92-.38-.24-.24-.38-.58-.38-.92s.14-.68.38-.92c.48-.48,1.35-.48,1.84,0,.24.24.38.58.38.92s-.14.68-.38.92c-.24.24-.58.38-.92.38Z"/><path class="cls-3" d="m56.25,12.3c-.34,0-.68-.14-.92-.38-.24-.24-.38-.58-.38-.92s.14-.68.38-.92c.49-.48,1.35-.48,1.84,0,.24.24.38.58.38.92s-.14.68-.38.92c-.24.24-.58.38-.92.38Z"/><path class="cls-3" d="m56.5,7.3c-.34,0-.68-.14-.92-.38-.24-.24-.38-.58-.38-.92s.14-.68.38-.92c.49-.48,1.35-.48,1.84,0,.24.24.38.58.38.92s-.14.68-.38.92c-.24.24-.58.38-.92.38Z"/><path class="cls-3" d="m59.75,8.3c-.34,0-.67-.14-.92-.38-.24-.25-.38-.58-.38-.92s.14-.67.38-.92c.49-.48,1.35-.48,1.84,0,.24.24.38.58.38.92s-.14.68-.38.92c-.24.24-.58.38-.92.38Z"/><path class="cls-3" d="m58,3.8c-.34,0-.68-.14-.92-.38-.24-.24-.38-.58-.38-.92s.14-.68.38-.92c.49-.48,1.36-.48,1.84,0,.24.24.38.58.38.92s-.14.68-.38.92c-.24.24-.57.38-.92.38Z"/><path class="cls-3" d="m61.75,4.8c-.34,0-.67-.14-.92-.38-.24-.24-.38-.58-.38-.92s.14-.68.38-.92c.49-.48,1.36-.48,1.84,0,.24.24.38.58.38.92s-.14.68-.38.92c-.24.24-.58.38-.92.38Z"/><path class="cls-3" d="m65,3.05c-.34,0-.67-.14-.92-.38-.24-.24-.38-.58-.38-.92s.14-.68.38-.92c.48-.48,1.36-.48,1.84,0,.24.24.38.58.38.92s-.14.68-.38.92c-.24.24-.58.38-.92.38Z"/><path class="cls-3" d="m67,5.05c-.34,0-.68-.14-.92-.38-.24-.24-.38-.58-.38-.92s.14-.68.38-.92c.49-.49,1.37-.48,1.84,0,.24.24.38.58.38.92s-.14.68-.38.92c-.24.24-.58.38-.92.38Z"/><path class="cls-3" d="m63.5,8.05c-.34,0-.67-.14-.92-.38-.24-.24-.38-.58-.38-.92s.14-.68.38-.92c.48-.48,1.37-.48,1.84,0,.24.24.38.58.38.92s-.14.68-.38.92c-.24.24-.58.38-.92.38Z"/><path class="cls-3" d="m62.75,11.8c-.34,0-.67-.14-.92-.38-.24-.24-.38-.58-.38-.92s.14-.67.38-.92c.49-.48,1.35-.48,1.84,0,.24.24.38.58.38.92s-.14.68-.38.92c-.24.24-.58.38-.92.38Z"/><path class="cls-3" d="m60,14.05c-.34,0-.67-.14-.92-.38-.24-.24-.38-.58-.38-.92s.14-.68.38-.92c.49-.48,1.36-.48,1.84,0,.24.24.38.58.38.92s-.14.68-.38.92c-.24.24-.58.38-.92.38Z"/><path class="cls-3" d="m62.5,16.8c-.34,0-.67-.14-.92-.38-.24-.24-.38-.58-.38-.92s.14-.68.38-.92c.48-.48,1.36-.48,1.84,0,.24.24.38.58.38.92s-.14.68-.38.92c-.24.24-.58.38-.92.38Z"/><path class="cls-3" d="m66.25,17.8c-.34,0-.67-.14-.92-.38-.24-.24-.38-.58-.38-.92s.14-.68.38-.92c.49-.48,1.36-.48,1.84,0,.24.24.38.58.38.92s-.14.68-.38.92c-.24.24-.58.38-.92.38Z"/><path class="cls-3" d="m64.25,20.05c-.34,0-.67-.14-.92-.38-.24-.24-.38-.58-.38-.92s.14-.68.38-.92c.48-.48,1.35-.48,1.84,0,.24.24.38.58.38.92s-.14.68-.38.92c-.24.24-.58.38-.92.38Z"/><path class="cls-3" d="m60.75,20.55c-.34,0-.67-.14-.92-.38-.24-.24-.38-.58-.38-.92s.14-.68.38-.92c.49-.48,1.36-.48,1.84,0,.24.24.38.58.38.92s-.14.68-.38.92c-.24.24-.58.38-.92.38Z"/><path class="cls-3" d="m58,20.05c-.34,0-.67-.14-.92-.38-.24-.24-.38-.58-.38-.92s.14-.68.38-.92c.49-.48,1.36-.48,1.84,0,.24.24.38.58.38.92s-.14.68-.38.92c-.24.24-.58.38-.92.38Z"/><path class="cls-3" d="m59.75,24.3c-.34,0-.68-.14-.92-.38-.24-.25-.38-.58-.38-.92s.14-.67.38-.92c.49-.48,1.35-.48,1.84,0,.24.24.38.58.38.92s-.14.68-.38.92c-.24.24-.57.38-.92.38Z"/><path class="cls-3" d="m64.25,23.05c-.34,0-.67-.14-.92-.38-.24-.24-.38-.58-.38-.92s.14-.68.38-.92c.48-.48,1.35-.48,1.84,0,.24.24.38.58.38.92s-.14.68-.38.92c-.24.24-.58.38-.92.38Z"/><path class="cls-3" d="m68.5,24.05c-.34,0-.68-.14-.92-.38-.24-.25-.38-.58-.38-.92s.14-.67.38-.92c.49-.49,1.37-.48,1.84,0,.24.24.38.58.38.92s-.14.68-.38.92c-.24.24-.58.38-.92.38Z"/><path class="cls-3" d="m68.5,20.55c-.34,0-.68-.14-.92-.38-.24-.24-.38-.58-.38-.92s.14-.68.38-.92c.5-.49,1.36-.48,1.84,0,.24.24.38.58.38.92s-.14.68-.38.92c-.24.24-.58.38-.92.38Z"/><path class="cls-3" d="m65.5,13.8c-.34,0-.67-.14-.92-.38-.24-.24-.38-.58-.38-.92s.14-.68.38-.92c.49-.48,1.36-.48,1.84,0,.24.24.38.58.38.92s-.14.68-.38.92c-.24.24-.58.38-.92.38Z"/><path class="cls-3" d="m66.25,10.05c-.34,0-.67-.14-.92-.38-.24-.24-.38-.58-.38-.92s.14-.68.38-.92c.49-.49,1.36-.48,1.84,0,.24.24.38.58.38.92s-.14.68-.38.92c-.24.24-.58.38-.92.38Z"/><path class="cls-3" d="m69.75,8.05c-.34,0-.67-.14-.92-.38-.24-.24-.38-.58-.38-.92s.14-.67.38-.92c.48-.49,1.36-.49,1.84,0,.24.24.38.58.38.92s-.14.68-.38.92c-.24.24-.58.38-.92.38Z"/><path class="cls-3" d="m70.75,3.3c-.34,0-.67-.14-.92-.38-.24-.25-.38-.58-.38-.92s.14-.68.38-.92c.49-.48,1.36-.48,1.84,0,.24.24.38.58.38.92s-.14.68-.38.92c-.24.24-.58.38-.92.38Z"/><path class="cls-3" d="m69.75,14.55c-.34,0-.68-.14-.92-.38-.24-.24-.38-.58-.38-.92s.14-.68.38-.92c.49-.48,1.36-.48,1.84,0,.24.24.38.58.38.92s-.14.68-.38.92c-.24.24-.58.38-.92.38Z"/><path class="cls-3" d="m71.5,18.05c-.34,0-.67-.14-.92-.38-.24-.24-.38-.58-.38-.92s.14-.68.38-.92c.48-.48,1.36-.48,1.84,0,.24.24.38.58.38.92s-.14.68-.38.92c-.24.24-.58.38-.92.38Z"/><path class="cls-3" d="m56.5,7.3c-.34,0-.68-.14-.92-.38-.24-.24-.38-.58-.38-.92s.14-.68.38-.92c.49-.48,1.35-.48,1.84,0,.24.24.38.58.38.92s-.14.68-.38.92c-.24.24-.58.38-.92.38Z"/><path class="cls-3" d="m58,3.8c-.34,0-.68-.14-.92-.38-.24-.24-.38-.58-.38-.92s.14-.68.38-.92c.49-.48,1.36-.48,1.84,0,.24.24.38.58.38.92s-.14.68-.38.92c-.24.24-.57.38-.92.38Z"/><path class="cls-3" d="m54,4.55c-.34,0-.68-.14-.92-.38-.24-.24-.38-.58-.38-.92s.14-.68.38-.92c.49-.48,1.36-.48,1.84,0,.24.24.38.58.38.92s-.14.68-.38.92c-.24.24-.58.38-.92.38Z"/><path class="cls-3" d="m24,24.05c-.34,0-.67-.14-.92-.38-.24-.24-.38-.58-.38-.92s.14-.68.38-.92c.49-.48,1.36-.48,1.84,0,.24.24.38.58.38.92s-.14.68-.38.92c-.24.24-.58.38-.92.38Z"/><path class="cls-3" d="m20,21.3c-.34,0-.67-.14-.92-.38-.24-.24-.38-.58-.38-.92s.14-.67.38-.92c.49-.48,1.36-.48,1.84,0,.24.25.38.58.38.92s-.14.68-.38.92c-.24.24-.57.38-.92.38Z"/><path class="cls-3" d="m16,22.3c-.34,0-.68-.14-.92-.38-.24-.24-.38-.58-.38-.92s.14-.67.38-.92c.49-.48,1.36-.48,1.84,0,.24.25.38.58.38.92s-.14.68-.38.92c-.24.24-.58.38-.92.38Z"/><path class="cls-3" d="m17,18.3c-.34,0-.67-.14-.92-.38-.24-.24-.38-.58-.38-.92s.14-.68.38-.92c.49-.48,1.35-.48,1.84,0,.24.24.38.58.38.92s-.14.68-.38.92c-.24.24-.58.38-.92.38Z"/><path class="cls-3" d="m14.75,15.3c-.34,0-.67-.14-.92-.38-.24-.24-.38-.58-.38-.92s.14-.67.38-.92c.49-.49,1.36-.48,1.84,0,.24.25.38.58.38.92s-.14.67-.38.92c-.24.24-.58.38-.92.38Z"/><path class="cls-3" d="m12.5,12.55c-.34,0-.67-.14-.92-.38-.24-.24-.38-.58-.38-.92s.14-.67.38-.92c.49-.48,1.36-.48,1.84,0,.24.24.38.58.38.92s-.14.68-.38.92c-.24.24-.58.38-.92.38Z"/><path class="cls-3" d="m12.5,18.8c-.34,0-.68-.14-.92-.38-.24-.24-.38-.58-.38-.92s.14-.68.38-.92c.49-.48,1.36-.48,1.84,0,.24.24.38.58.38.92s-.14.68-.38.92c-.24.24-.57.38-.92.38Z"/><path class="cls-3" d="m16,22.3c-.34,0-.68-.14-.92-.38-.24-.24-.38-.58-.38-.92s.14-.67.38-.92c.49-.48,1.36-.48,1.84,0,.24.25.38.58.38.92s-.14.68-.38.92c-.24.24-.58.38-.92.38Z"/><path class="cls-3" d="m18.5,24.55c-.34,0-.67-.14-.92-.38-.24-.24-.38-.58-.38-.92s.14-.68.38-.92c.48-.48,1.36-.49,1.84,0,.24.24.38.58.38.92s-.14.67-.38.92c-.24.24-.58.38-.92.38Z"/><path class="cls-3" d="m14,26.05c-.34,0-.68-.14-.92-.38-.24-.24-.38-.58-.38-.92s.14-.68.38-.92c.49-.49,1.36-.48,1.84,0,.24.24.38.58.38.92s-.14.68-.38.92c-.24.24-.58.38-.92.38Z"/><path class="cls-3" d="m11.5,23.05c-.34,0-.67-.14-.92-.38-.24-.24-.38-.58-.38-.92s.14-.67.38-.92c.48-.48,1.36-.48,1.84,0,.24.25.38.58.38.92s-.14.68-.38.92c-.24.24-.58.38-.92.38Z"/><path class="cls-3" d="m24,16.55c-.34,0-.68-.14-.92-.38-.24-.24-.38-.58-.38-.92s.14-.68.38-.92c.49-.48,1.36-.48,1.84,0,.24.24.38.58.38.92s-.14.68-.38.92c-.24.24-.57.38-.92.38Z"/><path class="cls-3" d="m2,7.05c-.34,0-.68-.14-.92-.38-.24-.24-.38-.58-.38-.92s.14-.67.38-.92c.5-.49,1.36-.48,1.84,0,.24.25.38.58.38.92s-.14.68-.38.92c-.24.24-.58.38-.92.38Z"/><path class="cls-3" d="m3.25,16.55c-.34,0-.68-.14-.92-.38-.24-.24-.38-.58-.38-.92s.14-.68.38-.92c.49-.48,1.36-.49,1.84,0,.24.24.38.58.38.92s-.14.68-.38.92c-.24.24-.58.38-.92.38Z"/><path class="cls-3" d="m5.25,19.8c-.34,0-.68-.14-.92-.38-.24-.24-.38-.58-.38-.92s.14-.68.38-.92c.49-.49,1.36-.48,1.84,0,.25.25.38.58.38.92s-.13.68-.38.92c-.24.24-.58.38-.92.38Z"/><path class="cls-3" d="m3.75,13.05c-.34,0-.67-.14-.92-.38-.24-.24-.38-.58-.38-.92s.14-.68.38-.92c.49-.48,1.35-.48,1.84,0,.24.24.38.58.38.92s-.14.68-.38.92c-.24.24-.58.38-.92.38Z"/><path class="cls-3" d="m9,5.8c-.34,0-.67-.14-.92-.38-.24-.24-.38-.58-.38-.92s.14-.68.38-.92c.48-.48,1.36-.48,1.84,0,.24.24.38.58.38.92s-.14.68-.38.92c-.24.24-.58.38-.92.38Z"/><path class="cls-3" d="m5.75,6.3c-.34,0-.67-.14-.92-.38-.24-.24-.38-.58-.38-.92s.14-.68.38-.92c.48-.48,1.36-.48,1.84,0,.24.24.38.58.38.92s-.14.67-.38.92c-.24.24-.58.38-.92.38Z"/><path class="cls-3" d="m6,9.55c-.34,0-.67-.14-.92-.38-.24-.24-.38-.58-.38-.92s.14-.68.38-.92c.49-.48,1.36-.49,1.84,0,.24.25.38.58.38.92s-.14.68-.38.92c-.24.24-.58.38-.92.38Z"/><path class="cls-3" d="m10.75,8.8c-.34,0-.67-.14-.92-.38-.24-.24-.38-.58-.38-.92s.14-.67.38-.92c.49-.48,1.36-.48,1.84,0,.24.25.38.58.38.92s-.14.68-.38.92c-.24.24-.58.38-.92.38Z"/><path class="cls-3" d="m3.75,3.55c-.34,0-.68-.14-.92-.38-.24-.24-.38-.58-.38-.92s.14-.68.38-.92c.49-.48,1.36-.48,1.84,0,.24.24.38.58.38.92s-.14.68-.38.92c-.24.24-.58.38-.92.38Z"/><path class="cls-3" d="m7,14.3c-.34,0-.67-.14-.92-.38-.24-.24-.38-.58-.38-.92s.14-.68.38-.92c.48-.48,1.36-.48,1.84,0,.24.25.38.58.38.92s-.14.67-.38.92c-.24.24-.58.38-.92.38Z"/><path class="cls-3" d="m9.75,12.05c-.34,0-.67-.14-.92-.38-.24-.25-.38-.58-.38-.92s.14-.68.38-.92c.49-.48,1.36-.48,1.84,0,.24.24.38.58.38.92s-.14.68-.38.92c-.24.24-.58.38-.92.38Z"/><path class="cls-3" d="m9.75,16.05c-.34,0-.67-.14-.92-.38-.24-.25-.38-.58-.38-.92s.14-.68.38-.92c.49-.48,1.36-.48,1.84,0,.24.24.38.58.38.92s-.14.67-.38.92c-.24.24-.58.38-.92.38Z"/><path class="cls-3" d="m12.5,18.8c-.34,0-.68-.14-.92-.38-.24-.24-.38-.58-.38-.92s.14-.68.38-.92c.49-.48,1.36-.48,1.84,0,.24.24.38.58.38.92s-.14.68-.38.92c-.24.24-.57.38-.92.38Z"/><path class="cls-3" d="m8.25,20.55c-.34,0-.67-.14-.92-.38-.24-.24-.38-.58-.38-.92s.14-.67.38-.92c.48-.48,1.36-.48,1.84,0,.24.25.38.58.38.92s-.14.68-.38.92c-.24.24-.58.38-.92.38Z"/><path class="cls-3" d="m5.75,26.05c-.34,0-.67-.14-.92-.38-.24-.24-.38-.58-.38-.92s.14-.68.38-.92c.48-.48,1.36-.48,1.84,0,.24.24.38.58.38.92s-.14.67-.38.92c-.24.24-.58.38-.92.38Z"/><path class="cls-3" d="m5,23.05c-.34,0-.68-.14-.92-.38-.24-.24-.38-.58-.38-.92s.14-.68.38-.92c.48-.48,1.36-.48,1.84,0,.24.25.38.58.38.92s-.14.67-.38.92c-.24.24-.58.38-.92.38Z"/><path class="cls-3" d="m15,71.8c-.34,0-.67-.14-.92-.38-.24-.24-.38-.58-.38-.92s.14-.68.38-.92c.49-.48,1.36-.48,1.84,0,.24.25.38.58.38.92s-.14.68-.38.92c-.24.24-.58.38-.92.38Z"/><path class="cls-3" d="m15,71.8c-.34,0-.67-.14-.92-.38-.24-.24-.38-.58-.38-.92s.14-.68.38-.92c.49-.48,1.36-.48,1.84,0,.24.25.38.58.38.92s-.14.68-.38.92c-.24.24-.58.38-.92.38Z"/><path class="cls-3" d="m18.5,70.8c-.34,0-.67-.14-.92-.38-.24-.24-.38-.58-.38-.92s.14-.68.38-.92c.49-.48,1.36-.48,1.84,0,.24.24.38.58.38.92s-.14.68-.38.92c-.24.24-.58.38-.92.38Z"/><path class="cls-3" d="m24,71.8c-.34,0-.67-.14-.92-.38-.24-.24-.38-.58-.38-.92s.14-.68.38-.92c.49-.48,1.36-.48,1.84,0,.24.24.38.58.38.92s-.14.68-.38.92c-.24.24-.57.38-.92.38Z"/><path class="cls-3" d="m29.25,71.3c-.34,0-.68-.14-.92-.38-.24-.24-.38-.58-.38-.92s.14-.68.38-.92c.49-.48,1.36-.48,1.84,0,.24.24.38.58.38.92s-.14.68-.38.92c-.24.24-.57.38-.92.38Z"/><path class="cls-3" d="m32.75,71.8c-.34,0-.67-.14-.92-.38-.24-.24-.38-.58-.38-.92s.14-.68.38-.92c.49-.48,1.36-.48,1.84,0,.24.24.38.58.38.92s-.14.67-.38.92c-.24.24-.58.38-.92.38Z"/><path class="cls-3" d="m37.75,71.3c-.34,0-.67-.14-.92-.38-.24-.24-.38-.58-.38-.92s.14-.68.38-.92c.49-.48,1.36-.48,1.84,0,.24.24.38.58.38.92s-.14.68-.38.92c-.24.24-.58.38-.92.38Z"/><path class="cls-3" d="m45,68.55c-.34,0-.68-.14-.92-.38-.24-.24-.38-.58-.38-.92s.14-.68.38-.92c.49-.48,1.36-.48,1.84,0,.24.24.38.58.38.92s-.14.68-.38.92c-.24.24-.58.38-.92.38Z"/><path class="cls-3" d="m49.75,70.3c-.34,0-.67-.14-.92-.38-.24-.24-.38-.58-.38-.92s.14-.68.38-.92c.49-.48,1.36-.48,1.84,0,.24.24.38.58.38.92s-.14.68-.38.92c-.24.24-.58.38-.92.38Z"/><path class="cls-3" d="m59.75,71.8c-.34,0-.67-.14-.92-.38-.24-.25-.38-.58-.38-.92s.14-.67.38-.92c.49-.48,1.35-.49,1.84,0,.24.24.38.58.38.92s-.14.68-.38.92c-.24.24-.58.38-.92.38Z"/><path class="cls-3" d="m67.75,72.55c-.34,0-.68-.14-.92-.38-.24-.24-.38-.58-.38-.92s.14-.68.38-.92c.48-.48,1.36-.48,1.84,0,.24.24.38.58.38.92s-.14.68-.38.92c-.24.24-.57.38-.92.38Z"/><path class="cls-3" d="m55,73.55c-.34,0-.68-.14-.92-.38-.24-.24-.38-.58-.38-.92s.14-.68.38-.92c.49-.48,1.36-.48,1.84,0,.24.24.38.58.38.92s-.14.68-.38.92c-.24.24-.58.38-.92.38Z"/><path class="cls-3" d="m53.75,69.8c-.34,0-.68-.14-.92-.38-.24-.24-.38-.58-.38-.92s.14-.68.38-.92c.49-.48,1.36-.48,1.84,0,.24.24.38.58.38.92s-.14.68-.38.92c-.24.24-.58.38-.92.38Z"/><path class="cls-3" d="m10.25,70.8c-.34,0-.67-.14-.92-.38-.24-.24-.38-.58-.38-.92s.14-.68.38-.92c.49-.48,1.36-.48,1.84,0,.24.24.38.58.38.92s-.14.68-.38.92c-.24.24-.58.38-.92.38Z"/><path class="cls-3" d="m5.75,71.05c-.34,0-.68-.14-.92-.38-.24-.24-.38-.58-.38-.92s.14-.68.38-.92c.49-.48,1.35-.49,1.84,0,.24.25.38.58.38.92s-.14.68-.38.92c-.24.24-.58.38-.92.38Z"/><path class="cls-3" d="m22,26.8c-.34,0-.67-.14-.92-.38-.24-.24-.38-.58-.38-.92s.14-.68.38-.92c.48-.48,1.36-.48,1.84,0,.24.24.38.58.38.92s-.14.68-.38.92c-.24.24-.57.38-.92.38Z"/><path class="cls-3" d="m26.5,27.8c-.34,0-.67-.14-.92-.38-.24-.24-.38-.58-.38-.92s.14-.68.38-.92c.49-.48,1.36-.48,1.84,0,.24.25.38.58.38.92s-.14.68-.38.92c-.24.24-.58.38-.92.38Z"/><path class="cls-3" d="m30.25,25.8c-.34,0-.67-.14-.92-.38-.24-.24-.38-.58-.38-.92s.14-.68.38-.92c.49-.48,1.36-.48,1.84,0,.24.24.38.58.38.92s-.14.68-.38.92c-.24.24-.58.38-.92.38Z"/><path class="cls-3" d="m29,29.8c-.34,0-.68-.14-.92-.38-.24-.24-.38-.58-.38-.92s.14-.68.38-.92c.49-.48,1.36-.48,1.84,0,.24.24.38.58.38.92s-.14.68-.38.92c-.24.24-.57.38-.92.38Z"/><path class="cls-3" d="m26.25,31.8c-.34,0-.67-.14-.92-.38-.24-.24-.38-.58-.38-.92s.14-.68.38-.92c.48-.48,1.36-.49,1.84,0,.24.24.38.58.38.92s-.14.68-.38.92c-.24.24-.58.38-.92.38Z"/><path class="cls-3" d="m22.75,31.05c-.34,0-.68-.14-.92-.38-.24-.24-.38-.58-.38-.92s.14-.68.38-.92c.48-.48,1.36-.49,1.84,0,.24.24.38.58.38.92s-.14.68-.38.92c-.24.24-.57.38-.92.38Z"/><path class="cls-3" d="m19.5,31.8c-.34,0-.67-.14-.92-.38-.24-.24-.38-.58-.38-.92s.14-.68.38-.92c.48-.48,1.36-.49,1.84,0,.24.24.38.58.38.92s-.14.68-.38.92c-.24.24-.58.38-.92.38Z"/><path class="cls-3" d="m18,28.05c-.34,0-.68-.14-.92-.38-.24-.24-.38-.58-.38-.92s.14-.68.38-.92c.49-.48,1.36-.48,1.84,0,.24.24.38.58.38.92s-.14.68-.38.92c-.24.24-.58.38-.92.38Z"/><path class="cls-3" d="m16,30.55c-.34,0-.68-.14-.92-.38-.24-.24-.38-.58-.38-.92s.14-.68.38-.92c.49-.48,1.35-.48,1.84,0,.24.24.38.58.38.92s-.14.68-.38.92c-.24.24-.57.38-.92.38Z"/><path class="cls-3" d="m12.75,29.3c-.34,0-.67-.14-.92-.38-.24-.24-.38-.58-.38-.92s.14-.68.38-.92c.49-.49,1.36-.48,1.84,0,.24.25.38.58.38.92s-.14.68-.38.92c-.24.24-.58.38-.92.38Z"/><path class="cls-3" d="m9.5,30.8c-.34,0-.67-.14-.92-.38-.24-.24-.38-.58-.38-.92s.14-.67.38-.92c.48-.48,1.36-.48,1.84,0,.25.25.38.58.38.92s-.13.68-.38.92c-.24.24-.58.38-.92.38Z"/><path class="cls-3" d="m8.5,34.05c-.34,0-.67-.14-.92-.38-.24-.24-.38-.58-.38-.92s.14-.68.38-.92c.48-.48,1.36-.48,1.84,0,.24.24.38.58.38.92s-.14.68-.38.92c-.24.24-.58.38-.92.38Z"/><path class="cls-3" d="m10,38.3c-.34,0-.67-.14-.92-.38-.24-.24-.38-.58-.38-.92s.14-.68.38-.92c.48-.48,1.36-.48,1.84,0,.24.24.38.58.38.92s-.14.68-.38.92c-.24.24-.58.38-.92.38Z"/><path class="cls-3" d="m12.5,35.8c-.34,0-.67-.14-.92-.38-.24-.24-.38-.58-.38-.92s.14-.68.38-.92c.48-.48,1.36-.48,1.84,0,.24.24.38.58.38.92s-.14.68-.38.92c-.24.24-.58.38-.92.38Z"/><path class="cls-3" d="m15.25,33.3c-.34,0-.68-.14-.92-.38-.24-.24-.38-.58-.38-.92s.14-.68.38-.92c.49-.48,1.35-.48,1.84,0,.24.24.38.58.38.92s-.14.68-.38.92c-.24.24-.58.38-.92.38Z"/><path class="cls-3" d="m19,35.55c-.34,0-.67-.14-.92-.38-.24-.24-.38-.58-.38-.92s.14-.68.38-.92c.48-.48,1.36-.48,1.84,0,.24.24.38.58.38.92s-.14.68-.38.92c-.24.24-.58.38-.92.38Z"/><path class="cls-3" d="m16,38.05c-.34,0-.67-.14-.92-.38-.24-.24-.38-.58-.38-.92s.14-.68.38-.92c.48-.48,1.36-.48,1.84,0,.24.24.38.58.38.92s-.14.68-.38.92c-.24.24-.58.38-.92.38Z"/><path class="cls-3" d="m13,40.8c-.34,0-.67-.14-.92-.38-.24-.24-.38-.58-.38-.92s.14-.68.38-.92c.49-.48,1.36-.48,1.84,0,.24.24.38.58.38.92s-.14.68-.38.92c-.24.24-.58.38-.92.38Z"/><path class="cls-3" d="m9.75,42.55c-.34,0-.67-.14-.92-.38-.24-.25-.38-.58-.38-.92s.14-.68.38-.92c.49-.48,1.36-.48,1.84,0,.24.24.38.58.38.92s-.14.67-.38.92c-.24.24-.58.38-.92.38Z"/><path class="cls-3" d="m10,38.3c-.34,0-.67-.14-.92-.38-.24-.24-.38-.58-.38-.92s.14-.68.38-.92c.48-.48,1.36-.48,1.84,0,.24.24.38.58.38.92s-.14.68-.38.92c-.24.24-.58.38-.92.38Z"/><path class="cls-3" d="m6.75,39.8c-.34,0-.67-.14-.92-.38-.24-.24-.38-.58-.38-.92s.14-.68.38-.92c.48-.48,1.36-.48,1.84,0,.24.24.38.58.38.92s-.14.68-.38.92c-.24.24-.58.38-.92.38Z"/><path class="cls-3" d="m5.75,35.3c-.34,0-.68-.14-.92-.38-.24-.24-.38-.58-.38-.92s.14-.68.38-.92c.49-.48,1.36-.48,1.84,0,.24.25.38.58.38.92s-.14.68-.38.92c-.24.24-.58.38-.92.38Z"/><path class="cls-3" d="m5.5,30.05c-.34,0-.67-.14-.92-.38-.24-.24-.38-.58-.38-.92s.14-.68.38-.92c.49-.48,1.36-.48,1.84,0,.24.24.38.58.38.92s-.14.68-.38.92c-.24.24-.58.38-.92.38Z"/><path class="cls-3" d="m2.5,32.05c-.34,0-.67-.14-.92-.38-.24-.24-.38-.58-.38-.92s.14-.68.38-.92c.49-.48,1.35-.48,1.84,0,.25.25.38.58.38.92s-.13.67-.38.92c-.24.24-.58.38-.92.38Z"/><path class="cls-3" d="m1.75,36.05c-.34,0-.67-.14-.92-.38-.24-.24-.38-.58-.38-.92s.14-.68.38-.92c.48-.48,1.36-.48,1.84,0,.24.24.38.58.38.92s-.14.68-.38.92c-.24.24-.58.38-.92.38Z"/><path class="cls-3" d="m1.75,27.55c-.34,0-.67-.14-.92-.38-.24-.25-.38-.58-.38-.92s.14-.67.38-.92c.49-.48,1.35-.48,1.84,0,.24.24.38.58.38.92s-.14.68-.38.92c-.24.24-.58.38-.92.38Z"/><path class="cls-3" d="m3,39.55c-.34,0-.68-.14-.92-.38-.24-.24-.38-.58-.38-.92s.14-.68.38-.92c.49-.48,1.36-.49,1.84,0,.24.24.38.58.38.92s-.14.68-.38.92c-.24.24-.58.38-.92.38Z"/><path class="cls-3" d="m3.5,43.3c-.34,0-.67-.14-.92-.38-.24-.24-.38-.58-.38-.92s.14-.68.38-.92c.49-.48,1.36-.48,1.84,0,.24.24.38.58.38.92s-.14.68-.38.92c-.24.24-.58.38-.92.38Z"/><path class="cls-3" d="m2.75,49.3c-.34,0-.67-.14-.92-.38-.24-.24-.38-.58-.38-.92s.14-.67.38-.92c.49-.48,1.35-.48,1.84,0,.24.24.38.58.38.92s-.14.68-.38.92c-.24.24-.58.38-.92.38Z"/><path class="cls-3" d="m3.75,52.3c-.34,0-.67-.14-.92-.38-.24-.24-.38-.58-.38-.92s.14-.67.38-.92c.49-.48,1.36-.48,1.84,0,.24.25.38.58.38.92s-.14.68-.38.92c-.24.24-.58.38-.92.38Z"/><path class="cls-3" d="m7.25,50.3c-.34,0-.67-.14-.92-.38-.24-.24-.38-.58-.38-.92s.14-.68.38-.92c.48-.48,1.36-.48,1.84,0,.24.24.38.58.38.92s-.14.68-.38.92c-.24.24-.58.38-.92.38Z"/><path class="cls-3" d="m5.5,46.3c-.34,0-.68-.14-.92-.38-.24-.24-.38-.58-.38-.92s.14-.68.38-.92c.49-.48,1.36-.48,1.84,0,.24.25.38.58.38.92s-.14.68-.38.92c-.24.24-.58.38-.92.38Z"/><path class="cls-3" d="m9.5,46.8c-.34,0-.67-.14-.92-.38-.24-.24-.38-.58-.38-.92s.14-.68.38-.92c.48-.48,1.36-.48,1.84,0,.25.25.38.58.38.92s-.14.68-.38.92c-.24.24-.58.38-.92.38Z"/><path class="cls-3" d="m12,49.8c-.34,0-.67-.14-.92-.38-.24-.24-.38-.58-.38-.92s.14-.67.38-.92c.48-.48,1.36-.48,1.84,0,.24.25.38.58.38.92s-.14.68-.38.92c-.24.24-.58.38-.92.38Z"/><path class="cls-3" d="m15,50.8c-.34,0-.68-.14-.92-.38-.24-.24-.38-.58-.38-.92s.14-.68.38-.92c.49-.48,1.36-.48,1.84,0,.24.24.38.58.38.92s-.14.68-.38.92c-.24.24-.58.38-.92.38Z"/><path class="cls-3" d="m17.75,52.3c-.34,0-.67-.14-.92-.38-.24-.24-.38-.58-.38-.92s.14-.68.38-.92c.49-.48,1.36-.48,1.84,0,.24.24.38.58.38.92s-.14.68-.38.92c-.24.24-.58.38-.92.38Z"/><path class="cls-3" d="m12.5,45.55c-.34,0-.67-.14-.92-.38-.24-.24-.38-.58-.38-.92s.14-.68.38-.92c.49-.48,1.36-.48,1.84,0,.24.24.38.58.38.92s-.14.68-.38.92c-.24.24-.58.38-.92.38Z"/><path class="cls-3" d="m16,46.8c-.34,0-.67-.14-.92-.38-.24-.24-.38-.58-.38-.92s.14-.68.38-.92c.48-.48,1.36-.48,1.84,0,.24.24.38.58.38.92s-.14.68-.38.92c-.24.24-.58.38-.92.38Z"/><path class="cls-3" d="m19.25,47.8c-.34,0-.68-.14-.92-.38-.24-.24-.38-.58-.38-.92s.14-.67.38-.92c.49-.48,1.36-.48,1.84,0,.24.25.38.58.38.92s-.14.68-.38.92c-.24.24-.57.38-.92.38Z"/><path class="cls-3" d="m16.25,42.3c-.34,0-.68-.14-.92-.38-.24-.24-.38-.58-.38-.92s.14-.68.38-.92c.49-.48,1.36-.48,1.84,0,.24.24.38.58.38.92s-.14.68-.38.92c-.24.24-.58.38-.92.38Z"/><path class="cls-3" d="m20.25,43.3c-.34,0-.67-.14-.92-.38-.24-.24-.38-.58-.38-.92s.14-.67.38-.92c.49-.48,1.36-.48,1.84,0,.24.25.38.58.38.92s-.14.68-.38.92c-.24.24-.58.38-.92.38Z"/><path class="cls-3" d="m21,39.05c-.34,0-.67-.14-.92-.38-.24-.24-.38-.58-.38-.92s.14-.68.38-.92c.49-.48,1.36-.48,1.84,0,.24.24.38.58.38.92s-.14.68-.38.92c-.24.24-.58.38-.92.38Z"/><path class="cls-3" d="m23.5,42.05c-.34,0-.68-.14-.92-.38-.24-.24-.38-.58-.38-.92s.14-.68.38-.92c.48-.48,1.36-.49,1.84,0,.24.24.38.58.38.92s-.14.68-.38.92c-.24.24-.57.38-.92.38Z"/><path class="cls-3" d="m26.25,39.55c-.34,0-.68-.14-.92-.38-.24-.24-.38-.58-.38-.92s.14-.67.38-.92c.49-.48,1.36-.48,1.84,0,.24.25.38.58.38.92s-.14.68-.38.92c-.24.24-.58.38-.92.38Z"/><path class="cls-3" d="m22.5,46.05c-.34,0-.67-.14-.92-.38-.24-.24-.38-.58-.38-.92s.14-.68.38-.92c.49-.48,1.36-.48,1.84,0,.24.24.38.58.38.92s-.14.68-.38.92c-.24.24-.58.38-.92.38Z"/><path class="cls-3" d="m26,48.05c-.34,0-.67-.14-.92-.38-.24-.24-.38-.58-.38-.92s.14-.68.38-.92c.49-.48,1.36-.48,1.84,0,.24.24.38.58.38.92s-.14.68-.38.92c-.24.24-.58.38-.92.38Z"/><path class="cls-3" d="m26,52.05c-.34,0-.68-.14-.92-.38-.24-.24-.38-.58-.38-.92s.14-.68.38-.92c.49-.48,1.36-.48,1.84,0,.24.24.38.58.38.92s-.14.68-.38.92c-.24.24-.58.38-.92.38Z"/><path class="cls-3" d="m22,50.3c-.34,0-.68-.14-.92-.38-.24-.24-.38-.58-.38-.92s.14-.68.38-.92c.49-.48,1.36-.48,1.84,0,.24.25.38.58.38.92s-.14.68-.38.92c-.24.24-.57.38-.92.38Z"/><path class="cls-3" d="m29.5,49.05c-.34,0-.67-.14-.92-.38-.24-.24-.38-.58-.38-.92s.14-.68.38-.92c.49-.48,1.36-.48,1.84,0,.24.24.38.58.38.92s-.14.68-.38.92c-.24.24-.57.38-.92.38Z"/><path class="cls-3" d="m31.5,45.8c-.34,0-.68-.14-.92-.38-.24-.24-.38-.58-.38-.92s.14-.68.38-.92c.49-.48,1.35-.48,1.84,0,.25.25.38.58.38.92s-.14.68-.38.92c-.24.24-.58.38-.92.38Z"/><path class="cls-3" d="m30.25,41.8c-.34,0-.68-.14-.92-.38-.24-.24-.38-.58-.38-.92s.14-.68.38-.92c.49-.48,1.36-.48,1.84,0,.24.24.38.58.38.92s-.14.68-.38.92c-.24.24-.58.38-.92.38Z"/><path class="cls-3" d="m30.25,37.8c-.34,0-.67-.14-.92-.38-.24-.24-.38-.58-.38-.92s.14-.68.38-.92c.49-.48,1.36-.48,1.84,0,.24.24.38.58.38.92s-.14.68-.38.92c-.24.24-.58.38-.92.38Z"/><path class="cls-3" d="m27,36.05c-.34,0-.67-.14-.92-.38-.24-.24-.38-.58-.38-.92s.14-.68.38-.92c.49-.48,1.36-.48,1.84,0,.24.24.38.58.38.92s-.14.68-.38.92c-.24.24-.58.38-.92.38Z"/><path class="cls-3" d="m23.5,36.05c-.34,0-.68-.14-.92-.38-.24-.24-.38-.58-.38-.92s.14-.68.38-.92c.49-.48,1.36-.48,1.84,0,.24.24.38.58.38.92s-.14.68-.38.92c-.24.24-.57.38-.92.38Z"/><path class="cls-3" d="m30,32.55c-.34,0-.67-.14-.92-.38-.24-.24-.38-.58-.38-.92s.14-.68.38-.92c.49-.48,1.36-.48,1.84,0,.24.25.38.58.38.92s-.14.68-.38.92c-.24.24-.58.38-.92.38Z"/><path class="cls-3" d="m33,35.3c-.34,0-.67-.14-.92-.38-.24-.24-.38-.58-.38-.92s.14-.67.38-.92c.49-.48,1.36-.48,1.84,0,.24.24.38.58.38.92s-.14.68-.38.92c-.24.24-.58.38-.92.38Z"/><path class="cls-3" d="m36,35.8c-.34,0-.67-.14-.92-.38-.24-.24-.38-.58-.38-.92s.14-.68.38-.92c.49-.48,1.36-.48,1.84,0,.24.24.38.58.38.92s-.14.68-.38.92c-.24.24-.58.38-.92.38Z"/><path class="cls-3" d="m33.5,39.8c-.34,0-.67-.14-.92-.38-.24-.24-.38-.58-.38-.92s.14-.67.38-.92c.49-.48,1.36-.48,1.84,0,.24.24.38.58.38.92s-.14.68-.38.92c-.24.24-.58.38-.92.38Z"/><path class="cls-3" d="m34.5,43.55c-.34,0-.68-.14-.92-.38-.24-.24-.38-.58-.38-.92s.14-.68.38-.92c.49-.48,1.36-.48,1.84,0,.24.24.38.58.38.92s-.14.68-.38.92c-.24.24-.57.38-.92.38Z"/><path class="cls-3" d="m31.5,45.8c-.34,0-.68-.14-.92-.38-.24-.24-.38-.58-.38-.92s.14-.68.38-.92c.49-.48,1.35-.48,1.84,0,.25.25.38.58.38.92s-.14.68-.38.92c-.24.24-.58.38-.92.38Z"/><path class="cls-3" d="m34.75,47.3c-.34,0-.67-.14-.92-.38-.24-.24-.38-.58-.38-.92s.14-.68.38-.92c.49-.49,1.36-.48,1.84,0,.25.25.38.58.38.92s-.14.67-.38.92c-.24.24-.58.38-.92.38Z"/><path class="cls-3" d="m37.75,51.55c-.34,0-.68-.14-.92-.38-.24-.24-.38-.58-.38-.92s.14-.68.38-.92c.49-.49,1.36-.48,1.84,0,.24.24.38.58.38.92s-.14.68-.38.92c-.24.24-.58.38-.92.38Z"/><path class="cls-3" d="m32.75,50.55c-.34,0-.67-.14-.92-.38-.24-.24-.38-.58-.38-.92s.14-.68.38-.92c.49-.48,1.36-.48,1.84,0,.24.24.38.58.38.92s-.14.67-.38.92c-.24.24-.58.38-.92.38Z"/><path class="cls-3" d="m38.5,47.55c-.34,0-.67-.14-.92-.38-.24-.24-.38-.58-.38-.92s.14-.68.38-.92c.48-.48,1.36-.48,1.84,0,.24.24.38.58.38.92s-.14.68-.38.92c-.24.24-.57.38-.92.38Z"/><path class="cls-3" d="m38.25,43.05c-.34,0-.68-.14-.92-.38-.24-.24-.38-.58-.38-.92s.14-.68.38-.92c.49-.48,1.36-.48,1.84,0,.24.24.38.58.38.92s-.14.68-.38.92c-.24.24-.57.38-.92.38Z"/><path class="cls-3" d="m37.5,39.55c-.34,0-.67-.14-.92-.38-.24-.24-.38-.58-.38-.92s.14-.68.38-.92c.49-.48,1.36-.48,1.84,0,.25.25.38.58.38.92s-.13.67-.38.92c-.24.24-.58.38-.92.38Z"/><path class="cls-3" d="m33,35.3c-.34,0-.67-.14-.92-.38-.24-.24-.38-.58-.38-.92s.14-.67.38-.92c.49-.48,1.36-.48,1.84,0,.24.24.38.58.38.92s-.14.68-.38.92c-.24.24-.58.38-.92.38Z"/><path class="cls-3" d="m36,35.8c-.34,0-.67-.14-.92-.38-.24-.24-.38-.58-.38-.92s.14-.68.38-.92c.49-.48,1.36-.48,1.84,0,.24.24.38.58.38.92s-.14.68-.38.92c-.24.24-.58.38-.92.38Z"/><path class="cls-3" d="m33.75,32.05c-.34,0-.67-.14-.92-.38-.24-.24-.38-.58-.38-.92s.14-.68.38-.92c.48-.48,1.36-.48,1.84,0,.24.24.38.58.38.92s-.14.68-.38.92c-.24.24-.58.38-.92.38Z"/><path class="cls-3" d="m33.25,28.05c-.34,0-.68-.14-.92-.38-.24-.24-.38-.58-.38-.92s.14-.68.38-.92c.49-.48,1.36-.48,1.84,0,.24.24.38.58.38.92s-.14.68-.38.92c-.24.24-.57.38-.92.38Z"/><path class="cls-3" d="m37,28.3c-.34,0-.67-.14-.92-.38-.24-.24-.38-.58-.38-.92s.14-.68.38-.92c.49-.48,1.36-.48,1.84,0,.24.24.38.58.38.92s-.14.68-.38.92c-.24.24-.58.38-.92.38Z"/><path class="cls-3" d="m37.75,32.8c-.34,0-.67-.14-.92-.38-.24-.24-.38-.58-.38-.92s.14-.68.38-.92c.49-.49,1.36-.48,1.84,0,.24.24.38.58.38.92s-.14.68-.38.92c-.24.24-.58.38-.92.38Z"/><path class="cls-3" d="m40,36.05c-.34,0-.68-.14-.92-.38-.24-.24-.38-.58-.38-.92s.14-.68.38-.92c.48-.48,1.36-.48,1.84,0,.24.24.38.58.38.92s-.14.68-.38.92c-.24.24-.58.38-.92.38Z"/><path class="cls-3" d="m43,38.55c-.34,0-.68-.14-.92-.38-.24-.24-.38-.58-.38-.92s.14-.68.38-.92c.48-.48,1.36-.48,1.84,0,.24.24.38.58.38.92s-.14.68-.38.92c-.24.24-.58.38-.92.38Z"/><path class="cls-3" d="m42.5,42.3c-.34,0-.68-.14-.92-.38-.24-.24-.38-.58-.38-.92s.14-.68.38-.92c.49-.49,1.36-.48,1.84,0,.24.24.38.58.38.92s-.14.68-.38.92c-.24.24-.58.38-.92.38Z"/><path class="cls-3" d="m41.75,46.05c-.34,0-.67-.14-.92-.38-.24-.24-.38-.58-.38-.92s.14-.68.38-.92c.48-.48,1.36-.49,1.84,0,.24.24.38.58.38.92s-.14.68-.38.92c-.24.24-.58.38-.92.38Z"/><path class="cls-3" d="m43.75,49.55c-.34,0-.67-.14-.92-.38-.24-.24-.38-.58-.38-.92s.14-.68.38-.92c.48-.48,1.36-.49,1.84,0,.24.24.38.58.38.92s-.14.68-.38.92c-.24.24-.58.38-.92.38Z"/><path class="cls-3" d="m46.75,46.55c-.34,0-.68-.14-.92-.38-.24-.24-.38-.58-.38-.92s.14-.68.38-.92c.49-.48,1.36-.48,1.84,0,.24.24.38.58.38.92s-.14.68-.38.92c-.24.24-.58.38-.92.38Z"/><path class="cls-3" d="m46.75,51.05c-.34,0-.67-.14-.92-.38-.24-.24-.38-.58-.38-.92s.14-.68.38-.92c.49-.48,1.36-.48,1.84,0,.24.24.38.58.38.92s-.14.68-.38.92c-.24.24-.58.38-.92.38Z"/><path class="cls-3" d="m46.5,41.8c-.34,0-.68-.14-.92-.38-.24-.24-.38-.58-.38-.92s.14-.68.38-.92c.49-.48,1.36-.48,1.84,0,.24.24.38.58.38.92s-.14.68-.38.92c-.24.24-.58.38-.92.38Z"/><path class="cls-3" d="m47.75,38.8c-.34,0-.67-.14-.92-.38-.24-.24-.38-.58-.38-.92s.14-.68.38-.92c.48-.48,1.35-.48,1.84,0,.24.24.38.58.38.92s-.14.68-.38.92c-.24.24-.57.38-.92.38Z"/><path class="cls-3" d="m44.5,34.8c-.34,0-.68-.14-.92-.38-.24-.24-.38-.58-.38-.92s.14-.68.38-.92c.49-.48,1.36-.48,1.84,0,.24.24.38.58.38.92s-.14.68-.38.92c-.25.24-.57.38-.92.38Z"/><path class="cls-3" d="m42.75,32.3c-.34,0-.67-.14-.92-.38-.24-.24-.38-.58-.38-.92s.14-.67.38-.92c.49-.49,1.36-.48,1.84,0,.24.25.38.58.38.92s-.14.68-.38.92c-.24.24-.58.38-.92.38Z"/><path class="cls-3" d="m40.75,30.05c-.34,0-.67-.14-.92-.38-.24-.24-.38-.58-.38-.92s.14-.68.38-.92c.49-.49,1.36-.48,1.84,0,.24.24.38.58.38.92s-.14.68-.38.92c-.24.24-.57.38-.92.38Z"/><path class="cls-3" d="m44,28.05c-.34,0-.68-.14-.92-.38-.24-.24-.38-.58-.38-.92s.14-.68.38-.92c.49-.48,1.36-.48,1.84,0,.24.24.38.58.38.92s-.14.68-.38.92c-.24.24-.58.38-.92.38Z"/><path class="cls-3" d="m43,24.05c-.34,0-.67-.14-.92-.38-.24-.24-.38-.58-.38-.92s.14-.68.38-.92c.48-.48,1.36-.48,1.84,0,.24.24.38.58.38.92s-.14.68-.38.92c-.24.24-.58.38-.92.38Z"/><path class="cls-3" d="m47.75,26.8c-.34,0-.67-.14-.92-.38-.24-.24-.38-.58-.38-.92s.14-.68.38-.92c.49-.48,1.35-.48,1.84,0,.24.24.38.58.38.92s-.14.68-.38.92c-.24.24-.58.38-.92.38Z"/><path class="cls-3" d="m46.5,31.05c-.34,0-.67-.14-.92-.38-.24-.24-.38-.58-.38-.92s.14-.68.38-.92c.49-.48,1.36-.48,1.84,0,.24.24.38.58.38.92s-.14.68-.38.92c-.24.24-.58.38-.92.38Z"/><path class="cls-3" d="m48.5,34.3c-.34,0-.67-.14-.92-.38-.24-.24-.38-.58-.38-.92s.14-.68.38-.92c.48-.48,1.36-.48,1.84,0,.24.24.38.58.38.92s-.14.68-.38.92c-.24.24-.58.38-.92.38Z"/><path class="cls-3" d="m51.75,36.8c-.34,0-.67-.14-.92-.38-.24-.25-.38-.58-.38-.92s.14-.68.38-.92c.48-.48,1.35-.48,1.84,0,.24.24.38.58.38.92s-.14.68-.38.92c-.24.24-.58.38-.92.38Z"/><path class="cls-3" d="m51.5,40.8c-.34,0-.67-.14-.92-.38-.24-.25-.38-.58-.38-.92s.14-.67.38-.92c.49-.48,1.36-.48,1.84,0,.24.24.38.58.38.92s-.14.68-.38.92c-.24.24-.58.38-.92.38Z"/><path class="cls-3" d="m50.5,44.8c-.34,0-.67-.14-.92-.38-.24-.24-.38-.58-.38-.92s.14-.67.38-.92c.49-.49,1.36-.48,1.84,0,.24.25.38.58.38.92s-.14.68-.38.92c-.24.24-.58.38-.92.38Z"/><path class="cls-3" d="m54.25,44.05c-.34,0-.68-.14-.92-.38-.24-.24-.38-.58-.38-.92s.14-.68.38-.92c.49-.48,1.36-.48,1.84,0,.24.24.38.58.38.92s-.14.68-.38.92c-.24.24-.58.38-.92.38Z"/><path class="cls-3" d="m54,48.55c-.34,0-.68-.14-.92-.38-.24-.24-.38-.58-.38-.92s.14-.68.38-.92c.49-.48,1.36-.48,1.84,0,.24.24.38.58.38.92s-.14.68-.38.92c-.24.24-.58.38-.92.38Z"/><path class="cls-3" d="m56.75,51.55c-.34,0-.67-.14-.92-.38-.24-.24-.38-.58-.38-.92s.14-.68.38-.92c.49-.48,1.35-.49,1.84,0,.24.24.38.58.38.92s-.14.68-.38.92c-.24.24-.57.38-.92.38Z"/><path class="cls-3" d="m57.5,46.8c-.34,0-.67-.14-.92-.38-.24-.24-.38-.58-.38-.92s.14-.68.38-.92c.49-.48,1.36-.48,1.84,0,.24.24.38.58.38.92s-.14.68-.38.92c-.24.24-.58.38-.92.38Z"/><path class="cls-3" d="m57.5,43.05c-.34,0-.68-.14-.92-.38-.24-.24-.38-.58-.38-.92s.14-.68.38-.92c.49-.48,1.36-.48,1.84,0,.24.24.38.58.38.92s-.14.68-.38.92c-.24.24-.57.38-.92.38Z"/><path class="cls-3" d="m56.5,39.05c-.34,0-.67-.14-.92-.38-.24-.24-.38-.58-.38-.92s.14-.68.38-.92c.48-.48,1.36-.48,1.84,0,.24.24.38.58.38.92s-.14.68-.38.92c-.24.24-.58.38-.92.38Z"/><path class="cls-3" d="m27.25,44.05c-.34,0-.67-.14-.92-.38-.24-.24-.38-.58-.38-.92s.14-.68.38-.92c.49-.48,1.36-.49,1.84,0,.24.24.38.58.38.92s-.14.68-.38.92c-.24.24-.58.38-.92.38Z"/><path class="cls-3" d="m70.25,33.3c-.34,0-.68-.14-.92-.38-.24-.24-.38-.58-.38-.92s.14-.68.38-.92c.49-.49,1.36-.48,1.84,0,.24.24.38.58.38.92s-.14.68-.38.92c-.24.24-.58.38-.92.38Z"/><path class="cls-3" d="m71.25,29.05c-.34,0-.67-.14-.92-.38-.24-.24-.38-.58-.38-.92s.14-.68.38-.92c.49-.48,1.36-.48,1.84,0,.24.24.38.58.38.92s-.14.68-.38.92c-.24.24-.58.38-.92.38Z"/><path class="cls-3" d="m68,27.3c-.34,0-.67-.14-.92-.38-.24-.24-.38-.58-.38-.92s.14-.67.38-.92c.49-.49,1.36-.48,1.84,0,.24.24.38.58.38.92s-.14.68-.38.92c-.24.24-.58.38-.92.38Z"/><path class="cls-3" d="m68.25,36.55c-.34,0-.68-.14-.92-.38-.24-.24-.38-.58-.38-.92s.14-.68.38-.92c.49-.48,1.36-.48,1.84,0,.24.24.38.58.38.92s-.14.68-.38.92c-.24.24-.57.38-.92.38Z"/><path class="cls-3" d="m68,40.3c-.34,0-.67-.14-.92-.38-.24-.24-.38-.58-.38-.92s.14-.68.38-.92c.49-.49,1.36-.48,1.84,0,.24.24.38.58.38.92s-.14.68-.38.92c-.24.24-.58.38-.92.38Z"/><path class="cls-3" d="m71.5,39.05c-.34,0-.68-.14-.92-.38-.24-.24-.38-.58-.38-.92s.14-.68.38-.92c.49-.48,1.36-.48,1.84,0,.24.24.38.58.38.92s-.14.68-.38.92c-.24.24-.58.38-.92.38Z"/><path class="cls-3" d="m70.75,43.05c-.34,0-.67-.14-.92-.38-.24-.24-.38-.58-.38-.92s.14-.67.38-.92c.48-.48,1.36-.48,1.84,0,.24.24.38.58.38.92s-.14.68-.38.92c-.24.24-.58.38-.92.38Z"/><path class="cls-3" d="m70,50.55c-.34,0-.67-.14-.92-.38-.24-.24-.38-.58-.38-.92s.14-.68.38-.92c.48-.48,1.36-.49,1.84,0,.24.24.38.58.38.92s-.14.68-.38.92c-.24.24-.58.38-.92.38Z"/><path class="cls-3" d="m69,47.05c-.34,0-.67-.14-.92-.38-.24-.24-.38-.58-.38-.92s.14-.68.38-.92c.49-.48,1.36-.48,1.84,0,.24.24.38.58.38.92s-.14.68-.38.92c-.24.24-.58.38-.92.38Z"/><path class="cls-3" d="m66.5,31.05c-.34,0-.68-.14-.92-.38-.24-.24-.38-.58-.38-.92s.14-.68.38-.92c.48-.48,1.36-.48,1.84,0,.24.24.38.58.38.92s-.14.68-.38.92c-.24.24-.58.38-.92.38Z"/><path class="cls-3" d="m63,31.3c-.34,0-.67-.14-.92-.38-.24-.24-.38-.58-.38-.92s.14-.68.38-.92c.49-.48,1.35-.48,1.84,0,.24.24.38.58.38.92s-.14.68-.38.92c-.24.24-.57.38-.92.38Z"/><path class="cls-3" d="m64,26.55c-.34,0-.67-.14-.92-.38-.24-.24-.38-.58-.38-.92s.14-.68.38-.92c.49-.48,1.35-.48,1.84,0,.24.24.38.58.38.92s-.14.68-.38.92c-.24.24-.58.38-.92.38Z"/><path class="cls-3" d="m60.5,28.05c-.34,0-.67-.14-.92-.38-.24-.24-.38-.58-.38-.92s.14-.68.38-.92c.49-.48,1.35-.48,1.84,0,.24.24.38.58.38.92s-.14.68-.38.92c-.24.24-.57.38-.92.38Z"/><path class="cls-3" d="m56.75,27.05c-.34,0-.67-.14-.92-.38-.24-.24-.38-.58-.38-.92s.14-.68.38-.92c.49-.48,1.35-.48,1.84,0,.24.24.38.58.38.92s-.14.68-.38.92c-.24.24-.58.38-.92.38Z"/><path class="cls-3" d="m53.25,28.8c-.34,0-.67-.14-.92-.38-.24-.24-.38-.58-.38-.92s.14-.68.38-.92c.48-.48,1.35-.49,1.84,0,.24.24.38.58.38.92s-.14.68-.38.92c-.24.24-.57.38-.92.38Z"/><path class="cls-3" d="m50.25,29.8c-.34,0-.67-.14-.92-.38-.24-.24-.38-.58-.38-.92s.14-.68.38-.92c.49-.48,1.36-.48,1.84,0,.24.24.38.58.38.92s-.14.68-.38.92c-.24.24-.58.38-.92.38Z"/><path class="cls-3" d="m52.5,33.55c-.34,0-.67-.14-.92-.38-.24-.24-.38-.58-.38-.92s.14-.68.38-.92c.49-.48,1.35-.48,1.84,0,.24.24.38.58.38.92s-.14.68-.38.92c-.24.24-.58.38-.92.38Z"/><path class="cls-3" d="m56.75,31.05c-.34,0-.67-.14-.92-.38-.24-.24-.38-.58-.38-.92s.14-.68.38-.92c.49-.48,1.35-.48,1.84,0,.24.24.38.58.38.92s-.14.68-.38.92c-.24.24-.58.38-.92.38Z"/><path class="cls-3" d="m59.75,34.05c-.34,0-.68-.14-.92-.38-.24-.24-.38-.58-.38-.92s.14-.67.38-.92c.49-.48,1.36-.48,1.84,0,.24.24.38.58.38.92s-.14.68-.38.92c-.24.24-.58.38-.92.38Z"/><path class="cls-3" d="m56,35.55c-.34,0-.68-.14-.92-.38-.24-.24-.38-.58-.38-.92s.14-.68.38-.92c.48-.48,1.35-.49,1.84,0,.24.24.38.58.38.92s-.14.68-.38.92c-.24.24-.57.38-.92.38Z"/><path class="cls-3" d="m60,38.3c-.34,0-.67-.14-.92-.38-.24-.24-.38-.58-.38-.92s.14-.68.38-.92c.49-.48,1.35-.48,1.84,0,.24.24.38.58.38.92s-.14.68-.38.92c-.24.24-.58.38-.92.38Z"/><path class="cls-3" d="m64.5,34.8c-.34,0-.67-.14-.91-.38-.25-.24-.39-.58-.39-.92s.14-.68.38-.92c.48-.48,1.35-.49,1.84,0,.24.24.38.58.38.92s-.14.68-.38.92c-.24.24-.58.38-.92.38Z"/><path class="cls-3" d="m64.25,38.05c-.34,0-.67-.14-.92-.38-.24-.24-.38-.58-.38-.92s.14-.68.38-.92c.48-.48,1.35-.48,1.84,0,.24.24.38.58.38.92s-.14.68-.38.92c-.24.24-.58.38-.92.38Z"/><path class="cls-3" d="m61.5,42.3c-.34,0-.67-.14-.92-.38-.24-.24-.38-.58-.38-.92s.14-.68.38-.92c.49-.48,1.35-.48,1.84,0,.24.24.38.58.38.92s-.14.68-.38.92c-.24.24-.57.38-.92.38Z"/><path class="cls-3" d="m62.75,46.3c-.34,0-.67-.14-.92-.38-.24-.24-.38-.58-.38-.92s.14-.68.38-.92c.49-.48,1.35-.48,1.84,0,.24.24.38.58.38.92s-.14.68-.38.92c-.24.24-.57.38-.92.38Z"/><path class="cls-3" d="m57.5,46.8c-.34,0-.67-.14-.92-.38-.24-.24-.38-.58-.38-.92s.14-.68.38-.92c.49-.48,1.36-.48,1.84,0,.24.24.38.58.38.92s-.14.68-.38.92c-.24.24-.58.38-.92.38Z"/><path class="cls-3" d="m60.25,49.05c-.34,0-.68-.14-.92-.38-.24-.25-.38-.58-.38-.92s.14-.68.38-.92c.49-.48,1.35-.48,1.84,0,.24.24.38.58.38.92s-.13.68-.38.92c-.24.24-.58.38-.92.38Z"/><path class="cls-3" d="m65.75,49.3c-.34,0-.67-.14-.92-.38-.24-.24-.38-.58-.38-.92s.14-.68.38-.92c.49-.49,1.36-.48,1.84,0,.24.24.38.58.38.92s-.14.68-.38.92c-.24.24-.57.38-.92.38Z"/><path class="cls-3" d="m65.5,43.55c-.34,0-.67-.14-.92-.38-.24-.24-.38-.58-.38-.92s.14-.68.38-.92c.49-.48,1.37-.48,1.84,0,.24.24.38.58.38.92s-.14.68-.38.92c-.24.24-.58.38-.92.38Z"/><path class="cls-3" d="m50,49.05c-.34,0-.67-.14-.92-.38-.24-.24-.38-.58-.38-.92s.14-.67.38-.92c.49-.48,1.36-.48,1.84,0,.24.25.38.58.38.92s-.14.67-.38.92c-.24.24-.58.38-.92.38Z"/><path class="cls-3" d="m61.75,52.8c-.34,0-.67-.14-.92-.38-.24-.24-.38-.58-.38-.92s.14-.67.38-.92c.49-.48,1.36-.48,1.84,0,.24.24.38.58.38.92s-.14.68-.38.92c-.24.24-.58.38-.92.38Z"/><path class="cls-3" d="m6.75,58.8c-.34,0-.67-.14-.92-.38-.24-.24-.38-.58-.38-.92s.14-.68.38-.92c.48-.48,1.36-.48,1.84,0,.24.25.38.58.38.92s-.14.68-.38.92c-.24.24-.58.38-.92.38Z"/><path class="cls-3" d="m7.75,54.3c-.34,0-.67-.14-.92-.38-.24-.24-.38-.58-.38-.92s.14-.68.38-.92c.49-.48,1.35-.48,1.84,0,.24.24.38.58.38.92s-.14.68-.38.92c-.24.24-.58.38-.92.38Z"/><path class="cls-3" d="m11,53.05c-.34,0-.67-.14-.92-.38-.24-.24-.38-.58-.38-.92s.14-.68.38-.92c.49-.48,1.36-.48,1.84,0,.24.24.38.58.38.92s-.14.68-.38.92c-.24.24-.58.38-.92.38Z"/><path class="cls-3" d="m10,57.05c-.34,0-.67-.14-.92-.38-.24-.24-.38-.58-.38-.92s.14-.68.38-.92c.49-.48,1.36-.48,1.84,0,.24.24.38.58.38.92s-.14.68-.38.92c-.24.24-.58.38-.92.38Z"/><path class="cls-3" d="m13.5,59.05c-.34,0-.67-.14-.92-.38-.24-.24-.38-.58-.38-.92s.14-.68.38-.92c.49-.48,1.36-.48,1.84,0,.24.24.38.58.38.92s-.14.68-.38.92c-.24.24-.58.38-.92.38Z"/><path class="cls-3" d="m13.5,63.05c-.34,0-.67-.14-.92-.38-.24-.24-.38-.58-.38-.92s.14-.68.38-.92c.49-.48,1.36-.48,1.84,0,.24.24.38.58.38.92s-.14.68-.38.92c-.24.24-.58.38-.92.38Z"/><path class="cls-3" d="m9.5,61.3c-.34,0-.67-.14-.92-.38-.24-.24-.38-.58-.38-.92s.14-.68.38-.92c.48-.48,1.36-.48,1.84,0,.25.24.38.58.38.92s-.13.68-.38.92c-.24.24-.58.38-.92.38Z"/><path class="cls-3" d="m17,60.05c-.34,0-.68-.14-.92-.38-.24-.24-.38-.58-.38-.92s.14-.68.38-.92c.48-.48,1.36-.48,1.84,0,.24.24.38.58.38.92s-.14.68-.38.92c-.24.24-.57.38-.92.38Z"/><path class="cls-3" d="m17.25,63.05c-.34,0-.68-.14-.92-.38-.24-.24-.38-.58-.38-.92s.14-.67.38-.92c.49-.48,1.36-.48,1.84,0,.24.25.38.58.38.92s-.14.68-.38.92c-.24.24-.57.38-.92.38Z"/><path class="cls-3" d="m19,56.8c-.34,0-.67-.14-.92-.38-.24-.24-.38-.58-.38-.92s.14-.68.38-.92c.48-.48,1.36-.49,1.84,0,.24.24.38.58.38.92s-.14.68-.38.92c-.24.24-.58.38-.92.38Z"/><path class="cls-3" d="m22,54.55c-.34,0-.67-.14-.92-.38-.24-.24-.38-.58-.38-.92s.14-.68.38-.92c.49-.48,1.36-.48,1.84,0,.24.24.38.58.38.92s-.14.68-.38.92c-.24.24-.58.38-.92.38Z"/><path class="cls-3" d="m19,56.8c-.34,0-.67-.14-.92-.38-.24-.24-.38-.58-.38-.92s.14-.68.38-.92c.48-.48,1.36-.49,1.84,0,.24.24.38.58.38.92s-.14.68-.38.92c-.24.24-.58.38-.92.38Z"/><path class="cls-3" d="m22.25,58.3c-.34,0-.67-.14-.92-.38-.24-.24-.38-.58-.38-.92s.14-.68.38-.92c.49-.48,1.36-.48,1.84,0,.24.24.38.58.38.92s-.14.68-.38.92c-.24.24-.58.38-.92.38Z"/><path class="cls-3" d="m25.25,62.55c-.34,0-.67-.14-.92-.38-.24-.24-.38-.58-.38-.92s.14-.68.38-.92c.49-.48,1.35-.48,1.84,0,.25.25.38.58.38.92s-.14.68-.38.92c-.24.24-.58.38-.92.38Z"/><path class="cls-3" d="m20.25,61.55c-.34,0-.67-.14-.92-.38-.24-.24-.38-.58-.38-.92s.14-.68.38-.92c.49-.48,1.36-.48,1.84,0,.24.24.38.58.38.92s-.14.68-.38.92c-.24.24-.57.38-.92.38Z"/><path class="cls-3" d="m26,59.55c-.34,0-.68-.14-.92-.38-.24-.24-.38-.58-.38-.92s.14-.68.38-.92c.49-.48,1.36-.48,1.84,0,.24.24.38.58.38.92s-.14.68-.38.92c-.24.24-.57.38-.92.38Z"/><path class="cls-3" d="m25.75,55.05c-.34,0-.67-.14-.92-.38-.24-.24-.38-.58-.38-.92s.14-.68.38-.92c.49-.48,1.36-.48,1.84,0,.24.24.38.58.38.92s-.14.68-.38.92c-.24.24-.58.38-.92.38Z"/><path class="cls-3" d="m30,53.3c-.34,0-.67-.14-.92-.38-.24-.24-.38-.58-.38-.92s.14-.68.38-.92c.48-.48,1.36-.48,1.84,0,.24.25.38.58.38.92s-.14.67-.38.92c-.24.24-.57.38-.92.38Z"/><path class="cls-3" d="m29.25,56.3c-.34,0-.68-.14-.92-.38-.24-.24-.38-.58-.38-.92s.14-.68.38-.92c.49-.48,1.36-.48,1.84,0,.24.24.38.58.38.92s-.14.68-.38.92c-.24.24-.57.38-.92.38Z"/><path class="cls-3" d="m30.5,60.05c-.34,0-.68-.14-.92-.38-.24-.24-.38-.58-.38-.92s.14-.67.38-.92c.49-.49,1.36-.48,1.84,0,.24.25.38.58.38.92s-.14.68-.38.92c-.24.24-.58.38-.92.38Z"/><path class="cls-3" d="m34.25,57.55c-.34,0-.67-.14-.92-.38-.24-.24-.38-.58-.38-.92s.14-.68.38-.92c.49-.49,1.36-.48,1.84,0,.24.24.38.58.38.92s-.14.68-.38.92c-.24.24-.58.38-.92.38Z"/><path class="cls-3" d="m34,63.05c-.34,0-.68-.14-.92-.38-.24-.24-.38-.58-.38-.92s.14-.68.38-.92c.48-.48,1.35-.48,1.84,0,.24.24.38.58.38.92s-.14.68-.38.92c-.24.24-.58.38-.92.38Z"/><path class="cls-3" d="m34.5,54.05c-.34,0-.67-.14-.92-.38-.24-.24-.38-.58-.38-.92s.14-.68.38-.92c.49-.48,1.36-.48,1.84,0,.24.24.38.58.38.92s-.14.68-.38.92c-.24.24-.58.38-.92.38Z"/><path class="cls-3" d="m38,55.8c-.34,0-.67-.14-.92-.38-.24-.24-.38-.58-.38-.92s.14-.68.38-.92c.48-.48,1.36-.49,1.84,0,.24.24.38.58.38.92s-.14.68-.38.92c-.24.24-.58.38-.92.38Z"/><path class="cls-3" d="m14.75,55.05c-.34,0-.68-.14-.92-.38-.24-.24-.38-.58-.38-.92s.14-.67.38-.92c.49-.48,1.36-.48,1.84,0,.24.25.38.58.38.92s-.14.68-.38.92c-.24.24-.58.38-.92.38Z"/><path class="cls-3" d="m37,59.8c-.34,0-.67-.14-.92-.38-.24-.24-.38-.58-.38-.92s.14-.68.38-.92c.49-.49,1.36-.48,1.84,0,.25.24.38.58.38.92s-.14.68-.38.92c-.24.24-.58.38-.92.38Z"/><path class="cls-3" d="m3.5,65.3c-.34,0-.68-.14-.92-.38-.24-.24-.38-.58-.38-.92s.14-.68.38-.92c.49-.48,1.36-.48,1.84,0,.24.24.38.58.38.92s-.14.68-.38.92c-.24.24-.58.38-.92.38Z"/><path class="cls-3" d="m2.5,69.3c-.34,0-.68-.14-.92-.38-.24-.24-.38-.58-.38-.92s.14-.68.38-.92c.49-.48,1.35-.48,1.84,0,.24.24.38.58.38.92s-.13.68-.38.92c-.24.24-.58.38-.92.38Z"/><path class="cls-3" d="m11.5,69.05c-.34,0-.67-.14-.92-.38-.24-.24-.38-.58-.38-.92s.14-.67.38-.92c.48-.48,1.36-.48,1.84,0,.24.25.38.58.38.92s-.14.68-.38.92c-.24.24-.58.38-.92.38Z"/><path class="cls-3" d="m10.25,65.05c-.34,0-.67-.14-.92-.38-.24-.24-.38-.58-.38-.92s.14-.68.38-.92c.49-.48,1.36-.48,1.84,0,.24.24.38.58.38.92s-.14.68-.38.92c-.24.24-.58.38-.92.38Z"/><path class="cls-3" d="m14.5,66.8c-.34,0-.68-.14-.92-.38-.24-.24-.38-.58-.38-.92s.14-.68.38-.92c.49-.48,1.36-.48,1.84,0,.24.25.38.58.38.92s-.14.68-.38.92c-.24.24-.57.38-.92.38Z"/><path class="cls-3" d="m11.5,69.05c-.34,0-.67-.14-.92-.38-.24-.24-.38-.58-.38-.92s.14-.67.38-.92c.48-.48,1.36-.48,1.84,0,.24.25.38.58.38.92s-.14.68-.38.92c-.24.24-.58.38-.92.38Z"/><path class="cls-3" d="m18.25,66.3c-.34,0-.67-.14-.92-.38-.24-.24-.38-.58-.38-.92s.14-.67.38-.92c.49-.49,1.36-.48,1.84,0,.24.24.38.58.38.92s-.14.68-.38.92c-.24.24-.58.38-.92.38Z"/><path class="cls-3" d="m22.5,65.55c-.34,0-.67-.14-.92-.38-.24-.24-.38-.58-.38-.92s.14-.67.38-.92c.49-.49,1.36-.48,1.84,0,.24.25.38.58.38.92s-.14.68-.38.92c-.24.24-.58.38-.92.38Z"/><path class="cls-3" d="m21.75,68.55c-.34,0-.67-.14-.92-.38-.24-.24-.38-.58-.38-.92s.14-.68.38-.92c.49-.48,1.35-.49,1.84,0,.24.25.38.58.38.92s-.14.68-.38.92c-.24.24-.57.38-.92.38Z"/><path class="cls-3" d="m26.75,69.8c-.34,0-.67-.14-.92-.38-.24-.24-.38-.58-.38-.92s.14-.68.38-.92c.49-.48,1.36-.48,1.84,0,.24.24.38.58.38.92s-.14.68-.38.92c-.24.24-.58.38-.92.38Z"/><path class="cls-3" d="m27,66.3c-.34,0-.67-.14-.92-.38-.24-.24-.38-.58-.38-.92s.14-.68.38-.92c.49-.48,1.35-.49,1.84,0,.24.24.38.58.38.92s-.14.68-.38.92c-.24.24-.58.38-.92.38Z"/><path class="cls-3" d="m31,68.8c-.34,0-.67-.14-.92-.38-.24-.24-.38-.58-.38-.92s.14-.68.38-.92c.48-.48,1.36-.49,1.84,0,.24.24.38.58.38.92s-.14.68-.38.92c-.24.24-.58.38-.92.38Z"/><path class="cls-3" d="m34.25,67.3c-.34,0-.67-.14-.92-.38-.24-.24-.38-.58-.38-.92s.14-.68.38-.92c.49-.49,1.36-.48,1.84,0,.24.24.38.58.38.92s-.14.68-.38.92c-.24.24-.58.38-.92.38Z"/><path class="cls-3" d="m7.25,67.3c-.34,0-.67-.14-.92-.38-.24-.24-.38-.58-.38-.92s.14-.68.38-.92c.48-.48,1.36-.49,1.84,0,.24.24.38.58.38.92s-.14.68-.38.92c-.24.24-.58.38-.92.38Z"/><path class="cls-3" d="m41.5,52.3c-.34,0-.67-.14-.92-.38-.24-.24-.38-.58-.38-.92s.14-.68.38-.92c.49-.48,1.36-.48,1.84,0,.24.24.38.58.38.92s-.14.68-.38.92c-.24.24-.58.38-.92.38Z"/><path class="cls-3" d="m44,58.55c-.34,0-.67-.14-.92-.38-.24-.24-.38-.58-.38-.92s.14-.68.38-.92c.49-.48,1.36-.48,1.84,0,.24.24.38.58.38.92s-.14.68-.38.92c-.24.24-.58.38-.92.38Z"/><path class="cls-3" d="m44.5,54.55c-.34,0-.68-.14-.92-.38-.24-.24-.38-.58-.38-.92s.14-.68.38-.92c.49-.48,1.36-.48,1.84,0,.24.24.38.58.38.92s-.14.68-.38.92c-.24.24-.58.38-.92.38Z"/><path class="cls-3" d="m49.25,53.55c-.34,0-.68-.14-.92-.38-.24-.24-.38-.58-.38-.92s.14-.67.38-.92c.49-.48,1.36-.48,1.84,0,.24.24.38.58.38.92s-.14.68-.38.92c-.24.24-.57.38-.92.38Z"/><path class="cls-3" d="m50,58.3c-.34,0-.68-.14-.92-.38-.24-.24-.38-.58-.38-.92s.14-.68.38-.92c.49-.48,1.36-.48,1.84,0,.24.24.38.58.38.92s-.14.68-.38.92c-.24.24-.58.38-.92.38Z"/><path class="cls-3" d="m47,61.05c-.34,0-.67-.14-.92-.38-.24-.24-.38-.58-.38-.92s.14-.68.38-.92c.49-.48,1.36-.48,1.84,0,.24.24.38.58.38.92s-.14.68-.38.92c-.24.24-.58.38-.92.38Z"/><path class="cls-3" d="m43.75,62.8c-.34,0-.67-.14-.92-.38-.24-.24-.38-.58-.38-.92s.14-.68.38-.92c.48-.48,1.36-.49,1.84,0,.24.24.38.58.38.92s-.14.68-.38.92c-.24.24-.58.38-.92.38Z"/><path class="cls-3" d="m44,58.55c-.34,0-.67-.14-.92-.38-.24-.24-.38-.58-.38-.92s.14-.68.38-.92c.49-.48,1.36-.48,1.84,0,.24.24.38.58.38.92s-.14.68-.38.92c-.24.24-.58.38-.92.38Z"/><path class="cls-3" d="m41.75,66.05c-.34,0-.67-.14-.92-.38-.24-.24-.38-.58-.38-.92s.14-.68.38-.92c.48-.48,1.36-.48,1.84,0,.24.24.38.58.38.92s-.14.68-.38.92c-.24.24-.58.38-.92.38Z"/><path class="cls-3" d="m46.5,65.8c-.34,0-.67-.14-.92-.38-.24-.24-.38-.58-.38-.92s.14-.68.38-.92c.49-.48,1.36-.48,1.84,0,.24.24.38.58.38.92s-.14.68-.38.92c-.24.24-.58.38-.92.38Z"/><path class="cls-3" d="m50,67.05c-.34,0-.67-.14-.92-.38-.24-.24-.38-.58-.38-.92s.14-.68.38-.92c.49-.49,1.36-.48,1.84,0,.24.25.38.58.38.92s-.14.67-.38.92c-.24.24-.58.38-.92.38Z"/><path class="cls-3" d="m50.25,62.55c-.34,0-.67-.14-.92-.38-.24-.24-.38-.58-.38-.92s.14-.68.38-.92c.49-.48,1.36-.48,1.84,0,.24.24.38.58.38.92s-.14.68-.38.92c-.24.24-.58.38-.92.38Z"/><path class="cls-3" d="m3.25,61.05c-.34,0-.68-.14-.92-.38-.24-.24-.38-.58-.38-.92s.14-.68.38-.92c.49-.49,1.36-.48,1.84,0,.24.25.38.58.38.92s-.14.68-.38.92c-.24.24-.58.38-.92.38Z"/><path class="cls-3" d="m3.75,56.3c-.34,0-.68-.14-.92-.38-.24-.24-.38-.58-.38-.92s.14-.68.38-.92c.49-.48,1.36-.48,1.84,0,.24.24.38.58.38.92s-.14.68-.38.92c-.24.24-.58.38-.92.38Z"/><path class="cls-3" d="m70,69.05c-.34,0-.67-.14-.92-.38-.24-.24-.38-.58-.38-.92s.14-.68.38-.92c.48-.48,1.36-.48,1.84,0,.24.24.38.58.38.92s-.14.68-.38.92c-.24.24-.58.38-.92.38Z"/><path class="cls-3" d="m66.75,67.55c-.34,0-.68-.14-.92-.38-.24-.24-.38-.58-.38-.92s.14-.68.38-.92c.49-.49,1.36-.48,1.84,0,.24.24.38.58.38.92s-.14.68-.38.92c-.24.24-.57.38-.92.38Z"/><path class="cls-3" d="m72.75,66.55c-.34,0-.67-.14-.92-.38-.24-.24-.38-.58-.38-.92s.14-.68.38-.92c.48-.48,1.36-.48,1.84,0,.24.24.38.58.38.92s-.14.68-.38.92c-.24.24-.58.38-.92.38Z"/><path class="cls-3" d="m69.5,53.8c-.34,0-.67-.14-.92-.38-.24-.24-.38-.58-.38-.92s.14-.68.38-.92c.49-.48,1.36-.48,1.84,0,.24.24.38.58.38.92s-.14.68-.38.92c-.24.24-.58.38-.92.38Z"/><path class="cls-3" d="m69.25,59.05c-.34,0-.68-.14-.92-.38-.24-.24-.38-.58-.38-.92s.14-.68.38-.92c.49-.48,1.37-.48,1.84,0,.24.24.38.58.38.92s-.14.68-.38.92c-.24.24-.58.38-.92.38Z"/><path class="cls-3" d="m69.5,53.8c-.34,0-.67-.14-.92-.38-.24-.24-.38-.58-.38-.92s.14-.68.38-.92c.49-.48,1.36-.48,1.84,0,.24.24.38.58.38.92s-.14.68-.38.92c-.24.24-.58.38-.92.38Z"/><path class="cls-3" d="m71,62.8c-.34,0-.68-.14-.92-.38-.24-.24-.38-.58-.38-.92s.14-.68.38-.92c.48-.48,1.35-.48,1.84,0,.24.24.38.58.38.92s-.14.68-.38.92c-.24.24-.58.38-.92.38Z"/><path class="cls-3" d="m39.25,63.3c-.34,0-.68-.14-.92-.38-.24-.24-.38-.58-.38-.92s.14-.68.38-.92c.49-.49,1.36-.48,1.84,0,.24.24.38.58.38.92s-.14.68-.38.92c-.24.24-.57.38-.92.38Z"/><path class="cls-3" d="m37.75,66.3c-.34,0-.68-.14-.92-.38-.24-.24-.38-.58-.38-.92s.14-.68.38-.92c.49-.49,1.36-.48,1.84,0,.24.24.38.58.38.92s-.14.68-.38.92c-.24.24-.57.38-.92.38Z"/><path class="cls-3" d="m53,60.55c-.34,0-.67-.14-.92-.38-.24-.24-.38-.58-.38-.92s.14-.67.38-.92c.49-.48,1.35-.48,1.84,0,.24.25.38.58.38.92s-.14.68-.38.92c-.24.24-.57.38-.92.38Z"/><path class="cls-3" d="m56,61.05c-.34,0-.68-.14-.92-.38-.24-.24-.38-.58-.38-.92s.14-.68.38-.92c.49-.48,1.35-.48,1.84,0,.24.24.38.58.38.92s-.14.68-.38.92c-.24.24-.58.38-.92.38Z"/><path class="cls-3" d="m53.5,65.05c-.34,0-.67-.14-.92-.38-.24-.24-.38-.58-.38-.92s.14-.68.38-.92c.49-.48,1.36-.48,1.84,0,.24.24.38.58.38.92s-.14.68-.38.92c-.24.24-.58.38-.92.38Z"/><path class="cls-3" d="m57.5,64.8c-.34,0-.67-.14-.92-.38-.24-.24-.38-.58-.38-.92s.14-.68.38-.92c.49-.48,1.36-.48,1.84,0,.24.24.38.58.38.92s-.14.68-.38.92c-.24.24-.58.38-.92.38Z"/><path class="cls-3" d="m53,60.55c-.34,0-.67-.14-.92-.38-.24-.24-.38-.58-.38-.92s.14-.67.38-.92c.49-.48,1.35-.48,1.84,0,.24.25.38.58.38.92s-.14.68-.38.92c-.24.24-.57.38-.92.38Z"/><path class="cls-3" d="m56,61.05c-.34,0-.68-.14-.92-.38-.24-.24-.38-.58-.38-.92s.14-.68.38-.92c.49-.48,1.35-.48,1.84,0,.24.24.38.58.38.92s-.14.68-.38.92c-.24.24-.58.38-.92.38Z"/><path class="cls-3" d="m53.75,56.55c-.34,0-.68-.14-.92-.38-.24-.24-.38-.58-.38-.92s.14-.68.38-.92c.49-.48,1.35-.48,1.84,0,.24.24.38.58.38.92s-.14.68-.38.92c-.24.24-.57.38-.92.38Z"/><path class="cls-3" d="m57.75,58.05c-.34,0-.67-.14-.92-.38-.24-.24-.38-.58-.38-.92s.14-.68.38-.92c.49-.48,1.35-.48,1.84,0,.24.24.38.58.38.92s-.14.68-.38.92c-.24.24-.58.38-.92.38Z"/><path class="cls-3" d="m60,61.3c-.34,0-.67-.14-.92-.38-.24-.24-.38-.58-.38-.92s.14-.68.38-.92c.49-.48,1.35-.48,1.84,0,.24.24.38.58.38.92s-.14.68-.38.92c-.24.24-.58.38-.92.38Z"/><path class="cls-3" d="m62,63.55c-.34,0-.68-.14-.92-.38-.24-.24-.38-.58-.38-.92s.14-.67.38-.92c.49-.48,1.35-.48,1.84,0,.24.24.38.58.38.92s-.14.68-.38.92c-.24.24-.57.38-.92.38Z"/><path class="cls-3" d="m62.5,67.55c-.34,0-.67-.14-.92-.38-.24-.24-.38-.58-.38-.92s.14-.68.38-.92c.49-.48,1.35-.48,1.84,0,.24.24.38.58.38.92s-.14.68-.38.92c-.24.24-.58.38-.92.38Z"/><path class="cls-3" d="m64.5,60.05c-.34,0-.68-.14-.92-.38-.24-.24-.38-.58-.38-.92s.14-.68.38-.92c.48-.48,1.35-.49,1.84,0,.24.24.38.58.38.92s-.14.68-.38.92c-.24.24-.57.38-.92.38Z"/><path class="cls-3" d="m62.75,57.55c-.34,0-.67-.14-.92-.38-.24-.25-.38-.58-.38-.92s.14-.68.38-.92c.49-.48,1.35-.48,1.84,0,.24.24.38.58.38.92s-.14.68-.38.92c-.24.24-.58.38-.92.38Z"/><path class="cls-3" d="m58.5,54.55c-.34,0-.67-.14-.92-.38-.24-.24-.38-.58-.38-.92s.14-.68.38-.92c.49-.48,1.35-.48,1.84,0,.24.24.38.58.38.92s-.14.68-.38.92c-.24.24-.58.38-.92.38Z"/><path class="cls-3" d="m66.5,56.3c-.34,0-.67-.14-.92-.38-.24-.24-.38-.58-.38-.92s.14-.68.38-.92c.49-.48,1.35-.48,1.84,0,.24.24.38.58.38.92s-.14.68-.38.92c-.24.24-.58.38-.92.38Z"/><path class="cls-3" d="m66.75,63.55c-.34,0-.68-.14-.92-.38-.24-.24-.38-.58-.38-.92s.14-.68.38-.92c.49-.49,1.36-.48,1.84,0,.24.24.38.58.38.92s-.14.68-.38.92c-.24.24-.57.38-.92.38Z"/><path class="cls-3" d="m53.5,53.05c-.34,0-.67-.14-.92-.38-.24-.24-.38-.58-.38-.92s.14-.68.38-.92c.49-.48,1.36-.48,1.84,0,.24.24.38.58.38.92s-.14.68-.38.92c-.24.24-.58.38-.92.38Z"/><path class="cls-3" d="m58.25,68.3c-.34,0-.68-.14-.92-.38-.24-.24-.38-.58-.38-.92s.14-.68.38-.92c.49-.48,1.36-.48,1.84,0,.24.24.38.58.38.92s-.14.68-.38.92c-.24.24-.57.38-.92.38Z"/><path class="cls-3" d="m64.25,70.3c-.34,0-.67-.14-.92-.38-.24-.24-.38-.58-.38-.92s.14-.68.38-.92c.48-.48,1.36-.48,1.84,0,.24.24.38.58.38.92s-.14.68-.38.92c-.24.24-.58.38-.92.38Z"/><path class="cls-3" d="m65.25,52.8c-.34,0-.68-.14-.92-.38-.24-.24-.38-.58-.38-.92s.14-.68.38-.92c.48-.48,1.36-.48,1.84,0,.24.24.38.58.38.92s-.14.68-.38.92c-.24.24-.58.38-.92.38Z"/><path class="cls-3" d="m9.5,26.3c-.34,0-.67-.14-.92-.38-.24-.24-.38-.58-.38-.92s.14-.68.38-.92c.48-.48,1.36-.48,1.84,0,.25.24.38.58.38.92s-.13.67-.38.92c-.24.24-.58.38-.92.38Z"/><path class="cls-3" d="m5.75,62.8c-.34,0-.67-.14-.92-.38-.24-.24-.38-.58-.38-.92s.14-.68.38-.92c.49-.48,1.36-.48,1.84,0,.24.25.38.58.38.92s-.14.67-.38.92c-.24.24-.58.38-.92.38Z"/><path class="cls-3" d="m30.25,63.8c-.34,0-.67-.14-.92-.38-.24-.24-.38-.58-.38-.92s.14-.68.38-.92c.48-.48,1.36-.48,1.84,0,.24.24.38.58.38.92s-.14.68-.38.92c-.24.24-.58.38-.92.38Z"/><path class="cls-3" d="m40.5,58.3c-.34,0-.67-.14-.92-.38-.24-.24-.38-.58-.38-.92s.14-.68.38-.92c.49-.48,1.36-.48,1.84,0,.24.24.38.58.38.92s-.14.68-.38.92c-.24.24-.58.38-.92.38Z"/><path class="cls-3" d="m47.25,56.8c-.34,0-.68-.14-.92-.38-.24-.24-.38-.58-.38-.92s.14-.68.38-.92c.49-.49,1.36-.48,1.84,0,.24.24.38.58.38.92s-.14.68-.38.92c-.24.24-.58.38-.92.38Z"/><path class="cls-3" d="m41,72.8c-.34,0-.67-.14-.92-.38-.24-.24-.38-.58-.38-.92s.14-.68.38-.92c.48-.48,1.36-.48,1.84,0,.24.24.38.58.38.92s-.14.68-.38.92c-.24.24-.58.38-.92.38Z"/><path class="cls-3" d="m11.5,74.05c-.34,0-.67-.14-.92-.38-.24-.24-.38-.58-.38-.92s.14-.68.38-.92c.48-.48,1.36-.48,1.84,0,.24.24.38.58.38.92s-.14.68-.38.92c-.24.24-.58.38-.92.38Z"/><path class="cls-3" d="m21.25,73.8c-.34,0-.67-.14-.92-.38-.24-.24-.38-.58-.38-.92s.14-.67.38-.92c.48-.48,1.35-.48,1.84,0,.24.24.38.58.38.92s-.14.68-.38.92c-.24.24-.58.38-.92.38Z"/><path class="cls-3" d="m17,74.55c-.34,0-.68-.14-.92-.38-.24-.24-.38-.58-.38-.92s.14-.68.38-.92c.49-.48,1.36-.48,1.84,0,.24.24.38.58.38.92s-.14.68-.38.92c-.24.24-.57.38-.92.38Z"/><path class="cls-3" d="m27.75,74.55c-.34,0-.68-.14-.92-.38-.24-.24-.38-.58-.38-.92s.14-.68.38-.92c.49-.48,1.36-.48,1.84,0,.24.24.38.58.38.92s-.14.68-.38.92c-.24.24-.57.38-.92.38Z"/><path class="cls-3" d="m55,73.55c-.34,0-.68-.14-.92-.38-.24-.24-.38-.58-.38-.92s.14-.68.38-.92c.49-.48,1.36-.48,1.84,0,.24.24.38.58.38.92s-.14.68-.38.92c-.24.24-.58.38-.92.38Z"/><path class="cls-3" d="m7.75,74.05c-.34,0-.67-.14-.92-.38-.24-.24-.38-.58-.38-.92s.14-.68.38-.92c.48-.48,1.36-.48,1.84,0,.24.24.38.58.38.92s-.14.67-.38.92c-.24.24-.58.38-.92.38Z"/><path class="cls-3" d="m55,73.55c-.34,0-.68-.14-.92-.38-.24-.24-.38-.58-.38-.92s.14-.68.38-.92c.49-.48,1.36-.48,1.84,0,.24.24.38.58.38.92s-.14.68-.38.92c-.24.24-.58.38-.92.38Z"/><path class="cls-3" d="m72.5,10.3c-.34,0-.68-.14-.92-.38-.24-.24-.38-.58-.38-.92s.14-.67.38-.92c.49-.49,1.36-.49,1.84,0,.24.24.38.58.38.92s-.14.68-.38.92c-.24.24-.58.38-.92.38Z"/><path class="cls-3" d="m72.75,13.55c-.34,0-.67-.14-.92-.38-.24-.24-.38-.58-.38-.92s.14-.68.38-.92c.48-.48,1.36-.49,1.84,0,.24.24.38.58.38.92s-.14.68-.38.92c-.24.24-.58.38-.92.38Z"/><path class="cls-3" d="m73,20.8c-.34,0-.68-.14-.92-.38-.24-.24-.38-.58-.38-.92s.14-.68.38-.92c.49-.48,1.36-.48,1.84,0,.24.24.38.58.38.92s-.14.68-.38.92c-.24.24-.58.38-.92.38Z"/><path class="cls-3" d="m72.25,24.05c-.34,0-.68-.14-.92-.38-.24-.24-.38-.58-.38-.92s.14-.68.38-.92c.49-.48,1.36-.48,1.84,0,.24.24.38.58.38.92s-.14.68-.38.92c-.24.24-.58.38-.92.38Z"/><path class="cls-3" d="m72.75,72.05c-.34,0-.67-.14-.92-.38-.24-.24-.38-.58-.38-.92s.14-.68.38-.92c.48-.48,1.36-.49,1.84,0,.24.24.38.58.38.92s-.14.68-.38.92c-.24.24-.58.38-.92.38Z"/><path class="cls-3" d="m73.25,46.55c-.34,0-.67-.14-.92-.38-.24-.24-.38-.58-.38-.92s.14-.68.38-.92c.48-.48,1.36-.49,1.84,0,.24.24.38.58.38.92s-.14.68-.38.92c-.24.24-.58.38-.92.38Z"/><path class="cls-3" d="m72.25,57.3c-.34,0-.68-.14-.92-.38-.24-.24-.38-.58-.38-.92s.14-.68.38-.92c.49-.48,1.36-.48,1.84,0,.24.24.38.58.38.92s-.14.68-.38.92c-.24.24-.58.38-.92.38Z"/><path class="cls-3" d="m73.25,53.3c-.34,0-.68-.14-.92-.38-.24-.24-.38-.58-.38-.92s.14-.68.38-.92c.49-.48,1.36-.48,1.84,0,.24.24.38.58.38.92s-.14.68-.38.92c-.24.24-.58.38-.92.38Z"/><path class="cls-3" d="m46.25,71.8c-.34,0-.67-.14-.92-.38-.24-.24-.38-.58-.38-.92s.14-.67.38-.92c.49-.48,1.35-.48,1.84,0,.24.25.38.58.38.92s-.14.68-.38.92c-.24.24-.58.38-.92.38Z"/><path class="cls-3" d="m40.5,69.3c-.34,0-.67-.14-.92-.38-.24-.24-.38-.58-.38-.92s.14-.68.38-.92c.48-.48,1.36-.48,1.84,0,.24.24.38.58.38.92s-.14.68-.38.92c-.24.24-.58.38-.92.38Z"/><path class="cls-3" d="m-1.25,3.3c-.34,0-.67-.14-.92-.38-.24-.25-.38-.58-.38-.92s.14-.68.38-.92c.49-.48,1.36-.48,1.84,0C-.09,1.32.05,1.66.05,2s-.14.68-.38.92c-.24.24-.58.38-.92.38Z"/><path class="cls-3" d="m-.5,18.05c-.34,0-.67-.14-.92-.38-.24-.24-.38-.58-.38-.92s.14-.68.38-.92c.48-.48,1.36-.48,1.84,0,.24.24.38.58.38.92s-.14.68-.38.92c-.24.24-.58.38-.92.38Z"/><path class="cls-3" d="m-.75,29.05c-.34,0-.67-.14-.92-.38-.24-.24-.38-.58-.38-.92s.14-.68.38-.92c.49-.48,1.36-.48,1.84,0,.24.24.38.58.38.92s-.14.68-.38.92c-.24.24-.58.38-.92.38Z"/><path class="cls-3" d="m-.5,39.05c-.34,0-.68-.14-.92-.38-.24-.24-.38-.58-.38-.92s.14-.68.38-.92c.49-.48,1.36-.48,1.84,0,.24.24.38.58.38.92s-.14.68-.38.92c-.24.24-.58.38-.92.38Z"/><path class="cls-3" d="m-1.25,43.05c-.34,0-.67-.14-.92-.38-.24-.24-.38-.58-.38-.92s.14-.67.38-.92c.48-.48,1.36-.48,1.84,0,.24.24.38.58.38.92s-.14.68-.38.92c-.24.24-.58.38-.92.38Z"/><path class="cls-3" d="m.75,66.55c-.34,0-.67-.14-.92-.38-.24-.24-.38-.58-.38-.92s.14-.68.38-.92c.48-.48,1.36-.48,1.84,0,.24.24.38.58.38.92s-.14.68-.38.92c-.24.24-.58.38-.92.38Z"/><path class="cls-3" d="m-1,62.8c-.34,0-.68-.14-.92-.38-.24-.24-.38-.58-.38-.92s.14-.68.38-.92c.48-.48,1.35-.48,1.84,0,.24.24.38.58.38.92s-.14.68-.38.92c-.24.24-.58.38-.92.38Z"/><path class="cls-3" d="m.5,10.3c-.34,0-.68-.14-.92-.38-.24-.24-.38-.58-.38-.92s.14-.67.38-.92c.49-.49,1.36-.49,1.84,0,.24.24.38.58.38.92s-.14.68-.38.92c-.24.24-.58.38-.92.38Z"/><path class="cls-3" d="m.75,13.55c-.34,0-.67-.14-.92-.38-.24-.24-.38-.58-.38-.92s.14-.68.38-.92c.48-.48,1.36-.49,1.84,0,.24.24.38.58.38.92s-.14.68-.38.92c-.24.24-.58.38-.92.38Z"/><path class="cls-3" d="m1,20.8c-.34,0-.68-.14-.92-.38-.24-.24-.38-.58-.38-.92s.14-.68.38-.92c.49-.48,1.36-.48,1.84,0,.24.24.38.58.38.92s-.14.68-.38.92c-.24.24-.58.38-.92.38Z"/><path class="cls-3" d="m.25,24.05c-.34,0-.68-.14-.92-.38-.24-.24-.38-.58-.38-.92s.14-.68.38-.92c.49-.48,1.36-.48,1.84,0,.24.24.38.58.38.92s-.14.68-.38.92c-.24.24-.58.38-.92.38Z"/><path class="cls-3" d="m.75,72.05c-.34,0-.67-.14-.92-.38-.24-.24-.38-.58-.38-.92s.14-.68.38-.92c.48-.48,1.36-.49,1.84,0,.24.24.38.58.38.92s-.14.68-.38.92c-.24.24-.58.38-.92.38Z"/><path class="cls-3" d="m1.25,46.55c-.34,0-.67-.14-.92-.38-.24-.24-.38-.58-.38-.92s.14-.68.38-.92c.48-.48,1.36-.49,1.84,0,.24.24.38.58.38.92s-.14.68-.38.92c-.24.24-.58.38-.92.38Z"/><path class="cls-3" d="m.25,57.3c-.34,0-.68-.14-.92-.38-.24-.24-.38-.58-.38-.92s.14-.68.38-.92c.49-.48,1.36-.48,1.84,0,.24.24.38.58.38.92s-.14.68-.38.92c-.24.24-.58.38-.92.38Z"/><path class="cls-3" d="m1.25,53.3c-.34,0-.68-.14-.92-.38-.24-.24-.38-.58-.38-.92s.14-.68.38-.92c.49-.48,1.36-.48,1.84,0,.24.24.38.58.38.92s-.14.68-.38.92c-.24.24-.58.38-.92.38Z"/><path class="cls-3" d="m67.75.55c-.34,0-.68-.14-.92-.38-.24-.24-.38-.58-.38-.92s.14-.68.38-.92c.48-.48,1.36-.48,1.84,0,.24.24.38.58.38.92s-.14.68-.38.92c-.24.24-.57.38-.92.38Z"/><path class="cls-3" d="m55,1.55c-.34,0-.68-.14-.92-.38-.24-.24-.38-.58-.38-.92s.14-.68.38-.92c.49-.48,1.36-.48,1.84,0,.24.24.38.58.38.92s-.14.68-.38.92c-.24.24-.58.38-.92.38Z"/><path class="cls-3" d="m41,.8c-.34,0-.67-.14-.92-.38-.24-.24-.38-.58-.38-.92s.14-.68.38-.92c.48-.48,1.36-.48,1.84,0,.24.24.38.58.38.92s-.14.68-.38.92c-.24.24-.58.38-.92.38Z"/><path class="cls-3" d="m11.5,2.05c-.34,0-.67-.14-.92-.38-.24-.24-.38-.58-.38-.92s.14-.68.38-.92c.48-.48,1.36-.48,1.84,0,.24.24.38.58.38.92s-.14.68-.38.92c-.24.24-.58.38-.92.38Z"/><path class="cls-3" d="m21.25,1.8c-.34,0-.67-.14-.92-.38-.24-.24-.38-.58-.38-.92s.14-.67.38-.92c.48-.48,1.35-.48,1.84,0,.24.24.38.58.38.92s-.14.68-.38.92c-.24.24-.58.38-.92.38Z"/><path class="cls-3" d="m17,2.55c-.34,0-.68-.14-.92-.38-.24-.24-.38-.58-.38-.92s.14-.68.38-.92c.49-.48,1.36-.48,1.84,0,.24.24.38.58.38.92s-.14.68-.38.92c-.24.24-.57.38-.92.38Z"/><path class="cls-3" d="m27.75,2.55c-.34,0-.68-.14-.92-.38-.24-.24-.38-.58-.38-.92s.14-.68.38-.92c.49-.48,1.36-.48,1.84,0,.24.24.38.58.38.92s-.14.68-.38.92c-.24.24-.57.38-.92.38Z"/><path class="cls-3" d="m55,1.55c-.34,0-.68-.14-.92-.38-.24-.24-.38-.58-.38-.92s.14-.68.38-.92c.49-.48,1.36-.48,1.84,0,.24.24.38.58.38.92s-.14.68-.38.92c-.24.24-.58.38-.92.38Z"/><path class="cls-3" d="m7.75,2.05c-.34,0-.67-.14-.92-.38-.24-.24-.38-.58-.38-.92s.14-.68.38-.92c.48-.48,1.36-.48,1.84,0,.24.24.38.58.38.92s-.14.67-.38.92c-.24.24-.58.38-.92.38Z"/><path class="cls-3" d="m55,1.55c-.34,0-.68-.14-.92-.38-.24-.24-.38-.58-.38-.92s.14-.68.38-.92c.49-.48,1.36-.48,1.84,0,.24.24.38.58.38.92s-.14.68-.38.92c-.24.24-.58.38-.92.38Z"/><path class="cls-3" d="m72.75.05c-.34,0-.67-.14-.92-.38-.24-.24-.38-.58-.38-.92s.14-.68.38-.92c.48-.48,1.36-.49,1.84,0,.24.24.38.58.38.92s-.14.68-.38.92c-.24.24-.58.38-.92.38Z"/><path class="cls-3" d="m.75.05C.41.05.08-.09-.17-.33c-.24-.24-.38-.58-.38-.92s.14-.68.38-.92c.48-.48,1.36-.49,1.84,0,.24.24.38.58.38.92s-.14.68-.38.92C1.43-.09,1.09.05.75.05Z"/></pattern></defs><g id="Layer_1-2"><circle class="cls-2" cx="121.12" cy="128.91" r="17.88"/><circle class="cls-8" cx="121.36" cy="128.91" r="19.81"/><rect class="cls-9" x="102.83" y="210.19" width="36.59" height="13.88"/><rect class="cls-9" x="114.18" y="198.8" width="13.88" height="13.88"/><rect class="cls-9" x="102.83" y="33.74" width="36.59" height="13.88" transform="translate(242.24 81.37) rotate(180)"/><rect class="cls-9" x="114.18" y="45.13" width="13.88" height="13.88" transform="translate(242.24 104.15) rotate(180)"/><line class="cls-7" x1="119.86" y1="198.51" x2="119.18" y2="197.17"/><line class="cls-5" x1="117.86" y1="194.61" x2="94.82" y2="149.69"/><line class="cls-7" x1="94.16" y1="148.41" x2="93.47" y2="147.07"/><line class="cls-7" x1="122.38" y1="198.82" x2="123.07" y2="197.49"/><line class="cls-5" x1="124.38" y1="194.92" x2="147.43" y2="150.01"/><line class="cls-7" x1="148.08" y1="148.73" x2="148.77" y2="147.39"/><line class="cls-7" x1="122.62" y1="58.99" x2="123.3" y2="60.33"/><line class="cls-5" x1="124.62" y1="62.89" x2="147.66" y2="107.81"/><line class="cls-7" x1="148.32" y1="109.09" x2="149" y2="110.42"/><line class="cls-7" x1="120.1" y1="58.67" x2="119.41" y2="60.01"/><line class="cls-5" x1="118.09" y1="62.58" x2="95.05" y2="107.49"/><line class="cls-7" x1="94.39" y1="108.77" x2="93.71" y2="110.11"/><rect class="cls-9" x="163.05" y="189.42" width="36.59" height="13.88" transform="translate(-85.64 183.65) rotate(-44.55)"/><rect class="cls-9" x="166.41" y="181.3" width="13.88" height="13.88" transform="translate(-82.24 175.71) rotate(-44.55)"/><rect class="cls-9" x="39.26" y="63.68" width="36.59" height="13.88" transform="translate(148.12 80.57) rotate(135.45)"/><rect class="cls-9" x="58.61" y="71.8" width="13.88" height="13.88" transform="translate(167.5 88.86) rotate(135.45)"/><line class="cls-7" x1="167.38" y1="183.97" x2="165.96" y2="183.5"/><line class="cls-5" x1="163.22" y1="182.6" x2="115.29" y2="166.76"/><line class="cls-7" x1="113.92" y1="166.3" x2="112.49" y2="165.83"/><line class="cls-7" x1="169.4" y1="182.43" x2="168.95" y2="181"/><line class="cls-5" x1="168.09" y1="178.24" x2="153" y2="130.07"/><line class="cls-7" x1="152.57" y1="128.7" x2="152.12" y2="127.27"/><line class="cls-7" x1="71.47" y1="82.62" x2="72.89" y2="83.09"/><line class="cls-5" x1="75.63" y1="83.99" x2="123.56" y2="99.83"/><line class="cls-7" x1="124.93" y1="100.29" x2="126.35" y2="100.76"/><line class="cls-7" x1="69.45" y1="84.16" x2="69.9" y2="85.59"/><line class="cls-5" x1="70.76" y1="88.35" x2="85.85" y2="136.52"/><line class="cls-7" x1="86.28" y1="137.89" x2="86.73" y2="139.32"/><rect class="cls-9" x="191.02" y="131.78" width="36.59" height="13.88" transform="translate(54.84 336.7) rotate(-85.57)"/><rect class="cls-9" x="191.02" y="130.9" width="13.88" height="13.88" transform="translate(45.24 324.56) rotate(-85.57)"/><rect class="cls-9" x="15.1" y="118.15" width="36.59" height="13.88" transform="translate(160.7 101.46) rotate(94.43)"/><rect class="cls-9" x="37.81" y="119.03" width="13.88" height="13.88" transform="translate(173.81 91.08) rotate(94.43)"/><line class="cls-7" x1="190.65" y1="138.54" x2="189.27" y2="139.12"/><line class="cls-5" x1="186.61" y1="140.23" x2="140.05" y2="159.74"/><line class="cls-7" x1="138.72" y1="160.29" x2="137.33" y2="160.87"/><line class="cls-7" x1="191.16" y1="136.05" x2="189.88" y2="135.26"/><line class="cls-5" x1="187.43" y1="133.75" x2="144.43" y2="107.31"/><line class="cls-7" x1="143.2" y1="106.56" x2="141.92" y2="105.77"/><line class="cls-7" x1="51.76" y1="125.01" x2="53.15" y2="124.44"/><line class="cls-5" x1="55.81" y1="123.32" x2="102.37" y2="103.82"/><line class="cls-7" x1="103.7" y1="103.26" x2="105.08" y2="102.68"/><line class="cls-7" x1="51.25" y1="127.51" x2="52.53" y2="128.29"/><line class="cls-5" x1="54.99" y1="129.8" x2="97.99" y2="156.24"/><line class="cls-7" x1="99.22" y1="157" x2="100.5" y2="157.78"/><rect class="cls-9" x="169.02" y="63.09" width="36.59" height="13.88" transform="translate(265.02 254.3) rotate(-133.37)"/><rect class="cls-9" x="172.09" y="70.91" width="13.88" height="13.88" transform="translate(245.37 261.47) rotate(-133.37)"/><rect class="cls-9" x="40.75" y="184.25" width="36.59" height="13.88" transform="translate(157.49 16.99) rotate(46.63)"/><rect class="cls-9" x="60.38" y="176.43" width="13.88" height="13.88" transform="translate(154.4 8.51) rotate(46.63)"/><line class="cls-7" x1="174.64" y1="83.74" x2="174.14" y2="85.15"/><line class="cls-5" x1="173.18" y1="87.87" x2="156.35" y2="135.46"/><line class="cls-7" x1="155.87" y1="136.82" x2="155.37" y2="138.24"/><line class="cls-7" x1="173.14" y1="81.69" x2="171.7" y2="82.11"/><line class="cls-5" x1="168.93" y1="82.91" x2="120.46" y2="97"/><line class="cls-7" x1="119.07" y1="97.4" x2="117.63" y2="97.82"/><line class="cls-7" x1="71.32" y1="177.53" x2="71.82" y2="176.12"/><line class="cls-5" x1="72.79" y1="173.4" x2="89.62" y2="125.81"/><line class="cls-7" x1="90.1" y1="124.45" x2="90.6" y2="123.03"/><line class="cls-7" x1="72.83" y1="179.58" x2="74.27" y2="179.16"/><line class="cls-5" x1="77.04" y1="178.36" x2="125.51" y2="164.27"/><line class="cls-7" x1="126.9" y1="163.87" x2="128.34" y2="163.45"/></g><g id="Layer_2-2"><path class="cls-6" d="m241.71,128.91c0,66.47-53.89,120.36-120.36,120.36S1,195.38,1,128.91C1,66.51,48.49,15.2,109.3,9.15"/><path class="cls-4" d="m121.36,8.55c-5.55,2.42-12.39,6.4-16.54,10.44l2.91-9.69-3.96-9.31c4.57,3.56,11.81,6.76,17.59,8.55Z"/></g></svg>